<?xml version="1.0" encoding="utf-8" standalone="no"?>
<!DOCTYPE svg PUBLIC "-//W3C//DTD SVG 1.1//EN"
  "http://www.w3.org/Graphics/SVG/1.1/DTD/svg11.dtd">
<!-- Created with matplotlib (https://matplotlib.org/) -->
<svg height="345.6pt" version="1.1" viewBox="0 0 460.8 345.6" width="460.8pt" xmlns="http://www.w3.org/2000/svg" xmlns:xlink="http://www.w3.org/1999/xlink">
 <defs>
  <style type="text/css">
*{stroke-linecap:butt;stroke-linejoin:round;}
  </style>
 </defs>
 <g id="figure_1">
  <g id="patch_1">
   <path d="M 0 345.6 
L 460.8 345.6 
L 460.8 0 
L 0 0 
z
" style="fill:#ffffff;"/>
  </g>
  <g id="axes_1">
   <g id="patch_2">
    <path d="M 56.09 129.976 
L 223.014847 129.976 
L 223.014847 25.44 
L 56.09 25.44 
z
" style="fill:#ffffff;"/>
   </g>
   <g id="matplotlib.axis_1">
    <g id="xtick_1">
     <g id="line2d_1">
      <path clip-path="url(#p547c4a3fbd)" d="M 56.09 129.976 
L 56.09 25.44 
" style="fill:none;stroke:#b0b0b0;stroke-linecap:square;stroke-width:0.8;"/>
     </g>
     <g id="line2d_2">
      <defs>
       <path d="M 0 0 
L 0 3.5 
" id="mfee9d2466d" style="stroke:#000000;stroke-width:0.8;"/>
      </defs>
      <g>
       <use style="stroke:#000000;stroke-width:0.8;" x="56.09" xlink:href="#mfee9d2466d" y="129.976"/>
      </g>
     </g>
     <g id="text_1">
      <!-- 0 -->
      <defs>
       <path d="M 31.78125 66.40625 
Q 24.171875 66.40625 20.328125 58.90625 
Q 16.5 51.421875 16.5 36.375 
Q 16.5 21.390625 20.328125 13.890625 
Q 24.171875 6.390625 31.78125 6.390625 
Q 39.453125 6.390625 43.28125 13.890625 
Q 47.125 21.390625 47.125 36.375 
Q 47.125 51.421875 43.28125 58.90625 
Q 39.453125 66.40625 31.78125 66.40625 
z
M 31.78125 74.21875 
Q 44.046875 74.21875 50.515625 64.515625 
Q 56.984375 54.828125 56.984375 36.375 
Q 56.984375 17.96875 50.515625 8.265625 
Q 44.046875 -1.421875 31.78125 -1.421875 
Q 19.53125 -1.421875 13.0625 8.265625 
Q 6.59375 17.96875 6.59375 36.375 
Q 6.59375 54.828125 13.0625 64.515625 
Q 19.53125 74.21875 31.78125 74.21875 
z
" id="DejaVuSans-48"/>
      </defs>
      <g transform="translate(52.90875 144.574437)scale(0.1 -0.1)">
       <use xlink:href="#DejaVuSans-48"/>
      </g>
     </g>
    </g>
    <g id="xtick_2">
     <g id="line2d_3">
      <path clip-path="url(#p547c4a3fbd)" d="M 89.541873 129.976 
L 89.541873 25.44 
" style="fill:none;stroke:#b0b0b0;stroke-linecap:square;stroke-width:0.8;"/>
     </g>
     <g id="line2d_4">
      <g>
       <use style="stroke:#000000;stroke-width:0.8;" x="89.541873" xlink:href="#mfee9d2466d" y="129.976"/>
      </g>
     </g>
     <g id="text_2">
      <!-- 100 -->
      <defs>
       <path d="M 12.40625 8.296875 
L 28.515625 8.296875 
L 28.515625 63.921875 
L 10.984375 60.40625 
L 10.984375 69.390625 
L 28.421875 72.90625 
L 38.28125 72.90625 
L 38.28125 8.296875 
L 54.390625 8.296875 
L 54.390625 0 
L 12.40625 0 
z
" id="DejaVuSans-49"/>
      </defs>
      <g transform="translate(79.998123 144.574437)scale(0.1 -0.1)">
       <use xlink:href="#DejaVuSans-49"/>
       <use x="63.623047" xlink:href="#DejaVuSans-48"/>
       <use x="127.246094" xlink:href="#DejaVuSans-48"/>
      </g>
     </g>
    </g>
    <g id="xtick_3">
     <g id="line2d_5">
      <path clip-path="url(#p547c4a3fbd)" d="M 122.993746 129.976 
L 122.993746 25.44 
" style="fill:none;stroke:#b0b0b0;stroke-linecap:square;stroke-width:0.8;"/>
     </g>
     <g id="line2d_6">
      <g>
       <use style="stroke:#000000;stroke-width:0.8;" x="122.993746" xlink:href="#mfee9d2466d" y="129.976"/>
      </g>
     </g>
     <g id="text_3">
      <!-- 200 -->
      <defs>
       <path d="M 19.1875 8.296875 
L 53.609375 8.296875 
L 53.609375 0 
L 7.328125 0 
L 7.328125 8.296875 
Q 12.9375 14.109375 22.625 23.890625 
Q 32.328125 33.6875 34.8125 36.53125 
Q 39.546875 41.84375 41.421875 45.53125 
Q 43.3125 49.21875 43.3125 52.78125 
Q 43.3125 58.59375 39.234375 62.25 
Q 35.15625 65.921875 28.609375 65.921875 
Q 23.96875 65.921875 18.8125 64.3125 
Q 13.671875 62.703125 7.8125 59.421875 
L 7.8125 69.390625 
Q 13.765625 71.78125 18.9375 73 
Q 24.125 74.21875 28.421875 74.21875 
Q 39.75 74.21875 46.484375 68.546875 
Q 53.21875 62.890625 53.21875 53.421875 
Q 53.21875 48.921875 51.53125 44.890625 
Q 49.859375 40.875 45.40625 35.40625 
Q 44.1875 33.984375 37.640625 27.21875 
Q 31.109375 20.453125 19.1875 8.296875 
z
" id="DejaVuSans-50"/>
      </defs>
      <g transform="translate(113.449996 144.574437)scale(0.1 -0.1)">
       <use xlink:href="#DejaVuSans-50"/>
       <use x="63.623047" xlink:href="#DejaVuSans-48"/>
       <use x="127.246094" xlink:href="#DejaVuSans-48"/>
      </g>
     </g>
    </g>
    <g id="xtick_4">
     <g id="line2d_7">
      <path clip-path="url(#p547c4a3fbd)" d="M 156.44562 129.976 
L 156.44562 25.44 
" style="fill:none;stroke:#b0b0b0;stroke-linecap:square;stroke-width:0.8;"/>
     </g>
     <g id="line2d_8">
      <g>
       <use style="stroke:#000000;stroke-width:0.8;" x="156.44562" xlink:href="#mfee9d2466d" y="129.976"/>
      </g>
     </g>
     <g id="text_4">
      <!-- 300 -->
      <defs>
       <path d="M 40.578125 39.3125 
Q 47.65625 37.796875 51.625 33 
Q 55.609375 28.21875 55.609375 21.1875 
Q 55.609375 10.40625 48.1875 4.484375 
Q 40.765625 -1.421875 27.09375 -1.421875 
Q 22.515625 -1.421875 17.65625 -0.515625 
Q 12.796875 0.390625 7.625 2.203125 
L 7.625 11.71875 
Q 11.71875 9.328125 16.59375 8.109375 
Q 21.484375 6.890625 26.8125 6.890625 
Q 36.078125 6.890625 40.9375 10.546875 
Q 45.796875 14.203125 45.796875 21.1875 
Q 45.796875 27.640625 41.28125 31.265625 
Q 36.765625 34.90625 28.71875 34.90625 
L 20.21875 34.90625 
L 20.21875 43.015625 
L 29.109375 43.015625 
Q 36.375 43.015625 40.234375 45.921875 
Q 44.09375 48.828125 44.09375 54.296875 
Q 44.09375 59.90625 40.109375 62.90625 
Q 36.140625 65.921875 28.71875 65.921875 
Q 24.65625 65.921875 20.015625 65.03125 
Q 15.375 64.15625 9.8125 62.3125 
L 9.8125 71.09375 
Q 15.4375 72.65625 20.34375 73.4375 
Q 25.25 74.21875 29.59375 74.21875 
Q 40.828125 74.21875 47.359375 69.109375 
Q 53.90625 64.015625 53.90625 55.328125 
Q 53.90625 49.265625 50.4375 45.09375 
Q 46.96875 40.921875 40.578125 39.3125 
z
" id="DejaVuSans-51"/>
      </defs>
      <g transform="translate(146.90187 144.574437)scale(0.1 -0.1)">
       <use xlink:href="#DejaVuSans-51"/>
       <use x="63.623047" xlink:href="#DejaVuSans-48"/>
       <use x="127.246094" xlink:href="#DejaVuSans-48"/>
      </g>
     </g>
    </g>
    <g id="xtick_5">
     <g id="line2d_9">
      <path clip-path="url(#p547c4a3fbd)" d="M 189.897493 129.976 
L 189.897493 25.44 
" style="fill:none;stroke:#b0b0b0;stroke-linecap:square;stroke-width:0.8;"/>
     </g>
     <g id="line2d_10">
      <g>
       <use style="stroke:#000000;stroke-width:0.8;" x="189.897493" xlink:href="#mfee9d2466d" y="129.976"/>
      </g>
     </g>
     <g id="text_5">
      <!-- 400 -->
      <defs>
       <path d="M 37.796875 64.3125 
L 12.890625 25.390625 
L 37.796875 25.390625 
z
M 35.203125 72.90625 
L 47.609375 72.90625 
L 47.609375 25.390625 
L 58.015625 25.390625 
L 58.015625 17.1875 
L 47.609375 17.1875 
L 47.609375 0 
L 37.796875 0 
L 37.796875 17.1875 
L 4.890625 17.1875 
L 4.890625 26.703125 
z
" id="DejaVuSans-52"/>
      </defs>
      <g transform="translate(180.353743 144.574437)scale(0.1 -0.1)">
       <use xlink:href="#DejaVuSans-52"/>
       <use x="63.623047" xlink:href="#DejaVuSans-48"/>
       <use x="127.246094" xlink:href="#DejaVuSans-48"/>
      </g>
     </g>
    </g>
    <g id="xtick_6">
     <g id="line2d_11">
      <path clip-path="url(#p547c4a3fbd)" d="M 223.349366 129.976 
L 223.349366 25.44 
" style="fill:none;stroke:#b0b0b0;stroke-linecap:square;stroke-width:0.8;"/>
     </g>
     <g id="line2d_12">
      <g>
       <use style="stroke:#000000;stroke-width:0.8;" x="223.349366" xlink:href="#mfee9d2466d" y="129.976"/>
      </g>
     </g>
     <g id="text_6">
      <!-- 500 -->
      <defs>
       <path d="M 10.796875 72.90625 
L 49.515625 72.90625 
L 49.515625 64.59375 
L 19.828125 64.59375 
L 19.828125 46.734375 
Q 21.96875 47.46875 24.109375 47.828125 
Q 26.265625 48.1875 28.421875 48.1875 
Q 40.625 48.1875 47.75 41.5 
Q 54.890625 34.8125 54.890625 23.390625 
Q 54.890625 11.625 47.5625 5.09375 
Q 40.234375 -1.421875 26.90625 -1.421875 
Q 22.3125 -1.421875 17.546875 -0.640625 
Q 12.796875 0.140625 7.71875 1.703125 
L 7.71875 11.625 
Q 12.109375 9.234375 16.796875 8.0625 
Q 21.484375 6.890625 26.703125 6.890625 
Q 35.15625 6.890625 40.078125 11.328125 
Q 45.015625 15.765625 45.015625 23.390625 
Q 45.015625 31 40.078125 35.4375 
Q 35.15625 39.890625 26.703125 39.890625 
Q 22.75 39.890625 18.8125 39.015625 
Q 14.890625 38.140625 10.796875 36.28125 
z
" id="DejaVuSans-53"/>
      </defs>
      <g transform="translate(213.805616 144.574437)scale(0.1 -0.1)">
       <use xlink:href="#DejaVuSans-53"/>
       <use x="63.623047" xlink:href="#DejaVuSans-48"/>
       <use x="127.246094" xlink:href="#DejaVuSans-48"/>
      </g>
     </g>
    </g>
    <g id="text_7">
     <!-- Tiempo (t) -->
     <defs>
      <path d="M -0.296875 72.90625 
L 61.375 72.90625 
L 61.375 64.59375 
L 35.5 64.59375 
L 35.5 0 
L 25.59375 0 
L 25.59375 64.59375 
L -0.296875 64.59375 
z
" id="DejaVuSans-84"/>
      <path d="M 9.421875 54.6875 
L 18.40625 54.6875 
L 18.40625 0 
L 9.421875 0 
z
M 9.421875 75.984375 
L 18.40625 75.984375 
L 18.40625 64.59375 
L 9.421875 64.59375 
z
" id="DejaVuSans-105"/>
      <path d="M 56.203125 29.59375 
L 56.203125 25.203125 
L 14.890625 25.203125 
Q 15.484375 15.921875 20.484375 11.0625 
Q 25.484375 6.203125 34.421875 6.203125 
Q 39.59375 6.203125 44.453125 7.46875 
Q 49.3125 8.734375 54.109375 11.28125 
L 54.109375 2.78125 
Q 49.265625 0.734375 44.1875 -0.34375 
Q 39.109375 -1.421875 33.890625 -1.421875 
Q 20.796875 -1.421875 13.15625 6.1875 
Q 5.515625 13.8125 5.515625 26.8125 
Q 5.515625 40.234375 12.765625 48.109375 
Q 20.015625 56 32.328125 56 
Q 43.359375 56 49.78125 48.890625 
Q 56.203125 41.796875 56.203125 29.59375 
z
M 47.21875 32.234375 
Q 47.125 39.59375 43.09375 43.984375 
Q 39.0625 48.390625 32.421875 48.390625 
Q 24.90625 48.390625 20.390625 44.140625 
Q 15.875 39.890625 15.1875 32.171875 
z
" id="DejaVuSans-101"/>
      <path d="M 52 44.1875 
Q 55.375 50.25 60.0625 53.125 
Q 64.75 56 71.09375 56 
Q 79.640625 56 84.28125 50.015625 
Q 88.921875 44.046875 88.921875 33.015625 
L 88.921875 0 
L 79.890625 0 
L 79.890625 32.71875 
Q 79.890625 40.578125 77.09375 44.375 
Q 74.3125 48.1875 68.609375 48.1875 
Q 61.625 48.1875 57.5625 43.546875 
Q 53.515625 38.921875 53.515625 30.90625 
L 53.515625 0 
L 44.484375 0 
L 44.484375 32.71875 
Q 44.484375 40.625 41.703125 44.40625 
Q 38.921875 48.1875 33.109375 48.1875 
Q 26.21875 48.1875 22.15625 43.53125 
Q 18.109375 38.875 18.109375 30.90625 
L 18.109375 0 
L 9.078125 0 
L 9.078125 54.6875 
L 18.109375 54.6875 
L 18.109375 46.1875 
Q 21.1875 51.21875 25.484375 53.609375 
Q 29.78125 56 35.6875 56 
Q 41.65625 56 45.828125 52.96875 
Q 50 49.953125 52 44.1875 
z
" id="DejaVuSans-109"/>
      <path d="M 18.109375 8.203125 
L 18.109375 -20.796875 
L 9.078125 -20.796875 
L 9.078125 54.6875 
L 18.109375 54.6875 
L 18.109375 46.390625 
Q 20.953125 51.265625 25.265625 53.625 
Q 29.59375 56 35.59375 56 
Q 45.5625 56 51.78125 48.09375 
Q 58.015625 40.1875 58.015625 27.296875 
Q 58.015625 14.40625 51.78125 6.484375 
Q 45.5625 -1.421875 35.59375 -1.421875 
Q 29.59375 -1.421875 25.265625 0.953125 
Q 20.953125 3.328125 18.109375 8.203125 
z
M 48.6875 27.296875 
Q 48.6875 37.203125 44.609375 42.84375 
Q 40.53125 48.484375 33.40625 48.484375 
Q 26.265625 48.484375 22.1875 42.84375 
Q 18.109375 37.203125 18.109375 27.296875 
Q 18.109375 17.390625 22.1875 11.75 
Q 26.265625 6.109375 33.40625 6.109375 
Q 40.53125 6.109375 44.609375 11.75 
Q 48.6875 17.390625 48.6875 27.296875 
z
" id="DejaVuSans-112"/>
      <path d="M 30.609375 48.390625 
Q 23.390625 48.390625 19.1875 42.75 
Q 14.984375 37.109375 14.984375 27.296875 
Q 14.984375 17.484375 19.15625 11.84375 
Q 23.34375 6.203125 30.609375 6.203125 
Q 37.796875 6.203125 41.984375 11.859375 
Q 46.1875 17.53125 46.1875 27.296875 
Q 46.1875 37.015625 41.984375 42.703125 
Q 37.796875 48.390625 30.609375 48.390625 
z
M 30.609375 56 
Q 42.328125 56 49.015625 48.375 
Q 55.71875 40.765625 55.71875 27.296875 
Q 55.71875 13.875 49.015625 6.21875 
Q 42.328125 -1.421875 30.609375 -1.421875 
Q 18.84375 -1.421875 12.171875 6.21875 
Q 5.515625 13.875 5.515625 27.296875 
Q 5.515625 40.765625 12.171875 48.375 
Q 18.84375 56 30.609375 56 
z
" id="DejaVuSans-111"/>
      <path id="DejaVuSans-32"/>
      <path d="M 31 75.875 
Q 24.46875 64.65625 21.28125 53.65625 
Q 18.109375 42.671875 18.109375 31.390625 
Q 18.109375 20.125 21.3125 9.0625 
Q 24.515625 -2 31 -13.1875 
L 23.1875 -13.1875 
Q 15.875 -1.703125 12.234375 9.375 
Q 8.59375 20.453125 8.59375 31.390625 
Q 8.59375 42.28125 12.203125 53.3125 
Q 15.828125 64.359375 23.1875 75.875 
z
" id="DejaVuSans-40"/>
      <path d="M 18.3125 70.21875 
L 18.3125 54.6875 
L 36.8125 54.6875 
L 36.8125 47.703125 
L 18.3125 47.703125 
L 18.3125 18.015625 
Q 18.3125 11.328125 20.140625 9.421875 
Q 21.96875 7.515625 27.59375 7.515625 
L 36.8125 7.515625 
L 36.8125 0 
L 27.59375 0 
Q 17.1875 0 13.234375 3.875 
Q 9.28125 7.765625 9.28125 18.015625 
L 9.28125 47.703125 
L 2.6875 47.703125 
L 2.6875 54.6875 
L 9.28125 54.6875 
L 9.28125 70.21875 
z
" id="DejaVuSans-116"/>
      <path d="M 8.015625 75.875 
L 15.828125 75.875 
Q 23.140625 64.359375 26.78125 53.3125 
Q 30.421875 42.28125 30.421875 31.390625 
Q 30.421875 20.453125 26.78125 9.375 
Q 23.140625 -1.703125 15.828125 -13.1875 
L 8.015625 -13.1875 
Q 14.5 -2 17.703125 9.0625 
Q 20.90625 20.125 20.90625 31.390625 
Q 20.90625 42.671875 17.703125 53.65625 
Q 14.5 64.65625 8.015625 75.875 
z
" id="DejaVuSans-41"/>
     </defs>
     <g transform="translate(113.480549 158.252562)scale(0.1 -0.1)">
      <use xlink:href="#DejaVuSans-84"/>
      <use x="61.037109" xlink:href="#DejaVuSans-105"/>
      <use x="88.820312" xlink:href="#DejaVuSans-101"/>
      <use x="150.34375" xlink:href="#DejaVuSans-109"/>
      <use x="247.755859" xlink:href="#DejaVuSans-112"/>
      <use x="311.232422" xlink:href="#DejaVuSans-111"/>
      <use x="372.414062" xlink:href="#DejaVuSans-32"/>
      <use x="404.201172" xlink:href="#DejaVuSans-40"/>
      <use x="443.214844" xlink:href="#DejaVuSans-116"/>
      <use x="482.423828" xlink:href="#DejaVuSans-41"/>
     </g>
    </g>
   </g>
   <g id="matplotlib.axis_2">
    <g id="ytick_1">
     <g id="line2d_13">
      <path clip-path="url(#p547c4a3fbd)" d="M 56.09 121.264882 
L 223.014847 121.264882 
" style="fill:none;stroke:#b0b0b0;stroke-linecap:square;stroke-width:0.8;"/>
     </g>
     <g id="line2d_14">
      <defs>
       <path d="M 0 0 
L -3.5 0 
" id="mb3fc096ab1" style="stroke:#000000;stroke-width:0.8;"/>
      </defs>
      <g>
       <use style="stroke:#000000;stroke-width:0.8;" x="56.09" xlink:href="#mb3fc096ab1" y="121.264882"/>
      </g>
     </g>
     <g id="text_8">
      <!-- −1.0 -->
      <defs>
       <path d="M 10.59375 35.5 
L 73.1875 35.5 
L 73.1875 27.203125 
L 10.59375 27.203125 
z
" id="DejaVuSans-8722"/>
       <path d="M 10.6875 12.40625 
L 21 12.40625 
L 21 0 
L 10.6875 0 
z
" id="DejaVuSans-46"/>
      </defs>
      <g transform="translate(24.807188 125.064101)scale(0.1 -0.1)">
       <use xlink:href="#DejaVuSans-8722"/>
       <use x="83.789062" xlink:href="#DejaVuSans-49"/>
       <use x="147.412109" xlink:href="#DejaVuSans-46"/>
       <use x="179.199219" xlink:href="#DejaVuSans-48"/>
      </g>
     </g>
    </g>
    <g id="ytick_2">
     <g id="line2d_15">
      <path clip-path="url(#p547c4a3fbd)" d="M 56.09 99.486441 
L 223.014847 99.486441 
" style="fill:none;stroke:#b0b0b0;stroke-linecap:square;stroke-width:0.8;"/>
     </g>
     <g id="line2d_16">
      <g>
       <use style="stroke:#000000;stroke-width:0.8;" x="56.09" xlink:href="#mb3fc096ab1" y="99.486441"/>
      </g>
     </g>
     <g id="text_9">
      <!-- −0.5 -->
      <g transform="translate(24.807188 103.28566)scale(0.1 -0.1)">
       <use xlink:href="#DejaVuSans-8722"/>
       <use x="83.789062" xlink:href="#DejaVuSans-48"/>
       <use x="147.412109" xlink:href="#DejaVuSans-46"/>
       <use x="179.199219" xlink:href="#DejaVuSans-53"/>
      </g>
     </g>
    </g>
    <g id="ytick_3">
     <g id="line2d_17">
      <path clip-path="url(#p547c4a3fbd)" d="M 56.09 77.708 
L 223.014847 77.708 
" style="fill:none;stroke:#b0b0b0;stroke-linecap:square;stroke-width:0.8;"/>
     </g>
     <g id="line2d_18">
      <g>
       <use style="stroke:#000000;stroke-width:0.8;" x="56.09" xlink:href="#mb3fc096ab1" y="77.708"/>
      </g>
     </g>
     <g id="text_10">
      <!-- 0.0 -->
      <g transform="translate(33.186875 81.507219)scale(0.1 -0.1)">
       <use xlink:href="#DejaVuSans-48"/>
       <use x="63.623047" xlink:href="#DejaVuSans-46"/>
       <use x="95.410156" xlink:href="#DejaVuSans-48"/>
      </g>
     </g>
    </g>
    <g id="ytick_4">
     <g id="line2d_19">
      <path clip-path="url(#p547c4a3fbd)" d="M 56.09 55.929559 
L 223.014847 55.929559 
" style="fill:none;stroke:#b0b0b0;stroke-linecap:square;stroke-width:0.8;"/>
     </g>
     <g id="line2d_20">
      <g>
       <use style="stroke:#000000;stroke-width:0.8;" x="56.09" xlink:href="#mb3fc096ab1" y="55.929559"/>
      </g>
     </g>
     <g id="text_11">
      <!-- 0.5 -->
      <g transform="translate(33.186875 59.728778)scale(0.1 -0.1)">
       <use xlink:href="#DejaVuSans-48"/>
       <use x="63.623047" xlink:href="#DejaVuSans-46"/>
       <use x="95.410156" xlink:href="#DejaVuSans-53"/>
      </g>
     </g>
    </g>
    <g id="ytick_5">
     <g id="line2d_21">
      <path clip-path="url(#p547c4a3fbd)" d="M 56.09 34.151118 
L 223.014847 34.151118 
" style="fill:none;stroke:#b0b0b0;stroke-linecap:square;stroke-width:0.8;"/>
     </g>
     <g id="line2d_22">
      <g>
       <use style="stroke:#000000;stroke-width:0.8;" x="56.09" xlink:href="#mb3fc096ab1" y="34.151118"/>
      </g>
     </g>
     <g id="text_12">
      <!-- 1.0 -->
      <g transform="translate(33.186875 37.950336)scale(0.1 -0.1)">
       <use xlink:href="#DejaVuSans-49"/>
       <use x="63.623047" xlink:href="#DejaVuSans-46"/>
       <use x="95.410156" xlink:href="#DejaVuSans-48"/>
      </g>
     </g>
    </g>
    <g id="text_13">
     <!-- Valor -->
     <defs>
      <path d="M 28.609375 0 
L 0.78125 72.90625 
L 11.078125 72.90625 
L 34.1875 11.53125 
L 57.328125 72.90625 
L 67.578125 72.90625 
L 39.796875 0 
z
" id="DejaVuSans-86"/>
      <path d="M 34.28125 27.484375 
Q 23.390625 27.484375 19.1875 25 
Q 14.984375 22.515625 14.984375 16.5 
Q 14.984375 11.71875 18.140625 8.90625 
Q 21.296875 6.109375 26.703125 6.109375 
Q 34.1875 6.109375 38.703125 11.40625 
Q 43.21875 16.703125 43.21875 25.484375 
L 43.21875 27.484375 
z
M 52.203125 31.203125 
L 52.203125 0 
L 43.21875 0 
L 43.21875 8.296875 
Q 40.140625 3.328125 35.546875 0.953125 
Q 30.953125 -1.421875 24.3125 -1.421875 
Q 15.921875 -1.421875 10.953125 3.296875 
Q 6 8.015625 6 15.921875 
Q 6 25.140625 12.171875 29.828125 
Q 18.359375 34.515625 30.609375 34.515625 
L 43.21875 34.515625 
L 43.21875 35.40625 
Q 43.21875 41.609375 39.140625 45 
Q 35.0625 48.390625 27.6875 48.390625 
Q 23 48.390625 18.546875 47.265625 
Q 14.109375 46.140625 10.015625 43.890625 
L 10.015625 52.203125 
Q 14.9375 54.109375 19.578125 55.046875 
Q 24.21875 56 28.609375 56 
Q 40.484375 56 46.34375 49.84375 
Q 52.203125 43.703125 52.203125 31.203125 
z
" id="DejaVuSans-97"/>
      <path d="M 9.421875 75.984375 
L 18.40625 75.984375 
L 18.40625 0 
L 9.421875 0 
z
" id="DejaVuSans-108"/>
      <path d="M 41.109375 46.296875 
Q 39.59375 47.171875 37.8125 47.578125 
Q 36.03125 48 33.890625 48 
Q 26.265625 48 22.1875 43.046875 
Q 18.109375 38.09375 18.109375 28.8125 
L 18.109375 0 
L 9.078125 0 
L 9.078125 54.6875 
L 18.109375 54.6875 
L 18.109375 46.1875 
Q 20.953125 51.171875 25.484375 53.578125 
Q 30.03125 56 36.53125 56 
Q 37.453125 56 38.578125 55.875 
Q 39.703125 55.765625 41.0625 55.515625 
z
" id="DejaVuSans-114"/>
     </defs>
     <g transform="translate(18.7275 90.690813)rotate(-90)scale(0.1 -0.1)">
      <use xlink:href="#DejaVuSans-86"/>
      <use x="68.298828" xlink:href="#DejaVuSans-97"/>
      <use x="129.578125" xlink:href="#DejaVuSans-108"/>
      <use x="157.361328" xlink:href="#DejaVuSans-111"/>
      <use x="218.542969" xlink:href="#DejaVuSans-114"/>
     </g>
    </g>
   </g>
   <g id="line2d_23">
    <path clip-path="url(#p547c4a3fbd)" d="M 56.09 77.708 
L 58.76615 56.685874 
L 60.104225 47.84332 
L 61.107781 42.421449 
L 62.111337 38.254622 
L 62.780375 36.249178 
L 63.449412 34.900185 
L 64.11845 34.229001 
L 64.452968 34.151333 
L 64.787487 34.246254 
L 65.122006 34.513386 
L 65.791043 35.559372 
L 66.460081 37.272731 
L 67.129118 39.626334 
L 68.132674 44.273044 
L 69.136231 50.108941 
L 70.474305 59.37604 
L 72.481418 75.241301 
L 75.157568 96.536002 
L 76.495643 105.729158 
L 77.499199 111.491803 
L 78.502755 116.052852 
L 79.171793 118.343944 
L 79.84083 119.991615 
L 80.509867 120.969777 
L 80.844386 121.202529 
L 81.178905 121.26294 
L 81.513424 121.15077 
L 81.847942 120.866464 
L 82.51698 119.786626 
L 83.186017 118.040525 
L 83.855055 115.655806 
L 84.858611 110.966542 
L 85.862167 105.094364 
L 87.200242 95.790844 
L 89.207354 79.900868 
L 91.883504 58.633092 
L 93.221579 49.477454 
L 94.225135 43.751779 
L 95.228692 39.233832 
L 95.897729 36.974132 
L 96.566767 35.359404 
L 97.235804 34.415214 
L 97.570323 34.199665 
L 97.904842 34.156513 
L 98.23936 34.285927 
L 98.573879 34.587396 
L 99.242916 35.701043 
L 99.911954 37.479818 
L 100.580991 39.895558 
L 101.584548 44.627191 
L 102.588104 50.535417 
L 103.926179 59.874989 
L 105.933291 75.78905 
L 108.609441 97.029059 
L 109.947516 106.146815 
L 110.951072 111.835293 
L 111.954628 116.309959 
L 112.623666 118.538177 
L 113.292703 120.119899 
L 113.961741 121.03008 
L 114.296259 121.228416 
L 114.630778 121.254308 
L 114.965297 121.107654 
L 115.299816 120.789034 
L 115.968853 119.641623 
L 116.637891 117.830245 
L 117.306928 115.38358 
L 118.310484 110.609765 
L 119.31404 104.665726 
L 120.652115 95.290472 
L 122.659228 79.352955 
L 125.335378 58.141557 
L 126.673453 49.062043 
L 127.677009 43.410987 
L 128.680565 38.97978 
L 129.349602 36.783132 
L 130.01864 35.234479 
L 130.687677 34.358343 
L 131.022196 34.177228 
L 131.356715 34.168597 
L 131.691234 34.332485 
L 132.025752 34.668244 
L 132.69479 35.849373 
L 133.363827 37.693282 
L 134.032865 40.170776 
L 135.036421 44.986584 
L 136.039977 50.9662 
L 137.378052 60.376765 
L 139.385164 76.337104 
L 142.061314 97.519052 
L 143.399389 106.559964 
L 144.402945 112.173373 
L 145.406502 116.560946 
L 146.075539 118.725937 
L 146.744576 120.241459 
L 147.413614 121.083515 
L 147.748133 121.247403 
L 148.082651 121.238772 
L 148.41717 121.057657 
L 148.751689 120.704773 
L 149.420726 119.489972 
L 150.089764 117.613604 
L 150.758801 115.10538 
L 151.762357 110.247771 
L 152.765914 104.232814 
L 154.103989 94.787312 
L 156.44562 76.063045 
L 158.787251 57.653124 
L 160.125326 48.651174 
L 161.128882 43.075633 
L 162.132438 38.731869 
L 162.801476 36.59862 
L 163.470513 35.116289 
L 164.139551 34.308346 
L 164.474069 34.161692 
L 164.808588 34.187584 
L 165.143107 34.38592 
L 165.477625 34.755914 
L 166.146663 36.004339 
L 166.8157 37.913091 
L 167.484738 40.451947 
L 168.488294 45.351164 
L 169.49185 51.401223 
L 170.829925 60.881288 
L 173.171556 79.62695 
L 175.513187 98.005905 
L 176.851262 106.968538 
L 177.854819 112.505988 
L 178.858375 116.805772 
L 179.527412 118.907193 
L 180.19645 120.356275 
L 180.865487 121.130073 
L 181.200006 121.259487 
L 181.534525 121.216335 
L 181.869043 121.000786 
L 182.203562 120.613695 
L 182.8726 119.331696 
L 183.541637 117.390637 
L 184.210674 114.821251 
L 185.214231 109.880619 
L 186.217787 103.795697 
L 187.555862 94.281445 
L 189.897493 75.515132 
L 192.239124 57.16787 
L 193.577199 48.244911 
L 194.580755 42.745769 
L 195.584311 38.490137 
L 196.253349 36.420626 
L 196.922386 35.004852 
L 197.591424 34.26523 
L 197.925942 34.15306 
L 198.260461 34.213471 
L 198.59498 34.446223 
L 199.264017 35.424385 
L 199.933055 37.072056 
L 200.602092 39.363148 
L 201.605649 43.924197 
L 202.609205 49.686842 
L 203.94728 58.879998 
L 205.954392 74.693942 
L 208.965061 98.48954 
L 210.303136 107.372472 
L 211.306692 112.833087 
L 212.310248 117.0444 
L 212.979285 119.081917 
L 213.648323 120.464329 
L 214.31736 121.169746 
L 214.651879 121.264667 
L 214.986398 121.186999 
L 215.320917 120.937052 
L 215.989954 119.924958 
L 216.658992 118.24441 
L 217.328029 115.922017 
L 218.331585 111.318046 
L 219.335141 105.51866 
L 220.673216 96.288349 
L 222.680329 80.448433 
L 223.014847 77.708 
L 223.014847 77.708 
" style="fill:none;stroke:#1f77b4;stroke-linecap:square;stroke-width:1.5;"/>
   </g>
   <g id="line2d_24">
    <path clip-path="url(#p547c4a3fbd)" d="M 56.09 77.708 
L 58.76615 56.685874 
L 60.104225 47.84332 
L 61.107781 42.421449 
L 62.111337 38.254622 
L 62.780375 36.249178 
L 63.449412 34.900185 
L 64.11845 34.229001 
L 64.452968 34.151333 
L 64.787487 34.246254 
L 65.122006 34.513386 
L 65.791043 35.559372 
L 66.460081 37.272731 
L 67.129118 39.626334 
L 68.132674 44.273044 
L 69.136231 50.108941 
L 70.474305 59.37604 
L 72.481418 75.241301 
L 75.157568 96.536002 
L 76.495643 105.729158 
L 77.499199 111.491803 
L 78.502755 116.052852 
L 79.171793 118.343944 
L 79.84083 119.991615 
L 80.509867 120.969777 
L 80.844386 121.202529 
L 81.178905 121.26294 
L 81.513424 121.15077 
L 81.847942 120.866464 
L 82.51698 119.786626 
L 83.186017 118.040525 
L 83.855055 115.655806 
L 84.858611 110.966542 
L 85.862167 105.094364 
L 87.200242 95.790844 
L 89.207354 79.900868 
L 91.883504 58.633092 
L 93.221579 49.477454 
L 94.225135 43.751779 
L 95.228692 39.233832 
L 95.897729 36.974132 
L 96.566767 35.359404 
L 97.235804 34.415214 
L 97.570323 34.199665 
L 97.904842 34.156513 
L 98.23936 34.285927 
L 98.573879 34.587396 
L 99.242916 35.701043 
L 99.911954 37.479818 
L 100.580991 39.895558 
L 101.584548 44.627191 
L 102.588104 50.535417 
L 103.926179 59.874989 
L 105.933291 75.78905 
L 108.609441 97.029059 
L 109.947516 106.146815 
L 110.951072 111.835293 
L 111.954628 116.309959 
L 112.623666 118.538177 
L 113.292703 120.119899 
L 113.961741 121.03008 
L 114.296259 121.228416 
L 114.630778 121.254308 
L 114.965297 121.107654 
L 115.299816 120.789034 
L 115.968853 119.641623 
L 116.637891 117.830245 
L 117.306928 115.38358 
L 118.310484 110.609765 
L 119.31404 104.665726 
L 120.652115 95.290472 
L 122.659228 79.352955 
L 125.335378 58.141557 
L 126.673453 49.062043 
L 127.677009 43.410987 
L 128.680565 38.97978 
L 129.349602 36.783132 
L 130.01864 35.234479 
L 130.687677 34.358343 
L 131.022196 34.177228 
L 131.356715 34.168597 
L 131.691234 34.332485 
L 132.025752 34.668244 
L 132.69479 35.849373 
L 133.363827 37.693282 
L 134.032865 40.170776 
L 135.036421 44.986584 
L 136.039977 50.9662 
L 137.378052 60.376765 
L 139.385164 76.337104 
L 142.061314 97.519052 
L 143.399389 106.559964 
L 144.402945 112.173373 
L 145.406502 116.560946 
L 146.075539 118.725937 
L 146.744576 120.241459 
L 147.413614 121.083515 
L 147.748133 121.247403 
L 148.082651 121.238772 
L 148.41717 121.057657 
L 148.751689 120.704773 
L 149.420726 119.489972 
L 150.089764 117.613604 
L 150.758801 115.10538 
L 151.762357 110.247771 
L 152.765914 104.232814 
L 154.103989 94.787312 
L 156.44562 76.063045 
L 158.787251 57.653124 
L 160.125326 48.651174 
L 161.128882 43.075633 
L 162.132438 38.731869 
L 162.801476 36.59862 
L 163.470513 35.116289 
L 164.139551 34.308346 
L 164.474069 34.161692 
L 164.808588 34.187584 
L 165.143107 34.38592 
L 165.477625 34.755914 
L 166.146663 36.004339 
L 166.8157 37.913091 
L 167.484738 40.451947 
L 168.488294 45.351164 
L 169.49185 51.401223 
L 170.829925 60.881288 
L 173.171556 79.62695 
L 175.513187 98.005905 
L 176.851262 106.968538 
L 177.854819 112.505988 
L 178.858375 116.805772 
L 179.527412 118.907193 
L 180.19645 120.356275 
L 180.865487 121.130073 
L 181.200006 121.259487 
L 181.534525 121.216335 
L 181.869043 121.000786 
L 182.203562 120.613695 
L 182.8726 119.331696 
L 183.541637 117.390637 
L 184.210674 114.821251 
L 185.214231 109.880619 
L 186.217787 103.795697 
L 187.555862 94.281445 
L 189.897493 75.515132 
L 192.239124 57.16787 
L 193.577199 48.244911 
L 194.580755 42.745769 
L 195.584311 38.490137 
L 196.253349 36.420626 
L 196.922386 35.004852 
L 197.591424 34.26523 
L 197.925942 34.15306 
L 198.260461 34.213471 
L 198.59498 34.446223 
L 199.264017 35.424385 
L 199.933055 37.072056 
L 200.602092 39.363148 
L 201.605649 43.924197 
L 202.609205 49.686842 
L 203.94728 58.879998 
L 205.954392 74.693942 
L 208.965061 98.48954 
L 210.303136 107.372472 
L 211.306692 112.833087 
L 212.310248 117.0444 
L 212.979285 119.081917 
L 213.648323 120.464329 
L 214.31736 121.169746 
L 214.651879 121.264667 
L 214.986398 121.186999 
L 215.320917 120.937052 
L 215.989954 119.924958 
L 216.658992 118.24441 
L 217.328029 115.922017 
L 218.331585 111.318046 
L 219.335141 105.51866 
L 220.673216 96.288349 
L 222.680329 80.448433 
L 223.014847 77.708 
L 223.014847 77.708 
" style="fill:none;stroke:#ff7f0e;stroke-linecap:square;stroke-width:1.5;"/>
   </g>
   <g id="patch_3">
    <path d="M 56.09 129.976 
L 56.09 25.44 
" style="fill:none;stroke:#000000;stroke-linecap:square;stroke-linejoin:miter;stroke-width:0.8;"/>
   </g>
   <g id="patch_4">
    <path d="M 223.014847 129.976 
L 223.014847 25.44 
" style="fill:none;stroke:#000000;stroke-linecap:square;stroke-linejoin:miter;stroke-width:0.8;"/>
   </g>
   <g id="patch_5">
    <path d="M 56.09 129.976 
L 223.014847 129.976 
" style="fill:none;stroke:#000000;stroke-linecap:square;stroke-linejoin:miter;stroke-width:0.8;"/>
   </g>
   <g id="patch_6">
    <path d="M 56.09 25.44 
L 223.014847 25.44 
" style="fill:none;stroke:#000000;stroke-linecap:square;stroke-linejoin:miter;stroke-width:0.8;"/>
   </g>
   <g id="text_14">
    <!-- Entrada -->
    <defs>
     <path d="M 9.8125 72.90625 
L 55.90625 72.90625 
L 55.90625 64.59375 
L 19.671875 64.59375 
L 19.671875 43.015625 
L 54.390625 43.015625 
L 54.390625 34.71875 
L 19.671875 34.71875 
L 19.671875 8.296875 
L 56.78125 8.296875 
L 56.78125 0 
L 9.8125 0 
z
" id="DejaVuSans-69"/>
     <path d="M 54.890625 33.015625 
L 54.890625 0 
L 45.90625 0 
L 45.90625 32.71875 
Q 45.90625 40.484375 42.875 44.328125 
Q 39.84375 48.1875 33.796875 48.1875 
Q 26.515625 48.1875 22.3125 43.546875 
Q 18.109375 38.921875 18.109375 30.90625 
L 18.109375 0 
L 9.078125 0 
L 9.078125 54.6875 
L 18.109375 54.6875 
L 18.109375 46.1875 
Q 21.34375 51.125 25.703125 53.5625 
Q 30.078125 56 35.796875 56 
Q 45.21875 56 50.046875 50.171875 
Q 54.890625 44.34375 54.890625 33.015625 
z
" id="DejaVuSans-110"/>
     <path d="M 45.40625 46.390625 
L 45.40625 75.984375 
L 54.390625 75.984375 
L 54.390625 0 
L 45.40625 0 
L 45.40625 8.203125 
Q 42.578125 3.328125 38.25 0.953125 
Q 33.9375 -1.421875 27.875 -1.421875 
Q 17.96875 -1.421875 11.734375 6.484375 
Q 5.515625 14.40625 5.515625 27.296875 
Q 5.515625 40.1875 11.734375 48.09375 
Q 17.96875 56 27.875 56 
Q 33.9375 56 38.25 53.625 
Q 42.578125 51.265625 45.40625 46.390625 
z
M 14.796875 27.296875 
Q 14.796875 17.390625 18.875 11.75 
Q 22.953125 6.109375 30.078125 6.109375 
Q 37.203125 6.109375 41.296875 11.75 
Q 45.40625 17.390625 45.40625 27.296875 
Q 45.40625 37.203125 41.296875 42.84375 
Q 37.203125 48.484375 30.078125 48.484375 
Q 22.953125 48.484375 18.875 42.84375 
Q 14.796875 37.203125 14.796875 27.296875 
z
" id="DejaVuSans-100"/>
    </defs>
    <g transform="translate(115.977111 19.44)scale(0.12 -0.12)">
     <use xlink:href="#DejaVuSans-69"/>
     <use x="63.183594" xlink:href="#DejaVuSans-110"/>
     <use x="126.5625" xlink:href="#DejaVuSans-116"/>
     <use x="165.771484" xlink:href="#DejaVuSans-114"/>
     <use x="206.884766" xlink:href="#DejaVuSans-97"/>
     <use x="268.164062" xlink:href="#DejaVuSans-100"/>
     <use x="331.640625" xlink:href="#DejaVuSans-97"/>
    </g>
   </g>
  </g>
  <g id="axes_2">
   <g id="patch_7">
    <path d="M 280.555153 129.976 
L 447.48 129.976 
L 447.48 25.44 
L 280.555153 25.44 
z
" style="fill:#ffffff;"/>
   </g>
   <g id="matplotlib.axis_3">
    <g id="xtick_7">
     <g id="line2d_25">
      <path clip-path="url(#p42fe1efce6)" d="M 280.555153 129.976 
L 280.555153 25.44 
" style="fill:none;stroke:#b0b0b0;stroke-linecap:square;stroke-width:0.8;"/>
     </g>
     <g id="line2d_26">
      <g>
       <use style="stroke:#000000;stroke-width:0.8;" x="280.555153" xlink:href="#mfee9d2466d" y="129.976"/>
      </g>
     </g>
     <g id="text_15">
      <!-- 0 -->
      <g transform="translate(277.373903 144.574437)scale(0.1 -0.1)">
       <use xlink:href="#DejaVuSans-48"/>
      </g>
     </g>
    </g>
    <g id="xtick_8">
     <g id="line2d_27">
      <path clip-path="url(#p42fe1efce6)" d="M 314.621448 129.976 
L 314.621448 25.44 
" style="fill:none;stroke:#b0b0b0;stroke-linecap:square;stroke-width:0.8;"/>
     </g>
     <g id="line2d_28">
      <g>
       <use style="stroke:#000000;stroke-width:0.8;" x="314.621448" xlink:href="#mfee9d2466d" y="129.976"/>
      </g>
     </g>
     <g id="text_16">
      <!-- 10 -->
      <g transform="translate(308.258948 144.574437)scale(0.1 -0.1)">
       <use xlink:href="#DejaVuSans-49"/>
       <use x="63.623047" xlink:href="#DejaVuSans-48"/>
      </g>
     </g>
    </g>
    <g id="xtick_9">
     <g id="line2d_29">
      <path clip-path="url(#p42fe1efce6)" d="M 348.687743 129.976 
L 348.687743 25.44 
" style="fill:none;stroke:#b0b0b0;stroke-linecap:square;stroke-width:0.8;"/>
     </g>
     <g id="line2d_30">
      <g>
       <use style="stroke:#000000;stroke-width:0.8;" x="348.687743" xlink:href="#mfee9d2466d" y="129.976"/>
      </g>
     </g>
     <g id="text_17">
      <!-- 20 -->
      <g transform="translate(342.325243 144.574437)scale(0.1 -0.1)">
       <use xlink:href="#DejaVuSans-50"/>
       <use x="63.623047" xlink:href="#DejaVuSans-48"/>
      </g>
     </g>
    </g>
    <g id="xtick_10">
     <g id="line2d_31">
      <path clip-path="url(#p42fe1efce6)" d="M 382.754039 129.976 
L 382.754039 25.44 
" style="fill:none;stroke:#b0b0b0;stroke-linecap:square;stroke-width:0.8;"/>
     </g>
     <g id="line2d_32">
      <g>
       <use style="stroke:#000000;stroke-width:0.8;" x="382.754039" xlink:href="#mfee9d2466d" y="129.976"/>
      </g>
     </g>
     <g id="text_18">
      <!-- 30 -->
      <g transform="translate(376.391539 144.574437)scale(0.1 -0.1)">
       <use xlink:href="#DejaVuSans-51"/>
       <use x="63.623047" xlink:href="#DejaVuSans-48"/>
      </g>
     </g>
    </g>
    <g id="xtick_11">
     <g id="line2d_33">
      <path clip-path="url(#p42fe1efce6)" d="M 416.820334 129.976 
L 416.820334 25.44 
" style="fill:none;stroke:#b0b0b0;stroke-linecap:square;stroke-width:0.8;"/>
     </g>
     <g id="line2d_34">
      <g>
       <use style="stroke:#000000;stroke-width:0.8;" x="416.820334" xlink:href="#mfee9d2466d" y="129.976"/>
      </g>
     </g>
     <g id="text_19">
      <!-- 40 -->
      <g transform="translate(410.457834 144.574437)scale(0.1 -0.1)">
       <use xlink:href="#DejaVuSans-52"/>
       <use x="63.623047" xlink:href="#DejaVuSans-48"/>
      </g>
     </g>
    </g>
    <g id="text_20">
     <!-- Tiempo (t) -->
     <g transform="translate(337.945701 158.252562)scale(0.1 -0.1)">
      <use xlink:href="#DejaVuSans-84"/>
      <use x="61.037109" xlink:href="#DejaVuSans-105"/>
      <use x="88.820312" xlink:href="#DejaVuSans-101"/>
      <use x="150.34375" xlink:href="#DejaVuSans-109"/>
      <use x="247.755859" xlink:href="#DejaVuSans-112"/>
      <use x="311.232422" xlink:href="#DejaVuSans-111"/>
      <use x="372.414062" xlink:href="#DejaVuSans-32"/>
      <use x="404.201172" xlink:href="#DejaVuSans-40"/>
      <use x="443.214844" xlink:href="#DejaVuSans-116"/>
      <use x="482.423828" xlink:href="#DejaVuSans-41"/>
     </g>
    </g>
   </g>
   <g id="matplotlib.axis_4">
    <g id="ytick_6">
     <g id="line2d_35">
      <path clip-path="url(#p42fe1efce6)" d="M 280.555153 107.12792 
L 447.48 107.12792 
" style="fill:none;stroke:#b0b0b0;stroke-linecap:square;stroke-width:0.8;"/>
     </g>
     <g id="line2d_36">
      <g>
       <use style="stroke:#000000;stroke-width:0.8;" x="280.555153" xlink:href="#mb3fc096ab1" y="107.12792"/>
      </g>
     </g>
     <g id="text_21">
      <!-- 0.25 -->
      <g transform="translate(251.289528 110.927139)scale(0.1 -0.1)">
       <use xlink:href="#DejaVuSans-48"/>
       <use x="63.623047" xlink:href="#DejaVuSans-46"/>
       <use x="95.410156" xlink:href="#DejaVuSans-50"/>
       <use x="159.033203" xlink:href="#DejaVuSans-53"/>
      </g>
     </g>
    </g>
    <g id="ytick_7">
     <g id="line2d_37">
      <path clip-path="url(#p42fe1efce6)" d="M 280.555153 82.802391 
L 447.48 82.802391 
" style="fill:none;stroke:#b0b0b0;stroke-linecap:square;stroke-width:0.8;"/>
     </g>
     <g id="line2d_38">
      <g>
       <use style="stroke:#000000;stroke-width:0.8;" x="280.555153" xlink:href="#mb3fc096ab1" y="82.802391"/>
      </g>
     </g>
     <g id="text_22">
      <!-- 0.50 -->
      <g transform="translate(251.289528 86.60161)scale(0.1 -0.1)">
       <use xlink:href="#DejaVuSans-48"/>
       <use x="63.623047" xlink:href="#DejaVuSans-46"/>
       <use x="95.410156" xlink:href="#DejaVuSans-53"/>
       <use x="159.033203" xlink:href="#DejaVuSans-48"/>
      </g>
     </g>
    </g>
    <g id="ytick_8">
     <g id="line2d_39">
      <path clip-path="url(#p42fe1efce6)" d="M 280.555153 58.476862 
L 447.48 58.476862 
" style="fill:none;stroke:#b0b0b0;stroke-linecap:square;stroke-width:0.8;"/>
     </g>
     <g id="line2d_40">
      <g>
       <use style="stroke:#000000;stroke-width:0.8;" x="280.555153" xlink:href="#mb3fc096ab1" y="58.476862"/>
      </g>
     </g>
     <g id="text_23">
      <!-- 0.75 -->
      <defs>
       <path d="M 8.203125 72.90625 
L 55.078125 72.90625 
L 55.078125 68.703125 
L 28.609375 0 
L 18.3125 0 
L 43.21875 64.59375 
L 8.203125 64.59375 
z
" id="DejaVuSans-55"/>
      </defs>
      <g transform="translate(251.289528 62.276081)scale(0.1 -0.1)">
       <use xlink:href="#DejaVuSans-48"/>
       <use x="63.623047" xlink:href="#DejaVuSans-46"/>
       <use x="95.410156" xlink:href="#DejaVuSans-55"/>
       <use x="159.033203" xlink:href="#DejaVuSans-53"/>
      </g>
     </g>
    </g>
    <g id="ytick_9">
     <g id="line2d_41">
      <path clip-path="url(#p42fe1efce6)" d="M 280.555153 34.151333 
L 447.48 34.151333 
" style="fill:none;stroke:#b0b0b0;stroke-linecap:square;stroke-width:0.8;"/>
     </g>
     <g id="line2d_42">
      <g>
       <use style="stroke:#000000;stroke-width:0.8;" x="280.555153" xlink:href="#mb3fc096ab1" y="34.151333"/>
      </g>
     </g>
     <g id="text_24">
      <!-- 1.00 -->
      <g transform="translate(251.289528 37.950552)scale(0.1 -0.1)">
       <use xlink:href="#DejaVuSans-49"/>
       <use x="63.623047" xlink:href="#DejaVuSans-46"/>
       <use x="95.410156" xlink:href="#DejaVuSans-48"/>
       <use x="159.033203" xlink:href="#DejaVuSans-48"/>
      </g>
     </g>
    </g>
    <g id="text_25">
     <!-- Valor -->
     <g transform="translate(245.20984 90.690813)rotate(-90)scale(0.1 -0.1)">
      <use xlink:href="#DejaVuSans-86"/>
      <use x="68.298828" xlink:href="#DejaVuSans-97"/>
      <use x="129.578125" xlink:href="#DejaVuSans-108"/>
      <use x="157.361328" xlink:href="#DejaVuSans-111"/>
      <use x="218.542969" xlink:href="#DejaVuSans-114"/>
     </g>
    </g>
   </g>
   <g id="line2d_43">
    <path clip-path="url(#p42fe1efce6)" d="M 280.555153 34.151333 
L 283.961782 38.53065 
L 287.368412 42.712865 
L 290.775041 46.706849 
L 294.181671 50.521074 
L 297.5883 54.163631 
L 300.99493 57.642246 
L 304.401559 60.964297 
L 307.808189 64.136832 
L 311.214818 67.166579 
L 314.621448 70.059964 
L 318.028078 72.823126 
L 321.434707 75.461926 
L 324.841337 77.981959 
L 328.247966 80.388573 
L 331.654596 82.686871 
L 335.061225 84.881728 
L 338.467855 86.977801 
L 341.874484 88.979535 
L 345.281114 90.891176 
L 348.687743 92.716779 
L 352.094373 94.460216 
L 355.501002 96.125186 
L 358.907632 97.71522 
L 362.314262 99.23369 
L 365.720891 100.683818 
L 369.127521 102.06868 
L 372.53415 103.391212 
L 375.94078 104.654221 
L 379.347409 105.860385 
L 382.754039 107.012263 
L 386.160668 108.112297 
L 389.567298 109.162822 
L 392.973927 110.166066 
L 396.380557 111.124156 
L 399.787186 112.039125 
L 403.193816 112.912913 
L 406.600446 113.747375 
L 410.007075 114.544279 
L 413.413705 115.305317 
L 416.820334 116.032103 
L 420.226964 116.726178 
L 423.633593 117.389014 
L 427.040223 118.022018 
L 430.446852 118.626532 
L 433.853482 119.203838 
L 437.260111 119.755162 
L 440.666741 120.281671 
L 444.07337 120.784484 
L 447.48 121.264667 
" style="fill:none;stroke:#1f77b4;stroke-linecap:square;stroke-width:1.5;"/>
   </g>
   <g id="patch_8">
    <path d="M 280.555153 129.976 
L 280.555153 25.44 
" style="fill:none;stroke:#000000;stroke-linecap:square;stroke-linejoin:miter;stroke-width:0.8;"/>
   </g>
   <g id="patch_9">
    <path d="M 447.48 129.976 
L 447.48 25.44 
" style="fill:none;stroke:#000000;stroke-linecap:square;stroke-linejoin:miter;stroke-width:0.8;"/>
   </g>
   <g id="patch_10">
    <path d="M 280.555153 129.976 
L 447.48 129.976 
" style="fill:none;stroke:#000000;stroke-linecap:square;stroke-linejoin:miter;stroke-width:0.8;"/>
   </g>
   <g id="patch_11">
    <path d="M 280.555153 25.44 
L 447.48 25.44 
" style="fill:none;stroke:#000000;stroke-linecap:square;stroke-linejoin:miter;stroke-width:0.8;"/>
   </g>
   <g id="text_26">
    <!-- Función de Transferencia -->
    <defs>
     <path d="M 9.8125 72.90625 
L 51.703125 72.90625 
L 51.703125 64.59375 
L 19.671875 64.59375 
L 19.671875 43.109375 
L 48.578125 43.109375 
L 48.578125 34.8125 
L 19.671875 34.8125 
L 19.671875 0 
L 9.8125 0 
z
" id="DejaVuSans-70"/>
     <path d="M 8.5 21.578125 
L 8.5 54.6875 
L 17.484375 54.6875 
L 17.484375 21.921875 
Q 17.484375 14.15625 20.5 10.265625 
Q 23.53125 6.390625 29.59375 6.390625 
Q 36.859375 6.390625 41.078125 11.03125 
Q 45.3125 15.671875 45.3125 23.6875 
L 45.3125 54.6875 
L 54.296875 54.6875 
L 54.296875 0 
L 45.3125 0 
L 45.3125 8.40625 
Q 42.046875 3.421875 37.71875 1 
Q 33.40625 -1.421875 27.6875 -1.421875 
Q 18.265625 -1.421875 13.375 4.4375 
Q 8.5 10.296875 8.5 21.578125 
z
M 31.109375 56 
z
" id="DejaVuSans-117"/>
     <path d="M 48.78125 52.59375 
L 48.78125 44.1875 
Q 44.96875 46.296875 41.140625 47.34375 
Q 37.3125 48.390625 33.40625 48.390625 
Q 24.65625 48.390625 19.8125 42.84375 
Q 14.984375 37.3125 14.984375 27.296875 
Q 14.984375 17.28125 19.8125 11.734375 
Q 24.65625 6.203125 33.40625 6.203125 
Q 37.3125 6.203125 41.140625 7.25 
Q 44.96875 8.296875 48.78125 10.40625 
L 48.78125 2.09375 
Q 45.015625 0.34375 40.984375 -0.53125 
Q 36.96875 -1.421875 32.421875 -1.421875 
Q 20.0625 -1.421875 12.78125 6.34375 
Q 5.515625 14.109375 5.515625 27.296875 
Q 5.515625 40.671875 12.859375 48.328125 
Q 20.21875 56 33.015625 56 
Q 37.15625 56 41.109375 55.140625 
Q 45.0625 54.296875 48.78125 52.59375 
z
" id="DejaVuSans-99"/>
     <path d="M 30.609375 48.390625 
Q 23.390625 48.390625 19.1875 42.75 
Q 14.984375 37.109375 14.984375 27.296875 
Q 14.984375 17.484375 19.15625 11.84375 
Q 23.34375 6.203125 30.609375 6.203125 
Q 37.796875 6.203125 41.984375 11.859375 
Q 46.1875 17.53125 46.1875 27.296875 
Q 46.1875 37.015625 41.984375 42.703125 
Q 37.796875 48.390625 30.609375 48.390625 
z
M 30.609375 56 
Q 42.328125 56 49.015625 48.375 
Q 55.71875 40.765625 55.71875 27.296875 
Q 55.71875 13.875 49.015625 6.21875 
Q 42.328125 -1.421875 30.609375 -1.421875 
Q 18.84375 -1.421875 12.171875 6.21875 
Q 5.515625 13.875 5.515625 27.296875 
Q 5.515625 40.765625 12.171875 48.375 
Q 18.84375 56 30.609375 56 
z
M 37.40625 79.984375 
L 47.125 79.984375 
L 31.203125 61.625 
L 23.734375 61.625 
z
" id="DejaVuSans-243"/>
     <path d="M 44.28125 53.078125 
L 44.28125 44.578125 
Q 40.484375 46.53125 36.375 47.5 
Q 32.28125 48.484375 27.875 48.484375 
Q 21.1875 48.484375 17.84375 46.4375 
Q 14.5 44.390625 14.5 40.28125 
Q 14.5 37.15625 16.890625 35.375 
Q 19.28125 33.59375 26.515625 31.984375 
L 29.59375 31.296875 
Q 39.15625 29.25 43.1875 25.515625 
Q 47.21875 21.78125 47.21875 15.09375 
Q 47.21875 7.46875 41.1875 3.015625 
Q 35.15625 -1.421875 24.609375 -1.421875 
Q 20.21875 -1.421875 15.453125 -0.5625 
Q 10.6875 0.296875 5.421875 2 
L 5.421875 11.28125 
Q 10.40625 8.6875 15.234375 7.390625 
Q 20.0625 6.109375 24.8125 6.109375 
Q 31.15625 6.109375 34.5625 8.28125 
Q 37.984375 10.453125 37.984375 14.40625 
Q 37.984375 18.0625 35.515625 20.015625 
Q 33.0625 21.96875 24.703125 23.78125 
L 21.578125 24.515625 
Q 13.234375 26.265625 9.515625 29.90625 
Q 5.8125 33.546875 5.8125 39.890625 
Q 5.8125 47.609375 11.28125 51.796875 
Q 16.75 56 26.8125 56 
Q 31.78125 56 36.171875 55.265625 
Q 40.578125 54.546875 44.28125 53.078125 
z
" id="DejaVuSans-115"/>
     <path d="M 37.109375 75.984375 
L 37.109375 68.5 
L 28.515625 68.5 
Q 23.6875 68.5 21.796875 66.546875 
Q 19.921875 64.59375 19.921875 59.515625 
L 19.921875 54.6875 
L 34.71875 54.6875 
L 34.71875 47.703125 
L 19.921875 47.703125 
L 19.921875 0 
L 10.890625 0 
L 10.890625 47.703125 
L 2.296875 47.703125 
L 2.296875 54.6875 
L 10.890625 54.6875 
L 10.890625 58.5 
Q 10.890625 67.625 15.140625 71.796875 
Q 19.390625 75.984375 28.609375 75.984375 
z
" id="DejaVuSans-102"/>
    </defs>
    <g transform="translate(288.082889 19.44)scale(0.12 -0.12)">
     <use xlink:href="#DejaVuSans-70"/>
     <use x="57.441406" xlink:href="#DejaVuSans-117"/>
     <use x="120.820312" xlink:href="#DejaVuSans-110"/>
     <use x="184.199219" xlink:href="#DejaVuSans-99"/>
     <use x="239.179688" xlink:href="#DejaVuSans-105"/>
     <use x="266.962891" xlink:href="#DejaVuSans-243"/>
     <use x="328.144531" xlink:href="#DejaVuSans-110"/>
     <use x="391.523438" xlink:href="#DejaVuSans-32"/>
     <use x="423.310547" xlink:href="#DejaVuSans-100"/>
     <use x="486.787109" xlink:href="#DejaVuSans-101"/>
     <use x="548.310547" xlink:href="#DejaVuSans-32"/>
     <use x="580.097656" xlink:href="#DejaVuSans-84"/>
     <use x="640.962891" xlink:href="#DejaVuSans-114"/>
     <use x="682.076172" xlink:href="#DejaVuSans-97"/>
     <use x="743.355469" xlink:href="#DejaVuSans-110"/>
     <use x="806.734375" xlink:href="#DejaVuSans-115"/>
     <use x="858.833984" xlink:href="#DejaVuSans-102"/>
     <use x="894.039062" xlink:href="#DejaVuSans-101"/>
     <use x="955.5625" xlink:href="#DejaVuSans-114"/>
     <use x="996.644531" xlink:href="#DejaVuSans-101"/>
     <use x="1058.167969" xlink:href="#DejaVuSans-110"/>
     <use x="1121.546875" xlink:href="#DejaVuSans-99"/>
     <use x="1176.527344" xlink:href="#DejaVuSans-105"/>
     <use x="1204.310547" xlink:href="#DejaVuSans-97"/>
    </g>
   </g>
  </g>
  <g id="axes_3">
   <g id="patch_12">
    <path d="M 56.09 303.64 
L 223.014847 303.64 
L 223.014847 199.104 
L 56.09 199.104 
z
" style="fill:#ffffff;"/>
   </g>
   <g id="matplotlib.axis_5">
    <g id="xtick_12">
     <g id="line2d_44">
      <path clip-path="url(#p3f0580b338)" d="M 56.09 303.64 
L 56.09 199.104 
" style="fill:none;stroke:#b0b0b0;stroke-linecap:square;stroke-width:0.8;"/>
     </g>
     <g id="line2d_45">
      <g>
       <use style="stroke:#000000;stroke-width:0.8;" x="56.09" xlink:href="#mfee9d2466d" y="303.64"/>
      </g>
     </g>
     <g id="text_27">
      <!-- 0 -->
      <g transform="translate(52.90875 318.238437)scale(0.1 -0.1)">
       <use xlink:href="#DejaVuSans-48"/>
      </g>
     </g>
    </g>
    <g id="xtick_13">
     <g id="line2d_46">
      <path clip-path="url(#p3f0580b338)" d="M 117.011477 303.64 
L 117.011477 199.104 
" style="fill:none;stroke:#b0b0b0;stroke-linecap:square;stroke-width:0.8;"/>
     </g>
     <g id="line2d_47">
      <g>
       <use style="stroke:#000000;stroke-width:0.8;" x="117.011477" xlink:href="#mfee9d2466d" y="303.64"/>
      </g>
     </g>
     <g id="text_28">
      <!-- 200 -->
      <g transform="translate(107.467727 318.238437)scale(0.1 -0.1)">
       <use xlink:href="#DejaVuSans-50"/>
       <use x="63.623047" xlink:href="#DejaVuSans-48"/>
       <use x="127.246094" xlink:href="#DejaVuSans-48"/>
      </g>
     </g>
    </g>
    <g id="xtick_14">
     <g id="line2d_48">
      <path clip-path="url(#p3f0580b338)" d="M 177.932954 303.64 
L 177.932954 199.104 
" style="fill:none;stroke:#b0b0b0;stroke-linecap:square;stroke-width:0.8;"/>
     </g>
     <g id="line2d_49">
      <g>
       <use style="stroke:#000000;stroke-width:0.8;" x="177.932954" xlink:href="#mfee9d2466d" y="303.64"/>
      </g>
     </g>
     <g id="text_29">
      <!-- 400 -->
      <g transform="translate(168.389204 318.238437)scale(0.1 -0.1)">
       <use xlink:href="#DejaVuSans-52"/>
       <use x="63.623047" xlink:href="#DejaVuSans-48"/>
       <use x="127.246094" xlink:href="#DejaVuSans-48"/>
      </g>
     </g>
    </g>
    <g id="text_30">
     <!-- Tiempo (t) -->
     <g transform="translate(113.480549 331.916562)scale(0.1 -0.1)">
      <use xlink:href="#DejaVuSans-84"/>
      <use x="61.037109" xlink:href="#DejaVuSans-105"/>
      <use x="88.820312" xlink:href="#DejaVuSans-101"/>
      <use x="150.34375" xlink:href="#DejaVuSans-109"/>
      <use x="247.755859" xlink:href="#DejaVuSans-112"/>
      <use x="311.232422" xlink:href="#DejaVuSans-111"/>
      <use x="372.414062" xlink:href="#DejaVuSans-32"/>
      <use x="404.201172" xlink:href="#DejaVuSans-40"/>
      <use x="443.214844" xlink:href="#DejaVuSans-116"/>
      <use x="482.423828" xlink:href="#DejaVuSans-41"/>
     </g>
    </g>
   </g>
   <g id="matplotlib.axis_6">
    <g id="ytick_10">
     <g id="line2d_50">
      <path clip-path="url(#p3f0580b338)" d="M 56.09 281.753089 
L 223.014847 281.753089 
" style="fill:none;stroke:#b0b0b0;stroke-linecap:square;stroke-width:0.8;"/>
     </g>
     <g id="line2d_51">
      <g>
       <use style="stroke:#000000;stroke-width:0.8;" x="56.09" xlink:href="#mb3fc096ab1" y="281.753089"/>
      </g>
     </g>
     <g id="text_31">
      <!-- −10 -->
      <g transform="translate(27.985313 285.552308)scale(0.1 -0.1)">
       <use xlink:href="#DejaVuSans-8722"/>
       <use x="83.789062" xlink:href="#DejaVuSans-49"/>
       <use x="147.412109" xlink:href="#DejaVuSans-48"/>
      </g>
     </g>
    </g>
    <g id="ytick_11">
     <g id="line2d_52">
      <path clip-path="url(#p3f0580b338)" d="M 56.09 252.020951 
L 223.014847 252.020951 
" style="fill:none;stroke:#b0b0b0;stroke-linecap:square;stroke-width:0.8;"/>
     </g>
     <g id="line2d_53">
      <g>
       <use style="stroke:#000000;stroke-width:0.8;" x="56.09" xlink:href="#mb3fc096ab1" y="252.020951"/>
      </g>
     </g>
     <g id="text_32">
      <!-- 0 -->
      <g transform="translate(42.7275 255.82017)scale(0.1 -0.1)">
       <use xlink:href="#DejaVuSans-48"/>
      </g>
     </g>
    </g>
    <g id="ytick_12">
     <g id="line2d_54">
      <path clip-path="url(#p3f0580b338)" d="M 56.09 222.288813 
L 223.014847 222.288813 
" style="fill:none;stroke:#b0b0b0;stroke-linecap:square;stroke-width:0.8;"/>
     </g>
     <g id="line2d_55">
      <g>
       <use style="stroke:#000000;stroke-width:0.8;" x="56.09" xlink:href="#mb3fc096ab1" y="222.288813"/>
      </g>
     </g>
     <g id="text_33">
      <!-- 10 -->
      <g transform="translate(36.365 226.088032)scale(0.1 -0.1)">
       <use xlink:href="#DejaVuSans-49"/>
       <use x="63.623047" xlink:href="#DejaVuSans-48"/>
      </g>
     </g>
    </g>
    <g id="text_34">
     <!-- Valor -->
     <g transform="translate(21.905625 264.354812)rotate(-90)scale(0.1 -0.1)">
      <use xlink:href="#DejaVuSans-86"/>
      <use x="68.298828" xlink:href="#DejaVuSans-97"/>
      <use x="129.578125" xlink:href="#DejaVuSans-108"/>
      <use x="157.361328" xlink:href="#DejaVuSans-111"/>
      <use x="218.542969" xlink:href="#DejaVuSans-114"/>
     </g>
    </g>
   </g>
   <g id="line2d_56">
    <path clip-path="url(#p3f0580b338)" d="M 56.09 252.020951 
L 56.394607 251.833888 
L 57.003822 250.935539 
L 57.613037 249.402976 
L 58.526859 246.094477 
L 59.440681 241.833448 
L 60.963718 233.436297 
L 63.400577 219.718267 
L 64.619007 214.12317 
L 65.532829 210.932206 
L 66.142044 209.383826 
L 66.751259 208.346929 
L 67.360473 207.852329 
L 67.665081 207.815333 
L 67.969688 207.920989 
L 68.274295 208.17034 
L 68.88351 209.101132 
L 69.492725 210.603402 
L 70.10194 212.662875 
L 71.015762 216.741951 
L 71.929584 221.954931 
L 73.148014 230.531355 
L 74.671051 243.086186 
L 78.326339 274.292122 
L 79.544769 282.728437 
L 80.458591 287.809192 
L 81.372413 291.61706 
L 81.981628 293.379577 
L 82.590843 294.487231 
L 82.89545 294.789589 
L 83.200057 294.922482 
L 83.504665 294.885383 
L 83.809272 294.67844 
L 84.418487 293.758968 
L 85.027702 292.178626 
L 85.636916 289.962435 
L 86.550739 285.525314 
L 87.464561 279.896537 
L 88.68299 270.889071 
L 90.510635 255.345282 
L 93.252101 231.862535 
L 94.470531 223.05997 
L 95.384353 217.630681 
L 96.298175 213.424558 
L 96.90739 211.375851 
L 97.516604 209.97071 
L 98.125819 209.231384 
L 98.430427 209.115477 
L 98.735034 209.169578 
L 99.039641 209.393472 
L 99.648856 210.346421 
L 100.258071 211.959236 
L 100.867286 214.20638 
L 101.781108 218.686017 
L 102.69493 224.351285 
L 103.91336 233.395824 
L 105.741004 248.966013 
L 108.48247 272.417439 
L 109.7009 281.180684 
L 110.614722 286.572087 
L 111.528544 290.734603 
L 112.137759 292.751819 
L 112.746974 294.124112 
L 113.356189 294.829751 
L 113.660796 294.928667 
L 113.965403 294.857566 
L 114.270011 294.61673 
L 114.879225 293.630341 
L 115.48844 291.985118 
L 116.097655 289.707111 
L 117.011477 285.185134 
L 117.925299 279.4836 
L 119.143729 270.402345 
L 120.971373 254.806374 
L 123.71284 231.3872 
L 124.931269 222.663622 
L 125.845091 217.310318 
L 126.758914 213.191574 
L 127.368128 211.205928 
L 127.977343 209.866539 
L 128.586558 209.194614 
L 128.891165 209.112694 
L 129.195773 209.200792 
L 129.50038 209.45856 
L 130.109595 210.47835 
L 130.71881 212.155916 
L 131.328024 214.464696 
L 132.241846 219.028833 
L 133.155669 224.766407 
L 134.374098 233.884017 
L 136.201742 249.505152 
L 138.943209 272.891147 
L 140.161638 281.574712 
L 141.075461 286.889705 
L 141.989283 290.964514 
L 142.598498 292.91851 
L 143.207712 294.224943 
L 143.816927 294.863127 
L 144.121534 294.928048 
L 144.426142 294.822956 
L 144.730749 294.548267 
L 145.339964 293.495117 
L 145.949179 291.785274 
L 146.558394 289.445812 
L 147.472216 284.839696 
L 148.386038 279.066309 
L 149.604467 269.912705 
L 151.432112 254.267025 
L 154.173578 230.915137 
L 155.392008 222.271929 
L 156.30583 216.995458 
L 157.219652 212.964745 
L 157.828867 211.042476 
L 158.438082 209.769052 
L 159.047296 209.164635 
L 159.351904 209.116714 
L 159.656511 209.238795 
L 159.961119 209.530396 
L 160.570333 210.616864 
L 161.179548 212.358916 
L 161.788763 214.728968 
L 162.702585 219.37688 
L 163.616407 225.185851 
L 164.834837 234.375086 
L 166.967088 252.745366 
L 169.403948 273.361547 
L 170.622377 281.964054 
L 171.536199 287.201795 
L 172.450021 291.188251 
L 173.059236 293.078717 
L 173.668451 294.319083 
L 174.277666 294.889709 
L 174.582273 294.920628 
L 174.88688 294.781561 
L 175.191488 294.473061 
L 175.800703 293.353318 
L 176.409917 291.579126 
L 177.019132 289.178579 
L 177.932954 284.489054 
L 178.846776 278.64473 
L 180.065206 269.420228 
L 182.197458 251.02645 
L 184.329709 232.822717 
L 185.548139 223.866376 
L 186.461961 218.287713 
L 187.375783 213.908847 
L 187.984998 211.735001 
L 188.594213 210.199035 
L 189.203428 209.325268 
L 189.508035 209.14145 
L 189.812642 209.127536 
L 190.11725 209.283581 
L 190.421857 209.608968 
L 191.031072 210.761943 
L 191.640287 212.568204 
L 192.249501 214.999151 
L 193.163324 219.730102 
L 194.077146 225.609549 
L 195.295575 234.868952 
L 197.427827 253.285499 
L 199.560079 271.460396 
L 200.778508 280.378821 
L 201.69233 285.920469 
L 202.606153 290.256406 
L 203.215367 292.399092 
L 203.824582 293.90244 
L 204.433797 294.742646 
L 204.738404 294.909496 
L 205.043012 294.906405 
L 205.347619 294.733386 
L 205.652226 294.391125 
L 206.261441 293.204965 
L 206.870656 291.366706 
L 207.479871 288.905455 
L 210.525945 274.851467 
L 212.048982 269.292309 
L 213.572018 264.596335 
L 215.095055 260.698415 
L 216.313485 258.130486 
L 217.531914 256.038353 
L 218.750344 254.40911 
L 219.968774 253.225025 
L 220.882596 252.614084 
L 221.796418 252.225097 
L 222.71024 252.040539 
L 223.014847 252.020951 
L 223.014847 252.020951 
" style="fill:none;stroke:#1f77b4;stroke-linecap:square;stroke-width:1.5;"/>
   </g>
   <g id="patch_13">
    <path d="M 56.09 303.64 
L 56.09 199.104 
" style="fill:none;stroke:#000000;stroke-linecap:square;stroke-linejoin:miter;stroke-width:0.8;"/>
   </g>
   <g id="patch_14">
    <path d="M 223.014847 303.64 
L 223.014847 199.104 
" style="fill:none;stroke:#000000;stroke-linecap:square;stroke-linejoin:miter;stroke-width:0.8;"/>
   </g>
   <g id="patch_15">
    <path d="M 56.09 303.64 
L 223.014847 303.64 
" style="fill:none;stroke:#000000;stroke-linecap:square;stroke-linejoin:miter;stroke-width:0.8;"/>
   </g>
   <g id="patch_16">
    <path d="M 56.09 199.104 
L 223.014847 199.104 
" style="fill:none;stroke:#000000;stroke-linecap:square;stroke-linejoin:miter;stroke-width:0.8;"/>
   </g>
   <g id="text_35">
    <!-- Convolución Original -->
    <defs>
     <path d="M 64.40625 67.28125 
L 64.40625 56.890625 
Q 59.421875 61.53125 53.78125 63.8125 
Q 48.140625 66.109375 41.796875 66.109375 
Q 29.296875 66.109375 22.65625 58.46875 
Q 16.015625 50.828125 16.015625 36.375 
Q 16.015625 21.96875 22.65625 14.328125 
Q 29.296875 6.6875 41.796875 6.6875 
Q 48.140625 6.6875 53.78125 8.984375 
Q 59.421875 11.28125 64.40625 15.921875 
L 64.40625 5.609375 
Q 59.234375 2.09375 53.4375 0.328125 
Q 47.65625 -1.421875 41.21875 -1.421875 
Q 24.65625 -1.421875 15.125 8.703125 
Q 5.609375 18.84375 5.609375 36.375 
Q 5.609375 53.953125 15.125 64.078125 
Q 24.65625 74.21875 41.21875 74.21875 
Q 47.75 74.21875 53.53125 72.484375 
Q 59.328125 70.75 64.40625 67.28125 
z
" id="DejaVuSans-67"/>
     <path d="M 2.984375 54.6875 
L 12.5 54.6875 
L 29.59375 8.796875 
L 46.6875 54.6875 
L 56.203125 54.6875 
L 35.6875 0 
L 23.484375 0 
z
" id="DejaVuSans-118"/>
     <path d="M 39.40625 66.21875 
Q 28.65625 66.21875 22.328125 58.203125 
Q 16.015625 50.203125 16.015625 36.375 
Q 16.015625 22.609375 22.328125 14.59375 
Q 28.65625 6.59375 39.40625 6.59375 
Q 50.140625 6.59375 56.421875 14.59375 
Q 62.703125 22.609375 62.703125 36.375 
Q 62.703125 50.203125 56.421875 58.203125 
Q 50.140625 66.21875 39.40625 66.21875 
z
M 39.40625 74.21875 
Q 54.734375 74.21875 63.90625 63.9375 
Q 73.09375 53.65625 73.09375 36.375 
Q 73.09375 19.140625 63.90625 8.859375 
Q 54.734375 -1.421875 39.40625 -1.421875 
Q 24.03125 -1.421875 14.8125 8.828125 
Q 5.609375 19.09375 5.609375 36.375 
Q 5.609375 53.65625 14.8125 63.9375 
Q 24.03125 74.21875 39.40625 74.21875 
z
" id="DejaVuSans-79"/>
     <path d="M 45.40625 27.984375 
Q 45.40625 37.75 41.375 43.109375 
Q 37.359375 48.484375 30.078125 48.484375 
Q 22.859375 48.484375 18.828125 43.109375 
Q 14.796875 37.75 14.796875 27.984375 
Q 14.796875 18.265625 18.828125 12.890625 
Q 22.859375 7.515625 30.078125 7.515625 
Q 37.359375 7.515625 41.375 12.890625 
Q 45.40625 18.265625 45.40625 27.984375 
z
M 54.390625 6.78125 
Q 54.390625 -7.171875 48.1875 -13.984375 
Q 42 -20.796875 29.203125 -20.796875 
Q 24.46875 -20.796875 20.265625 -20.09375 
Q 16.0625 -19.390625 12.109375 -17.921875 
L 12.109375 -9.1875 
Q 16.0625 -11.328125 19.921875 -12.34375 
Q 23.78125 -13.375 27.78125 -13.375 
Q 36.625 -13.375 41.015625 -8.765625 
Q 45.40625 -4.15625 45.40625 5.171875 
L 45.40625 9.625 
Q 42.625 4.78125 38.28125 2.390625 
Q 33.9375 0 27.875 0 
Q 17.828125 0 11.671875 7.65625 
Q 5.515625 15.328125 5.515625 27.984375 
Q 5.515625 40.671875 11.671875 48.328125 
Q 17.828125 56 27.875 56 
Q 33.9375 56 38.28125 53.609375 
Q 42.625 51.21875 45.40625 46.390625 
L 45.40625 54.6875 
L 54.390625 54.6875 
z
" id="DejaVuSans-103"/>
    </defs>
    <g transform="translate(77.371799 193.104)scale(0.12 -0.12)">
     <use xlink:href="#DejaVuSans-67"/>
     <use x="69.824219" xlink:href="#DejaVuSans-111"/>
     <use x="131.005859" xlink:href="#DejaVuSans-110"/>
     <use x="194.384766" xlink:href="#DejaVuSans-118"/>
     <use x="253.564453" xlink:href="#DejaVuSans-111"/>
     <use x="314.746094" xlink:href="#DejaVuSans-108"/>
     <use x="342.529297" xlink:href="#DejaVuSans-117"/>
     <use x="405.908203" xlink:href="#DejaVuSans-99"/>
     <use x="460.888672" xlink:href="#DejaVuSans-105"/>
     <use x="488.671875" xlink:href="#DejaVuSans-243"/>
     <use x="549.853516" xlink:href="#DejaVuSans-110"/>
     <use x="613.232422" xlink:href="#DejaVuSans-32"/>
     <use x="645.019531" xlink:href="#DejaVuSans-79"/>
     <use x="723.730469" xlink:href="#DejaVuSans-114"/>
     <use x="764.84375" xlink:href="#DejaVuSans-105"/>
     <use x="792.626953" xlink:href="#DejaVuSans-103"/>
     <use x="856.103516" xlink:href="#DejaVuSans-105"/>
     <use x="883.886719" xlink:href="#DejaVuSans-110"/>
     <use x="947.265625" xlink:href="#DejaVuSans-97"/>
     <use x="1008.544922" xlink:href="#DejaVuSans-108"/>
    </g>
   </g>
  </g>
  <g id="axes_4">
   <g id="patch_17">
    <path d="M 280.555153 303.64 
L 447.48 303.64 
L 447.48 199.104 
L 280.555153 199.104 
z
" style="fill:#ffffff;"/>
   </g>
   <g id="matplotlib.axis_7">
    <g id="xtick_15">
     <g id="line2d_57">
      <path clip-path="url(#p38f855bbb8)" d="M 280.555153 303.64 
L 280.555153 199.104 
" style="fill:none;stroke:#b0b0b0;stroke-linecap:square;stroke-width:0.8;"/>
     </g>
     <g id="line2d_58">
      <g>
       <use style="stroke:#000000;stroke-width:0.8;" x="280.555153" xlink:href="#mfee9d2466d" y="303.64"/>
      </g>
     </g>
     <g id="text_36">
      <!-- 0 -->
      <g transform="translate(277.373903 318.238437)scale(0.1 -0.1)">
       <use xlink:href="#DejaVuSans-48"/>
      </g>
     </g>
    </g>
    <g id="xtick_16">
     <g id="line2d_59">
      <path clip-path="url(#p38f855bbb8)" d="M 339.331507 303.64 
L 339.331507 199.104 
" style="fill:none;stroke:#b0b0b0;stroke-linecap:square;stroke-width:0.8;"/>
     </g>
     <g id="line2d_60">
      <g>
       <use style="stroke:#000000;stroke-width:0.8;" x="339.331507" xlink:href="#mfee9d2466d" y="303.64"/>
      </g>
     </g>
     <g id="text_37">
      <!-- 200 -->
      <g transform="translate(329.787757 318.238437)scale(0.1 -0.1)">
       <use xlink:href="#DejaVuSans-50"/>
       <use x="63.623047" xlink:href="#DejaVuSans-48"/>
       <use x="127.246094" xlink:href="#DejaVuSans-48"/>
      </g>
     </g>
    </g>
    <g id="xtick_17">
     <g id="line2d_61">
      <path clip-path="url(#p38f855bbb8)" d="M 398.107862 303.64 
L 398.107862 199.104 
" style="fill:none;stroke:#b0b0b0;stroke-linecap:square;stroke-width:0.8;"/>
     </g>
     <g id="line2d_62">
      <g>
       <use style="stroke:#000000;stroke-width:0.8;" x="398.107862" xlink:href="#mfee9d2466d" y="303.64"/>
      </g>
     </g>
     <g id="text_38">
      <!-- 400 -->
      <g transform="translate(388.564112 318.238437)scale(0.1 -0.1)">
       <use xlink:href="#DejaVuSans-52"/>
       <use x="63.623047" xlink:href="#DejaVuSans-48"/>
       <use x="127.246094" xlink:href="#DejaVuSans-48"/>
      </g>
     </g>
    </g>
    <g id="text_39">
     <!-- Tiempo (t) -->
     <g transform="translate(337.945701 331.916562)scale(0.1 -0.1)">
      <use xlink:href="#DejaVuSans-84"/>
      <use x="61.037109" xlink:href="#DejaVuSans-105"/>
      <use x="88.820312" xlink:href="#DejaVuSans-101"/>
      <use x="150.34375" xlink:href="#DejaVuSans-109"/>
      <use x="247.755859" xlink:href="#DejaVuSans-112"/>
      <use x="311.232422" xlink:href="#DejaVuSans-111"/>
      <use x="372.414062" xlink:href="#DejaVuSans-32"/>
      <use x="404.201172" xlink:href="#DejaVuSans-40"/>
      <use x="443.214844" xlink:href="#DejaVuSans-116"/>
      <use x="482.423828" xlink:href="#DejaVuSans-41"/>
     </g>
    </g>
   </g>
   <g id="matplotlib.axis_8">
    <g id="ytick_13">
     <g id="line2d_63">
      <path clip-path="url(#p38f855bbb8)" d="M 280.555153 286.999937 
L 447.48 286.999937 
" style="fill:none;stroke:#b0b0b0;stroke-linecap:square;stroke-width:0.8;"/>
     </g>
     <g id="line2d_64">
      <g>
       <use style="stroke:#000000;stroke-width:0.8;" x="280.555153" xlink:href="#mb3fc096ab1" y="286.999937"/>
      </g>
     </g>
     <g id="text_40">
      <!-- −20 -->
      <g transform="translate(252.450465 290.799156)scale(0.1 -0.1)">
       <use xlink:href="#DejaVuSans-8722"/>
       <use x="83.789062" xlink:href="#DejaVuSans-50"/>
       <use x="147.412109" xlink:href="#DejaVuSans-48"/>
      </g>
     </g>
    </g>
    <g id="ytick_14">
     <g id="line2d_65">
      <path clip-path="url(#p38f855bbb8)" d="M 280.555153 252.020951 
L 447.48 252.020951 
" style="fill:none;stroke:#b0b0b0;stroke-linecap:square;stroke-width:0.8;"/>
     </g>
     <g id="line2d_66">
      <g>
       <use style="stroke:#000000;stroke-width:0.8;" x="280.555153" xlink:href="#mb3fc096ab1" y="252.020951"/>
      </g>
     </g>
     <g id="text_41">
      <!-- 0 -->
      <g transform="translate(267.192653 255.82017)scale(0.1 -0.1)">
       <use xlink:href="#DejaVuSans-48"/>
      </g>
     </g>
    </g>
    <g id="ytick_15">
     <g id="line2d_67">
      <path clip-path="url(#p38f855bbb8)" d="M 280.555153 217.041965 
L 447.48 217.041965 
" style="fill:none;stroke:#b0b0b0;stroke-linecap:square;stroke-width:0.8;"/>
     </g>
     <g id="line2d_68">
      <g>
       <use style="stroke:#000000;stroke-width:0.8;" x="280.555153" xlink:href="#mb3fc096ab1" y="217.041965"/>
      </g>
     </g>
     <g id="text_42">
      <!-- 20 -->
      <g transform="translate(260.830153 220.841184)scale(0.1 -0.1)">
       <use xlink:href="#DejaVuSans-50"/>
       <use x="63.623047" xlink:href="#DejaVuSans-48"/>
      </g>
     </g>
    </g>
    <g id="text_43">
     <!-- Valor -->
     <g transform="translate(246.370778 264.354812)rotate(-90)scale(0.1 -0.1)">
      <use xlink:href="#DejaVuSans-86"/>
      <use x="68.298828" xlink:href="#DejaVuSans-97"/>
      <use x="129.578125" xlink:href="#DejaVuSans-108"/>
      <use x="157.361328" xlink:href="#DejaVuSans-111"/>
      <use x="218.542969" xlink:href="#DejaVuSans-114"/>
     </g>
    </g>
   </g>
   <g id="line2d_69">
    <path clip-path="url(#p38f855bbb8)" d="M 280.555153 252.020951 
L 286.432788 252.020951 
L 286.72667 251.833888 
L 287.314433 250.935539 
L 287.902197 249.402976 
L 288.783842 246.094477 
L 289.665488 241.833448 
L 291.134896 233.436297 
L 293.485951 219.718267 
L 294.661478 214.12317 
L 295.543123 210.932206 
L 296.130887 209.383826 
L 296.71865 208.346929 
L 297.306414 207.852329 
L 297.600295 207.815333 
L 297.894177 207.920989 
L 298.481941 208.563796 
L 299.069704 209.781494 
L 299.657468 211.564762 
L 300.539113 215.255617 
L 301.420759 220.088444 
L 302.596286 228.237274 
L 304.065694 240.463438 
L 308.180039 276.555502 
L 309.355566 284.553166 
L 310.237212 289.227587 
L 311.118857 292.578671 
L 311.706621 294.016605 
L 312.294384 294.789589 
L 312.588266 294.922482 
L 312.882148 294.885383 
L 313.176029 294.67844 
L 313.763793 293.758968 
L 314.351557 292.178626 
L 314.93932 289.962435 
L 315.820965 285.525314 
L 316.702611 279.896537 
L 317.878138 270.889071 
L 319.641428 255.345282 
L 322.286364 231.862535 
L 323.461892 223.05997 
L 324.343537 217.630681 
L 325.225182 213.424558 
L 325.812946 211.375851 
L 326.400709 209.97071 
L 326.988473 209.231384 
L 327.282355 209.115477 
L 327.576236 209.169578 
L 327.870118 209.393472 
L 328.457882 210.346421 
L 329.045645 211.959236 
L 329.633409 214.20638 
L 330.515054 218.686017 
L 331.396699 224.351285 
L 332.572227 233.395824 
L 334.335517 248.966013 
L 336.980453 272.417439 
L 338.15598 281.180684 
L 339.037626 286.572087 
L 339.919271 290.734603 
L 340.507034 292.751819 
L 341.094798 294.124112 
L 341.682561 294.829751 
L 341.976443 294.928667 
L 342.270325 294.857566 
L 342.564207 294.61673 
L 343.15197 293.630341 
L 343.739734 291.985118 
L 344.327497 289.707111 
L 345.209143 285.185134 
L 346.090788 279.4836 
L 347.266315 270.402345 
L 349.029606 254.806374 
L 351.674542 231.3872 
L 352.850069 222.663622 
L 353.731714 217.310318 
L 354.61336 213.191574 
L 355.201123 211.205928 
L 355.788887 209.866539 
L 356.37665 209.194614 
L 356.670532 209.112694 
L 356.964414 209.200792 
L 357.258295 209.45856 
L 357.846059 210.47835 
L 358.433823 212.155916 
L 359.021586 214.464696 
L 359.903231 219.028833 
L 360.784877 224.766407 
L 361.960404 233.884017 
L 364.017576 252.205118 
L 366.36863 272.891147 
L 367.544158 281.574712 
L 368.425803 286.889705 
L 369.307448 290.964514 
L 369.895212 292.91851 
L 370.482975 294.224943 
L 371.070739 294.863127 
L 371.364621 294.928048 
L 371.658502 294.822956 
L 371.952384 294.548267 
L 372.540148 293.495117 
L 373.127911 291.785274 
L 373.715675 289.445812 
L 374.59732 284.839696 
L 375.478965 279.066309 
L 376.654493 269.912705 
L 378.711665 251.566651 
L 381.062719 230.915137 
L 382.238246 222.271929 
L 383.119892 216.995458 
L 384.001537 212.964745 
L 384.5893 211.042476 
L 385.177064 209.769052 
L 385.764828 209.164635 
L 386.058709 209.116714 
L 386.352591 209.238795 
L 386.646473 209.530396 
L 387.234236 210.616864 
L 387.822 212.358916 
L 388.409764 214.728968 
L 389.291409 219.37688 
L 390.173054 225.185851 
L 391.348581 234.375086 
L 393.405754 252.745366 
L 395.756808 273.361547 
L 396.932335 281.964054 
L 397.81398 287.201795 
L 398.695626 291.188251 
L 399.283389 293.078717 
L 399.871153 294.319083 
L 400.458916 294.889709 
L 400.752798 294.920628 
L 401.04668 294.781561 
L 401.340562 294.473061 
L 401.928325 293.353318 
L 402.516089 291.579126 
L 403.103852 289.178579 
L 403.985498 284.489054 
L 405.161025 276.474879 
L 406.630433 264.356827 
L 411.03866 225.959359 
L 412.214187 218.287713 
L 413.095832 213.908847 
L 413.683596 211.735001 
L 414.27136 210.199035 
L 414.859123 209.325268 
L 415.153005 209.14145 
L 415.446887 209.127536 
L 415.740768 209.283581 
L 416.03465 209.608968 
L 416.622414 210.761943 
L 417.210177 212.568204 
L 417.797941 214.999151 
L 418.679586 219.730102 
L 419.855113 227.789483 
L 421.324522 239.944054 
L 425.732749 278.296628 
L 426.908276 285.920469 
L 427.789921 290.256406 
L 428.377685 292.399092 
L 428.965448 293.90244 
L 429.553212 294.742646 
L 429.847094 294.909496 
L 430.140975 294.906405 
L 430.434857 294.733386 
L 431.022621 293.880978 
L 431.610384 292.365766 
L 432.198148 290.211744 
L 433.079793 285.860183 
L 434.549202 278.646975 
L 436.018611 272.518179 
L 437.48802 267.314895 
L 438.957429 262.943827 
L 440.426837 259.354253 
L 441.602365 257.025682 
L 442.777892 255.166825 
L 443.953419 253.762809 
L 444.835064 252.995769 
L 445.716709 252.460558 
L 446.598355 252.141823 
L 447.48 252.020951 
L 447.48 252.020951 
" style="fill:none;stroke:#1f77b4;stroke-linecap:square;stroke-width:1.5;"/>
   </g>
   <g id="patch_18">
    <path d="M 280.555153 303.64 
L 280.555153 199.104 
" style="fill:none;stroke:#000000;stroke-linecap:square;stroke-linejoin:miter;stroke-width:0.8;"/>
   </g>
   <g id="patch_19">
    <path d="M 447.48 303.64 
L 447.48 199.104 
" style="fill:none;stroke:#000000;stroke-linecap:square;stroke-linejoin:miter;stroke-width:0.8;"/>
   </g>
   <g id="patch_20">
    <path d="M 280.555153 303.64 
L 447.48 303.64 
" style="fill:none;stroke:#000000;stroke-linecap:square;stroke-linejoin:miter;stroke-width:0.8;"/>
   </g>
   <g id="patch_21">
    <path d="M 280.555153 199.104 
L 447.48 199.104 
" style="fill:none;stroke:#000000;stroke-linecap:square;stroke-linejoin:miter;stroke-width:0.8;"/>
   </g>
   <g id="text_44">
    <!-- Convolución con Factor 1.7 -->
    <g transform="translate(282.278826 179.666625)scale(0.12 -0.12)">
     <use xlink:href="#DejaVuSans-67"/>
     <use x="69.824219" xlink:href="#DejaVuSans-111"/>
     <use x="131.005859" xlink:href="#DejaVuSans-110"/>
     <use x="194.384766" xlink:href="#DejaVuSans-118"/>
     <use x="253.564453" xlink:href="#DejaVuSans-111"/>
     <use x="314.746094" xlink:href="#DejaVuSans-108"/>
     <use x="342.529297" xlink:href="#DejaVuSans-117"/>
     <use x="405.908203" xlink:href="#DejaVuSans-99"/>
     <use x="460.888672" xlink:href="#DejaVuSans-105"/>
     <use x="488.671875" xlink:href="#DejaVuSans-243"/>
     <use x="549.853516" xlink:href="#DejaVuSans-110"/>
     <use x="613.232422" xlink:href="#DejaVuSans-32"/>
     <use x="645.019531" xlink:href="#DejaVuSans-99"/>
     <use x="700" xlink:href="#DejaVuSans-111"/>
     <use x="761.181641" xlink:href="#DejaVuSans-110"/>
     <use x="824.560547" xlink:href="#DejaVuSans-32"/>
     <use x="856.347656" xlink:href="#DejaVuSans-70"/>
     <use x="913.726562" xlink:href="#DejaVuSans-97"/>
     <use x="975.005859" xlink:href="#DejaVuSans-99"/>
     <use x="1029.986328" xlink:href="#DejaVuSans-116"/>
     <use x="1069.195312" xlink:href="#DejaVuSans-111"/>
     <use x="1130.376953" xlink:href="#DejaVuSans-114"/>
     <use x="1171.490234" xlink:href="#DejaVuSans-32"/>
     <use x="1203.277344" xlink:href="#DejaVuSans-49"/>
     <use x="1266.900391" xlink:href="#DejaVuSans-46"/>
     <use x="1298.6875" xlink:href="#DejaVuSans-55"/>
    </g>
    <!-- y Corrimento 20s -->
    <defs>
     <path d="M 32.171875 -5.078125 
Q 28.375 -14.84375 24.75 -17.8125 
Q 21.140625 -20.796875 15.09375 -20.796875 
L 7.90625 -20.796875 
L 7.90625 -13.28125 
L 13.1875 -13.28125 
Q 16.890625 -13.28125 18.9375 -11.515625 
Q 21 -9.765625 23.484375 -3.21875 
L 25.09375 0.875 
L 2.984375 54.6875 
L 12.5 54.6875 
L 29.59375 11.921875 
L 46.6875 54.6875 
L 56.203125 54.6875 
z
" id="DejaVuSans-121"/>
    </defs>
    <g transform="translate(312.069764 193.104)scale(0.12 -0.12)">
     <use xlink:href="#DejaVuSans-121"/>
     <use x="59.179688" xlink:href="#DejaVuSans-32"/>
     <use x="90.966797" xlink:href="#DejaVuSans-67"/>
     <use x="160.791016" xlink:href="#DejaVuSans-111"/>
     <use x="221.972656" xlink:href="#DejaVuSans-114"/>
     <use x="263.070312" xlink:href="#DejaVuSans-114"/>
     <use x="304.183594" xlink:href="#DejaVuSans-105"/>
     <use x="331.966797" xlink:href="#DejaVuSans-109"/>
     <use x="429.378906" xlink:href="#DejaVuSans-101"/>
     <use x="490.902344" xlink:href="#DejaVuSans-110"/>
     <use x="554.28125" xlink:href="#DejaVuSans-116"/>
     <use x="593.490234" xlink:href="#DejaVuSans-111"/>
     <use x="654.671875" xlink:href="#DejaVuSans-32"/>
     <use x="686.458984" xlink:href="#DejaVuSans-50"/>
     <use x="750.082031" xlink:href="#DejaVuSans-48"/>
     <use x="813.705078" xlink:href="#DejaVuSans-115"/>
    </g>
   </g>
  </g>
 </g>
 <defs>
  <clipPath id="p547c4a3fbd">
   <rect height="104.536" width="166.924847" x="56.09" y="25.44"/>
  </clipPath>
  <clipPath id="p42fe1efce6">
   <rect height="104.536" width="166.924847" x="280.555153" y="25.44"/>
  </clipPath>
  <clipPath id="p3f0580b338">
   <rect height="104.536" width="166.924847" x="56.09" y="199.104"/>
  </clipPath>
  <clipPath id="p38f855bbb8">
   <rect height="104.536" width="166.924847" x="280.555153" y="199.104"/>
  </clipPath>
 </defs>
</svg>
