<?xml version="1.0" encoding="utf-8" standalone="no"?>
<!DOCTYPE svg PUBLIC "-//W3C//DTD SVG 1.1//EN"
  "http://www.w3.org/Graphics/SVG/1.1/DTD/svg11.dtd">
<!-- Created with matplotlib (https://matplotlib.org/) -->
<svg height="345.6pt" version="1.1" viewBox="0 0 460.8 345.6" width="460.8pt" xmlns="http://www.w3.org/2000/svg" xmlns:xlink="http://www.w3.org/1999/xlink">
 <defs>
  <style type="text/css">
*{stroke-linecap:butt;stroke-linejoin:round;}
  </style>
 </defs>
 <g id="figure_1">
  <g id="patch_1">
   <path d="M 0 345.6 
L 460.8 345.6 
L 460.8 0 
L 0 0 
z
" style="fill:#ffffff;"/>
  </g>
  <g id="axes_1">
   <g id="patch_2">
    <path d="M 56.09 129.976 
L 215.179695 129.976 
L 215.179695 25.44 
L 56.09 25.44 
z
" style="fill:#ffffff;"/>
   </g>
   <g id="matplotlib.axis_1">
    <g id="xtick_1">
     <g id="line2d_1">
      <path clip-path="url(#p8160a0f3d4)" d="M 56.09 129.976 
L 56.09 25.44 
" style="fill:none;stroke:#b0b0b0;stroke-linecap:square;stroke-width:0.8;"/>
     </g>
     <g id="line2d_2">
      <defs>
       <path d="M 0 0 
L 0 3.5 
" id="me584462e63" style="stroke:#000000;stroke-width:0.8;"/>
      </defs>
      <g>
       <use style="stroke:#000000;stroke-width:0.8;" x="56.09" xlink:href="#me584462e63" y="129.976"/>
      </g>
     </g>
     <g id="text_1">
      <!-- 0 -->
      <defs>
       <path d="M 31.78125 66.40625 
Q 24.171875 66.40625 20.328125 58.90625 
Q 16.5 51.421875 16.5 36.375 
Q 16.5 21.390625 20.328125 13.890625 
Q 24.171875 6.390625 31.78125 6.390625 
Q 39.453125 6.390625 43.28125 13.890625 
Q 47.125 21.390625 47.125 36.375 
Q 47.125 51.421875 43.28125 58.90625 
Q 39.453125 66.40625 31.78125 66.40625 
z
M 31.78125 74.21875 
Q 44.046875 74.21875 50.515625 64.515625 
Q 56.984375 54.828125 56.984375 36.375 
Q 56.984375 17.96875 50.515625 8.265625 
Q 44.046875 -1.421875 31.78125 -1.421875 
Q 19.53125 -1.421875 13.0625 8.265625 
Q 6.59375 17.96875 6.59375 36.375 
Q 6.59375 54.828125 13.0625 64.515625 
Q 19.53125 74.21875 31.78125 74.21875 
z
" id="DejaVuSans-48"/>
      </defs>
      <g transform="translate(52.90875 144.574437)scale(0.1 -0.1)">
       <use xlink:href="#DejaVuSans-48"/>
      </g>
     </g>
    </g>
    <g id="xtick_2">
     <g id="line2d_3">
      <path clip-path="url(#p8160a0f3d4)" d="M 87.971702 129.976 
L 87.971702 25.44 
" style="fill:none;stroke:#b0b0b0;stroke-linecap:square;stroke-width:0.8;"/>
     </g>
     <g id="line2d_4">
      <g>
       <use style="stroke:#000000;stroke-width:0.8;" x="87.971702" xlink:href="#me584462e63" y="129.976"/>
      </g>
     </g>
     <g id="text_2">
      <!-- 100 -->
      <defs>
       <path d="M 12.40625 8.296875 
L 28.515625 8.296875 
L 28.515625 63.921875 
L 10.984375 60.40625 
L 10.984375 69.390625 
L 28.421875 72.90625 
L 38.28125 72.90625 
L 38.28125 8.296875 
L 54.390625 8.296875 
L 54.390625 0 
L 12.40625 0 
z
" id="DejaVuSans-49"/>
      </defs>
      <g transform="translate(78.427952 144.574437)scale(0.1 -0.1)">
       <use xlink:href="#DejaVuSans-49"/>
       <use x="63.623047" xlink:href="#DejaVuSans-48"/>
       <use x="127.246094" xlink:href="#DejaVuSans-48"/>
      </g>
     </g>
    </g>
    <g id="xtick_3">
     <g id="line2d_5">
      <path clip-path="url(#p8160a0f3d4)" d="M 119.853405 129.976 
L 119.853405 25.44 
" style="fill:none;stroke:#b0b0b0;stroke-linecap:square;stroke-width:0.8;"/>
     </g>
     <g id="line2d_6">
      <g>
       <use style="stroke:#000000;stroke-width:0.8;" x="119.853405" xlink:href="#me584462e63" y="129.976"/>
      </g>
     </g>
     <g id="text_3">
      <!-- 200 -->
      <defs>
       <path d="M 19.1875 8.296875 
L 53.609375 8.296875 
L 53.609375 0 
L 7.328125 0 
L 7.328125 8.296875 
Q 12.9375 14.109375 22.625 23.890625 
Q 32.328125 33.6875 34.8125 36.53125 
Q 39.546875 41.84375 41.421875 45.53125 
Q 43.3125 49.21875 43.3125 52.78125 
Q 43.3125 58.59375 39.234375 62.25 
Q 35.15625 65.921875 28.609375 65.921875 
Q 23.96875 65.921875 18.8125 64.3125 
Q 13.671875 62.703125 7.8125 59.421875 
L 7.8125 69.390625 
Q 13.765625 71.78125 18.9375 73 
Q 24.125 74.21875 28.421875 74.21875 
Q 39.75 74.21875 46.484375 68.546875 
Q 53.21875 62.890625 53.21875 53.421875 
Q 53.21875 48.921875 51.53125 44.890625 
Q 49.859375 40.875 45.40625 35.40625 
Q 44.1875 33.984375 37.640625 27.21875 
Q 31.109375 20.453125 19.1875 8.296875 
z
" id="DejaVuSans-50"/>
      </defs>
      <g transform="translate(110.309655 144.574437)scale(0.1 -0.1)">
       <use xlink:href="#DejaVuSans-50"/>
       <use x="63.623047" xlink:href="#DejaVuSans-48"/>
       <use x="127.246094" xlink:href="#DejaVuSans-48"/>
      </g>
     </g>
    </g>
    <g id="xtick_4">
     <g id="line2d_7">
      <path clip-path="url(#p8160a0f3d4)" d="M 151.735107 129.976 
L 151.735107 25.44 
" style="fill:none;stroke:#b0b0b0;stroke-linecap:square;stroke-width:0.8;"/>
     </g>
     <g id="line2d_8">
      <g>
       <use style="stroke:#000000;stroke-width:0.8;" x="151.735107" xlink:href="#me584462e63" y="129.976"/>
      </g>
     </g>
     <g id="text_4">
      <!-- 300 -->
      <defs>
       <path d="M 40.578125 39.3125 
Q 47.65625 37.796875 51.625 33 
Q 55.609375 28.21875 55.609375 21.1875 
Q 55.609375 10.40625 48.1875 4.484375 
Q 40.765625 -1.421875 27.09375 -1.421875 
Q 22.515625 -1.421875 17.65625 -0.515625 
Q 12.796875 0.390625 7.625 2.203125 
L 7.625 11.71875 
Q 11.71875 9.328125 16.59375 8.109375 
Q 21.484375 6.890625 26.8125 6.890625 
Q 36.078125 6.890625 40.9375 10.546875 
Q 45.796875 14.203125 45.796875 21.1875 
Q 45.796875 27.640625 41.28125 31.265625 
Q 36.765625 34.90625 28.71875 34.90625 
L 20.21875 34.90625 
L 20.21875 43.015625 
L 29.109375 43.015625 
Q 36.375 43.015625 40.234375 45.921875 
Q 44.09375 48.828125 44.09375 54.296875 
Q 44.09375 59.90625 40.109375 62.90625 
Q 36.140625 65.921875 28.71875 65.921875 
Q 24.65625 65.921875 20.015625 65.03125 
Q 15.375 64.15625 9.8125 62.3125 
L 9.8125 71.09375 
Q 15.4375 72.65625 20.34375 73.4375 
Q 25.25 74.21875 29.59375 74.21875 
Q 40.828125 74.21875 47.359375 69.109375 
Q 53.90625 64.015625 53.90625 55.328125 
Q 53.90625 49.265625 50.4375 45.09375 
Q 46.96875 40.921875 40.578125 39.3125 
z
" id="DejaVuSans-51"/>
      </defs>
      <g transform="translate(142.191357 144.574437)scale(0.1 -0.1)">
       <use xlink:href="#DejaVuSans-51"/>
       <use x="63.623047" xlink:href="#DejaVuSans-48"/>
       <use x="127.246094" xlink:href="#DejaVuSans-48"/>
      </g>
     </g>
    </g>
    <g id="xtick_5">
     <g id="line2d_9">
      <path clip-path="url(#p8160a0f3d4)" d="M 183.616809 129.976 
L 183.616809 25.44 
" style="fill:none;stroke:#b0b0b0;stroke-linecap:square;stroke-width:0.8;"/>
     </g>
     <g id="line2d_10">
      <g>
       <use style="stroke:#000000;stroke-width:0.8;" x="183.616809" xlink:href="#me584462e63" y="129.976"/>
      </g>
     </g>
     <g id="text_5">
      <!-- 400 -->
      <defs>
       <path d="M 37.796875 64.3125 
L 12.890625 25.390625 
L 37.796875 25.390625 
z
M 35.203125 72.90625 
L 47.609375 72.90625 
L 47.609375 25.390625 
L 58.015625 25.390625 
L 58.015625 17.1875 
L 47.609375 17.1875 
L 47.609375 0 
L 37.796875 0 
L 37.796875 17.1875 
L 4.890625 17.1875 
L 4.890625 26.703125 
z
" id="DejaVuSans-52"/>
      </defs>
      <g transform="translate(174.073059 144.574437)scale(0.1 -0.1)">
       <use xlink:href="#DejaVuSans-52"/>
       <use x="63.623047" xlink:href="#DejaVuSans-48"/>
       <use x="127.246094" xlink:href="#DejaVuSans-48"/>
      </g>
     </g>
    </g>
    <g id="xtick_6">
     <g id="line2d_11">
      <path clip-path="url(#p8160a0f3d4)" d="M 215.498512 129.976 
L 215.498512 25.44 
" style="fill:none;stroke:#b0b0b0;stroke-linecap:square;stroke-width:0.8;"/>
     </g>
     <g id="line2d_12">
      <g>
       <use style="stroke:#000000;stroke-width:0.8;" x="215.498512" xlink:href="#me584462e63" y="129.976"/>
      </g>
     </g>
     <g id="text_6">
      <!-- 500 -->
      <defs>
       <path d="M 10.796875 72.90625 
L 49.515625 72.90625 
L 49.515625 64.59375 
L 19.828125 64.59375 
L 19.828125 46.734375 
Q 21.96875 47.46875 24.109375 47.828125 
Q 26.265625 48.1875 28.421875 48.1875 
Q 40.625 48.1875 47.75 41.5 
Q 54.890625 34.8125 54.890625 23.390625 
Q 54.890625 11.625 47.5625 5.09375 
Q 40.234375 -1.421875 26.90625 -1.421875 
Q 22.3125 -1.421875 17.546875 -0.640625 
Q 12.796875 0.140625 7.71875 1.703125 
L 7.71875 11.625 
Q 12.109375 9.234375 16.796875 8.0625 
Q 21.484375 6.890625 26.703125 6.890625 
Q 35.15625 6.890625 40.078125 11.328125 
Q 45.015625 15.765625 45.015625 23.390625 
Q 45.015625 31 40.078125 35.4375 
Q 35.15625 39.890625 26.703125 39.890625 
Q 22.75 39.890625 18.8125 39.015625 
Q 14.890625 38.140625 10.796875 36.28125 
z
" id="DejaVuSans-53"/>
      </defs>
      <g transform="translate(205.954762 144.574437)scale(0.1 -0.1)">
       <use xlink:href="#DejaVuSans-53"/>
       <use x="63.623047" xlink:href="#DejaVuSans-48"/>
       <use x="127.246094" xlink:href="#DejaVuSans-48"/>
      </g>
     </g>
    </g>
    <g id="text_7">
     <!-- Tiempo (t) -->
     <defs>
      <path d="M -0.296875 72.90625 
L 61.375 72.90625 
L 61.375 64.59375 
L 35.5 64.59375 
L 35.5 0 
L 25.59375 0 
L 25.59375 64.59375 
L -0.296875 64.59375 
z
" id="DejaVuSans-84"/>
      <path d="M 9.421875 54.6875 
L 18.40625 54.6875 
L 18.40625 0 
L 9.421875 0 
z
M 9.421875 75.984375 
L 18.40625 75.984375 
L 18.40625 64.59375 
L 9.421875 64.59375 
z
" id="DejaVuSans-105"/>
      <path d="M 56.203125 29.59375 
L 56.203125 25.203125 
L 14.890625 25.203125 
Q 15.484375 15.921875 20.484375 11.0625 
Q 25.484375 6.203125 34.421875 6.203125 
Q 39.59375 6.203125 44.453125 7.46875 
Q 49.3125 8.734375 54.109375 11.28125 
L 54.109375 2.78125 
Q 49.265625 0.734375 44.1875 -0.34375 
Q 39.109375 -1.421875 33.890625 -1.421875 
Q 20.796875 -1.421875 13.15625 6.1875 
Q 5.515625 13.8125 5.515625 26.8125 
Q 5.515625 40.234375 12.765625 48.109375 
Q 20.015625 56 32.328125 56 
Q 43.359375 56 49.78125 48.890625 
Q 56.203125 41.796875 56.203125 29.59375 
z
M 47.21875 32.234375 
Q 47.125 39.59375 43.09375 43.984375 
Q 39.0625 48.390625 32.421875 48.390625 
Q 24.90625 48.390625 20.390625 44.140625 
Q 15.875 39.890625 15.1875 32.171875 
z
" id="DejaVuSans-101"/>
      <path d="M 52 44.1875 
Q 55.375 50.25 60.0625 53.125 
Q 64.75 56 71.09375 56 
Q 79.640625 56 84.28125 50.015625 
Q 88.921875 44.046875 88.921875 33.015625 
L 88.921875 0 
L 79.890625 0 
L 79.890625 32.71875 
Q 79.890625 40.578125 77.09375 44.375 
Q 74.3125 48.1875 68.609375 48.1875 
Q 61.625 48.1875 57.5625 43.546875 
Q 53.515625 38.921875 53.515625 30.90625 
L 53.515625 0 
L 44.484375 0 
L 44.484375 32.71875 
Q 44.484375 40.625 41.703125 44.40625 
Q 38.921875 48.1875 33.109375 48.1875 
Q 26.21875 48.1875 22.15625 43.53125 
Q 18.109375 38.875 18.109375 30.90625 
L 18.109375 0 
L 9.078125 0 
L 9.078125 54.6875 
L 18.109375 54.6875 
L 18.109375 46.1875 
Q 21.1875 51.21875 25.484375 53.609375 
Q 29.78125 56 35.6875 56 
Q 41.65625 56 45.828125 52.96875 
Q 50 49.953125 52 44.1875 
z
" id="DejaVuSans-109"/>
      <path d="M 18.109375 8.203125 
L 18.109375 -20.796875 
L 9.078125 -20.796875 
L 9.078125 54.6875 
L 18.109375 54.6875 
L 18.109375 46.390625 
Q 20.953125 51.265625 25.265625 53.625 
Q 29.59375 56 35.59375 56 
Q 45.5625 56 51.78125 48.09375 
Q 58.015625 40.1875 58.015625 27.296875 
Q 58.015625 14.40625 51.78125 6.484375 
Q 45.5625 -1.421875 35.59375 -1.421875 
Q 29.59375 -1.421875 25.265625 0.953125 
Q 20.953125 3.328125 18.109375 8.203125 
z
M 48.6875 27.296875 
Q 48.6875 37.203125 44.609375 42.84375 
Q 40.53125 48.484375 33.40625 48.484375 
Q 26.265625 48.484375 22.1875 42.84375 
Q 18.109375 37.203125 18.109375 27.296875 
Q 18.109375 17.390625 22.1875 11.75 
Q 26.265625 6.109375 33.40625 6.109375 
Q 40.53125 6.109375 44.609375 11.75 
Q 48.6875 17.390625 48.6875 27.296875 
z
" id="DejaVuSans-112"/>
      <path d="M 30.609375 48.390625 
Q 23.390625 48.390625 19.1875 42.75 
Q 14.984375 37.109375 14.984375 27.296875 
Q 14.984375 17.484375 19.15625 11.84375 
Q 23.34375 6.203125 30.609375 6.203125 
Q 37.796875 6.203125 41.984375 11.859375 
Q 46.1875 17.53125 46.1875 27.296875 
Q 46.1875 37.015625 41.984375 42.703125 
Q 37.796875 48.390625 30.609375 48.390625 
z
M 30.609375 56 
Q 42.328125 56 49.015625 48.375 
Q 55.71875 40.765625 55.71875 27.296875 
Q 55.71875 13.875 49.015625 6.21875 
Q 42.328125 -1.421875 30.609375 -1.421875 
Q 18.84375 -1.421875 12.171875 6.21875 
Q 5.515625 13.875 5.515625 27.296875 
Q 5.515625 40.765625 12.171875 48.375 
Q 18.84375 56 30.609375 56 
z
" id="DejaVuSans-111"/>
      <path id="DejaVuSans-32"/>
      <path d="M 31 75.875 
Q 24.46875 64.65625 21.28125 53.65625 
Q 18.109375 42.671875 18.109375 31.390625 
Q 18.109375 20.125 21.3125 9.0625 
Q 24.515625 -2 31 -13.1875 
L 23.1875 -13.1875 
Q 15.875 -1.703125 12.234375 9.375 
Q 8.59375 20.453125 8.59375 31.390625 
Q 8.59375 42.28125 12.203125 53.3125 
Q 15.828125 64.359375 23.1875 75.875 
z
" id="DejaVuSans-40"/>
      <path d="M 18.3125 70.21875 
L 18.3125 54.6875 
L 36.8125 54.6875 
L 36.8125 47.703125 
L 18.3125 47.703125 
L 18.3125 18.015625 
Q 18.3125 11.328125 20.140625 9.421875 
Q 21.96875 7.515625 27.59375 7.515625 
L 36.8125 7.515625 
L 36.8125 0 
L 27.59375 0 
Q 17.1875 0 13.234375 3.875 
Q 9.28125 7.765625 9.28125 18.015625 
L 9.28125 47.703125 
L 2.6875 47.703125 
L 2.6875 54.6875 
L 9.28125 54.6875 
L 9.28125 70.21875 
z
" id="DejaVuSans-116"/>
      <path d="M 8.015625 75.875 
L 15.828125 75.875 
Q 23.140625 64.359375 26.78125 53.3125 
Q 30.421875 42.28125 30.421875 31.390625 
Q 30.421875 20.453125 26.78125 9.375 
Q 23.140625 -1.703125 15.828125 -13.1875 
L 8.015625 -13.1875 
Q 14.5 -2 17.703125 9.0625 
Q 20.90625 20.125 20.90625 31.390625 
Q 20.90625 42.671875 17.703125 53.65625 
Q 14.5 64.65625 8.015625 75.875 
z
" id="DejaVuSans-41"/>
     </defs>
     <g transform="translate(109.562972 158.252562)scale(0.1 -0.1)">
      <use xlink:href="#DejaVuSans-84"/>
      <use x="61.037109" xlink:href="#DejaVuSans-105"/>
      <use x="88.820312" xlink:href="#DejaVuSans-101"/>
      <use x="150.34375" xlink:href="#DejaVuSans-109"/>
      <use x="247.755859" xlink:href="#DejaVuSans-112"/>
      <use x="311.232422" xlink:href="#DejaVuSans-111"/>
      <use x="372.414062" xlink:href="#DejaVuSans-32"/>
      <use x="404.201172" xlink:href="#DejaVuSans-40"/>
      <use x="443.214844" xlink:href="#DejaVuSans-116"/>
      <use x="482.423828" xlink:href="#DejaVuSans-41"/>
     </g>
    </g>
   </g>
   <g id="matplotlib.axis_2">
    <g id="ytick_1">
     <g id="line2d_13">
      <path clip-path="url(#p8160a0f3d4)" d="M 56.09 121.264882 
L 215.179695 121.264882 
" style="fill:none;stroke:#b0b0b0;stroke-linecap:square;stroke-width:0.8;"/>
     </g>
     <g id="line2d_14">
      <defs>
       <path d="M 0 0 
L -3.5 0 
" id="m0f2bf68bf7" style="stroke:#000000;stroke-width:0.8;"/>
      </defs>
      <g>
       <use style="stroke:#000000;stroke-width:0.8;" x="56.09" xlink:href="#m0f2bf68bf7" y="121.264882"/>
      </g>
     </g>
     <g id="text_8">
      <!-- −1.0 -->
      <defs>
       <path d="M 10.59375 35.5 
L 73.1875 35.5 
L 73.1875 27.203125 
L 10.59375 27.203125 
z
" id="DejaVuSans-8722"/>
       <path d="M 10.6875 12.40625 
L 21 12.40625 
L 21 0 
L 10.6875 0 
z
" id="DejaVuSans-46"/>
      </defs>
      <g transform="translate(24.807188 125.064101)scale(0.1 -0.1)">
       <use xlink:href="#DejaVuSans-8722"/>
       <use x="83.789062" xlink:href="#DejaVuSans-49"/>
       <use x="147.412109" xlink:href="#DejaVuSans-46"/>
       <use x="179.199219" xlink:href="#DejaVuSans-48"/>
      </g>
     </g>
    </g>
    <g id="ytick_2">
     <g id="line2d_15">
      <path clip-path="url(#p8160a0f3d4)" d="M 56.09 99.486441 
L 215.179695 99.486441 
" style="fill:none;stroke:#b0b0b0;stroke-linecap:square;stroke-width:0.8;"/>
     </g>
     <g id="line2d_16">
      <g>
       <use style="stroke:#000000;stroke-width:0.8;" x="56.09" xlink:href="#m0f2bf68bf7" y="99.486441"/>
      </g>
     </g>
     <g id="text_9">
      <!-- −0.5 -->
      <g transform="translate(24.807188 103.28566)scale(0.1 -0.1)">
       <use xlink:href="#DejaVuSans-8722"/>
       <use x="83.789062" xlink:href="#DejaVuSans-48"/>
       <use x="147.412109" xlink:href="#DejaVuSans-46"/>
       <use x="179.199219" xlink:href="#DejaVuSans-53"/>
      </g>
     </g>
    </g>
    <g id="ytick_3">
     <g id="line2d_17">
      <path clip-path="url(#p8160a0f3d4)" d="M 56.09 77.708 
L 215.179695 77.708 
" style="fill:none;stroke:#b0b0b0;stroke-linecap:square;stroke-width:0.8;"/>
     </g>
     <g id="line2d_18">
      <g>
       <use style="stroke:#000000;stroke-width:0.8;" x="56.09" xlink:href="#m0f2bf68bf7" y="77.708"/>
      </g>
     </g>
     <g id="text_10">
      <!-- 0.0 -->
      <g transform="translate(33.186875 81.507219)scale(0.1 -0.1)">
       <use xlink:href="#DejaVuSans-48"/>
       <use x="63.623047" xlink:href="#DejaVuSans-46"/>
       <use x="95.410156" xlink:href="#DejaVuSans-48"/>
      </g>
     </g>
    </g>
    <g id="ytick_4">
     <g id="line2d_19">
      <path clip-path="url(#p8160a0f3d4)" d="M 56.09 55.929559 
L 215.179695 55.929559 
" style="fill:none;stroke:#b0b0b0;stroke-linecap:square;stroke-width:0.8;"/>
     </g>
     <g id="line2d_20">
      <g>
       <use style="stroke:#000000;stroke-width:0.8;" x="56.09" xlink:href="#m0f2bf68bf7" y="55.929559"/>
      </g>
     </g>
     <g id="text_11">
      <!-- 0.5 -->
      <g transform="translate(33.186875 59.728778)scale(0.1 -0.1)">
       <use xlink:href="#DejaVuSans-48"/>
       <use x="63.623047" xlink:href="#DejaVuSans-46"/>
       <use x="95.410156" xlink:href="#DejaVuSans-53"/>
      </g>
     </g>
    </g>
    <g id="ytick_5">
     <g id="line2d_21">
      <path clip-path="url(#p8160a0f3d4)" d="M 56.09 34.151118 
L 215.179695 34.151118 
" style="fill:none;stroke:#b0b0b0;stroke-linecap:square;stroke-width:0.8;"/>
     </g>
     <g id="line2d_22">
      <g>
       <use style="stroke:#000000;stroke-width:0.8;" x="56.09" xlink:href="#m0f2bf68bf7" y="34.151118"/>
      </g>
     </g>
     <g id="text_12">
      <!-- 1.0 -->
      <g transform="translate(33.186875 37.950336)scale(0.1 -0.1)">
       <use xlink:href="#DejaVuSans-49"/>
       <use x="63.623047" xlink:href="#DejaVuSans-46"/>
       <use x="95.410156" xlink:href="#DejaVuSans-48"/>
      </g>
     </g>
    </g>
    <g id="text_13">
     <!-- Amplitud -->
     <defs>
      <path d="M 34.1875 63.1875 
L 20.796875 26.90625 
L 47.609375 26.90625 
z
M 28.609375 72.90625 
L 39.796875 72.90625 
L 67.578125 0 
L 57.328125 0 
L 50.6875 18.703125 
L 17.828125 18.703125 
L 11.1875 0 
L 0.78125 0 
z
" id="DejaVuSans-65"/>
      <path d="M 9.421875 75.984375 
L 18.40625 75.984375 
L 18.40625 0 
L 9.421875 0 
z
" id="DejaVuSans-108"/>
      <path d="M 8.5 21.578125 
L 8.5 54.6875 
L 17.484375 54.6875 
L 17.484375 21.921875 
Q 17.484375 14.15625 20.5 10.265625 
Q 23.53125 6.390625 29.59375 6.390625 
Q 36.859375 6.390625 41.078125 11.03125 
Q 45.3125 15.671875 45.3125 23.6875 
L 45.3125 54.6875 
L 54.296875 54.6875 
L 54.296875 0 
L 45.3125 0 
L 45.3125 8.40625 
Q 42.046875 3.421875 37.71875 1 
Q 33.40625 -1.421875 27.6875 -1.421875 
Q 18.265625 -1.421875 13.375 4.4375 
Q 8.5 10.296875 8.5 21.578125 
z
M 31.109375 56 
z
" id="DejaVuSans-117"/>
      <path d="M 45.40625 46.390625 
L 45.40625 75.984375 
L 54.390625 75.984375 
L 54.390625 0 
L 45.40625 0 
L 45.40625 8.203125 
Q 42.578125 3.328125 38.25 0.953125 
Q 33.9375 -1.421875 27.875 -1.421875 
Q 17.96875 -1.421875 11.734375 6.484375 
Q 5.515625 14.40625 5.515625 27.296875 
Q 5.515625 40.1875 11.734375 48.09375 
Q 17.96875 56 27.875 56 
Q 33.9375 56 38.25 53.625 
Q 42.578125 51.265625 45.40625 46.390625 
z
M 14.796875 27.296875 
Q 14.796875 17.390625 18.875 11.75 
Q 22.953125 6.109375 30.078125 6.109375 
Q 37.203125 6.109375 41.296875 11.75 
Q 45.40625 17.390625 45.40625 27.296875 
Q 45.40625 37.203125 41.296875 42.84375 
Q 37.203125 48.484375 30.078125 48.484375 
Q 22.953125 48.484375 18.875 42.84375 
Q 14.796875 37.203125 14.796875 27.296875 
z
" id="DejaVuSans-100"/>
     </defs>
     <g transform="translate(18.7275 100.254094)rotate(-90)scale(0.1 -0.1)">
      <use xlink:href="#DejaVuSans-65"/>
      <use x="68.408203" xlink:href="#DejaVuSans-109"/>
      <use x="165.820312" xlink:href="#DejaVuSans-112"/>
      <use x="229.296875" xlink:href="#DejaVuSans-108"/>
      <use x="257.080078" xlink:href="#DejaVuSans-105"/>
      <use x="284.863281" xlink:href="#DejaVuSans-116"/>
      <use x="324.072266" xlink:href="#DejaVuSans-117"/>
      <use x="387.451172" xlink:href="#DejaVuSans-100"/>
     </g>
    </g>
   </g>
   <g id="line2d_23">
    <path clip-path="url(#p8160a0f3d4)" d="M 56.09 77.708 
L 58.640536 56.685874 
L 59.915804 47.84332 
L 60.872255 42.421449 
L 61.828706 38.254622 
L 62.46634 36.249178 
L 63.103975 34.900185 
L 63.741609 34.229001 
L 64.060426 34.151333 
L 64.379243 34.246254 
L 64.69806 34.513386 
L 65.335694 35.559372 
L 65.973328 37.272731 
L 66.610962 39.626334 
L 67.567413 44.273044 
L 68.523864 50.108941 
L 69.799132 59.37604 
L 71.712034 75.241301 
L 74.581387 98.96988 
L 75.856655 107.771704 
L 76.813107 113.154616 
L 77.769558 117.276791 
L 78.407192 119.250082 
L 79.044826 120.565605 
L 79.68246 121.202529 
L 80.001277 121.26294 
L 80.320094 121.15077 
L 80.638911 120.866464 
L 81.276545 119.786626 
L 81.914179 118.040525 
L 82.551813 115.655806 
L 83.508264 110.966542 
L 84.464715 105.094364 
L 85.739983 95.790844 
L 87.652885 79.900868 
L 90.203422 58.633092 
L 91.47869 49.477454 
L 92.435141 43.751779 
L 93.391592 39.233832 
L 94.029226 36.974132 
L 94.66686 35.359404 
L 95.304494 34.415214 
L 95.623311 34.199665 
L 95.942128 34.156513 
L 96.260945 34.285927 
L 96.579762 34.587396 
L 97.217396 35.701043 
L 97.85503 37.479818 
L 98.492664 39.895558 
L 99.449115 44.627191 
L 100.405566 50.535417 
L 101.680834 59.874989 
L 103.593737 75.78905 
L 106.144273 97.029059 
L 107.419541 106.146815 
L 108.375992 111.835293 
L 109.332443 116.309959 
L 109.970077 118.538177 
L 110.607711 120.119899 
L 111.245345 121.03008 
L 111.564162 121.228416 
L 111.882979 121.254308 
L 112.201796 121.107654 
L 112.520613 120.789034 
L 113.158247 119.641623 
L 113.795881 117.830245 
L 114.433515 115.38358 
L 115.389966 110.609765 
L 116.346417 104.665726 
L 117.621686 95.290472 
L 119.853405 76.611218 
L 122.085124 58.141557 
L 123.360392 49.062043 
L 124.316843 43.410987 
L 125.273294 38.97978 
L 125.910928 36.783132 
L 126.548562 35.234479 
L 127.186196 34.358343 
L 127.505013 34.177228 
L 127.82383 34.168597 
L 128.142647 34.332485 
L 128.461464 34.668244 
L 129.099098 35.849373 
L 129.736732 37.693282 
L 130.374367 40.170776 
L 131.330818 44.986584 
L 132.287269 50.9662 
L 133.562537 60.376765 
L 135.794256 79.078896 
L 138.025975 97.519052 
L 139.301243 106.559964 
L 140.257694 112.173373 
L 141.214145 116.560946 
L 141.851779 118.725937 
L 142.489413 120.241459 
L 143.127047 121.083515 
L 143.445865 121.247403 
L 143.764682 121.238772 
L 144.083499 121.057657 
L 144.402316 120.704773 
L 145.03995 119.489972 
L 145.677584 117.613604 
L 146.315218 115.10538 
L 147.271669 110.247771 
L 148.22812 104.232814 
L 149.503388 94.787312 
L 151.735107 76.063045 
L 153.966826 57.653124 
L 155.242094 48.651174 
L 156.198545 43.075633 
L 157.154997 38.731869 
L 157.792631 36.59862 
L 158.430265 35.116289 
L 159.067899 34.308346 
L 159.386716 34.161692 
L 159.705533 34.187584 
L 160.02435 34.38592 
L 160.661984 35.296101 
L 161.299618 36.877823 
L 161.937252 39.106041 
L 162.893703 43.580707 
L 163.850154 49.269185 
L 165.125422 58.386941 
L 167.038324 74.147061 
L 169.907677 98.005905 
L 171.182946 106.968538 
L 172.139397 112.505988 
L 173.095848 116.805772 
L 173.733482 118.907193 
L 174.371116 120.356275 
L 175.00875 121.130073 
L 175.327567 121.259487 
L 175.646384 121.216335 
L 175.965201 121.000786 
L 176.602835 120.056596 
L 177.240469 118.441868 
L 177.878103 116.182168 
L 178.834554 111.664221 
L 179.791005 105.938546 
L 181.066273 96.782908 
L 182.979175 80.995563 
L 185.848529 57.16787 
L 187.123797 48.244911 
L 188.080248 42.745769 
L 189.036699 38.490137 
L 189.674333 36.420626 
L 190.311967 35.004852 
L 190.949601 34.26523 
L 191.268418 34.15306 
L 191.587235 34.213471 
L 191.906052 34.446223 
L 192.543686 35.424385 
L 193.18132 37.072056 
L 193.818954 39.363148 
L 194.775405 43.924197 
L 195.731856 49.686842 
L 197.007124 58.879998 
L 198.920027 74.693942 
L 201.78938 98.48954 
L 203.064648 107.372472 
L 204.021099 112.833087 
L 204.97755 117.0444 
L 205.615184 119.081917 
L 206.252818 120.464329 
L 206.890452 121.169746 
L 207.209269 121.264667 
L 207.528086 121.186999 
L 207.846903 120.937052 
L 208.484537 119.924958 
L 209.122171 118.24441 
L 209.759805 115.922017 
L 210.716257 111.318046 
L 211.672708 105.51866 
L 212.947976 96.288349 
L 214.860878 80.448433 
L 215.179695 77.708 
L 215.179695 77.708 
" style="fill:none;stroke:#1f77b4;stroke-linecap:square;stroke-width:1.5;"/>
   </g>
   <g id="line2d_24">
    <path clip-path="url(#p8160a0f3d4)" d="M 56.09 77.708 
L 58.640536 56.685874 
L 59.915804 47.84332 
L 60.872255 42.421449 
L 61.828706 38.254622 
L 62.46634 36.249178 
L 63.103975 34.900185 
L 63.741609 34.229001 
L 64.060426 34.151333 
L 64.379243 34.246254 
L 64.69806 34.513386 
L 65.335694 35.559372 
L 65.973328 37.272731 
L 66.610962 39.626334 
L 67.567413 44.273044 
L 68.523864 50.108941 
L 69.799132 59.37604 
L 71.712034 75.241301 
L 74.581387 98.96988 
L 75.856655 107.771704 
L 76.813107 113.154616 
L 77.769558 117.276791 
L 78.407192 119.250082 
L 79.044826 120.565605 
L 79.68246 121.202529 
L 80.001277 121.26294 
L 80.320094 121.15077 
L 80.638911 120.866464 
L 81.276545 119.786626 
L 81.914179 118.040525 
L 82.551813 115.655806 
L 83.508264 110.966542 
L 84.464715 105.094364 
L 85.739983 95.790844 
L 87.652885 79.900868 
L 90.203422 58.633092 
L 91.47869 49.477454 
L 92.435141 43.751779 
L 93.391592 39.233832 
L 94.029226 36.974132 
L 94.66686 35.359404 
L 95.304494 34.415214 
L 95.623311 34.199665 
L 95.942128 34.156513 
L 96.260945 34.285927 
L 96.579762 34.587396 
L 97.217396 35.701043 
L 97.85503 37.479818 
L 98.492664 39.895558 
L 99.449115 44.627191 
L 100.405566 50.535417 
L 101.680834 59.874989 
L 103.593737 75.78905 
L 106.144273 97.029059 
L 107.419541 106.146815 
L 108.375992 111.835293 
L 109.332443 116.309959 
L 109.970077 118.538177 
L 110.607711 120.119899 
L 111.245345 121.03008 
L 111.564162 121.228416 
L 111.882979 121.254308 
L 112.201796 121.107654 
L 112.520613 120.789034 
L 113.158247 119.641623 
L 113.795881 117.830245 
L 114.433515 115.38358 
L 115.389966 110.609765 
L 116.346417 104.665726 
L 117.621686 95.290472 
L 119.853405 76.611218 
L 122.085124 58.141557 
L 123.360392 49.062043 
L 124.316843 43.410987 
L 125.273294 38.97978 
L 125.910928 36.783132 
L 126.548562 35.234479 
L 127.186196 34.358343 
L 127.505013 34.177228 
L 127.82383 34.168597 
L 128.142647 34.332485 
L 128.461464 34.668244 
L 129.099098 35.849373 
L 129.736732 37.693282 
L 130.374367 40.170776 
L 131.330818 44.986584 
L 132.287269 50.9662 
L 133.562537 60.376765 
L 135.794256 79.078896 
L 138.025975 97.519052 
L 139.301243 106.559964 
L 140.257694 112.173373 
L 141.214145 116.560946 
L 141.851779 118.725937 
L 142.489413 120.241459 
L 143.127047 121.083515 
L 143.445865 121.247403 
L 143.764682 121.238772 
L 144.083499 121.057657 
L 144.402316 120.704773 
L 145.03995 119.489972 
L 145.677584 117.613604 
L 146.315218 115.10538 
L 147.271669 110.247771 
L 148.22812 104.232814 
L 149.503388 94.787312 
L 151.735107 76.063045 
L 153.966826 57.653124 
L 155.242094 48.651174 
L 156.198545 43.075633 
L 157.154997 38.731869 
L 157.792631 36.59862 
L 158.430265 35.116289 
L 159.067899 34.308346 
L 159.386716 34.161692 
L 159.705533 34.187584 
L 160.02435 34.38592 
L 160.661984 35.296101 
L 161.299618 36.877823 
L 161.937252 39.106041 
L 162.893703 43.580707 
L 163.850154 49.269185 
L 165.125422 58.386941 
L 167.038324 74.147061 
L 169.907677 98.005905 
L 171.182946 106.968538 
L 172.139397 112.505988 
L 173.095848 116.805772 
L 173.733482 118.907193 
L 174.371116 120.356275 
L 175.00875 121.130073 
L 175.327567 121.259487 
L 175.646384 121.216335 
L 175.965201 121.000786 
L 176.602835 120.056596 
L 177.240469 118.441868 
L 177.878103 116.182168 
L 178.834554 111.664221 
L 179.791005 105.938546 
L 181.066273 96.782908 
L 182.979175 80.995563 
L 185.848529 57.16787 
L 187.123797 48.244911 
L 188.080248 42.745769 
L 189.036699 38.490137 
L 189.674333 36.420626 
L 190.311967 35.004852 
L 190.949601 34.26523 
L 191.268418 34.15306 
L 191.587235 34.213471 
L 191.906052 34.446223 
L 192.543686 35.424385 
L 193.18132 37.072056 
L 193.818954 39.363148 
L 194.775405 43.924197 
L 195.731856 49.686842 
L 197.007124 58.879998 
L 198.920027 74.693942 
L 201.78938 98.48954 
L 203.064648 107.372472 
L 204.021099 112.833087 
L 204.97755 117.0444 
L 205.615184 119.081917 
L 206.252818 120.464329 
L 206.890452 121.169746 
L 207.209269 121.264667 
L 207.528086 121.186999 
L 207.846903 120.937052 
L 208.484537 119.924958 
L 209.122171 118.24441 
L 209.759805 115.922017 
L 210.716257 111.318046 
L 211.672708 105.51866 
L 212.947976 96.288349 
L 214.860878 80.448433 
L 215.179695 77.708 
L 215.179695 77.708 
" style="fill:none;stroke:#ff7f0e;stroke-linecap:square;stroke-width:1.5;"/>
   </g>
   <g id="patch_3">
    <path d="M 56.09 129.976 
L 56.09 25.44 
" style="fill:none;stroke:#000000;stroke-linecap:square;stroke-linejoin:miter;stroke-width:0.8;"/>
   </g>
   <g id="patch_4">
    <path d="M 215.179695 129.976 
L 215.179695 25.44 
" style="fill:none;stroke:#000000;stroke-linecap:square;stroke-linejoin:miter;stroke-width:0.8;"/>
   </g>
   <g id="patch_5">
    <path d="M 56.09 129.976 
L 215.179695 129.976 
" style="fill:none;stroke:#000000;stroke-linecap:square;stroke-linejoin:miter;stroke-width:0.8;"/>
   </g>
   <g id="patch_6">
    <path d="M 56.09 25.44 
L 215.179695 25.44 
" style="fill:none;stroke:#000000;stroke-linecap:square;stroke-linejoin:miter;stroke-width:0.8;"/>
   </g>
   <g id="text_14">
    <!-- Entrada -->
    <defs>
     <path d="M 9.8125 72.90625 
L 55.90625 72.90625 
L 55.90625 64.59375 
L 19.671875 64.59375 
L 19.671875 43.015625 
L 54.390625 43.015625 
L 54.390625 34.71875 
L 19.671875 34.71875 
L 19.671875 8.296875 
L 56.78125 8.296875 
L 56.78125 0 
L 9.8125 0 
z
" id="DejaVuSans-69"/>
     <path d="M 54.890625 33.015625 
L 54.890625 0 
L 45.90625 0 
L 45.90625 32.71875 
Q 45.90625 40.484375 42.875 44.328125 
Q 39.84375 48.1875 33.796875 48.1875 
Q 26.515625 48.1875 22.3125 43.546875 
Q 18.109375 38.921875 18.109375 30.90625 
L 18.109375 0 
L 9.078125 0 
L 9.078125 54.6875 
L 18.109375 54.6875 
L 18.109375 46.1875 
Q 21.34375 51.125 25.703125 53.5625 
Q 30.078125 56 35.796875 56 
Q 45.21875 56 50.046875 50.171875 
Q 54.890625 44.34375 54.890625 33.015625 
z
" id="DejaVuSans-110"/>
     <path d="M 41.109375 46.296875 
Q 39.59375 47.171875 37.8125 47.578125 
Q 36.03125 48 33.890625 48 
Q 26.265625 48 22.1875 43.046875 
Q 18.109375 38.09375 18.109375 28.8125 
L 18.109375 0 
L 9.078125 0 
L 9.078125 54.6875 
L 18.109375 54.6875 
L 18.109375 46.1875 
Q 20.953125 51.171875 25.484375 53.578125 
Q 30.03125 56 36.53125 56 
Q 37.453125 56 38.578125 55.875 
Q 39.703125 55.765625 41.0625 55.515625 
z
" id="DejaVuSans-114"/>
     <path d="M 34.28125 27.484375 
Q 23.390625 27.484375 19.1875 25 
Q 14.984375 22.515625 14.984375 16.5 
Q 14.984375 11.71875 18.140625 8.90625 
Q 21.296875 6.109375 26.703125 6.109375 
Q 34.1875 6.109375 38.703125 11.40625 
Q 43.21875 16.703125 43.21875 25.484375 
L 43.21875 27.484375 
z
M 52.203125 31.203125 
L 52.203125 0 
L 43.21875 0 
L 43.21875 8.296875 
Q 40.140625 3.328125 35.546875 0.953125 
Q 30.953125 -1.421875 24.3125 -1.421875 
Q 15.921875 -1.421875 10.953125 3.296875 
Q 6 8.015625 6 15.921875 
Q 6 25.140625 12.171875 29.828125 
Q 18.359375 34.515625 30.609375 34.515625 
L 43.21875 34.515625 
L 43.21875 35.40625 
Q 43.21875 41.609375 39.140625 45 
Q 35.0625 48.390625 27.6875 48.390625 
Q 23 48.390625 18.546875 47.265625 
Q 14.109375 46.140625 10.015625 43.890625 
L 10.015625 52.203125 
Q 14.9375 54.109375 19.578125 55.046875 
Q 24.21875 56 28.609375 56 
Q 40.484375 56 46.34375 49.84375 
Q 52.203125 43.703125 52.203125 31.203125 
z
" id="DejaVuSans-97"/>
    </defs>
    <g transform="translate(112.059535 19.44)scale(0.12 -0.12)">
     <use xlink:href="#DejaVuSans-69"/>
     <use x="63.183594" xlink:href="#DejaVuSans-110"/>
     <use x="126.5625" xlink:href="#DejaVuSans-116"/>
     <use x="165.771484" xlink:href="#DejaVuSans-114"/>
     <use x="206.884766" xlink:href="#DejaVuSans-97"/>
     <use x="268.164062" xlink:href="#DejaVuSans-100"/>
     <use x="331.640625" xlink:href="#DejaVuSans-97"/>
    </g>
   </g>
  </g>
  <g id="axes_2">
   <g id="patch_7">
    <path d="M 281.09 129.976 
L 440.179695 129.976 
L 440.179695 25.44 
L 281.09 25.44 
z
" style="fill:#ffffff;"/>
   </g>
   <g id="matplotlib.axis_3">
    <g id="xtick_7">
     <g id="line2d_25">
      <path clip-path="url(#pd0c7627daf)" d="M 281.09 129.976 
L 281.09 25.44 
" style="fill:none;stroke:#b0b0b0;stroke-linecap:square;stroke-width:0.8;"/>
     </g>
     <g id="line2d_26">
      <g>
       <use style="stroke:#000000;stroke-width:0.8;" x="281.09" xlink:href="#me584462e63" y="129.976"/>
      </g>
     </g>
     <g id="text_15">
      <!-- 0 -->
      <g transform="translate(277.90875 144.574437)scale(0.1 -0.1)">
       <use xlink:href="#DejaVuSans-48"/>
      </g>
     </g>
    </g>
    <g id="xtick_8">
     <g id="line2d_27">
      <path clip-path="url(#pd0c7627daf)" d="M 312.971702 129.976 
L 312.971702 25.44 
" style="fill:none;stroke:#b0b0b0;stroke-linecap:square;stroke-width:0.8;"/>
     </g>
     <g id="line2d_28">
      <g>
       <use style="stroke:#000000;stroke-width:0.8;" x="312.971702" xlink:href="#me584462e63" y="129.976"/>
      </g>
     </g>
     <g id="text_16">
      <!-- 100 -->
      <g transform="translate(303.427952 144.574437)scale(0.1 -0.1)">
       <use xlink:href="#DejaVuSans-49"/>
       <use x="63.623047" xlink:href="#DejaVuSans-48"/>
       <use x="127.246094" xlink:href="#DejaVuSans-48"/>
      </g>
     </g>
    </g>
    <g id="xtick_9">
     <g id="line2d_29">
      <path clip-path="url(#pd0c7627daf)" d="M 344.853405 129.976 
L 344.853405 25.44 
" style="fill:none;stroke:#b0b0b0;stroke-linecap:square;stroke-width:0.8;"/>
     </g>
     <g id="line2d_30">
      <g>
       <use style="stroke:#000000;stroke-width:0.8;" x="344.853405" xlink:href="#me584462e63" y="129.976"/>
      </g>
     </g>
     <g id="text_17">
      <!-- 200 -->
      <g transform="translate(335.309655 144.574437)scale(0.1 -0.1)">
       <use xlink:href="#DejaVuSans-50"/>
       <use x="63.623047" xlink:href="#DejaVuSans-48"/>
       <use x="127.246094" xlink:href="#DejaVuSans-48"/>
      </g>
     </g>
    </g>
    <g id="xtick_10">
     <g id="line2d_31">
      <path clip-path="url(#pd0c7627daf)" d="M 376.735107 129.976 
L 376.735107 25.44 
" style="fill:none;stroke:#b0b0b0;stroke-linecap:square;stroke-width:0.8;"/>
     </g>
     <g id="line2d_32">
      <g>
       <use style="stroke:#000000;stroke-width:0.8;" x="376.735107" xlink:href="#me584462e63" y="129.976"/>
      </g>
     </g>
     <g id="text_18">
      <!-- 300 -->
      <g transform="translate(367.191357 144.574437)scale(0.1 -0.1)">
       <use xlink:href="#DejaVuSans-51"/>
       <use x="63.623047" xlink:href="#DejaVuSans-48"/>
       <use x="127.246094" xlink:href="#DejaVuSans-48"/>
      </g>
     </g>
    </g>
    <g id="xtick_11">
     <g id="line2d_33">
      <path clip-path="url(#pd0c7627daf)" d="M 408.616809 129.976 
L 408.616809 25.44 
" style="fill:none;stroke:#b0b0b0;stroke-linecap:square;stroke-width:0.8;"/>
     </g>
     <g id="line2d_34">
      <g>
       <use style="stroke:#000000;stroke-width:0.8;" x="408.616809" xlink:href="#me584462e63" y="129.976"/>
      </g>
     </g>
     <g id="text_19">
      <!-- 400 -->
      <g transform="translate(399.073059 144.574437)scale(0.1 -0.1)">
       <use xlink:href="#DejaVuSans-52"/>
       <use x="63.623047" xlink:href="#DejaVuSans-48"/>
       <use x="127.246094" xlink:href="#DejaVuSans-48"/>
      </g>
     </g>
    </g>
    <g id="xtick_12">
     <g id="line2d_35">
      <path clip-path="url(#pd0c7627daf)" d="M 440.498512 129.976 
L 440.498512 25.44 
" style="fill:none;stroke:#b0b0b0;stroke-linecap:square;stroke-width:0.8;"/>
     </g>
     <g id="line2d_36">
      <g>
       <use style="stroke:#000000;stroke-width:0.8;" x="440.498512" xlink:href="#me584462e63" y="129.976"/>
      </g>
     </g>
     <g id="text_20">
      <!-- 500 -->
      <g transform="translate(430.954762 144.574437)scale(0.1 -0.1)">
       <use xlink:href="#DejaVuSans-53"/>
       <use x="63.623047" xlink:href="#DejaVuSans-48"/>
       <use x="127.246094" xlink:href="#DejaVuSans-48"/>
      </g>
     </g>
    </g>
    <g id="text_21">
     <!-- Tiempo (t) -->
     <g transform="translate(334.562972 158.252562)scale(0.1 -0.1)">
      <use xlink:href="#DejaVuSans-84"/>
      <use x="61.037109" xlink:href="#DejaVuSans-105"/>
      <use x="88.820312" xlink:href="#DejaVuSans-101"/>
      <use x="150.34375" xlink:href="#DejaVuSans-109"/>
      <use x="247.755859" xlink:href="#DejaVuSans-112"/>
      <use x="311.232422" xlink:href="#DejaVuSans-111"/>
      <use x="372.414062" xlink:href="#DejaVuSans-32"/>
      <use x="404.201172" xlink:href="#DejaVuSans-40"/>
      <use x="443.214844" xlink:href="#DejaVuSans-116"/>
      <use x="482.423828" xlink:href="#DejaVuSans-41"/>
     </g>
    </g>
   </g>
   <g id="matplotlib.axis_4">
    <g id="ytick_6">
     <g id="line2d_37">
      <path clip-path="url(#pd0c7627daf)" d="M 281.09 106.094242 
L 440.179695 106.094242 
" style="fill:none;stroke:#b0b0b0;stroke-linecap:square;stroke-width:0.8;"/>
     </g>
     <g id="line2d_38">
      <g>
       <use style="stroke:#000000;stroke-width:0.8;" x="281.09" xlink:href="#m0f2bf68bf7" y="106.094242"/>
      </g>
     </g>
     <g id="text_22">
      <!-- −0.2 -->
      <g transform="translate(249.807187 109.893461)scale(0.1 -0.1)">
       <use xlink:href="#DejaVuSans-8722"/>
       <use x="83.789062" xlink:href="#DejaVuSans-48"/>
       <use x="147.412109" xlink:href="#DejaVuSans-46"/>
       <use x="179.199219" xlink:href="#DejaVuSans-50"/>
      </g>
     </g>
    </g>
    <g id="ytick_7">
     <g id="line2d_39">
      <path clip-path="url(#pd0c7627daf)" d="M 281.09 75.295939 
L 440.179695 75.295939 
" style="fill:none;stroke:#b0b0b0;stroke-linecap:square;stroke-width:0.8;"/>
     </g>
     <g id="line2d_40">
      <g>
       <use style="stroke:#000000;stroke-width:0.8;" x="281.09" xlink:href="#m0f2bf68bf7" y="75.295939"/>
      </g>
     </g>
     <g id="text_23">
      <!-- 0.0 -->
      <g transform="translate(258.186875 79.095157)scale(0.1 -0.1)">
       <use xlink:href="#DejaVuSans-48"/>
       <use x="63.623047" xlink:href="#DejaVuSans-46"/>
       <use x="95.410156" xlink:href="#DejaVuSans-48"/>
      </g>
     </g>
    </g>
    <g id="ytick_8">
     <g id="line2d_41">
      <path clip-path="url(#pd0c7627daf)" d="M 281.09 44.497635 
L 440.179695 44.497635 
" style="fill:none;stroke:#b0b0b0;stroke-linecap:square;stroke-width:0.8;"/>
     </g>
     <g id="line2d_42">
      <g>
       <use style="stroke:#000000;stroke-width:0.8;" x="281.09" xlink:href="#m0f2bf68bf7" y="44.497635"/>
      </g>
     </g>
     <g id="text_24">
      <!-- 0.2 -->
      <g transform="translate(258.186875 48.296854)scale(0.1 -0.1)">
       <use xlink:href="#DejaVuSans-48"/>
       <use x="63.623047" xlink:href="#DejaVuSans-46"/>
       <use x="95.410156" xlink:href="#DejaVuSans-50"/>
      </g>
     </g>
    </g>
    <g id="text_25">
     <!-- Amplitud -->
     <g transform="translate(243.7275 100.254094)rotate(-90)scale(0.1 -0.1)">
      <use xlink:href="#DejaVuSans-65"/>
      <use x="68.408203" xlink:href="#DejaVuSans-109"/>
      <use x="165.820312" xlink:href="#DejaVuSans-112"/>
      <use x="229.296875" xlink:href="#DejaVuSans-108"/>
      <use x="257.080078" xlink:href="#DejaVuSans-105"/>
      <use x="284.863281" xlink:href="#DejaVuSans-116"/>
      <use x="324.072266" xlink:href="#DejaVuSans-117"/>
      <use x="387.451172" xlink:href="#DejaVuSans-100"/>
     </g>
    </g>
   </g>
   <g id="line2d_43">
    <path clip-path="url(#pd0c7627daf)" d="M 281.09 75.295939 
L 282.365268 75.199308 
L 283.959353 74.82757 
L 285.872255 74.117818 
L 289.060426 72.87221 
L 290.335694 72.575301 
L 291.610962 72.498766 
L 292.88623 72.692497 
L 294.161498 73.183417 
L 295.436766 73.971312 
L 296.712034 75.026908 
L 298.306119 76.632348 
L 302.450741 81.014295 
L 303.726009 81.978144 
L 304.68246 82.45994 
L 305.638911 82.692776 
L 306.595362 82.647788 
L 307.551813 82.306521 
L 308.508264 81.662296 
L 309.464715 80.721113 
L 310.421166 79.502046 
L 311.696434 77.5014 
L 313.290519 74.55687 
L 317.116324 67.20397 
L 318.391592 65.276476 
L 319.348043 64.178334 
L 320.304494 63.443438 
L 320.942128 63.178737 
L 321.579762 63.106663 
L 322.217396 63.234468 
L 322.85503 63.566127 
L 323.492664 64.102186 
L 324.449115 65.282013 
L 325.405566 66.889054 
L 326.680834 69.619838 
L 328.27492 73.76317 
L 333.057175 87.03526 
L 334.332443 89.644724 
L 335.288894 91.076136 
L 335.926528 91.739733 
L 336.564162 92.15105 
L 337.201796 92.297479 
L 337.83943 92.170575 
L 338.477064 91.766286 
L 339.114698 91.085114 
L 339.752332 90.1322 
L 340.708783 88.215975 
L 341.665235 85.763605 
L 342.940503 81.790509 
L 344.534588 76.024551 
L 348.360392 61.842443 
L 349.63566 58.10719 
L 350.592111 55.932623 
L 351.548562 54.402984 
L 352.186196 53.779031 
L 352.82383 53.491027 
L 353.461464 53.549657 
L 354.099098 53.960096 
L 354.736732 54.721828 
L 355.374367 55.828563 
L 356.330818 58.107618 
L 357.287269 61.0701 
L 358.562537 65.921935 
L 360.156622 73.028724 
L 363.982426 90.771746 
L 365.257694 95.548327 
L 366.214145 98.385971 
L 367.170596 100.451736 
L 367.80823 101.353157 
L 368.445865 101.849475 
L 369.083499 101.92673 
L 369.721133 101.577574 
L 370.358767 100.801486 
L 370.996401 99.604876 
L 371.634035 98.001076 
L 372.590486 94.87774 
L 373.546937 90.980343 
L 374.822205 84.800631 
L 376.735107 74.197528 
L 379.60446 58.272207 
L 380.879728 52.37392 
L 381.83618 48.796519 
L 382.792631 46.106823 
L 383.430265 44.864712 
L 384.067899 44.094248 
L 384.705533 43.81369 
L 385.02435 43.860738 
L 385.661984 44.332378 
L 386.299618 45.305381 
L 386.937252 46.770209 
L 387.574886 48.709266 
L 388.531337 52.449262 
L 389.487788 57.079924 
L 390.763056 64.372972 
L 392.675958 76.790869 
L 395.226494 93.370211 
L 396.501763 100.461427 
L 397.458214 104.849681 
L 398.414665 108.24686 
L 399.052299 109.890855 
L 399.689933 110.999958 
L 400.327567 111.550606 
L 400.646384 111.611526 
L 400.965201 111.527973 
L 401.284018 111.299514 
L 401.921652 110.40904 
L 402.559286 108.948245 
L 403.19692 106.934527 
L 404.153371 102.937531 
L 405.109822 97.883777 
L 406.38509 89.79349 
L 408.297992 75.783004 
L 411.167346 54.485136 
L 412.442614 46.479841 
L 413.399065 41.555088 
L 414.355516 37.770911 
L 414.99315 35.959034 
L 415.630784 34.75743 
L 416.268418 34.191131 
L 416.587235 34.151333 
L 416.906052 34.275218 
L 417.224869 34.56306 
L 417.862503 35.628433 
L 418.500137 37.336534 
L 419.137771 39.666034 
L 420.094222 44.253842 
L 421.050673 50.01986 
L 422.325942 59.204293 
L 424.238844 75.021883 
L 427.108197 98.894354 
L 428.383465 107.803771 
L 429.339916 113.255808 
L 430.296367 117.416633 
L 430.934001 119.389039 
L 431.571635 120.675567 
L 431.890452 121.05295 
L 432.209269 121.249832 
L 432.528086 121.264667 
L 432.846903 121.096627 
L 433.16572 120.745613 
L 433.803354 119.497927 
L 434.440988 117.535422 
L 435.078622 114.883471 
L 436.035074 109.695881 
L 436.991525 103.210149 
L 438.266793 92.924449 
L 440.179695 75.295939 
L 440.179695 75.295939 
" style="fill:none;stroke:#1f77b4;stroke-linecap:square;stroke-width:1.5;"/>
   </g>
   <g id="patch_8">
    <path d="M 281.09 129.976 
L 281.09 25.44 
" style="fill:none;stroke:#000000;stroke-linecap:square;stroke-linejoin:miter;stroke-width:0.8;"/>
   </g>
   <g id="patch_9">
    <path d="M 440.179695 129.976 
L 440.179695 25.44 
" style="fill:none;stroke:#000000;stroke-linecap:square;stroke-linejoin:miter;stroke-width:0.8;"/>
   </g>
   <g id="patch_10">
    <path d="M 281.09 129.976 
L 440.179695 129.976 
" style="fill:none;stroke:#000000;stroke-linecap:square;stroke-linejoin:miter;stroke-width:0.8;"/>
   </g>
   <g id="patch_11">
    <path d="M 281.09 25.44 
L 440.179695 25.44 
" style="fill:none;stroke:#000000;stroke-linecap:square;stroke-linejoin:miter;stroke-width:0.8;"/>
   </g>
   <g id="text_26">
    <!-- Función de Transferencia -->
    <defs>
     <path d="M 9.8125 72.90625 
L 51.703125 72.90625 
L 51.703125 64.59375 
L 19.671875 64.59375 
L 19.671875 43.109375 
L 48.578125 43.109375 
L 48.578125 34.8125 
L 19.671875 34.8125 
L 19.671875 0 
L 9.8125 0 
z
" id="DejaVuSans-70"/>
     <path d="M 48.78125 52.59375 
L 48.78125 44.1875 
Q 44.96875 46.296875 41.140625 47.34375 
Q 37.3125 48.390625 33.40625 48.390625 
Q 24.65625 48.390625 19.8125 42.84375 
Q 14.984375 37.3125 14.984375 27.296875 
Q 14.984375 17.28125 19.8125 11.734375 
Q 24.65625 6.203125 33.40625 6.203125 
Q 37.3125 6.203125 41.140625 7.25 
Q 44.96875 8.296875 48.78125 10.40625 
L 48.78125 2.09375 
Q 45.015625 0.34375 40.984375 -0.53125 
Q 36.96875 -1.421875 32.421875 -1.421875 
Q 20.0625 -1.421875 12.78125 6.34375 
Q 5.515625 14.109375 5.515625 27.296875 
Q 5.515625 40.671875 12.859375 48.328125 
Q 20.21875 56 33.015625 56 
Q 37.15625 56 41.109375 55.140625 
Q 45.0625 54.296875 48.78125 52.59375 
z
" id="DejaVuSans-99"/>
     <path d="M 30.609375 48.390625 
Q 23.390625 48.390625 19.1875 42.75 
Q 14.984375 37.109375 14.984375 27.296875 
Q 14.984375 17.484375 19.15625 11.84375 
Q 23.34375 6.203125 30.609375 6.203125 
Q 37.796875 6.203125 41.984375 11.859375 
Q 46.1875 17.53125 46.1875 27.296875 
Q 46.1875 37.015625 41.984375 42.703125 
Q 37.796875 48.390625 30.609375 48.390625 
z
M 30.609375 56 
Q 42.328125 56 49.015625 48.375 
Q 55.71875 40.765625 55.71875 27.296875 
Q 55.71875 13.875 49.015625 6.21875 
Q 42.328125 -1.421875 30.609375 -1.421875 
Q 18.84375 -1.421875 12.171875 6.21875 
Q 5.515625 13.875 5.515625 27.296875 
Q 5.515625 40.765625 12.171875 48.375 
Q 18.84375 56 30.609375 56 
z
M 37.40625 79.984375 
L 47.125 79.984375 
L 31.203125 61.625 
L 23.734375 61.625 
z
" id="DejaVuSans-243"/>
     <path d="M 44.28125 53.078125 
L 44.28125 44.578125 
Q 40.484375 46.53125 36.375 47.5 
Q 32.28125 48.484375 27.875 48.484375 
Q 21.1875 48.484375 17.84375 46.4375 
Q 14.5 44.390625 14.5 40.28125 
Q 14.5 37.15625 16.890625 35.375 
Q 19.28125 33.59375 26.515625 31.984375 
L 29.59375 31.296875 
Q 39.15625 29.25 43.1875 25.515625 
Q 47.21875 21.78125 47.21875 15.09375 
Q 47.21875 7.46875 41.1875 3.015625 
Q 35.15625 -1.421875 24.609375 -1.421875 
Q 20.21875 -1.421875 15.453125 -0.5625 
Q 10.6875 0.296875 5.421875 2 
L 5.421875 11.28125 
Q 10.40625 8.6875 15.234375 7.390625 
Q 20.0625 6.109375 24.8125 6.109375 
Q 31.15625 6.109375 34.5625 8.28125 
Q 37.984375 10.453125 37.984375 14.40625 
Q 37.984375 18.0625 35.515625 20.015625 
Q 33.0625 21.96875 24.703125 23.78125 
L 21.578125 24.515625 
Q 13.234375 26.265625 9.515625 29.90625 
Q 5.8125 33.546875 5.8125 39.890625 
Q 5.8125 47.609375 11.28125 51.796875 
Q 16.75 56 26.8125 56 
Q 31.78125 56 36.171875 55.265625 
Q 40.578125 54.546875 44.28125 53.078125 
z
" id="DejaVuSans-115"/>
     <path d="M 37.109375 75.984375 
L 37.109375 68.5 
L 28.515625 68.5 
Q 23.6875 68.5 21.796875 66.546875 
Q 19.921875 64.59375 19.921875 59.515625 
L 19.921875 54.6875 
L 34.71875 54.6875 
L 34.71875 47.703125 
L 19.921875 47.703125 
L 19.921875 0 
L 10.890625 0 
L 10.890625 47.703125 
L 2.296875 47.703125 
L 2.296875 54.6875 
L 10.890625 54.6875 
L 10.890625 58.5 
Q 10.890625 67.625 15.140625 71.796875 
Q 19.390625 75.984375 28.609375 75.984375 
z
" id="DejaVuSans-102"/>
    </defs>
    <g transform="translate(284.70016 19.44)scale(0.12 -0.12)">
     <use xlink:href="#DejaVuSans-70"/>
     <use x="57.441406" xlink:href="#DejaVuSans-117"/>
     <use x="120.820312" xlink:href="#DejaVuSans-110"/>
     <use x="184.199219" xlink:href="#DejaVuSans-99"/>
     <use x="239.179688" xlink:href="#DejaVuSans-105"/>
     <use x="266.962891" xlink:href="#DejaVuSans-243"/>
     <use x="328.144531" xlink:href="#DejaVuSans-110"/>
     <use x="391.523438" xlink:href="#DejaVuSans-32"/>
     <use x="423.310547" xlink:href="#DejaVuSans-100"/>
     <use x="486.787109" xlink:href="#DejaVuSans-101"/>
     <use x="548.310547" xlink:href="#DejaVuSans-32"/>
     <use x="580.097656" xlink:href="#DejaVuSans-84"/>
     <use x="640.962891" xlink:href="#DejaVuSans-114"/>
     <use x="682.076172" xlink:href="#DejaVuSans-97"/>
     <use x="743.355469" xlink:href="#DejaVuSans-110"/>
     <use x="806.734375" xlink:href="#DejaVuSans-115"/>
     <use x="858.833984" xlink:href="#DejaVuSans-102"/>
     <use x="894.039062" xlink:href="#DejaVuSans-101"/>
     <use x="955.5625" xlink:href="#DejaVuSans-114"/>
     <use x="996.644531" xlink:href="#DejaVuSans-101"/>
     <use x="1058.167969" xlink:href="#DejaVuSans-110"/>
     <use x="1121.546875" xlink:href="#DejaVuSans-99"/>
     <use x="1176.527344" xlink:href="#DejaVuSans-105"/>
     <use x="1204.310547" xlink:href="#DejaVuSans-97"/>
    </g>
   </g>
  </g>
  <g id="axes_3">
   <g id="patch_12">
    <path d="M 56.09 303.64 
L 215.179695 303.64 
L 215.179695 199.104 
L 56.09 199.104 
z
" style="fill:#ffffff;"/>
   </g>
   <g id="matplotlib.axis_5">
    <g id="xtick_13">
     <g id="line2d_44">
      <path clip-path="url(#p7bf2c8992c)" d="M 56.09 303.64 
L 56.09 199.104 
" style="fill:none;stroke:#b0b0b0;stroke-linecap:square;stroke-width:0.8;"/>
     </g>
     <g id="line2d_45">
      <g>
       <use style="stroke:#000000;stroke-width:0.8;" x="56.09" xlink:href="#me584462e63" y="303.64"/>
      </g>
     </g>
     <g id="text_27">
      <!-- 0 -->
      <g transform="translate(52.90875 318.238437)scale(0.1 -0.1)">
       <use xlink:href="#DejaVuSans-48"/>
      </g>
     </g>
    </g>
    <g id="xtick_14">
     <g id="line2d_46">
      <path clip-path="url(#p7bf2c8992c)" d="M 87.971702 303.64 
L 87.971702 199.104 
" style="fill:none;stroke:#b0b0b0;stroke-linecap:square;stroke-width:0.8;"/>
     </g>
     <g id="line2d_47">
      <g>
       <use style="stroke:#000000;stroke-width:0.8;" x="87.971702" xlink:href="#me584462e63" y="303.64"/>
      </g>
     </g>
     <g id="text_28">
      <!-- 200 -->
      <g transform="translate(78.427952 318.238437)scale(0.1 -0.1)">
       <use xlink:href="#DejaVuSans-50"/>
       <use x="63.623047" xlink:href="#DejaVuSans-48"/>
       <use x="127.246094" xlink:href="#DejaVuSans-48"/>
      </g>
     </g>
    </g>
    <g id="xtick_15">
     <g id="line2d_48">
      <path clip-path="url(#p7bf2c8992c)" d="M 119.853405 303.64 
L 119.853405 199.104 
" style="fill:none;stroke:#b0b0b0;stroke-linecap:square;stroke-width:0.8;"/>
     </g>
     <g id="line2d_49">
      <g>
       <use style="stroke:#000000;stroke-width:0.8;" x="119.853405" xlink:href="#me584462e63" y="303.64"/>
      </g>
     </g>
     <g id="text_29">
      <!-- 400 -->
      <g transform="translate(110.309655 318.238437)scale(0.1 -0.1)">
       <use xlink:href="#DejaVuSans-52"/>
       <use x="63.623047" xlink:href="#DejaVuSans-48"/>
       <use x="127.246094" xlink:href="#DejaVuSans-48"/>
      </g>
     </g>
    </g>
    <g id="xtick_16">
     <g id="line2d_50">
      <path clip-path="url(#p7bf2c8992c)" d="M 151.735107 303.64 
L 151.735107 199.104 
" style="fill:none;stroke:#b0b0b0;stroke-linecap:square;stroke-width:0.8;"/>
     </g>
     <g id="line2d_51">
      <g>
       <use style="stroke:#000000;stroke-width:0.8;" x="151.735107" xlink:href="#me584462e63" y="303.64"/>
      </g>
     </g>
     <g id="text_30">
      <!-- 600 -->
      <defs>
       <path d="M 33.015625 40.375 
Q 26.375 40.375 22.484375 35.828125 
Q 18.609375 31.296875 18.609375 23.390625 
Q 18.609375 15.53125 22.484375 10.953125 
Q 26.375 6.390625 33.015625 6.390625 
Q 39.65625 6.390625 43.53125 10.953125 
Q 47.40625 15.53125 47.40625 23.390625 
Q 47.40625 31.296875 43.53125 35.828125 
Q 39.65625 40.375 33.015625 40.375 
z
M 52.59375 71.296875 
L 52.59375 62.3125 
Q 48.875 64.0625 45.09375 64.984375 
Q 41.3125 65.921875 37.59375 65.921875 
Q 27.828125 65.921875 22.671875 59.328125 
Q 17.53125 52.734375 16.796875 39.40625 
Q 19.671875 43.65625 24.015625 45.921875 
Q 28.375 48.1875 33.59375 48.1875 
Q 44.578125 48.1875 50.953125 41.515625 
Q 57.328125 34.859375 57.328125 23.390625 
Q 57.328125 12.15625 50.6875 5.359375 
Q 44.046875 -1.421875 33.015625 -1.421875 
Q 20.359375 -1.421875 13.671875 8.265625 
Q 6.984375 17.96875 6.984375 36.375 
Q 6.984375 53.65625 15.1875 63.9375 
Q 23.390625 74.21875 37.203125 74.21875 
Q 40.921875 74.21875 44.703125 73.484375 
Q 48.484375 72.75 52.59375 71.296875 
z
" id="DejaVuSans-54"/>
      </defs>
      <g transform="translate(142.191357 318.238437)scale(0.1 -0.1)">
       <use xlink:href="#DejaVuSans-54"/>
       <use x="63.623047" xlink:href="#DejaVuSans-48"/>
       <use x="127.246094" xlink:href="#DejaVuSans-48"/>
      </g>
     </g>
    </g>
    <g id="xtick_17">
     <g id="line2d_52">
      <path clip-path="url(#p7bf2c8992c)" d="M 183.616809 303.64 
L 183.616809 199.104 
" style="fill:none;stroke:#b0b0b0;stroke-linecap:square;stroke-width:0.8;"/>
     </g>
     <g id="line2d_53">
      <g>
       <use style="stroke:#000000;stroke-width:0.8;" x="183.616809" xlink:href="#me584462e63" y="303.64"/>
      </g>
     </g>
     <g id="text_31">
      <!-- 800 -->
      <defs>
       <path d="M 31.78125 34.625 
Q 24.75 34.625 20.71875 30.859375 
Q 16.703125 27.09375 16.703125 20.515625 
Q 16.703125 13.921875 20.71875 10.15625 
Q 24.75 6.390625 31.78125 6.390625 
Q 38.8125 6.390625 42.859375 10.171875 
Q 46.921875 13.96875 46.921875 20.515625 
Q 46.921875 27.09375 42.890625 30.859375 
Q 38.875 34.625 31.78125 34.625 
z
M 21.921875 38.8125 
Q 15.578125 40.375 12.03125 44.71875 
Q 8.5 49.078125 8.5 55.328125 
Q 8.5 64.0625 14.71875 69.140625 
Q 20.953125 74.21875 31.78125 74.21875 
Q 42.671875 74.21875 48.875 69.140625 
Q 55.078125 64.0625 55.078125 55.328125 
Q 55.078125 49.078125 51.53125 44.71875 
Q 48 40.375 41.703125 38.8125 
Q 48.828125 37.15625 52.796875 32.3125 
Q 56.78125 27.484375 56.78125 20.515625 
Q 56.78125 9.90625 50.3125 4.234375 
Q 43.84375 -1.421875 31.78125 -1.421875 
Q 19.734375 -1.421875 13.25 4.234375 
Q 6.78125 9.90625 6.78125 20.515625 
Q 6.78125 27.484375 10.78125 32.3125 
Q 14.796875 37.15625 21.921875 38.8125 
z
M 18.3125 54.390625 
Q 18.3125 48.734375 21.84375 45.5625 
Q 25.390625 42.390625 31.78125 42.390625 
Q 38.140625 42.390625 41.71875 45.5625 
Q 45.3125 48.734375 45.3125 54.390625 
Q 45.3125 60.0625 41.71875 63.234375 
Q 38.140625 66.40625 31.78125 66.40625 
Q 25.390625 66.40625 21.84375 63.234375 
Q 18.3125 60.0625 18.3125 54.390625 
z
" id="DejaVuSans-56"/>
      </defs>
      <g transform="translate(174.073059 318.238437)scale(0.1 -0.1)">
       <use xlink:href="#DejaVuSans-56"/>
       <use x="63.623047" xlink:href="#DejaVuSans-48"/>
       <use x="127.246094" xlink:href="#DejaVuSans-48"/>
      </g>
     </g>
    </g>
    <g id="xtick_18">
     <g id="line2d_54">
      <path clip-path="url(#p7bf2c8992c)" d="M 215.498512 303.64 
L 215.498512 199.104 
" style="fill:none;stroke:#b0b0b0;stroke-linecap:square;stroke-width:0.8;"/>
     </g>
     <g id="line2d_55">
      <g>
       <use style="stroke:#000000;stroke-width:0.8;" x="215.498512" xlink:href="#me584462e63" y="303.64"/>
      </g>
     </g>
     <g id="text_32">
      <!-- 1000 -->
      <g transform="translate(202.773512 318.238437)scale(0.1 -0.1)">
       <use xlink:href="#DejaVuSans-49"/>
       <use x="63.623047" xlink:href="#DejaVuSans-48"/>
       <use x="127.246094" xlink:href="#DejaVuSans-48"/>
       <use x="190.869141" xlink:href="#DejaVuSans-48"/>
      </g>
     </g>
    </g>
    <g id="text_33">
     <!-- Tiempo (t) -->
     <g transform="translate(109.562972 331.916562)scale(0.1 -0.1)">
      <use xlink:href="#DejaVuSans-84"/>
      <use x="61.037109" xlink:href="#DejaVuSans-105"/>
      <use x="88.820312" xlink:href="#DejaVuSans-101"/>
      <use x="150.34375" xlink:href="#DejaVuSans-109"/>
      <use x="247.755859" xlink:href="#DejaVuSans-112"/>
      <use x="311.232422" xlink:href="#DejaVuSans-111"/>
      <use x="372.414062" xlink:href="#DejaVuSans-32"/>
      <use x="404.201172" xlink:href="#DejaVuSans-40"/>
      <use x="443.214844" xlink:href="#DejaVuSans-116"/>
      <use x="482.423828" xlink:href="#DejaVuSans-41"/>
     </g>
    </g>
   </g>
   <g id="matplotlib.axis_6">
    <g id="ytick_9">
     <g id="line2d_56">
      <path clip-path="url(#p7bf2c8992c)" d="M 56.09 295.830977 
L 215.179695 295.830977 
" style="fill:none;stroke:#b0b0b0;stroke-linecap:square;stroke-width:0.8;"/>
     </g>
     <g id="line2d_57">
      <g>
       <use style="stroke:#000000;stroke-width:0.8;" x="56.09" xlink:href="#m0f2bf68bf7" y="295.830977"/>
      </g>
     </g>
     <g id="text_34">
      <!-- −40 -->
      <g transform="translate(27.985313 299.630195)scale(0.1 -0.1)">
       <use xlink:href="#DejaVuSans-8722"/>
       <use x="83.789062" xlink:href="#DejaVuSans-52"/>
       <use x="147.412109" xlink:href="#DejaVuSans-48"/>
      </g>
     </g>
    </g>
    <g id="ytick_10">
     <g id="line2d_58">
      <path clip-path="url(#p7bf2c8992c)" d="M 56.09 273.493609 
L 215.179695 273.493609 
" style="fill:none;stroke:#b0b0b0;stroke-linecap:square;stroke-width:0.8;"/>
     </g>
     <g id="line2d_59">
      <g>
       <use style="stroke:#000000;stroke-width:0.8;" x="56.09" xlink:href="#m0f2bf68bf7" y="273.493609"/>
      </g>
     </g>
     <g id="text_35">
      <!-- −20 -->
      <g transform="translate(27.985313 277.292828)scale(0.1 -0.1)">
       <use xlink:href="#DejaVuSans-8722"/>
       <use x="83.789062" xlink:href="#DejaVuSans-50"/>
       <use x="147.412109" xlink:href="#DejaVuSans-48"/>
      </g>
     </g>
    </g>
    <g id="ytick_11">
     <g id="line2d_60">
      <path clip-path="url(#p7bf2c8992c)" d="M 56.09 251.156241 
L 215.179695 251.156241 
" style="fill:none;stroke:#b0b0b0;stroke-linecap:square;stroke-width:0.8;"/>
     </g>
     <g id="line2d_61">
      <g>
       <use style="stroke:#000000;stroke-width:0.8;" x="56.09" xlink:href="#m0f2bf68bf7" y="251.156241"/>
      </g>
     </g>
     <g id="text_36">
      <!-- 0 -->
      <g transform="translate(42.7275 254.95546)scale(0.1 -0.1)">
       <use xlink:href="#DejaVuSans-48"/>
      </g>
     </g>
    </g>
    <g id="ytick_12">
     <g id="line2d_62">
      <path clip-path="url(#p7bf2c8992c)" d="M 56.09 228.818873 
L 215.179695 228.818873 
" style="fill:none;stroke:#b0b0b0;stroke-linecap:square;stroke-width:0.8;"/>
     </g>
     <g id="line2d_63">
      <g>
       <use style="stroke:#000000;stroke-width:0.8;" x="56.09" xlink:href="#m0f2bf68bf7" y="228.818873"/>
      </g>
     </g>
     <g id="text_37">
      <!-- 20 -->
      <g transform="translate(36.365 232.618092)scale(0.1 -0.1)">
       <use xlink:href="#DejaVuSans-50"/>
       <use x="63.623047" xlink:href="#DejaVuSans-48"/>
      </g>
     </g>
    </g>
    <g id="ytick_13">
     <g id="line2d_64">
      <path clip-path="url(#p7bf2c8992c)" d="M 56.09 206.481505 
L 215.179695 206.481505 
" style="fill:none;stroke:#b0b0b0;stroke-linecap:square;stroke-width:0.8;"/>
     </g>
     <g id="line2d_65">
      <g>
       <use style="stroke:#000000;stroke-width:0.8;" x="56.09" xlink:href="#m0f2bf68bf7" y="206.481505"/>
      </g>
     </g>
     <g id="text_38">
      <!-- 40 -->
      <g transform="translate(36.365 210.280724)scale(0.1 -0.1)">
       <use xlink:href="#DejaVuSans-52"/>
       <use x="63.623047" xlink:href="#DejaVuSans-48"/>
      </g>
     </g>
    </g>
    <g id="text_39">
     <!-- Amplitud -->
     <g transform="translate(21.905625 273.918094)rotate(-90)scale(0.1 -0.1)">
      <use xlink:href="#DejaVuSans-65"/>
      <use x="68.408203" xlink:href="#DejaVuSans-109"/>
      <use x="165.820312" xlink:href="#DejaVuSans-112"/>
      <use x="229.296875" xlink:href="#DejaVuSans-108"/>
      <use x="257.080078" xlink:href="#DejaVuSans-105"/>
      <use x="284.863281" xlink:href="#DejaVuSans-116"/>
      <use x="324.072266" xlink:href="#DejaVuSans-117"/>
      <use x="387.451172" xlink:href="#DejaVuSans-100"/>
     </g>
    </g>
   </g>
   <g id="line2d_66">
    <path clip-path="url(#p7bf2c8992c)" d="M 56.09 251.156241 
L 60.553438 251.053297 
L 65.654511 250.746449 
L 66.929779 250.988713 
L 68.364455 251.509638 
L 71.552626 252.83204 
L 72.509077 252.925993 
L 73.306119 252.790764 
L 74.103162 252.436629 
L 75.059613 251.727525 
L 76.175472 250.586576 
L 78.726009 247.835521 
L 79.523051 247.343025 
L 80.160685 247.19592 
L 80.798319 247.307411 
L 81.435953 247.697387 
L 82.073587 248.367235 
L 82.87063 249.567187 
L 83.98649 251.762724 
L 86.377617 256.679078 
L 87.17466 257.717534 
L 87.652885 258.068454 
L 88.131111 258.181379 
L 88.609336 258.037399 
L 89.087562 257.626547 
L 89.725196 256.664901 
L 90.36283 255.258407 
L 91.159873 252.971813 
L 92.594549 247.993544 
L 94.029226 243.257034 
L 94.826268 241.363565 
L 95.463902 240.456147 
L 95.942128 240.196822 
L 96.260945 240.241079 
L 96.579762 240.465146 
L 97.057988 241.141984 
L 97.536213 242.221326 
L 98.173847 244.247229 
L 98.97089 247.583184 
L 100.246158 254.074839 
L 101.840243 262.006276 
L 102.637285 264.913048 
L 103.27492 266.381977 
L 103.753145 266.887952 
L 104.071962 266.917746 
L 104.390779 266.692625 
L 104.709596 266.209474 
L 105.187822 265.004462 
L 105.825456 262.540639 
L 106.622498 258.250864 
L 107.738358 250.659589 
L 109.810668 236.227652 
L 110.607711 232.305782 
L 111.085937 230.73775 
L 111.564162 229.859437 
L 111.882979 229.686012 
L 112.201796 229.855271 
L 112.520613 230.372327 
L 112.998839 231.797438 
L 113.477064 233.977007 
L 114.114698 237.958532 
L 114.911741 244.361373 
L 116.505826 259.605264 
L 117.781094 270.842003 
L 118.578137 275.919333 
L 119.056362 277.918282 
L 119.534588 279.006235 
L 119.853405 279.190636 
L 120.172222 278.927584 
L 120.491039 278.212351 
L 120.969264 276.299233 
L 121.44749 273.415805 
L 122.085124 268.199147 
L 123.041575 258.03487 
L 126.070337 223.172427 
L 126.707971 218.707967 
L 127.186196 216.611695 
L 127.505013 215.872842 
L 127.82383 215.687189 
L 127.983239 215.806195 
L 128.302056 216.471773 
L 128.620873 217.705991 
L 129.099098 220.599501 
L 129.736732 226.279144 
L 130.533775 235.86928 
L 131.809043 254.849188 
L 133.403128 278.501045 
L 134.200171 287.500494 
L 134.837805 292.373577 
L 135.31603 294.40795 
L 135.634847 294.927841 
L 135.794256 294.928667 
L 135.953664 294.756052 
L 136.272481 293.893962 
L 136.591298 292.355354 
L 137.069524 288.835589 
L 137.707158 282.08974 
L 138.504201 270.985162 
L 139.938877 246.993634 
L 141.373554 224.39375 
L 142.170596 215.128644 
L 142.80823 210.250746 
L 143.286456 208.281573 
L 143.605273 207.815333 
L 143.764682 207.839568 
L 144.083499 208.401556 
L 144.402316 209.638693 
L 144.880541 212.711859 
L 145.518175 218.892236 
L 146.315218 229.378343 
L 147.590486 249.959745 
L 149.184571 275.197442 
L 149.981613 284.745864 
L 150.619248 290.000569 
L 151.097473 292.329676 
L 151.41629 293.067662 
L 151.575699 293.187654 
L 151.735107 293.141157 
L 152.053924 292.551224 
L 152.372741 291.309497 
L 152.850967 288.275621 
L 153.488601 282.236346 
L 154.285643 272.065192 
L 155.560911 252.250355 
L 157.154997 228.169023 
L 157.952039 219.140723 
L 158.589673 214.215641 
L 159.067899 212.06412 
L 159.386716 211.405646 
L 159.546124 211.312812 
L 159.705533 211.377728 
L 160.02435 211.977469 
L 160.343167 213.191979 
L 160.821392 216.114388 
L 161.459026 221.874943 
L 162.256069 231.505401 
L 163.690746 252.534362 
L 165.125422 272.537116 
L 165.922465 280.859991 
L 166.560099 285.35916 
L 167.038324 287.295466 
L 167.357141 287.866662 
L 167.51655 287.933718 
L 167.675958 287.855271 
L 167.994775 287.265927 
L 168.313592 286.11245 
L 168.791818 283.376519 
L 169.429452 278.035596 
L 170.226494 269.174625 
L 171.661171 249.997671 
L 173.095848 231.947093 
L 173.89289 224.511112 
L 174.530524 220.530403 
L 175.00875 218.843897 
L 175.327567 218.365658 
L 175.486975 218.321951 
L 175.646384 218.407997 
L 175.965201 218.96468 
L 176.284018 220.021304 
L 176.762243 222.492926 
L 177.399878 227.270046 
L 178.19692 235.129742 
L 179.791005 253.861131 
L 181.066273 267.615384 
L 181.863316 273.98688 
L 182.50095 277.360347 
L 182.979175 278.765526 
L 183.297992 279.147214 
L 183.616809 279.084376 
L 183.935627 278.58468 
L 184.254444 277.662719 
L 184.732669 275.536038 
L 185.370303 271.470123 
L 186.167346 264.846432 
L 189.514924 234.737432 
L 190.152558 231.39434 
L 190.630784 229.769443 
L 191.10901 228.941723 
L 191.427827 228.836067 
L 191.746644 229.081094 
L 192.065461 229.665133 
L 192.543686 231.138382 
L 193.18132 234.091208 
L 193.978363 239.024098 
L 195.731856 251.986475 
L 196.847716 259.42555 
L 197.644759 263.423732 
L 198.282393 265.58076 
L 198.760618 266.534181 
L 199.079435 266.847966 
L 199.398252 266.907992 
L 199.717069 266.72217 
L 200.195295 266.009358 
L 200.67352 264.825572 
L 201.311154 262.637019 
L 202.267605 258.454185 
L 204.499325 248.240404 
L 205.296367 245.575978 
L 205.934001 244.071154 
L 206.571635 243.164062 
L 207.049861 242.869249 
L 207.528086 242.881426 
L 208.006312 243.166567 
L 208.643946 243.895305 
L 209.440988 245.195288 
L 211.832116 249.403403 
L 212.629159 250.316526 
L 213.426201 250.867836 
L 214.223244 251.108531 
L 215.179695 251.156241 
L 215.179695 251.156241 
" style="fill:none;stroke:#1f77b4;stroke-linecap:square;stroke-width:1.5;"/>
   </g>
   <g id="patch_13">
    <path d="M 56.09 303.64 
L 56.09 199.104 
" style="fill:none;stroke:#000000;stroke-linecap:square;stroke-linejoin:miter;stroke-width:0.8;"/>
   </g>
   <g id="patch_14">
    <path d="M 215.179695 303.64 
L 215.179695 199.104 
" style="fill:none;stroke:#000000;stroke-linecap:square;stroke-linejoin:miter;stroke-width:0.8;"/>
   </g>
   <g id="patch_15">
    <path d="M 56.09 303.64 
L 215.179695 303.64 
" style="fill:none;stroke:#000000;stroke-linecap:square;stroke-linejoin:miter;stroke-width:0.8;"/>
   </g>
   <g id="patch_16">
    <path d="M 56.09 199.104 
L 215.179695 199.104 
" style="fill:none;stroke:#000000;stroke-linecap:square;stroke-linejoin:miter;stroke-width:0.8;"/>
   </g>
   <g id="text_40">
    <!-- Convolución Original -->
    <defs>
     <path d="M 64.40625 67.28125 
L 64.40625 56.890625 
Q 59.421875 61.53125 53.78125 63.8125 
Q 48.140625 66.109375 41.796875 66.109375 
Q 29.296875 66.109375 22.65625 58.46875 
Q 16.015625 50.828125 16.015625 36.375 
Q 16.015625 21.96875 22.65625 14.328125 
Q 29.296875 6.6875 41.796875 6.6875 
Q 48.140625 6.6875 53.78125 8.984375 
Q 59.421875 11.28125 64.40625 15.921875 
L 64.40625 5.609375 
Q 59.234375 2.09375 53.4375 0.328125 
Q 47.65625 -1.421875 41.21875 -1.421875 
Q 24.65625 -1.421875 15.125 8.703125 
Q 5.609375 18.84375 5.609375 36.375 
Q 5.609375 53.953125 15.125 64.078125 
Q 24.65625 74.21875 41.21875 74.21875 
Q 47.75 74.21875 53.53125 72.484375 
Q 59.328125 70.75 64.40625 67.28125 
z
" id="DejaVuSans-67"/>
     <path d="M 2.984375 54.6875 
L 12.5 54.6875 
L 29.59375 8.796875 
L 46.6875 54.6875 
L 56.203125 54.6875 
L 35.6875 0 
L 23.484375 0 
z
" id="DejaVuSans-118"/>
     <path d="M 39.40625 66.21875 
Q 28.65625 66.21875 22.328125 58.203125 
Q 16.015625 50.203125 16.015625 36.375 
Q 16.015625 22.609375 22.328125 14.59375 
Q 28.65625 6.59375 39.40625 6.59375 
Q 50.140625 6.59375 56.421875 14.59375 
Q 62.703125 22.609375 62.703125 36.375 
Q 62.703125 50.203125 56.421875 58.203125 
Q 50.140625 66.21875 39.40625 66.21875 
z
M 39.40625 74.21875 
Q 54.734375 74.21875 63.90625 63.9375 
Q 73.09375 53.65625 73.09375 36.375 
Q 73.09375 19.140625 63.90625 8.859375 
Q 54.734375 -1.421875 39.40625 -1.421875 
Q 24.03125 -1.421875 14.8125 8.828125 
Q 5.609375 19.09375 5.609375 36.375 
Q 5.609375 53.65625 14.8125 63.9375 
Q 24.03125 74.21875 39.40625 74.21875 
z
" id="DejaVuSans-79"/>
     <path d="M 45.40625 27.984375 
Q 45.40625 37.75 41.375 43.109375 
Q 37.359375 48.484375 30.078125 48.484375 
Q 22.859375 48.484375 18.828125 43.109375 
Q 14.796875 37.75 14.796875 27.984375 
Q 14.796875 18.265625 18.828125 12.890625 
Q 22.859375 7.515625 30.078125 7.515625 
Q 37.359375 7.515625 41.375 12.890625 
Q 45.40625 18.265625 45.40625 27.984375 
z
M 54.390625 6.78125 
Q 54.390625 -7.171875 48.1875 -13.984375 
Q 42 -20.796875 29.203125 -20.796875 
Q 24.46875 -20.796875 20.265625 -20.09375 
Q 16.0625 -19.390625 12.109375 -17.921875 
L 12.109375 -9.1875 
Q 16.0625 -11.328125 19.921875 -12.34375 
Q 23.78125 -13.375 27.78125 -13.375 
Q 36.625 -13.375 41.015625 -8.765625 
Q 45.40625 -4.15625 45.40625 5.171875 
L 45.40625 9.625 
Q 42.625 4.78125 38.28125 2.390625 
Q 33.9375 0 27.875 0 
Q 17.828125 0 11.671875 7.65625 
Q 5.515625 15.328125 5.515625 27.984375 
Q 5.515625 40.671875 11.671875 48.328125 
Q 17.828125 56 27.875 56 
Q 33.9375 56 38.28125 53.609375 
Q 42.625 51.21875 45.40625 46.390625 
L 45.40625 54.6875 
L 54.390625 54.6875 
z
" id="DejaVuSans-103"/>
    </defs>
    <g transform="translate(73.454222 193.104)scale(0.12 -0.12)">
     <use xlink:href="#DejaVuSans-67"/>
     <use x="69.824219" xlink:href="#DejaVuSans-111"/>
     <use x="131.005859" xlink:href="#DejaVuSans-110"/>
     <use x="194.384766" xlink:href="#DejaVuSans-118"/>
     <use x="253.564453" xlink:href="#DejaVuSans-111"/>
     <use x="314.746094" xlink:href="#DejaVuSans-108"/>
     <use x="342.529297" xlink:href="#DejaVuSans-117"/>
     <use x="405.908203" xlink:href="#DejaVuSans-99"/>
     <use x="460.888672" xlink:href="#DejaVuSans-105"/>
     <use x="488.671875" xlink:href="#DejaVuSans-243"/>
     <use x="549.853516" xlink:href="#DejaVuSans-110"/>
     <use x="613.232422" xlink:href="#DejaVuSans-32"/>
     <use x="645.019531" xlink:href="#DejaVuSans-79"/>
     <use x="723.730469" xlink:href="#DejaVuSans-114"/>
     <use x="764.84375" xlink:href="#DejaVuSans-105"/>
     <use x="792.626953" xlink:href="#DejaVuSans-103"/>
     <use x="856.103516" xlink:href="#DejaVuSans-105"/>
     <use x="883.886719" xlink:href="#DejaVuSans-110"/>
     <use x="947.265625" xlink:href="#DejaVuSans-97"/>
     <use x="1008.544922" xlink:href="#DejaVuSans-108"/>
    </g>
   </g>
  </g>
  <g id="axes_4">
   <g id="patch_17">
    <path d="M 281.09 303.64 
L 440.179695 303.64 
L 440.179695 199.104 
L 281.09 199.104 
z
" style="fill:#ffffff;"/>
   </g>
   <g id="matplotlib.axis_7">
    <g id="xtick_19">
     <g id="line2d_67">
      <path clip-path="url(#p4e6d82e717)" d="M 281.09 303.64 
L 281.09 199.104 
" style="fill:none;stroke:#b0b0b0;stroke-linecap:square;stroke-width:0.8;"/>
     </g>
     <g id="line2d_68">
      <g>
       <use style="stroke:#000000;stroke-width:0.8;" x="281.09" xlink:href="#me584462e63" y="303.64"/>
      </g>
     </g>
     <g id="text_41">
      <!-- 0 -->
      <g transform="translate(277.90875 318.238437)scale(0.1 -0.1)">
       <use xlink:href="#DejaVuSans-48"/>
      </g>
     </g>
    </g>
    <g id="xtick_20">
     <g id="line2d_69">
      <path clip-path="url(#p4e6d82e717)" d="M 314.289018 303.64 
L 314.289018 199.104 
" style="fill:none;stroke:#b0b0b0;stroke-linecap:square;stroke-width:0.8;"/>
     </g>
     <g id="line2d_70">
      <g>
       <use style="stroke:#000000;stroke-width:0.8;" x="314.289018" xlink:href="#me584462e63" y="303.64"/>
      </g>
     </g>
     <g id="text_42">
      <!-- 250 -->
      <g transform="translate(304.745268 318.238437)scale(0.1 -0.1)">
       <use xlink:href="#DejaVuSans-50"/>
       <use x="63.623047" xlink:href="#DejaVuSans-53"/>
       <use x="127.246094" xlink:href="#DejaVuSans-48"/>
      </g>
     </g>
    </g>
    <g id="xtick_21">
     <g id="line2d_71">
      <path clip-path="url(#p4e6d82e717)" d="M 347.488036 303.64 
L 347.488036 199.104 
" style="fill:none;stroke:#b0b0b0;stroke-linecap:square;stroke-width:0.8;"/>
     </g>
     <g id="line2d_72">
      <g>
       <use style="stroke:#000000;stroke-width:0.8;" x="347.488036" xlink:href="#me584462e63" y="303.64"/>
      </g>
     </g>
     <g id="text_43">
      <!-- 500 -->
      <g transform="translate(337.944286 318.238437)scale(0.1 -0.1)">
       <use xlink:href="#DejaVuSans-53"/>
       <use x="63.623047" xlink:href="#DejaVuSans-48"/>
       <use x="127.246094" xlink:href="#DejaVuSans-48"/>
      </g>
     </g>
    </g>
    <g id="xtick_22">
     <g id="line2d_73">
      <path clip-path="url(#p4e6d82e717)" d="M 380.687054 303.64 
L 380.687054 199.104 
" style="fill:none;stroke:#b0b0b0;stroke-linecap:square;stroke-width:0.8;"/>
     </g>
     <g id="line2d_74">
      <g>
       <use style="stroke:#000000;stroke-width:0.8;" x="380.687054" xlink:href="#me584462e63" y="303.64"/>
      </g>
     </g>
     <g id="text_44">
      <!-- 750 -->
      <defs>
       <path d="M 8.203125 72.90625 
L 55.078125 72.90625 
L 55.078125 68.703125 
L 28.609375 0 
L 18.3125 0 
L 43.21875 64.59375 
L 8.203125 64.59375 
z
" id="DejaVuSans-55"/>
      </defs>
      <g transform="translate(371.143304 318.238437)scale(0.1 -0.1)">
       <use xlink:href="#DejaVuSans-55"/>
       <use x="63.623047" xlink:href="#DejaVuSans-53"/>
       <use x="127.246094" xlink:href="#DejaVuSans-48"/>
      </g>
     </g>
    </g>
    <g id="xtick_23">
     <g id="line2d_75">
      <path clip-path="url(#p4e6d82e717)" d="M 413.886072 303.64 
L 413.886072 199.104 
" style="fill:none;stroke:#b0b0b0;stroke-linecap:square;stroke-width:0.8;"/>
     </g>
     <g id="line2d_76">
      <g>
       <use style="stroke:#000000;stroke-width:0.8;" x="413.886072" xlink:href="#me584462e63" y="303.64"/>
      </g>
     </g>
     <g id="text_45">
      <!-- 1000 -->
      <g transform="translate(401.161072 318.238437)scale(0.1 -0.1)">
       <use xlink:href="#DejaVuSans-49"/>
       <use x="63.623047" xlink:href="#DejaVuSans-48"/>
       <use x="127.246094" xlink:href="#DejaVuSans-48"/>
       <use x="190.869141" xlink:href="#DejaVuSans-48"/>
      </g>
     </g>
    </g>
    <g id="text_46">
     <!-- Tiempo (t) -->
     <g transform="translate(334.562972 331.916562)scale(0.1 -0.1)">
      <use xlink:href="#DejaVuSans-84"/>
      <use x="61.037109" xlink:href="#DejaVuSans-105"/>
      <use x="88.820312" xlink:href="#DejaVuSans-101"/>
      <use x="150.34375" xlink:href="#DejaVuSans-109"/>
      <use x="247.755859" xlink:href="#DejaVuSans-112"/>
      <use x="311.232422" xlink:href="#DejaVuSans-111"/>
      <use x="372.414062" xlink:href="#DejaVuSans-32"/>
      <use x="404.201172" xlink:href="#DejaVuSans-40"/>
      <use x="443.214844" xlink:href="#DejaVuSans-116"/>
      <use x="482.423828" xlink:href="#DejaVuSans-41"/>
     </g>
    </g>
   </g>
   <g id="matplotlib.axis_8">
    <g id="ytick_14">
     <g id="line2d_77">
      <path clip-path="url(#p4e6d82e717)" d="M 281.09 294.112718 
L 440.179695 294.112718 
" style="fill:none;stroke:#b0b0b0;stroke-linecap:square;stroke-width:0.8;"/>
     </g>
     <g id="line2d_78">
      <g>
       <use style="stroke:#000000;stroke-width:0.8;" x="281.09" xlink:href="#m0f2bf68bf7" y="294.112718"/>
      </g>
     </g>
     <g id="text_47">
      <!-- −50 -->
      <g transform="translate(252.985312 297.911936)scale(0.1 -0.1)">
       <use xlink:href="#DejaVuSans-8722"/>
       <use x="83.789062" xlink:href="#DejaVuSans-53"/>
       <use x="147.412109" xlink:href="#DejaVuSans-48"/>
      </g>
     </g>
    </g>
    <g id="ytick_15">
     <g id="line2d_79">
      <path clip-path="url(#p4e6d82e717)" d="M 281.09 272.634479 
L 440.179695 272.634479 
" style="fill:none;stroke:#b0b0b0;stroke-linecap:square;stroke-width:0.8;"/>
     </g>
     <g id="line2d_80">
      <g>
       <use style="stroke:#000000;stroke-width:0.8;" x="281.09" xlink:href="#m0f2bf68bf7" y="272.634479"/>
      </g>
     </g>
     <g id="text_48">
      <!-- −25 -->
      <g transform="translate(252.985312 276.433698)scale(0.1 -0.1)">
       <use xlink:href="#DejaVuSans-8722"/>
       <use x="83.789062" xlink:href="#DejaVuSans-50"/>
       <use x="147.412109" xlink:href="#DejaVuSans-53"/>
      </g>
     </g>
    </g>
    <g id="ytick_16">
     <g id="line2d_81">
      <path clip-path="url(#p4e6d82e717)" d="M 281.09 251.156241 
L 440.179695 251.156241 
" style="fill:none;stroke:#b0b0b0;stroke-linecap:square;stroke-width:0.8;"/>
     </g>
     <g id="line2d_82">
      <g>
       <use style="stroke:#000000;stroke-width:0.8;" x="281.09" xlink:href="#m0f2bf68bf7" y="251.156241"/>
      </g>
     </g>
     <g id="text_49">
      <!-- 0 -->
      <g transform="translate(267.7275 254.95546)scale(0.1 -0.1)">
       <use xlink:href="#DejaVuSans-48"/>
      </g>
     </g>
    </g>
    <g id="ytick_17">
     <g id="line2d_83">
      <path clip-path="url(#p4e6d82e717)" d="M 281.09 229.678003 
L 440.179695 229.678003 
" style="fill:none;stroke:#b0b0b0;stroke-linecap:square;stroke-width:0.8;"/>
     </g>
     <g id="line2d_84">
      <g>
       <use style="stroke:#000000;stroke-width:0.8;" x="281.09" xlink:href="#m0f2bf68bf7" y="229.678003"/>
      </g>
     </g>
     <g id="text_50">
      <!-- 25 -->
      <g transform="translate(261.365 233.477221)scale(0.1 -0.1)">
       <use xlink:href="#DejaVuSans-50"/>
       <use x="63.623047" xlink:href="#DejaVuSans-53"/>
      </g>
     </g>
    </g>
    <g id="ytick_18">
     <g id="line2d_85">
      <path clip-path="url(#p4e6d82e717)" d="M 281.09 208.199764 
L 440.179695 208.199764 
" style="fill:none;stroke:#b0b0b0;stroke-linecap:square;stroke-width:0.8;"/>
     </g>
     <g id="line2d_86">
      <g>
       <use style="stroke:#000000;stroke-width:0.8;" x="281.09" xlink:href="#m0f2bf68bf7" y="208.199764"/>
      </g>
     </g>
     <g id="text_51">
      <!-- 50 -->
      <g transform="translate(261.365 211.998983)scale(0.1 -0.1)">
       <use xlink:href="#DejaVuSans-53"/>
       <use x="63.623047" xlink:href="#DejaVuSans-48"/>
      </g>
     </g>
    </g>
    <g id="text_52">
     <!-- Amplitud -->
     <g transform="translate(246.905625 273.918094)rotate(-90)scale(0.1 -0.1)">
      <use xlink:href="#DejaVuSans-65"/>
      <use x="68.408203" xlink:href="#DejaVuSans-109"/>
      <use x="165.820312" xlink:href="#DejaVuSans-112"/>
      <use x="229.296875" xlink:href="#DejaVuSans-108"/>
      <use x="257.080078" xlink:href="#DejaVuSans-105"/>
      <use x="284.863281" xlink:href="#DejaVuSans-116"/>
      <use x="324.072266" xlink:href="#DejaVuSans-117"/>
      <use x="387.451172" xlink:href="#DejaVuSans-100"/>
     </g>
    </g>
   </g>
   <g id="line2d_87">
    <path clip-path="url(#p4e6d82e717)" d="M 281.09 251.156241 
L 311.367505 251.053297 
L 315.616979 250.746449 
L 316.679347 250.988713 
L 317.874512 251.509638 
L 320.530434 252.83204 
L 321.32721 252.925993 
L 321.99119 252.790764 
L 322.655171 252.436629 
L 323.451947 251.727525 
L 324.514316 250.405359 
L 326.506257 247.835521 
L 327.170237 247.343025 
L 327.701421 247.19592 
L 328.232606 247.307411 
L 328.76379 247.697387 
L 329.294974 248.367235 
L 329.958955 249.567187 
L 330.888527 251.762724 
L 332.880468 256.679078 
L 333.544449 257.717534 
L 334.075633 258.133646 
L 334.474021 258.162617 
L 334.872409 257.930316 
L 335.270798 257.429975 
L 335.801982 256.35313 
L 336.465962 254.406379 
L 337.395535 250.837356 
L 339.387476 242.821086 
L 340.051456 241.080744 
L 340.58264 240.327488 
L 340.981029 240.196714 
L 341.246621 240.330442 
L 341.645009 240.871039 
L 342.043397 241.817826 
L 342.574582 243.681706 
L 343.238562 246.855453 
L 344.300931 253.226871 
L 345.761687 262.006276 
L 346.425668 264.913048 
L 346.956852 266.381977 
L 347.35524 266.887952 
L 347.620832 266.917746 
L 347.886424 266.692625 
L 348.284813 265.871306 
L 348.683201 264.477662 
L 349.214385 261.78232 
L 349.878366 257.258339 
L 351.07353 247.135554 
L 352.401491 236.227652 
L 353.065471 232.305782 
L 353.596656 230.365052 
L 353.995044 229.730422 
L 354.260636 229.727358 
L 354.526228 230.070221 
L 354.924616 231.236707 
L 355.323005 233.169432 
L 355.854189 236.856567 
L 356.650965 244.361373 
L 358.244518 262.644811 
L 359.174091 272.010551 
L 359.838071 276.681393 
L 360.236459 278.386163 
L 360.634847 279.153793 
L 360.90044 279.115506 
L 361.166032 278.626504 
L 361.56442 277.047477 
L 361.962808 274.480784 
L 362.493992 269.638542 
L 363.290769 259.880697 
L 366.212282 220.718229 
L 366.743467 217.182176 
L 367.141855 215.872842 
L 367.407447 215.687189 
L 367.673039 216.067652 
L 367.938631 217.018199 
L 368.33702 219.499024 
L 368.868204 224.676262 
L 369.532184 233.763217 
L 370.594553 252.353647 
L 372.188106 280.518898 
L 372.852086 288.933765 
L 373.38327 293.214237 
L 373.781659 294.753577 
L 374.047251 294.928667 
L 374.312843 294.41069 
L 374.578435 293.207936 
L 374.976823 290.164804 
L 375.508008 283.977616 
L 376.171988 273.399197 
L 377.367153 249.733402 
L 378.695113 224.39375 
L 379.359094 215.128644 
L 379.890278 210.250746 
L 380.288666 208.281573 
L 380.554258 207.815333 
L 380.687054 207.839568 
L 380.952647 208.401556 
L 381.218239 209.638693 
L 381.616627 212.711859 
L 382.147811 218.892236 
L 382.811792 229.378343 
L 384.006956 252.649975 
L 385.334917 277.335771 
L 385.998897 286.276616 
L 386.530082 290.936759 
L 386.92847 292.781381 
L 387.194062 293.187654 
L 387.326858 293.141157 
L 387.59245 292.551224 
L 387.858042 291.309497 
L 388.256431 288.275621 
L 388.787615 282.236346 
L 389.584391 269.761091 
L 392.505905 219.140723 
L 393.037089 214.215641 
L 393.435477 212.06412 
L 393.701069 211.405646 
L 393.833866 211.312812 
L 393.966662 211.377728 
L 394.232254 211.977469 
L 394.630642 214.023073 
L 395.161826 218.746618 
L 395.825807 227.380948 
L 396.755379 242.90584 
L 398.614524 274.411399 
L 399.278505 282.179852 
L 399.809689 286.146385 
L 400.208077 287.653813 
L 400.473669 287.933718 
L 400.606465 287.855271 
L 400.872057 287.265927 
L 401.270446 285.330926 
L 401.80163 280.930482 
L 402.46561 272.961833 
L 403.527979 256.57289 
L 405.121532 231.947093 
L 405.785512 224.511112 
L 406.316696 220.530403 
L 406.715085 218.843897 
L 406.980677 218.365658 
L 407.113473 218.321951 
L 407.379065 218.622757 
L 407.644657 219.43171 
L 408.043045 221.555623 
L 408.57423 225.931884 
L 409.23821 233.423891 
L 410.433375 250.054379 
L 411.761335 267.615384 
L 412.425316 273.98688 
L 412.9565 277.360347 
L 413.354888 278.765526 
L 413.62048 279.147214 
L 413.886072 279.084376 
L 414.151665 278.58468 
L 414.550053 277.04976 
L 415.081237 273.66433 
L 415.745218 267.662993 
L 416.807586 255.599015 
L 418.268343 239.270876 
L 419.065119 232.904802 
L 419.596304 230.223571 
L 419.994692 229.128182 
L 420.260284 228.844546 
L 420.525876 228.915347 
L 420.791468 229.331678 
L 421.189856 230.571221 
L 421.721041 233.257691 
L 422.385021 237.950527 
L 423.580186 248.420282 
L 424.908147 259.42555 
L 425.572127 263.423732 
L 426.103311 265.58076 
L 426.501699 266.534181 
L 426.900088 266.9093 
L 427.16568 266.84516 
L 427.431272 266.54062 
L 427.82966 265.663923 
L 428.360844 263.808698 
L 429.157621 259.932595 
L 431.680746 246.543751 
L 432.344727 244.391813 
L 432.875911 243.334774 
L 433.274299 242.932049 
L 433.672687 242.84514 
L 434.071076 243.043707 
L 434.60226 243.681251 
L 435.26624 244.911409 
L 437.656569 249.812061 
L 438.32055 250.579314 
L 438.98453 250.996062 
L 439.648511 251.142473 
L 440.179695 251.156241 
L 440.179695 251.156241 
" style="fill:none;stroke:#1f77b4;stroke-linecap:square;stroke-width:1.5;"/>
   </g>
   <g id="patch_18">
    <path d="M 281.09 303.64 
L 281.09 199.104 
" style="fill:none;stroke:#000000;stroke-linecap:square;stroke-linejoin:miter;stroke-width:0.8;"/>
   </g>
   <g id="patch_19">
    <path d="M 440.179695 303.64 
L 440.179695 199.104 
" style="fill:none;stroke:#000000;stroke-linecap:square;stroke-linejoin:miter;stroke-width:0.8;"/>
   </g>
   <g id="patch_20">
    <path d="M 281.09 303.64 
L 440.179695 303.64 
" style="fill:none;stroke:#000000;stroke-linecap:square;stroke-linejoin:miter;stroke-width:0.8;"/>
   </g>
   <g id="patch_21">
    <path d="M 281.09 199.104 
L 440.179695 199.104 
" style="fill:none;stroke:#000000;stroke-linecap:square;stroke-linejoin:miter;stroke-width:0.8;"/>
   </g>
   <g id="text_53">
    <!-- Convolución con Factor 1.3 -->
    <g transform="translate(278.896097 179.666625)scale(0.12 -0.12)">
     <use xlink:href="#DejaVuSans-67"/>
     <use x="69.824219" xlink:href="#DejaVuSans-111"/>
     <use x="131.005859" xlink:href="#DejaVuSans-110"/>
     <use x="194.384766" xlink:href="#DejaVuSans-118"/>
     <use x="253.564453" xlink:href="#DejaVuSans-111"/>
     <use x="314.746094" xlink:href="#DejaVuSans-108"/>
     <use x="342.529297" xlink:href="#DejaVuSans-117"/>
     <use x="405.908203" xlink:href="#DejaVuSans-99"/>
     <use x="460.888672" xlink:href="#DejaVuSans-105"/>
     <use x="488.671875" xlink:href="#DejaVuSans-243"/>
     <use x="549.853516" xlink:href="#DejaVuSans-110"/>
     <use x="613.232422" xlink:href="#DejaVuSans-32"/>
     <use x="645.019531" xlink:href="#DejaVuSans-99"/>
     <use x="700" xlink:href="#DejaVuSans-111"/>
     <use x="761.181641" xlink:href="#DejaVuSans-110"/>
     <use x="824.560547" xlink:href="#DejaVuSans-32"/>
     <use x="856.347656" xlink:href="#DejaVuSans-70"/>
     <use x="913.726562" xlink:href="#DejaVuSans-97"/>
     <use x="975.005859" xlink:href="#DejaVuSans-99"/>
     <use x="1029.986328" xlink:href="#DejaVuSans-116"/>
     <use x="1069.195312" xlink:href="#DejaVuSans-111"/>
     <use x="1130.376953" xlink:href="#DejaVuSans-114"/>
     <use x="1171.490234" xlink:href="#DejaVuSans-32"/>
     <use x="1203.277344" xlink:href="#DejaVuSans-49"/>
     <use x="1266.900391" xlink:href="#DejaVuSans-46"/>
     <use x="1298.6875" xlink:href="#DejaVuSans-51"/>
    </g>
    <!-- y Corrimento 200s -->
    <defs>
     <path d="M 32.171875 -5.078125 
Q 28.375 -14.84375 24.75 -17.8125 
Q 21.140625 -20.796875 15.09375 -20.796875 
L 7.90625 -20.796875 
L 7.90625 -13.28125 
L 13.1875 -13.28125 
Q 16.890625 -13.28125 18.9375 -11.515625 
Q 21 -9.765625 23.484375 -3.21875 
L 25.09375 0.875 
L 2.984375 54.6875 
L 12.5 54.6875 
L 29.59375 11.921875 
L 46.6875 54.6875 
L 56.203125 54.6875 
z
" id="DejaVuSans-121"/>
    </defs>
    <g transform="translate(304.869535 193.104)scale(0.12 -0.12)">
     <use xlink:href="#DejaVuSans-121"/>
     <use x="59.179688" xlink:href="#DejaVuSans-32"/>
     <use x="90.966797" xlink:href="#DejaVuSans-67"/>
     <use x="160.791016" xlink:href="#DejaVuSans-111"/>
     <use x="221.972656" xlink:href="#DejaVuSans-114"/>
     <use x="263.070312" xlink:href="#DejaVuSans-114"/>
     <use x="304.183594" xlink:href="#DejaVuSans-105"/>
     <use x="331.966797" xlink:href="#DejaVuSans-109"/>
     <use x="429.378906" xlink:href="#DejaVuSans-101"/>
     <use x="490.902344" xlink:href="#DejaVuSans-110"/>
     <use x="554.28125" xlink:href="#DejaVuSans-116"/>
     <use x="593.490234" xlink:href="#DejaVuSans-111"/>
     <use x="654.671875" xlink:href="#DejaVuSans-32"/>
     <use x="686.458984" xlink:href="#DejaVuSans-50"/>
     <use x="750.082031" xlink:href="#DejaVuSans-48"/>
     <use x="813.705078" xlink:href="#DejaVuSans-48"/>
     <use x="877.328125" xlink:href="#DejaVuSans-115"/>
    </g>
   </g>
  </g>
 </g>
 <defs>
  <clipPath id="p8160a0f3d4">
   <rect height="104.536" width="159.089695" x="56.09" y="25.44"/>
  </clipPath>
  <clipPath id="pd0c7627daf">
   <rect height="104.536" width="159.089695" x="281.09" y="25.44"/>
  </clipPath>
  <clipPath id="p7bf2c8992c">
   <rect height="104.536" width="159.089695" x="56.09" y="199.104"/>
  </clipPath>
  <clipPath id="p4e6d82e717">
   <rect height="104.536" width="159.089695" x="281.09" y="199.104"/>
  </clipPath>
 </defs>
</svg>
