<?xml version="1.0" encoding="utf-8" standalone="no"?>
<!DOCTYPE svg PUBLIC "-//W3C//DTD SVG 1.1//EN"
  "http://www.w3.org/Graphics/SVG/1.1/DTD/svg11.dtd">
<!-- Created with matplotlib (https://matplotlib.org/) -->
<svg height="345.6pt" version="1.1" viewBox="0 0 460.8 345.6" width="460.8pt" xmlns="http://www.w3.org/2000/svg" xmlns:xlink="http://www.w3.org/1999/xlink">
 <defs>
  <style type="text/css">
*{stroke-linecap:butt;stroke-linejoin:round;}
  </style>
 </defs>
 <g id="figure_1">
  <g id="patch_1">
   <path d="M 0 345.6 
L 460.8 345.6 
L 460.8 0 
L 0 0 
z
" style="fill:#ffffff;"/>
  </g>
  <g id="axes_1">
   <g id="patch_2">
    <path d="M 59.24 129.976 
L 222.48 129.976 
L 222.48 25.44 
L 59.24 25.44 
z
" style="fill:#ffffff;"/>
   </g>
   <g id="matplotlib.axis_1">
    <g id="xtick_1">
     <g id="line2d_1">
      <path clip-path="url(#p3fffd1b286)" d="M 59.24 129.976 
L 59.24 25.44 
" style="fill:none;stroke:#b0b0b0;stroke-linecap:square;stroke-width:0.8;"/>
     </g>
     <g id="line2d_2">
      <defs>
       <path d="M 0 0 
L 0 3.5 
" id="m22adacca88" style="stroke:#000000;stroke-width:0.8;"/>
      </defs>
      <g>
       <use style="stroke:#000000;stroke-width:0.8;" x="59.24" xlink:href="#m22adacca88" y="129.976"/>
      </g>
     </g>
     <g id="text_1">
      <!-- 0 -->
      <defs>
       <path d="M 31.78125 66.40625 
Q 24.171875 66.40625 20.328125 58.90625 
Q 16.5 51.421875 16.5 36.375 
Q 16.5 21.390625 20.328125 13.890625 
Q 24.171875 6.390625 31.78125 6.390625 
Q 39.453125 6.390625 43.28125 13.890625 
Q 47.125 21.390625 47.125 36.375 
Q 47.125 51.421875 43.28125 58.90625 
Q 39.453125 66.40625 31.78125 66.40625 
z
M 31.78125 74.21875 
Q 44.046875 74.21875 50.515625 64.515625 
Q 56.984375 54.828125 56.984375 36.375 
Q 56.984375 17.96875 50.515625 8.265625 
Q 44.046875 -1.421875 31.78125 -1.421875 
Q 19.53125 -1.421875 13.0625 8.265625 
Q 6.59375 17.96875 6.59375 36.375 
Q 6.59375 54.828125 13.0625 64.515625 
Q 19.53125 74.21875 31.78125 74.21875 
z
" id="DejaVuSans-48"/>
      </defs>
      <g transform="translate(56.05875 144.574437)scale(0.1 -0.1)">
       <use xlink:href="#DejaVuSans-48"/>
      </g>
     </g>
    </g>
    <g id="xtick_2">
     <g id="line2d_3">
      <path clip-path="url(#p3fffd1b286)" d="M 91.953427 129.976 
L 91.953427 25.44 
" style="fill:none;stroke:#b0b0b0;stroke-linecap:square;stroke-width:0.8;"/>
     </g>
     <g id="line2d_4">
      <g>
       <use style="stroke:#000000;stroke-width:0.8;" x="91.953427" xlink:href="#m22adacca88" y="129.976"/>
      </g>
     </g>
     <g id="text_2">
      <!-- 100 -->
      <defs>
       <path d="M 12.40625 8.296875 
L 28.515625 8.296875 
L 28.515625 63.921875 
L 10.984375 60.40625 
L 10.984375 69.390625 
L 28.421875 72.90625 
L 38.28125 72.90625 
L 38.28125 8.296875 
L 54.390625 8.296875 
L 54.390625 0 
L 12.40625 0 
z
" id="DejaVuSans-49"/>
      </defs>
      <g transform="translate(82.409677 144.574437)scale(0.1 -0.1)">
       <use xlink:href="#DejaVuSans-49"/>
       <use x="63.623047" xlink:href="#DejaVuSans-48"/>
       <use x="127.246094" xlink:href="#DejaVuSans-48"/>
      </g>
     </g>
    </g>
    <g id="xtick_3">
     <g id="line2d_5">
      <path clip-path="url(#p3fffd1b286)" d="M 124.666854 129.976 
L 124.666854 25.44 
" style="fill:none;stroke:#b0b0b0;stroke-linecap:square;stroke-width:0.8;"/>
     </g>
     <g id="line2d_6">
      <g>
       <use style="stroke:#000000;stroke-width:0.8;" x="124.666854" xlink:href="#m22adacca88" y="129.976"/>
      </g>
     </g>
     <g id="text_3">
      <!-- 200 -->
      <defs>
       <path d="M 19.1875 8.296875 
L 53.609375 8.296875 
L 53.609375 0 
L 7.328125 0 
L 7.328125 8.296875 
Q 12.9375 14.109375 22.625 23.890625 
Q 32.328125 33.6875 34.8125 36.53125 
Q 39.546875 41.84375 41.421875 45.53125 
Q 43.3125 49.21875 43.3125 52.78125 
Q 43.3125 58.59375 39.234375 62.25 
Q 35.15625 65.921875 28.609375 65.921875 
Q 23.96875 65.921875 18.8125 64.3125 
Q 13.671875 62.703125 7.8125 59.421875 
L 7.8125 69.390625 
Q 13.765625 71.78125 18.9375 73 
Q 24.125 74.21875 28.421875 74.21875 
Q 39.75 74.21875 46.484375 68.546875 
Q 53.21875 62.890625 53.21875 53.421875 
Q 53.21875 48.921875 51.53125 44.890625 
Q 49.859375 40.875 45.40625 35.40625 
Q 44.1875 33.984375 37.640625 27.21875 
Q 31.109375 20.453125 19.1875 8.296875 
z
" id="DejaVuSans-50"/>
      </defs>
      <g transform="translate(115.123104 144.574437)scale(0.1 -0.1)">
       <use xlink:href="#DejaVuSans-50"/>
       <use x="63.623047" xlink:href="#DejaVuSans-48"/>
       <use x="127.246094" xlink:href="#DejaVuSans-48"/>
      </g>
     </g>
    </g>
    <g id="xtick_4">
     <g id="line2d_7">
      <path clip-path="url(#p3fffd1b286)" d="M 157.380281 129.976 
L 157.380281 25.44 
" style="fill:none;stroke:#b0b0b0;stroke-linecap:square;stroke-width:0.8;"/>
     </g>
     <g id="line2d_8">
      <g>
       <use style="stroke:#000000;stroke-width:0.8;" x="157.380281" xlink:href="#m22adacca88" y="129.976"/>
      </g>
     </g>
     <g id="text_4">
      <!-- 300 -->
      <defs>
       <path d="M 40.578125 39.3125 
Q 47.65625 37.796875 51.625 33 
Q 55.609375 28.21875 55.609375 21.1875 
Q 55.609375 10.40625 48.1875 4.484375 
Q 40.765625 -1.421875 27.09375 -1.421875 
Q 22.515625 -1.421875 17.65625 -0.515625 
Q 12.796875 0.390625 7.625 2.203125 
L 7.625 11.71875 
Q 11.71875 9.328125 16.59375 8.109375 
Q 21.484375 6.890625 26.8125 6.890625 
Q 36.078125 6.890625 40.9375 10.546875 
Q 45.796875 14.203125 45.796875 21.1875 
Q 45.796875 27.640625 41.28125 31.265625 
Q 36.765625 34.90625 28.71875 34.90625 
L 20.21875 34.90625 
L 20.21875 43.015625 
L 29.109375 43.015625 
Q 36.375 43.015625 40.234375 45.921875 
Q 44.09375 48.828125 44.09375 54.296875 
Q 44.09375 59.90625 40.109375 62.90625 
Q 36.140625 65.921875 28.71875 65.921875 
Q 24.65625 65.921875 20.015625 65.03125 
Q 15.375 64.15625 9.8125 62.3125 
L 9.8125 71.09375 
Q 15.4375 72.65625 20.34375 73.4375 
Q 25.25 74.21875 29.59375 74.21875 
Q 40.828125 74.21875 47.359375 69.109375 
Q 53.90625 64.015625 53.90625 55.328125 
Q 53.90625 49.265625 50.4375 45.09375 
Q 46.96875 40.921875 40.578125 39.3125 
z
" id="DejaVuSans-51"/>
      </defs>
      <g transform="translate(147.836531 144.574437)scale(0.1 -0.1)">
       <use xlink:href="#DejaVuSans-51"/>
       <use x="63.623047" xlink:href="#DejaVuSans-48"/>
       <use x="127.246094" xlink:href="#DejaVuSans-48"/>
      </g>
     </g>
    </g>
    <g id="xtick_5">
     <g id="line2d_9">
      <path clip-path="url(#p3fffd1b286)" d="M 190.093707 129.976 
L 190.093707 25.44 
" style="fill:none;stroke:#b0b0b0;stroke-linecap:square;stroke-width:0.8;"/>
     </g>
     <g id="line2d_10">
      <g>
       <use style="stroke:#000000;stroke-width:0.8;" x="190.093707" xlink:href="#m22adacca88" y="129.976"/>
      </g>
     </g>
     <g id="text_5">
      <!-- 400 -->
      <defs>
       <path d="M 37.796875 64.3125 
L 12.890625 25.390625 
L 37.796875 25.390625 
z
M 35.203125 72.90625 
L 47.609375 72.90625 
L 47.609375 25.390625 
L 58.015625 25.390625 
L 58.015625 17.1875 
L 47.609375 17.1875 
L 47.609375 0 
L 37.796875 0 
L 37.796875 17.1875 
L 4.890625 17.1875 
L 4.890625 26.703125 
z
" id="DejaVuSans-52"/>
      </defs>
      <g transform="translate(180.549957 144.574437)scale(0.1 -0.1)">
       <use xlink:href="#DejaVuSans-52"/>
       <use x="63.623047" xlink:href="#DejaVuSans-48"/>
       <use x="127.246094" xlink:href="#DejaVuSans-48"/>
      </g>
     </g>
    </g>
    <g id="xtick_6">
     <g id="line2d_11">
      <path clip-path="url(#p3fffd1b286)" d="M 222.807134 129.976 
L 222.807134 25.44 
" style="fill:none;stroke:#b0b0b0;stroke-linecap:square;stroke-width:0.8;"/>
     </g>
     <g id="line2d_12">
      <g>
       <use style="stroke:#000000;stroke-width:0.8;" x="222.807134" xlink:href="#m22adacca88" y="129.976"/>
      </g>
     </g>
     <g id="text_6">
      <!-- 500 -->
      <defs>
       <path d="M 10.796875 72.90625 
L 49.515625 72.90625 
L 49.515625 64.59375 
L 19.828125 64.59375 
L 19.828125 46.734375 
Q 21.96875 47.46875 24.109375 47.828125 
Q 26.265625 48.1875 28.421875 48.1875 
Q 40.625 48.1875 47.75 41.5 
Q 54.890625 34.8125 54.890625 23.390625 
Q 54.890625 11.625 47.5625 5.09375 
Q 40.234375 -1.421875 26.90625 -1.421875 
Q 22.3125 -1.421875 17.546875 -0.640625 
Q 12.796875 0.140625 7.71875 1.703125 
L 7.71875 11.625 
Q 12.109375 9.234375 16.796875 8.0625 
Q 21.484375 6.890625 26.703125 6.890625 
Q 35.15625 6.890625 40.078125 11.328125 
Q 45.015625 15.765625 45.015625 23.390625 
Q 45.015625 31 40.078125 35.4375 
Q 35.15625 39.890625 26.703125 39.890625 
Q 22.75 39.890625 18.8125 39.015625 
Q 14.890625 38.140625 10.796875 36.28125 
z
" id="DejaVuSans-53"/>
      </defs>
      <g transform="translate(213.263384 144.574437)scale(0.1 -0.1)">
       <use xlink:href="#DejaVuSans-53"/>
       <use x="63.623047" xlink:href="#DejaVuSans-48"/>
       <use x="127.246094" xlink:href="#DejaVuSans-48"/>
      </g>
     </g>
    </g>
    <g id="text_7">
     <!-- Tiempo (t) -->
     <defs>
      <path d="M -0.296875 72.90625 
L 61.375 72.90625 
L 61.375 64.59375 
L 35.5 64.59375 
L 35.5 0 
L 25.59375 0 
L 25.59375 64.59375 
L -0.296875 64.59375 
z
" id="DejaVuSans-84"/>
      <path d="M 9.421875 54.6875 
L 18.40625 54.6875 
L 18.40625 0 
L 9.421875 0 
z
M 9.421875 75.984375 
L 18.40625 75.984375 
L 18.40625 64.59375 
L 9.421875 64.59375 
z
" id="DejaVuSans-105"/>
      <path d="M 56.203125 29.59375 
L 56.203125 25.203125 
L 14.890625 25.203125 
Q 15.484375 15.921875 20.484375 11.0625 
Q 25.484375 6.203125 34.421875 6.203125 
Q 39.59375 6.203125 44.453125 7.46875 
Q 49.3125 8.734375 54.109375 11.28125 
L 54.109375 2.78125 
Q 49.265625 0.734375 44.1875 -0.34375 
Q 39.109375 -1.421875 33.890625 -1.421875 
Q 20.796875 -1.421875 13.15625 6.1875 
Q 5.515625 13.8125 5.515625 26.8125 
Q 5.515625 40.234375 12.765625 48.109375 
Q 20.015625 56 32.328125 56 
Q 43.359375 56 49.78125 48.890625 
Q 56.203125 41.796875 56.203125 29.59375 
z
M 47.21875 32.234375 
Q 47.125 39.59375 43.09375 43.984375 
Q 39.0625 48.390625 32.421875 48.390625 
Q 24.90625 48.390625 20.390625 44.140625 
Q 15.875 39.890625 15.1875 32.171875 
z
" id="DejaVuSans-101"/>
      <path d="M 52 44.1875 
Q 55.375 50.25 60.0625 53.125 
Q 64.75 56 71.09375 56 
Q 79.640625 56 84.28125 50.015625 
Q 88.921875 44.046875 88.921875 33.015625 
L 88.921875 0 
L 79.890625 0 
L 79.890625 32.71875 
Q 79.890625 40.578125 77.09375 44.375 
Q 74.3125 48.1875 68.609375 48.1875 
Q 61.625 48.1875 57.5625 43.546875 
Q 53.515625 38.921875 53.515625 30.90625 
L 53.515625 0 
L 44.484375 0 
L 44.484375 32.71875 
Q 44.484375 40.625 41.703125 44.40625 
Q 38.921875 48.1875 33.109375 48.1875 
Q 26.21875 48.1875 22.15625 43.53125 
Q 18.109375 38.875 18.109375 30.90625 
L 18.109375 0 
L 9.078125 0 
L 9.078125 54.6875 
L 18.109375 54.6875 
L 18.109375 46.1875 
Q 21.1875 51.21875 25.484375 53.609375 
Q 29.78125 56 35.6875 56 
Q 41.65625 56 45.828125 52.96875 
Q 50 49.953125 52 44.1875 
z
" id="DejaVuSans-109"/>
      <path d="M 18.109375 8.203125 
L 18.109375 -20.796875 
L 9.078125 -20.796875 
L 9.078125 54.6875 
L 18.109375 54.6875 
L 18.109375 46.390625 
Q 20.953125 51.265625 25.265625 53.625 
Q 29.59375 56 35.59375 56 
Q 45.5625 56 51.78125 48.09375 
Q 58.015625 40.1875 58.015625 27.296875 
Q 58.015625 14.40625 51.78125 6.484375 
Q 45.5625 -1.421875 35.59375 -1.421875 
Q 29.59375 -1.421875 25.265625 0.953125 
Q 20.953125 3.328125 18.109375 8.203125 
z
M 48.6875 27.296875 
Q 48.6875 37.203125 44.609375 42.84375 
Q 40.53125 48.484375 33.40625 48.484375 
Q 26.265625 48.484375 22.1875 42.84375 
Q 18.109375 37.203125 18.109375 27.296875 
Q 18.109375 17.390625 22.1875 11.75 
Q 26.265625 6.109375 33.40625 6.109375 
Q 40.53125 6.109375 44.609375 11.75 
Q 48.6875 17.390625 48.6875 27.296875 
z
" id="DejaVuSans-112"/>
      <path d="M 30.609375 48.390625 
Q 23.390625 48.390625 19.1875 42.75 
Q 14.984375 37.109375 14.984375 27.296875 
Q 14.984375 17.484375 19.15625 11.84375 
Q 23.34375 6.203125 30.609375 6.203125 
Q 37.796875 6.203125 41.984375 11.859375 
Q 46.1875 17.53125 46.1875 27.296875 
Q 46.1875 37.015625 41.984375 42.703125 
Q 37.796875 48.390625 30.609375 48.390625 
z
M 30.609375 56 
Q 42.328125 56 49.015625 48.375 
Q 55.71875 40.765625 55.71875 27.296875 
Q 55.71875 13.875 49.015625 6.21875 
Q 42.328125 -1.421875 30.609375 -1.421875 
Q 18.84375 -1.421875 12.171875 6.21875 
Q 5.515625 13.875 5.515625 27.296875 
Q 5.515625 40.765625 12.171875 48.375 
Q 18.84375 56 30.609375 56 
z
" id="DejaVuSans-111"/>
      <path id="DejaVuSans-32"/>
      <path d="M 31 75.875 
Q 24.46875 64.65625 21.28125 53.65625 
Q 18.109375 42.671875 18.109375 31.390625 
Q 18.109375 20.125 21.3125 9.0625 
Q 24.515625 -2 31 -13.1875 
L 23.1875 -13.1875 
Q 15.875 -1.703125 12.234375 9.375 
Q 8.59375 20.453125 8.59375 31.390625 
Q 8.59375 42.28125 12.203125 53.3125 
Q 15.828125 64.359375 23.1875 75.875 
z
" id="DejaVuSans-40"/>
      <path d="M 18.3125 70.21875 
L 18.3125 54.6875 
L 36.8125 54.6875 
L 36.8125 47.703125 
L 18.3125 47.703125 
L 18.3125 18.015625 
Q 18.3125 11.328125 20.140625 9.421875 
Q 21.96875 7.515625 27.59375 7.515625 
L 36.8125 7.515625 
L 36.8125 0 
L 27.59375 0 
Q 17.1875 0 13.234375 3.875 
Q 9.28125 7.765625 9.28125 18.015625 
L 9.28125 47.703125 
L 2.6875 47.703125 
L 2.6875 54.6875 
L 9.28125 54.6875 
L 9.28125 70.21875 
z
" id="DejaVuSans-116"/>
      <path d="M 8.015625 75.875 
L 15.828125 75.875 
Q 23.140625 64.359375 26.78125 53.3125 
Q 30.421875 42.28125 30.421875 31.390625 
Q 30.421875 20.453125 26.78125 9.375 
Q 23.140625 -1.703125 15.828125 -13.1875 
L 8.015625 -13.1875 
Q 14.5 -2 17.703125 9.0625 
Q 20.90625 20.125 20.90625 31.390625 
Q 20.90625 42.671875 17.703125 53.65625 
Q 14.5 64.65625 8.015625 75.875 
z
" id="DejaVuSans-41"/>
     </defs>
     <g transform="translate(114.788125 158.252562)scale(0.1 -0.1)">
      <use xlink:href="#DejaVuSans-84"/>
      <use x="61.037109" xlink:href="#DejaVuSans-105"/>
      <use x="88.820312" xlink:href="#DejaVuSans-101"/>
      <use x="150.34375" xlink:href="#DejaVuSans-109"/>
      <use x="247.755859" xlink:href="#DejaVuSans-112"/>
      <use x="311.232422" xlink:href="#DejaVuSans-111"/>
      <use x="372.414062" xlink:href="#DejaVuSans-32"/>
      <use x="404.201172" xlink:href="#DejaVuSans-40"/>
      <use x="443.214844" xlink:href="#DejaVuSans-116"/>
      <use x="482.423828" xlink:href="#DejaVuSans-41"/>
     </g>
    </g>
   </g>
   <g id="matplotlib.axis_2">
    <g id="ytick_1">
     <g id="line2d_13">
      <path clip-path="url(#p3fffd1b286)" d="M 59.24 121.264882 
L 222.48 121.264882 
" style="fill:none;stroke:#b0b0b0;stroke-linecap:square;stroke-width:0.8;"/>
     </g>
     <g id="line2d_14">
      <defs>
       <path d="M 0 0 
L -3.5 0 
" id="m6c5dec734e" style="stroke:#000000;stroke-width:0.8;"/>
      </defs>
      <g>
       <use style="stroke:#000000;stroke-width:0.8;" x="59.24" xlink:href="#m6c5dec734e" y="121.264882"/>
      </g>
     </g>
     <g id="text_8">
      <!-- −1.0 -->
      <defs>
       <path d="M 10.59375 35.5 
L 73.1875 35.5 
L 73.1875 27.203125 
L 10.59375 27.203125 
z
" id="DejaVuSans-8722"/>
       <path d="M 10.6875 12.40625 
L 21 12.40625 
L 21 0 
L 10.6875 0 
z
" id="DejaVuSans-46"/>
      </defs>
      <g transform="translate(27.957188 125.064101)scale(0.1 -0.1)">
       <use xlink:href="#DejaVuSans-8722"/>
       <use x="83.789062" xlink:href="#DejaVuSans-49"/>
       <use x="147.412109" xlink:href="#DejaVuSans-46"/>
       <use x="179.199219" xlink:href="#DejaVuSans-48"/>
      </g>
     </g>
    </g>
    <g id="ytick_2">
     <g id="line2d_15">
      <path clip-path="url(#p3fffd1b286)" d="M 59.24 99.486441 
L 222.48 99.486441 
" style="fill:none;stroke:#b0b0b0;stroke-linecap:square;stroke-width:0.8;"/>
     </g>
     <g id="line2d_16">
      <g>
       <use style="stroke:#000000;stroke-width:0.8;" x="59.24" xlink:href="#m6c5dec734e" y="99.486441"/>
      </g>
     </g>
     <g id="text_9">
      <!-- −0.5 -->
      <g transform="translate(27.957188 103.28566)scale(0.1 -0.1)">
       <use xlink:href="#DejaVuSans-8722"/>
       <use x="83.789062" xlink:href="#DejaVuSans-48"/>
       <use x="147.412109" xlink:href="#DejaVuSans-46"/>
       <use x="179.199219" xlink:href="#DejaVuSans-53"/>
      </g>
     </g>
    </g>
    <g id="ytick_3">
     <g id="line2d_17">
      <path clip-path="url(#p3fffd1b286)" d="M 59.24 77.708 
L 222.48 77.708 
" style="fill:none;stroke:#b0b0b0;stroke-linecap:square;stroke-width:0.8;"/>
     </g>
     <g id="line2d_18">
      <g>
       <use style="stroke:#000000;stroke-width:0.8;" x="59.24" xlink:href="#m6c5dec734e" y="77.708"/>
      </g>
     </g>
     <g id="text_10">
      <!-- 0.0 -->
      <g transform="translate(36.336875 81.507219)scale(0.1 -0.1)">
       <use xlink:href="#DejaVuSans-48"/>
       <use x="63.623047" xlink:href="#DejaVuSans-46"/>
       <use x="95.410156" xlink:href="#DejaVuSans-48"/>
      </g>
     </g>
    </g>
    <g id="ytick_4">
     <g id="line2d_19">
      <path clip-path="url(#p3fffd1b286)" d="M 59.24 55.929559 
L 222.48 55.929559 
" style="fill:none;stroke:#b0b0b0;stroke-linecap:square;stroke-width:0.8;"/>
     </g>
     <g id="line2d_20">
      <g>
       <use style="stroke:#000000;stroke-width:0.8;" x="59.24" xlink:href="#m6c5dec734e" y="55.929559"/>
      </g>
     </g>
     <g id="text_11">
      <!-- 0.5 -->
      <g transform="translate(36.336875 59.728778)scale(0.1 -0.1)">
       <use xlink:href="#DejaVuSans-48"/>
       <use x="63.623047" xlink:href="#DejaVuSans-46"/>
       <use x="95.410156" xlink:href="#DejaVuSans-53"/>
      </g>
     </g>
    </g>
    <g id="ytick_5">
     <g id="line2d_21">
      <path clip-path="url(#p3fffd1b286)" d="M 59.24 34.151118 
L 222.48 34.151118 
" style="fill:none;stroke:#b0b0b0;stroke-linecap:square;stroke-width:0.8;"/>
     </g>
     <g id="line2d_22">
      <g>
       <use style="stroke:#000000;stroke-width:0.8;" x="59.24" xlink:href="#m6c5dec734e" y="34.151118"/>
      </g>
     </g>
     <g id="text_12">
      <!-- 1.0 -->
      <g transform="translate(36.336875 37.950336)scale(0.1 -0.1)">
       <use xlink:href="#DejaVuSans-49"/>
       <use x="63.623047" xlink:href="#DejaVuSans-46"/>
       <use x="95.410156" xlink:href="#DejaVuSans-48"/>
      </g>
     </g>
    </g>
    <g id="text_13">
     <!-- Valor -->
     <defs>
      <path d="M 28.609375 0 
L 0.78125 72.90625 
L 11.078125 72.90625 
L 34.1875 11.53125 
L 57.328125 72.90625 
L 67.578125 72.90625 
L 39.796875 0 
z
" id="DejaVuSans-86"/>
      <path d="M 34.28125 27.484375 
Q 23.390625 27.484375 19.1875 25 
Q 14.984375 22.515625 14.984375 16.5 
Q 14.984375 11.71875 18.140625 8.90625 
Q 21.296875 6.109375 26.703125 6.109375 
Q 34.1875 6.109375 38.703125 11.40625 
Q 43.21875 16.703125 43.21875 25.484375 
L 43.21875 27.484375 
z
M 52.203125 31.203125 
L 52.203125 0 
L 43.21875 0 
L 43.21875 8.296875 
Q 40.140625 3.328125 35.546875 0.953125 
Q 30.953125 -1.421875 24.3125 -1.421875 
Q 15.921875 -1.421875 10.953125 3.296875 
Q 6 8.015625 6 15.921875 
Q 6 25.140625 12.171875 29.828125 
Q 18.359375 34.515625 30.609375 34.515625 
L 43.21875 34.515625 
L 43.21875 35.40625 
Q 43.21875 41.609375 39.140625 45 
Q 35.0625 48.390625 27.6875 48.390625 
Q 23 48.390625 18.546875 47.265625 
Q 14.109375 46.140625 10.015625 43.890625 
L 10.015625 52.203125 
Q 14.9375 54.109375 19.578125 55.046875 
Q 24.21875 56 28.609375 56 
Q 40.484375 56 46.34375 49.84375 
Q 52.203125 43.703125 52.203125 31.203125 
z
" id="DejaVuSans-97"/>
      <path d="M 9.421875 75.984375 
L 18.40625 75.984375 
L 18.40625 0 
L 9.421875 0 
z
" id="DejaVuSans-108"/>
      <path d="M 41.109375 46.296875 
Q 39.59375 47.171875 37.8125 47.578125 
Q 36.03125 48 33.890625 48 
Q 26.265625 48 22.1875 43.046875 
Q 18.109375 38.09375 18.109375 28.8125 
L 18.109375 0 
L 9.078125 0 
L 9.078125 54.6875 
L 18.109375 54.6875 
L 18.109375 46.1875 
Q 20.953125 51.171875 25.484375 53.578125 
Q 30.03125 56 36.53125 56 
Q 37.453125 56 38.578125 55.875 
Q 39.703125 55.765625 41.0625 55.515625 
z
" id="DejaVuSans-114"/>
     </defs>
     <g transform="translate(21.8775 90.690813)rotate(-90)scale(0.1 -0.1)">
      <use xlink:href="#DejaVuSans-86"/>
      <use x="68.298828" xlink:href="#DejaVuSans-97"/>
      <use x="129.578125" xlink:href="#DejaVuSans-108"/>
      <use x="157.361328" xlink:href="#DejaVuSans-111"/>
      <use x="218.542969" xlink:href="#DejaVuSans-114"/>
     </g>
    </g>
   </g>
   <g id="line2d_23">
    <path clip-path="url(#p3fffd1b286)" d="M 59.24 77.708 
L 61.857074 56.685874 
L 63.165611 47.84332 
L 64.147014 42.421449 
L 65.128417 38.254622 
L 65.782685 36.249178 
L 66.436954 34.900185 
L 67.091222 34.229001 
L 67.418357 34.151333 
L 67.745491 34.246254 
L 68.072625 34.513386 
L 68.726894 35.559372 
L 69.381162 37.272731 
L 70.035431 39.626334 
L 71.016834 44.273044 
L 71.998236 50.108941 
L 73.306774 59.37604 
L 75.269579 75.241301 
L 77.886653 96.536002 
L 79.19519 105.729158 
L 80.176593 111.491803 
L 81.157996 116.052852 
L 81.812265 118.343944 
L 82.466533 119.991615 
L 83.120802 120.969777 
L 83.447936 121.202529 
L 83.77507 121.26294 
L 84.102204 121.15077 
L 84.429339 120.866464 
L 85.083607 119.786626 
L 85.737876 118.040525 
L 86.392144 115.655806 
L 87.373547 110.966542 
L 88.35495 105.094364 
L 89.663487 95.790844 
L 91.626293 79.900868 
L 94.243367 58.633092 
L 95.551904 49.477454 
L 96.533307 43.751779 
L 97.514709 39.233832 
L 98.168978 36.974132 
L 98.823246 35.359404 
L 99.477515 34.415214 
L 99.804649 34.199665 
L 100.131784 34.156513 
L 100.458918 34.285927 
L 100.786052 34.587396 
L 101.440321 35.701043 
L 102.094589 37.479818 
L 102.748858 39.895558 
L 103.730261 44.627191 
L 104.711663 50.535417 
L 106.0202 59.874989 
L 107.983006 75.78905 
L 110.60008 97.029059 
L 111.908617 106.146815 
L 112.89002 111.835293 
L 113.871423 116.309959 
L 114.525691 118.538177 
L 115.17996 120.119899 
L 115.834228 121.03008 
L 116.161363 121.228416 
L 116.488497 121.254308 
L 116.815631 121.107654 
L 117.142766 120.789034 
L 117.797034 119.641623 
L 118.451303 117.830245 
L 119.105571 115.38358 
L 120.086974 110.609765 
L 121.068377 104.665726 
L 122.376914 95.290472 
L 124.339719 79.352955 
L 126.956794 58.141557 
L 128.265331 49.062043 
L 129.246733 43.410987 
L 130.228136 38.97978 
L 130.882405 36.783132 
L 131.536673 35.234479 
L 132.190942 34.358343 
L 132.518076 34.177228 
L 132.84521 34.168597 
L 133.172345 34.332485 
L 133.499479 34.668244 
L 134.153747 35.849373 
L 134.808016 37.693282 
L 135.462285 40.170776 
L 136.443687 44.986584 
L 137.42509 50.9662 
L 138.733627 60.376765 
L 141.023567 79.078896 
L 143.313507 97.519052 
L 144.622044 106.559964 
L 145.603447 112.173373 
L 146.58485 116.560946 
L 147.239118 118.725937 
L 147.893387 120.241459 
L 148.547655 121.083515 
L 148.87479 121.247403 
L 149.201924 121.238772 
L 149.529058 121.057657 
L 149.856192 120.704773 
L 150.510461 119.489972 
L 151.164729 117.613604 
L 151.818998 115.10538 
L 152.800401 110.247771 
L 153.781804 104.232814 
L 155.090341 94.787312 
L 157.380281 76.063045 
L 159.67022 57.653124 
L 160.978758 48.651174 
L 161.96016 43.075633 
L 162.941563 38.731869 
L 163.595832 36.59862 
L 164.2501 35.116289 
L 164.904369 34.308346 
L 165.231503 34.161692 
L 165.558637 34.187584 
L 165.885772 34.38592 
L 166.212906 34.755914 
L 166.867174 36.004339 
L 167.521443 37.913091 
L 168.175711 40.451947 
L 169.157114 45.351164 
L 170.138517 51.401223 
L 171.447054 60.881288 
L 173.736994 79.62695 
L 176.026934 98.005905 
L 177.335471 106.968538 
L 178.316874 112.505988 
L 179.298277 116.805772 
L 179.952545 118.907193 
L 180.606814 120.356275 
L 181.261082 121.130073 
L 181.588216 121.259487 
L 181.915351 121.216335 
L 182.242485 121.000786 
L 182.896754 120.056596 
L 183.551022 118.441868 
L 184.205291 116.182168 
L 185.186693 111.664221 
L 186.168096 105.938546 
L 187.476633 96.782908 
L 189.439439 80.995563 
L 192.383647 57.16787 
L 193.692184 48.244911 
L 194.673587 42.745769 
L 195.65499 38.490137 
L 196.309259 36.420626 
L 196.963527 35.004852 
L 197.617796 34.26523 
L 197.94493 34.15306 
L 198.272064 34.213471 
L 198.599198 34.446223 
L 199.253467 35.424385 
L 199.907735 37.072056 
L 200.562004 39.363148 
L 201.543407 43.924197 
L 202.52481 49.686842 
L 203.833347 58.879998 
L 205.796152 74.693942 
L 208.740361 98.48954 
L 210.048898 107.372472 
L 211.030301 112.833087 
L 212.011703 117.0444 
L 212.665972 119.081917 
L 213.32024 120.464329 
L 213.974509 121.169746 
L 214.301643 121.264667 
L 214.628778 121.186999 
L 214.955912 120.937052 
L 215.61018 119.924958 
L 216.264449 118.24441 
L 216.918717 115.922017 
L 217.90012 111.318046 
L 218.881523 105.51866 
L 220.19006 96.288349 
L 222.152866 80.448433 
L 222.48 77.708 
L 222.48 77.708 
" style="fill:none;stroke:#1f77b4;stroke-linecap:square;stroke-width:1.5;"/>
   </g>
   <g id="line2d_24">
    <path clip-path="url(#p3fffd1b286)" d="M 59.24 77.708 
L 61.857074 56.685874 
L 63.165611 47.84332 
L 64.147014 42.421449 
L 65.128417 38.254622 
L 65.782685 36.249178 
L 66.436954 34.900185 
L 67.091222 34.229001 
L 67.418357 34.151333 
L 67.745491 34.246254 
L 68.072625 34.513386 
L 68.726894 35.559372 
L 69.381162 37.272731 
L 70.035431 39.626334 
L 71.016834 44.273044 
L 71.998236 50.108941 
L 73.306774 59.37604 
L 75.269579 75.241301 
L 77.886653 96.536002 
L 79.19519 105.729158 
L 80.176593 111.491803 
L 81.157996 116.052852 
L 81.812265 118.343944 
L 82.466533 119.991615 
L 83.120802 120.969777 
L 83.447936 121.202529 
L 83.77507 121.26294 
L 84.102204 121.15077 
L 84.429339 120.866464 
L 85.083607 119.786626 
L 85.737876 118.040525 
L 86.392144 115.655806 
L 87.373547 110.966542 
L 88.35495 105.094364 
L 89.663487 95.790844 
L 91.626293 79.900868 
L 94.243367 58.633092 
L 95.551904 49.477454 
L 96.533307 43.751779 
L 97.514709 39.233832 
L 98.168978 36.974132 
L 98.823246 35.359404 
L 99.477515 34.415214 
L 99.804649 34.199665 
L 100.131784 34.156513 
L 100.458918 34.285927 
L 100.786052 34.587396 
L 101.440321 35.701043 
L 102.094589 37.479818 
L 102.748858 39.895558 
L 103.730261 44.627191 
L 104.711663 50.535417 
L 106.0202 59.874989 
L 107.983006 75.78905 
L 110.60008 97.029059 
L 111.908617 106.146815 
L 112.89002 111.835293 
L 113.871423 116.309959 
L 114.525691 118.538177 
L 115.17996 120.119899 
L 115.834228 121.03008 
L 116.161363 121.228416 
L 116.488497 121.254308 
L 116.815631 121.107654 
L 117.142766 120.789034 
L 117.797034 119.641623 
L 118.451303 117.830245 
L 119.105571 115.38358 
L 120.086974 110.609765 
L 121.068377 104.665726 
L 122.376914 95.290472 
L 124.339719 79.352955 
L 126.956794 58.141557 
L 128.265331 49.062043 
L 129.246733 43.410987 
L 130.228136 38.97978 
L 130.882405 36.783132 
L 131.536673 35.234479 
L 132.190942 34.358343 
L 132.518076 34.177228 
L 132.84521 34.168597 
L 133.172345 34.332485 
L 133.499479 34.668244 
L 134.153747 35.849373 
L 134.808016 37.693282 
L 135.462285 40.170776 
L 136.443687 44.986584 
L 137.42509 50.9662 
L 138.733627 60.376765 
L 141.023567 79.078896 
L 143.313507 97.519052 
L 144.622044 106.559964 
L 145.603447 112.173373 
L 146.58485 116.560946 
L 147.239118 118.725937 
L 147.893387 120.241459 
L 148.547655 121.083515 
L 148.87479 121.247403 
L 149.201924 121.238772 
L 149.529058 121.057657 
L 149.856192 120.704773 
L 150.510461 119.489972 
L 151.164729 117.613604 
L 151.818998 115.10538 
L 152.800401 110.247771 
L 153.781804 104.232814 
L 155.090341 94.787312 
L 157.380281 76.063045 
L 159.67022 57.653124 
L 160.978758 48.651174 
L 161.96016 43.075633 
L 162.941563 38.731869 
L 163.595832 36.59862 
L 164.2501 35.116289 
L 164.904369 34.308346 
L 165.231503 34.161692 
L 165.558637 34.187584 
L 165.885772 34.38592 
L 166.212906 34.755914 
L 166.867174 36.004339 
L 167.521443 37.913091 
L 168.175711 40.451947 
L 169.157114 45.351164 
L 170.138517 51.401223 
L 171.447054 60.881288 
L 173.736994 79.62695 
L 176.026934 98.005905 
L 177.335471 106.968538 
L 178.316874 112.505988 
L 179.298277 116.805772 
L 179.952545 118.907193 
L 180.606814 120.356275 
L 181.261082 121.130073 
L 181.588216 121.259487 
L 181.915351 121.216335 
L 182.242485 121.000786 
L 182.896754 120.056596 
L 183.551022 118.441868 
L 184.205291 116.182168 
L 185.186693 111.664221 
L 186.168096 105.938546 
L 187.476633 96.782908 
L 189.439439 80.995563 
L 192.383647 57.16787 
L 193.692184 48.244911 
L 194.673587 42.745769 
L 195.65499 38.490137 
L 196.309259 36.420626 
L 196.963527 35.004852 
L 197.617796 34.26523 
L 197.94493 34.15306 
L 198.272064 34.213471 
L 198.599198 34.446223 
L 199.253467 35.424385 
L 199.907735 37.072056 
L 200.562004 39.363148 
L 201.543407 43.924197 
L 202.52481 49.686842 
L 203.833347 58.879998 
L 205.796152 74.693942 
L 208.740361 98.48954 
L 210.048898 107.372472 
L 211.030301 112.833087 
L 212.011703 117.0444 
L 212.665972 119.081917 
L 213.32024 120.464329 
L 213.974509 121.169746 
L 214.301643 121.264667 
L 214.628778 121.186999 
L 214.955912 120.937052 
L 215.61018 119.924958 
L 216.264449 118.24441 
L 216.918717 115.922017 
L 217.90012 111.318046 
L 218.881523 105.51866 
L 220.19006 96.288349 
L 222.152866 80.448433 
L 222.48 77.708 
L 222.48 77.708 
" style="fill:none;stroke:#ff7f0e;stroke-linecap:square;stroke-width:1.5;"/>
   </g>
   <g id="patch_3">
    <path d="M 59.24 129.976 
L 59.24 25.44 
" style="fill:none;stroke:#000000;stroke-linecap:square;stroke-linejoin:miter;stroke-width:0.8;"/>
   </g>
   <g id="patch_4">
    <path d="M 222.48 129.976 
L 222.48 25.44 
" style="fill:none;stroke:#000000;stroke-linecap:square;stroke-linejoin:miter;stroke-width:0.8;"/>
   </g>
   <g id="patch_5">
    <path d="M 59.24 129.976 
L 222.48 129.976 
" style="fill:none;stroke:#000000;stroke-linecap:square;stroke-linejoin:miter;stroke-width:0.8;"/>
   </g>
   <g id="patch_6">
    <path d="M 59.24 25.44 
L 222.48 25.44 
" style="fill:none;stroke:#000000;stroke-linecap:square;stroke-linejoin:miter;stroke-width:0.8;"/>
   </g>
   <g id="text_14">
    <!-- Entrada -->
    <defs>
     <path d="M 9.8125 72.90625 
L 55.90625 72.90625 
L 55.90625 64.59375 
L 19.671875 64.59375 
L 19.671875 43.015625 
L 54.390625 43.015625 
L 54.390625 34.71875 
L 19.671875 34.71875 
L 19.671875 8.296875 
L 56.78125 8.296875 
L 56.78125 0 
L 9.8125 0 
z
" id="DejaVuSans-69"/>
     <path d="M 54.890625 33.015625 
L 54.890625 0 
L 45.90625 0 
L 45.90625 32.71875 
Q 45.90625 40.484375 42.875 44.328125 
Q 39.84375 48.1875 33.796875 48.1875 
Q 26.515625 48.1875 22.3125 43.546875 
Q 18.109375 38.921875 18.109375 30.90625 
L 18.109375 0 
L 9.078125 0 
L 9.078125 54.6875 
L 18.109375 54.6875 
L 18.109375 46.1875 
Q 21.34375 51.125 25.703125 53.5625 
Q 30.078125 56 35.796875 56 
Q 45.21875 56 50.046875 50.171875 
Q 54.890625 44.34375 54.890625 33.015625 
z
" id="DejaVuSans-110"/>
     <path d="M 45.40625 46.390625 
L 45.40625 75.984375 
L 54.390625 75.984375 
L 54.390625 0 
L 45.40625 0 
L 45.40625 8.203125 
Q 42.578125 3.328125 38.25 0.953125 
Q 33.9375 -1.421875 27.875 -1.421875 
Q 17.96875 -1.421875 11.734375 6.484375 
Q 5.515625 14.40625 5.515625 27.296875 
Q 5.515625 40.1875 11.734375 48.09375 
Q 17.96875 56 27.875 56 
Q 33.9375 56 38.25 53.625 
Q 42.578125 51.265625 45.40625 46.390625 
z
M 14.796875 27.296875 
Q 14.796875 17.390625 18.875 11.75 
Q 22.953125 6.109375 30.078125 6.109375 
Q 37.203125 6.109375 41.296875 11.75 
Q 45.40625 17.390625 45.40625 27.296875 
Q 45.40625 37.203125 41.296875 42.84375 
Q 37.203125 48.484375 30.078125 48.484375 
Q 22.953125 48.484375 18.875 42.84375 
Q 14.796875 37.203125 14.796875 27.296875 
z
" id="DejaVuSans-100"/>
    </defs>
    <g transform="translate(117.284688 19.44)scale(0.12 -0.12)">
     <use xlink:href="#DejaVuSans-69"/>
     <use x="63.183594" xlink:href="#DejaVuSans-110"/>
     <use x="126.5625" xlink:href="#DejaVuSans-116"/>
     <use x="165.771484" xlink:href="#DejaVuSans-114"/>
     <use x="206.884766" xlink:href="#DejaVuSans-97"/>
     <use x="268.164062" xlink:href="#DejaVuSans-100"/>
     <use x="331.640625" xlink:href="#DejaVuSans-97"/>
    </g>
   </g>
  </g>
  <g id="axes_2">
   <g id="patch_7">
    <path d="M 284.24 129.976 
L 447.48 129.976 
L 447.48 25.44 
L 284.24 25.44 
z
" style="fill:#ffffff;"/>
   </g>
   <g id="matplotlib.axis_3">
    <g id="xtick_7">
     <g id="line2d_25">
      <path clip-path="url(#p259d10d24a)" d="M 284.24 129.976 
L 284.24 25.44 
" style="fill:none;stroke:#b0b0b0;stroke-linecap:square;stroke-width:0.8;"/>
     </g>
     <g id="line2d_26">
      <g>
       <use style="stroke:#000000;stroke-width:0.8;" x="284.24" xlink:href="#m22adacca88" y="129.976"/>
      </g>
     </g>
     <g id="text_15">
      <!-- 0 -->
      <g transform="translate(281.05875 144.574437)scale(0.1 -0.1)">
       <use xlink:href="#DejaVuSans-48"/>
      </g>
     </g>
    </g>
    <g id="xtick_8">
     <g id="line2d_27">
      <path clip-path="url(#p259d10d24a)" d="M 317.554286 129.976 
L 317.554286 25.44 
" style="fill:none;stroke:#b0b0b0;stroke-linecap:square;stroke-width:0.8;"/>
     </g>
     <g id="line2d_28">
      <g>
       <use style="stroke:#000000;stroke-width:0.8;" x="317.554286" xlink:href="#m22adacca88" y="129.976"/>
      </g>
     </g>
     <g id="text_16">
      <!-- 10 -->
      <g transform="translate(311.191786 144.574437)scale(0.1 -0.1)">
       <use xlink:href="#DejaVuSans-49"/>
       <use x="63.623047" xlink:href="#DejaVuSans-48"/>
      </g>
     </g>
    </g>
    <g id="xtick_9">
     <g id="line2d_29">
      <path clip-path="url(#p259d10d24a)" d="M 350.868571 129.976 
L 350.868571 25.44 
" style="fill:none;stroke:#b0b0b0;stroke-linecap:square;stroke-width:0.8;"/>
     </g>
     <g id="line2d_30">
      <g>
       <use style="stroke:#000000;stroke-width:0.8;" x="350.868571" xlink:href="#m22adacca88" y="129.976"/>
      </g>
     </g>
     <g id="text_17">
      <!-- 20 -->
      <g transform="translate(344.506071 144.574437)scale(0.1 -0.1)">
       <use xlink:href="#DejaVuSans-50"/>
       <use x="63.623047" xlink:href="#DejaVuSans-48"/>
      </g>
     </g>
    </g>
    <g id="xtick_10">
     <g id="line2d_31">
      <path clip-path="url(#p259d10d24a)" d="M 384.182857 129.976 
L 384.182857 25.44 
" style="fill:none;stroke:#b0b0b0;stroke-linecap:square;stroke-width:0.8;"/>
     </g>
     <g id="line2d_32">
      <g>
       <use style="stroke:#000000;stroke-width:0.8;" x="384.182857" xlink:href="#m22adacca88" y="129.976"/>
      </g>
     </g>
     <g id="text_18">
      <!-- 30 -->
      <g transform="translate(377.820357 144.574437)scale(0.1 -0.1)">
       <use xlink:href="#DejaVuSans-51"/>
       <use x="63.623047" xlink:href="#DejaVuSans-48"/>
      </g>
     </g>
    </g>
    <g id="xtick_11">
     <g id="line2d_33">
      <path clip-path="url(#p259d10d24a)" d="M 417.497143 129.976 
L 417.497143 25.44 
" style="fill:none;stroke:#b0b0b0;stroke-linecap:square;stroke-width:0.8;"/>
     </g>
     <g id="line2d_34">
      <g>
       <use style="stroke:#000000;stroke-width:0.8;" x="417.497143" xlink:href="#m22adacca88" y="129.976"/>
      </g>
     </g>
     <g id="text_19">
      <!-- 40 -->
      <g transform="translate(411.134643 144.574437)scale(0.1 -0.1)">
       <use xlink:href="#DejaVuSans-52"/>
       <use x="63.623047" xlink:href="#DejaVuSans-48"/>
      </g>
     </g>
    </g>
    <g id="text_20">
     <!-- Tiempo (t) -->
     <g transform="translate(339.788125 158.252562)scale(0.1 -0.1)">
      <use xlink:href="#DejaVuSans-84"/>
      <use x="61.037109" xlink:href="#DejaVuSans-105"/>
      <use x="88.820312" xlink:href="#DejaVuSans-101"/>
      <use x="150.34375" xlink:href="#DejaVuSans-109"/>
      <use x="247.755859" xlink:href="#DejaVuSans-112"/>
      <use x="311.232422" xlink:href="#DejaVuSans-111"/>
      <use x="372.414062" xlink:href="#DejaVuSans-32"/>
      <use x="404.201172" xlink:href="#DejaVuSans-40"/>
      <use x="443.214844" xlink:href="#DejaVuSans-116"/>
      <use x="482.423828" xlink:href="#DejaVuSans-41"/>
     </g>
    </g>
   </g>
   <g id="matplotlib.axis_4">
    <g id="ytick_6">
     <g id="line2d_35">
      <path clip-path="url(#p259d10d24a)" d="M 284.24 105.981493 
L 447.48 105.981493 
" style="fill:none;stroke:#b0b0b0;stroke-linecap:square;stroke-width:0.8;"/>
     </g>
     <g id="line2d_36">
      <g>
       <use style="stroke:#000000;stroke-width:0.8;" x="284.24" xlink:href="#m6c5dec734e" y="105.981493"/>
      </g>
     </g>
     <g id="text_21">
      <!-- 2.5 -->
      <g transform="translate(261.336875 109.780712)scale(0.1 -0.1)">
       <use xlink:href="#DejaVuSans-50"/>
       <use x="63.623047" xlink:href="#DejaVuSans-46"/>
       <use x="95.410156" xlink:href="#DejaVuSans-53"/>
      </g>
     </g>
    </g>
    <g id="ytick_7">
     <g id="line2d_37">
      <path clip-path="url(#p259d10d24a)" d="M 284.24 80.509537 
L 447.48 80.509537 
" style="fill:none;stroke:#b0b0b0;stroke-linecap:square;stroke-width:0.8;"/>
     </g>
     <g id="line2d_38">
      <g>
       <use style="stroke:#000000;stroke-width:0.8;" x="284.24" xlink:href="#m6c5dec734e" y="80.509537"/>
      </g>
     </g>
     <g id="text_22">
      <!-- 5.0 -->
      <g transform="translate(261.336875 84.308756)scale(0.1 -0.1)">
       <use xlink:href="#DejaVuSans-53"/>
       <use x="63.623047" xlink:href="#DejaVuSans-46"/>
       <use x="95.410156" xlink:href="#DejaVuSans-48"/>
      </g>
     </g>
    </g>
    <g id="ytick_8">
     <g id="line2d_39">
      <path clip-path="url(#p259d10d24a)" d="M 284.24 55.037582 
L 447.48 55.037582 
" style="fill:none;stroke:#b0b0b0;stroke-linecap:square;stroke-width:0.8;"/>
     </g>
     <g id="line2d_40">
      <g>
       <use style="stroke:#000000;stroke-width:0.8;" x="284.24" xlink:href="#m6c5dec734e" y="55.037582"/>
      </g>
     </g>
     <g id="text_23">
      <!-- 7.5 -->
      <defs>
       <path d="M 8.203125 72.90625 
L 55.078125 72.90625 
L 55.078125 68.703125 
L 28.609375 0 
L 18.3125 0 
L 43.21875 64.59375 
L 8.203125 64.59375 
z
" id="DejaVuSans-55"/>
      </defs>
      <g transform="translate(261.336875 58.8368)scale(0.1 -0.1)">
       <use xlink:href="#DejaVuSans-55"/>
       <use x="63.623047" xlink:href="#DejaVuSans-46"/>
       <use x="95.410156" xlink:href="#DejaVuSans-53"/>
      </g>
     </g>
    </g>
    <g id="ytick_9">
     <g id="line2d_41">
      <path clip-path="url(#p259d10d24a)" d="M 284.24 29.565626 
L 447.48 29.565626 
" style="fill:none;stroke:#b0b0b0;stroke-linecap:square;stroke-width:0.8;"/>
     </g>
     <g id="line2d_42">
      <g>
       <use style="stroke:#000000;stroke-width:0.8;" x="284.24" xlink:href="#m6c5dec734e" y="29.565626"/>
      </g>
     </g>
     <g id="text_24">
      <!-- 10.0 -->
      <g transform="translate(254.974375 33.364845)scale(0.1 -0.1)">
       <use xlink:href="#DejaVuSans-49"/>
       <use x="63.623047" xlink:href="#DejaVuSans-48"/>
       <use x="127.246094" xlink:href="#DejaVuSans-46"/>
       <use x="159.033203" xlink:href="#DejaVuSans-48"/>
      </g>
     </g>
    </g>
    <g id="text_25">
     <!-- Valor -->
     <g transform="translate(248.894688 90.690813)rotate(-90)scale(0.1 -0.1)">
      <use xlink:href="#DejaVuSans-86"/>
      <use x="68.298828" xlink:href="#DejaVuSans-97"/>
      <use x="129.578125" xlink:href="#DejaVuSans-108"/>
      <use x="157.361328" xlink:href="#DejaVuSans-111"/>
      <use x="218.542969" xlink:href="#DejaVuSans-114"/>
     </g>
    </g>
   </g>
   <g id="line2d_43">
    <path clip-path="url(#p259d10d24a)" d="M 284.24 121.264667 
L 287.571429 120.784484 
L 290.902857 120.281671 
L 294.234286 119.755162 
L 297.565714 119.203838 
L 300.897143 118.626532 
L 304.228571 118.022018 
L 307.56 117.389014 
L 310.891429 116.726178 
L 314.222857 116.032103 
L 317.554286 115.305317 
L 320.885714 114.544279 
L 324.217143 113.747375 
L 327.548571 112.912913 
L 330.88 112.039125 
L 334.211429 111.124156 
L 337.542857 110.166066 
L 340.874286 109.162822 
L 344.205714 108.112297 
L 347.537143 107.012263 
L 350.868571 105.860385 
L 354.2 104.654221 
L 357.531429 103.391212 
L 360.862857 102.06868 
L 364.194286 100.683818 
L 367.525714 99.23369 
L 370.857143 97.71522 
L 374.188571 96.125186 
L 377.52 94.460216 
L 380.851429 92.716779 
L 384.182857 90.891176 
L 387.514286 88.979535 
L 390.845714 86.977801 
L 394.177143 84.881728 
L 397.508571 82.686871 
L 400.84 80.388573 
L 404.171429 77.981959 
L 407.502857 75.461926 
L 410.834286 72.823126 
L 414.165714 70.059964 
L 417.497143 67.166579 
L 420.828571 64.136832 
L 424.16 60.964297 
L 427.491429 57.642246 
L 430.822857 54.163631 
L 434.154286 50.521074 
L 437.485714 46.706849 
L 440.817143 42.712865 
L 444.148571 38.53065 
L 447.48 34.151333 
" style="fill:none;stroke:#1f77b4;stroke-linecap:square;stroke-width:1.5;"/>
   </g>
   <g id="patch_8">
    <path d="M 284.24 129.976 
L 284.24 25.44 
" style="fill:none;stroke:#000000;stroke-linecap:square;stroke-linejoin:miter;stroke-width:0.8;"/>
   </g>
   <g id="patch_9">
    <path d="M 447.48 129.976 
L 447.48 25.44 
" style="fill:none;stroke:#000000;stroke-linecap:square;stroke-linejoin:miter;stroke-width:0.8;"/>
   </g>
   <g id="patch_10">
    <path d="M 284.24 129.976 
L 447.48 129.976 
" style="fill:none;stroke:#000000;stroke-linecap:square;stroke-linejoin:miter;stroke-width:0.8;"/>
   </g>
   <g id="patch_11">
    <path d="M 284.24 25.44 
L 447.48 25.44 
" style="fill:none;stroke:#000000;stroke-linecap:square;stroke-linejoin:miter;stroke-width:0.8;"/>
   </g>
   <g id="text_26">
    <!-- Función de Transferencia -->
    <defs>
     <path d="M 9.8125 72.90625 
L 51.703125 72.90625 
L 51.703125 64.59375 
L 19.671875 64.59375 
L 19.671875 43.109375 
L 48.578125 43.109375 
L 48.578125 34.8125 
L 19.671875 34.8125 
L 19.671875 0 
L 9.8125 0 
z
" id="DejaVuSans-70"/>
     <path d="M 8.5 21.578125 
L 8.5 54.6875 
L 17.484375 54.6875 
L 17.484375 21.921875 
Q 17.484375 14.15625 20.5 10.265625 
Q 23.53125 6.390625 29.59375 6.390625 
Q 36.859375 6.390625 41.078125 11.03125 
Q 45.3125 15.671875 45.3125 23.6875 
L 45.3125 54.6875 
L 54.296875 54.6875 
L 54.296875 0 
L 45.3125 0 
L 45.3125 8.40625 
Q 42.046875 3.421875 37.71875 1 
Q 33.40625 -1.421875 27.6875 -1.421875 
Q 18.265625 -1.421875 13.375 4.4375 
Q 8.5 10.296875 8.5 21.578125 
z
M 31.109375 56 
z
" id="DejaVuSans-117"/>
     <path d="M 48.78125 52.59375 
L 48.78125 44.1875 
Q 44.96875 46.296875 41.140625 47.34375 
Q 37.3125 48.390625 33.40625 48.390625 
Q 24.65625 48.390625 19.8125 42.84375 
Q 14.984375 37.3125 14.984375 27.296875 
Q 14.984375 17.28125 19.8125 11.734375 
Q 24.65625 6.203125 33.40625 6.203125 
Q 37.3125 6.203125 41.140625 7.25 
Q 44.96875 8.296875 48.78125 10.40625 
L 48.78125 2.09375 
Q 45.015625 0.34375 40.984375 -0.53125 
Q 36.96875 -1.421875 32.421875 -1.421875 
Q 20.0625 -1.421875 12.78125 6.34375 
Q 5.515625 14.109375 5.515625 27.296875 
Q 5.515625 40.671875 12.859375 48.328125 
Q 20.21875 56 33.015625 56 
Q 37.15625 56 41.109375 55.140625 
Q 45.0625 54.296875 48.78125 52.59375 
z
" id="DejaVuSans-99"/>
     <path d="M 30.609375 48.390625 
Q 23.390625 48.390625 19.1875 42.75 
Q 14.984375 37.109375 14.984375 27.296875 
Q 14.984375 17.484375 19.15625 11.84375 
Q 23.34375 6.203125 30.609375 6.203125 
Q 37.796875 6.203125 41.984375 11.859375 
Q 46.1875 17.53125 46.1875 27.296875 
Q 46.1875 37.015625 41.984375 42.703125 
Q 37.796875 48.390625 30.609375 48.390625 
z
M 30.609375 56 
Q 42.328125 56 49.015625 48.375 
Q 55.71875 40.765625 55.71875 27.296875 
Q 55.71875 13.875 49.015625 6.21875 
Q 42.328125 -1.421875 30.609375 -1.421875 
Q 18.84375 -1.421875 12.171875 6.21875 
Q 5.515625 13.875 5.515625 27.296875 
Q 5.515625 40.765625 12.171875 48.375 
Q 18.84375 56 30.609375 56 
z
M 37.40625 79.984375 
L 47.125 79.984375 
L 31.203125 61.625 
L 23.734375 61.625 
z
" id="DejaVuSans-243"/>
     <path d="M 44.28125 53.078125 
L 44.28125 44.578125 
Q 40.484375 46.53125 36.375 47.5 
Q 32.28125 48.484375 27.875 48.484375 
Q 21.1875 48.484375 17.84375 46.4375 
Q 14.5 44.390625 14.5 40.28125 
Q 14.5 37.15625 16.890625 35.375 
Q 19.28125 33.59375 26.515625 31.984375 
L 29.59375 31.296875 
Q 39.15625 29.25 43.1875 25.515625 
Q 47.21875 21.78125 47.21875 15.09375 
Q 47.21875 7.46875 41.1875 3.015625 
Q 35.15625 -1.421875 24.609375 -1.421875 
Q 20.21875 -1.421875 15.453125 -0.5625 
Q 10.6875 0.296875 5.421875 2 
L 5.421875 11.28125 
Q 10.40625 8.6875 15.234375 7.390625 
Q 20.0625 6.109375 24.8125 6.109375 
Q 31.15625 6.109375 34.5625 8.28125 
Q 37.984375 10.453125 37.984375 14.40625 
Q 37.984375 18.0625 35.515625 20.015625 
Q 33.0625 21.96875 24.703125 23.78125 
L 21.578125 24.515625 
Q 13.234375 26.265625 9.515625 29.90625 
Q 5.8125 33.546875 5.8125 39.890625 
Q 5.8125 47.609375 11.28125 51.796875 
Q 16.75 56 26.8125 56 
Q 31.78125 56 36.171875 55.265625 
Q 40.578125 54.546875 44.28125 53.078125 
z
" id="DejaVuSans-115"/>
     <path d="M 37.109375 75.984375 
L 37.109375 68.5 
L 28.515625 68.5 
Q 23.6875 68.5 21.796875 66.546875 
Q 19.921875 64.59375 19.921875 59.515625 
L 19.921875 54.6875 
L 34.71875 54.6875 
L 34.71875 47.703125 
L 19.921875 47.703125 
L 19.921875 0 
L 10.890625 0 
L 10.890625 47.703125 
L 2.296875 47.703125 
L 2.296875 54.6875 
L 10.890625 54.6875 
L 10.890625 58.5 
Q 10.890625 67.625 15.140625 71.796875 
Q 19.390625 75.984375 28.609375 75.984375 
z
" id="DejaVuSans-102"/>
    </defs>
    <g transform="translate(289.925313 19.44)scale(0.12 -0.12)">
     <use xlink:href="#DejaVuSans-70"/>
     <use x="57.441406" xlink:href="#DejaVuSans-117"/>
     <use x="120.820312" xlink:href="#DejaVuSans-110"/>
     <use x="184.199219" xlink:href="#DejaVuSans-99"/>
     <use x="239.179688" xlink:href="#DejaVuSans-105"/>
     <use x="266.962891" xlink:href="#DejaVuSans-243"/>
     <use x="328.144531" xlink:href="#DejaVuSans-110"/>
     <use x="391.523438" xlink:href="#DejaVuSans-32"/>
     <use x="423.310547" xlink:href="#DejaVuSans-100"/>
     <use x="486.787109" xlink:href="#DejaVuSans-101"/>
     <use x="548.310547" xlink:href="#DejaVuSans-32"/>
     <use x="580.097656" xlink:href="#DejaVuSans-84"/>
     <use x="640.962891" xlink:href="#DejaVuSans-114"/>
     <use x="682.076172" xlink:href="#DejaVuSans-97"/>
     <use x="743.355469" xlink:href="#DejaVuSans-110"/>
     <use x="806.734375" xlink:href="#DejaVuSans-115"/>
     <use x="858.833984" xlink:href="#DejaVuSans-102"/>
     <use x="894.039062" xlink:href="#DejaVuSans-101"/>
     <use x="955.5625" xlink:href="#DejaVuSans-114"/>
     <use x="996.644531" xlink:href="#DejaVuSans-101"/>
     <use x="1058.167969" xlink:href="#DejaVuSans-110"/>
     <use x="1121.546875" xlink:href="#DejaVuSans-99"/>
     <use x="1176.527344" xlink:href="#DejaVuSans-105"/>
     <use x="1204.310547" xlink:href="#DejaVuSans-97"/>
    </g>
   </g>
  </g>
  <g id="axes_3">
   <g id="patch_12">
    <path d="M 59.24 303.64 
L 222.48 303.64 
L 222.48 199.104 
L 59.24 199.104 
z
" style="fill:#ffffff;"/>
   </g>
   <g id="matplotlib.axis_5">
    <g id="xtick_12">
     <g id="line2d_44">
      <path clip-path="url(#pcf9ce211d9)" d="M 59.24 303.64 
L 59.24 199.104 
" style="fill:none;stroke:#b0b0b0;stroke-linecap:square;stroke-width:0.8;"/>
     </g>
     <g id="line2d_45">
      <g>
       <use style="stroke:#000000;stroke-width:0.8;" x="59.24" xlink:href="#m22adacca88" y="303.64"/>
      </g>
     </g>
     <g id="text_27">
      <!-- 0 -->
      <g transform="translate(56.05875 318.238437)scale(0.1 -0.1)">
       <use xlink:href="#DejaVuSans-48"/>
      </g>
     </g>
    </g>
    <g id="xtick_13">
     <g id="line2d_46">
      <path clip-path="url(#pcf9ce211d9)" d="M 118.816642 303.64 
L 118.816642 199.104 
" style="fill:none;stroke:#b0b0b0;stroke-linecap:square;stroke-width:0.8;"/>
     </g>
     <g id="line2d_47">
      <g>
       <use style="stroke:#000000;stroke-width:0.8;" x="118.816642" xlink:href="#m22adacca88" y="303.64"/>
      </g>
     </g>
     <g id="text_28">
      <!-- 200 -->
      <g transform="translate(109.272892 318.238437)scale(0.1 -0.1)">
       <use xlink:href="#DejaVuSans-50"/>
       <use x="63.623047" xlink:href="#DejaVuSans-48"/>
       <use x="127.246094" xlink:href="#DejaVuSans-48"/>
      </g>
     </g>
    </g>
    <g id="xtick_14">
     <g id="line2d_48">
      <path clip-path="url(#pcf9ce211d9)" d="M 178.393285 303.64 
L 178.393285 199.104 
" style="fill:none;stroke:#b0b0b0;stroke-linecap:square;stroke-width:0.8;"/>
     </g>
     <g id="line2d_49">
      <g>
       <use style="stroke:#000000;stroke-width:0.8;" x="178.393285" xlink:href="#m22adacca88" y="303.64"/>
      </g>
     </g>
     <g id="text_29">
      <!-- 400 -->
      <g transform="translate(168.849535 318.238437)scale(0.1 -0.1)">
       <use xlink:href="#DejaVuSans-52"/>
       <use x="63.623047" xlink:href="#DejaVuSans-48"/>
       <use x="127.246094" xlink:href="#DejaVuSans-48"/>
      </g>
     </g>
    </g>
    <g id="text_30">
     <!-- Tiempo (t) -->
     <g transform="translate(114.788125 331.916562)scale(0.1 -0.1)">
      <use xlink:href="#DejaVuSans-84"/>
      <use x="61.037109" xlink:href="#DejaVuSans-105"/>
      <use x="88.820312" xlink:href="#DejaVuSans-101"/>
      <use x="150.34375" xlink:href="#DejaVuSans-109"/>
      <use x="247.755859" xlink:href="#DejaVuSans-112"/>
      <use x="311.232422" xlink:href="#DejaVuSans-111"/>
      <use x="372.414062" xlink:href="#DejaVuSans-32"/>
      <use x="404.201172" xlink:href="#DejaVuSans-40"/>
      <use x="443.214844" xlink:href="#DejaVuSans-116"/>
      <use x="482.423828" xlink:href="#DejaVuSans-41"/>
     </g>
    </g>
   </g>
   <g id="matplotlib.axis_6">
    <g id="ytick_10">
     <g id="line2d_50">
      <path clip-path="url(#pcf9ce211d9)" d="M 59.24 281.85642 
L 222.48 281.85642 
" style="fill:none;stroke:#b0b0b0;stroke-linecap:square;stroke-width:0.8;"/>
     </g>
     <g id="line2d_51">
      <g>
       <use style="stroke:#000000;stroke-width:0.8;" x="59.24" xlink:href="#m6c5dec734e" y="281.85642"/>
      </g>
     </g>
     <g id="text_31">
      <!-- −100 -->
      <g transform="translate(24.772813 285.655638)scale(0.1 -0.1)">
       <use xlink:href="#DejaVuSans-8722"/>
       <use x="83.789062" xlink:href="#DejaVuSans-49"/>
       <use x="147.412109" xlink:href="#DejaVuSans-48"/>
       <use x="211.035156" xlink:href="#DejaVuSans-48"/>
      </g>
     </g>
    </g>
    <g id="ytick_11">
     <g id="line2d_52">
      <path clip-path="url(#pcf9ce211d9)" d="M 59.24 250.723049 
L 222.48 250.723049 
" style="fill:none;stroke:#b0b0b0;stroke-linecap:square;stroke-width:0.8;"/>
     </g>
     <g id="line2d_53">
      <g>
       <use style="stroke:#000000;stroke-width:0.8;" x="59.24" xlink:href="#m6c5dec734e" y="250.723049"/>
      </g>
     </g>
     <g id="text_32">
      <!-- 0 -->
      <g transform="translate(45.8775 254.522268)scale(0.1 -0.1)">
       <use xlink:href="#DejaVuSans-48"/>
      </g>
     </g>
    </g>
    <g id="ytick_12">
     <g id="line2d_54">
      <path clip-path="url(#pcf9ce211d9)" d="M 59.24 219.589678 
L 222.48 219.589678 
" style="fill:none;stroke:#b0b0b0;stroke-linecap:square;stroke-width:0.8;"/>
     </g>
     <g id="line2d_55">
      <g>
       <use style="stroke:#000000;stroke-width:0.8;" x="59.24" xlink:href="#m6c5dec734e" y="219.589678"/>
      </g>
     </g>
     <g id="text_33">
      <!-- 100 -->
      <g transform="translate(33.1525 223.388897)scale(0.1 -0.1)">
       <use xlink:href="#DejaVuSans-49"/>
       <use x="63.623047" xlink:href="#DejaVuSans-48"/>
       <use x="127.246094" xlink:href="#DejaVuSans-48"/>
      </g>
     </g>
    </g>
    <g id="text_34">
     <!-- Valor -->
     <g transform="translate(18.693125 264.354812)rotate(-90)scale(0.1 -0.1)">
      <use xlink:href="#DejaVuSans-86"/>
      <use x="68.298828" xlink:href="#DejaVuSans-97"/>
      <use x="129.578125" xlink:href="#DejaVuSans-108"/>
      <use x="157.361328" xlink:href="#DejaVuSans-111"/>
      <use x="218.542969" xlink:href="#DejaVuSans-114"/>
     </g>
    </g>
   </g>
   <g id="line2d_56">
    <path clip-path="url(#pcf9ce211d9)" d="M 59.24 250.723049 
L 60.13365 250.602177 
L 61.027299 250.283442 
L 61.920949 249.748231 
L 62.814599 248.981191 
L 63.708248 247.97012 
L 64.899781 246.226568 
L 66.091314 244.01659 
L 67.282847 241.327884 
L 68.47438 238.147665 
L 69.963796 233.451691 
L 71.453212 227.892533 
L 72.942628 221.353534 
L 75.02781 211.377294 
L 75.623577 209.539035 
L 76.219343 208.352875 
L 76.815109 207.837595 
L 77.112993 207.834504 
L 77.410876 208.001354 
L 77.708759 208.337483 
L 78.304526 209.511586 
L 78.900292 211.338222 
L 79.496058 213.78847 
L 80.389708 218.545691 
L 81.581241 226.633679 
L 83.070657 238.811244 
L 87.538905 277.134451 
L 88.730438 284.727706 
L 89.624088 289.036228 
L 90.219854 291.159038 
L 90.81562 292.641593 
L 91.411387 293.460419 
L 91.70927 293.616464 
L 92.007153 293.60255 
L 92.305036 293.418732 
L 92.900803 292.544965 
L 93.496569 291.008999 
L 94.092336 288.835153 
L 94.985985 284.456287 
L 95.879635 278.877624 
L 97.071168 269.921283 
L 98.858467 254.414481 
L 101.539416 230.890528 
L 102.730949 222.034912 
L 103.624599 216.554314 
L 104.518248 212.289002 
L 105.114015 210.197489 
L 105.709781 208.747649 
L 106.305547 207.962439 
L 106.603431 207.823372 
L 106.901314 207.854291 
L 107.199197 208.055071 
L 107.794964 208.962364 
L 108.39073 210.530888 
L 108.986496 212.735806 
L 109.880146 217.157428 
L 110.773796 222.772886 
L 111.965328 231.766787 
L 113.752628 247.300828 
L 116.433577 270.794729 
L 117.625109 279.611501 
L 118.518759 285.054507 
L 119.412409 289.27644 
L 120.008175 291.336573 
L 120.603942 292.753641 
L 121.199708 293.505205 
L 121.497591 293.627286 
L 121.795474 293.579365 
L 122.093358 293.361632 
L 122.689124 292.420847 
L 123.284891 290.819828 
L 123.880657 288.583926 
L 124.774307 284.119722 
L 125.667956 278.467693 
L 126.859489 269.436588 
L 128.646788 253.875923 
L 131.327737 230.413006 
L 132.51927 221.635428 
L 133.41292 216.230228 
L 134.306569 212.051842 
L 134.902336 210.02317 
L 135.498102 208.638931 
L 136.093869 207.921044 
L 136.391752 207.815952 
L 136.689635 207.880873 
L 136.987518 208.115552 
L 137.583285 209.08979 
L 138.179051 210.723241 
L 138.774818 212.99004 
L 139.668467 217.496647 
L 140.562117 223.185025 
L 141.75365 232.252975 
L 143.540949 247.839646 
L 146.221898 271.270651 
L 147.413431 280.008687 
L 148.30708 285.375865 
L 149.20073 289.510539 
L 149.796496 291.507669 
L 150.392263 292.859024 
L 150.988029 293.543208 
L 151.285912 293.631306 
L 151.583796 293.549386 
L 151.881679 293.297772 
L 152.477445 292.290118 
L 153.073212 290.624301 
L 153.668978 288.326695 
L 154.562628 283.777863 
L 155.456277 278.053363 
L 156.64781 268.948926 
L 158.435109 253.336866 
L 161.116058 229.938704 
L 162.307591 221.240555 
L 163.201241 215.911611 
L 164.094891 211.820813 
L 164.690657 209.855304 
L 165.286423 208.536886 
L 165.88219 207.886434 
L 166.180073 207.815333 
L 166.477956 207.914249 
L 166.775839 208.182788 
L 167.371606 209.223817 
L 167.967372 210.921935 
L 168.563139 213.250256 
L 169.456788 217.841134 
L 170.350438 223.601529 
L 171.541971 232.742091 
L 173.627153 251.079159 
L 176.010219 271.743314 
L 177.201752 280.401231 
L 178.095401 285.691729 
L 178.989051 289.738489 
L 179.584818 291.672299 
L 180.180584 292.957728 
L 180.77635 293.574422 
L 181.074234 293.628523 
L 181.372117 293.512616 
L 181.67 293.227161 
L 182.265766 292.152799 
L 182.861533 290.422447 
L 183.457299 288.063503 
L 184.350949 283.430763 
L 185.244599 277.6347 
L 186.436131 268.458374 
L 188.521314 250.096816 
L 190.90438 229.467697 
L 192.095912 220.850356 
L 192.989562 215.598513 
L 193.883212 211.595952 
L 194.478978 209.693917 
L 195.074745 208.441528 
L 195.670511 207.858617 
L 195.968394 207.821518 
L 196.266277 207.954411 
L 196.564161 208.256769 
L 197.159927 209.364423 
L 197.755693 211.12694 
L 198.35146 213.516413 
L 199.245109 218.190834 
L 200.138759 224.022334 
L 201.330292 233.234059 
L 203.415474 251.61938 
L 205.79854 272.212645 
L 206.990073 280.789069 
L 207.883723 286.002049 
L 208.777372 290.081125 
L 209.671022 292.962506 
L 210.266788 294.180204 
L 210.862555 294.823011 
L 211.160438 294.928667 
L 211.458321 294.891671 
L 211.756204 294.713703 
L 212.351971 293.944711 
L 212.947737 292.647617 
L 213.543504 290.858035 
L 214.437153 287.350781 
L 215.628686 281.440342 
L 217.415985 271.079763 
L 219.203285 260.910552 
L 220.394818 255.426221 
L 221.288467 252.500468 
L 221.884234 251.275078 
L 222.182117 250.910112 
L 222.48 250.723049 
L 222.48 250.723049 
" style="fill:none;stroke:#1f77b4;stroke-linecap:square;stroke-width:1.5;"/>
   </g>
   <g id="patch_13">
    <path d="M 59.24 303.64 
L 59.24 199.104 
" style="fill:none;stroke:#000000;stroke-linecap:square;stroke-linejoin:miter;stroke-width:0.8;"/>
   </g>
   <g id="patch_14">
    <path d="M 222.48 303.64 
L 222.48 199.104 
" style="fill:none;stroke:#000000;stroke-linecap:square;stroke-linejoin:miter;stroke-width:0.8;"/>
   </g>
   <g id="patch_15">
    <path d="M 59.24 303.64 
L 222.48 303.64 
" style="fill:none;stroke:#000000;stroke-linecap:square;stroke-linejoin:miter;stroke-width:0.8;"/>
   </g>
   <g id="patch_16">
    <path d="M 59.24 199.104 
L 222.48 199.104 
" style="fill:none;stroke:#000000;stroke-linecap:square;stroke-linejoin:miter;stroke-width:0.8;"/>
   </g>
   <g id="text_35">
    <!-- Convolución Original -->
    <defs>
     <path d="M 64.40625 67.28125 
L 64.40625 56.890625 
Q 59.421875 61.53125 53.78125 63.8125 
Q 48.140625 66.109375 41.796875 66.109375 
Q 29.296875 66.109375 22.65625 58.46875 
Q 16.015625 50.828125 16.015625 36.375 
Q 16.015625 21.96875 22.65625 14.328125 
Q 29.296875 6.6875 41.796875 6.6875 
Q 48.140625 6.6875 53.78125 8.984375 
Q 59.421875 11.28125 64.40625 15.921875 
L 64.40625 5.609375 
Q 59.234375 2.09375 53.4375 0.328125 
Q 47.65625 -1.421875 41.21875 -1.421875 
Q 24.65625 -1.421875 15.125 8.703125 
Q 5.609375 18.84375 5.609375 36.375 
Q 5.609375 53.953125 15.125 64.078125 
Q 24.65625 74.21875 41.21875 74.21875 
Q 47.75 74.21875 53.53125 72.484375 
Q 59.328125 70.75 64.40625 67.28125 
z
" id="DejaVuSans-67"/>
     <path d="M 2.984375 54.6875 
L 12.5 54.6875 
L 29.59375 8.796875 
L 46.6875 54.6875 
L 56.203125 54.6875 
L 35.6875 0 
L 23.484375 0 
z
" id="DejaVuSans-118"/>
     <path d="M 39.40625 66.21875 
Q 28.65625 66.21875 22.328125 58.203125 
Q 16.015625 50.203125 16.015625 36.375 
Q 16.015625 22.609375 22.328125 14.59375 
Q 28.65625 6.59375 39.40625 6.59375 
Q 50.140625 6.59375 56.421875 14.59375 
Q 62.703125 22.609375 62.703125 36.375 
Q 62.703125 50.203125 56.421875 58.203125 
Q 50.140625 66.21875 39.40625 66.21875 
z
M 39.40625 74.21875 
Q 54.734375 74.21875 63.90625 63.9375 
Q 73.09375 53.65625 73.09375 36.375 
Q 73.09375 19.140625 63.90625 8.859375 
Q 54.734375 -1.421875 39.40625 -1.421875 
Q 24.03125 -1.421875 14.8125 8.828125 
Q 5.609375 19.09375 5.609375 36.375 
Q 5.609375 53.65625 14.8125 63.9375 
Q 24.03125 74.21875 39.40625 74.21875 
z
" id="DejaVuSans-79"/>
     <path d="M 45.40625 27.984375 
Q 45.40625 37.75 41.375 43.109375 
Q 37.359375 48.484375 30.078125 48.484375 
Q 22.859375 48.484375 18.828125 43.109375 
Q 14.796875 37.75 14.796875 27.984375 
Q 14.796875 18.265625 18.828125 12.890625 
Q 22.859375 7.515625 30.078125 7.515625 
Q 37.359375 7.515625 41.375 12.890625 
Q 45.40625 18.265625 45.40625 27.984375 
z
M 54.390625 6.78125 
Q 54.390625 -7.171875 48.1875 -13.984375 
Q 42 -20.796875 29.203125 -20.796875 
Q 24.46875 -20.796875 20.265625 -20.09375 
Q 16.0625 -19.390625 12.109375 -17.921875 
L 12.109375 -9.1875 
Q 16.0625 -11.328125 19.921875 -12.34375 
Q 23.78125 -13.375 27.78125 -13.375 
Q 36.625 -13.375 41.015625 -8.765625 
Q 45.40625 -4.15625 45.40625 5.171875 
L 45.40625 9.625 
Q 42.625 4.78125 38.28125 2.390625 
Q 33.9375 0 27.875 0 
Q 17.828125 0 11.671875 7.65625 
Q 5.515625 15.328125 5.515625 27.984375 
Q 5.515625 40.671875 11.671875 48.328125 
Q 17.828125 56 27.875 56 
Q 33.9375 56 38.28125 53.609375 
Q 42.625 51.21875 45.40625 46.390625 
L 45.40625 54.6875 
L 54.390625 54.6875 
z
" id="DejaVuSans-103"/>
    </defs>
    <g transform="translate(78.679375 193.104)scale(0.12 -0.12)">
     <use xlink:href="#DejaVuSans-67"/>
     <use x="69.824219" xlink:href="#DejaVuSans-111"/>
     <use x="131.005859" xlink:href="#DejaVuSans-110"/>
     <use x="194.384766" xlink:href="#DejaVuSans-118"/>
     <use x="253.564453" xlink:href="#DejaVuSans-111"/>
     <use x="314.746094" xlink:href="#DejaVuSans-108"/>
     <use x="342.529297" xlink:href="#DejaVuSans-117"/>
     <use x="405.908203" xlink:href="#DejaVuSans-99"/>
     <use x="460.888672" xlink:href="#DejaVuSans-105"/>
     <use x="488.671875" xlink:href="#DejaVuSans-243"/>
     <use x="549.853516" xlink:href="#DejaVuSans-110"/>
     <use x="613.232422" xlink:href="#DejaVuSans-32"/>
     <use x="645.019531" xlink:href="#DejaVuSans-79"/>
     <use x="723.730469" xlink:href="#DejaVuSans-114"/>
     <use x="764.84375" xlink:href="#DejaVuSans-105"/>
     <use x="792.626953" xlink:href="#DejaVuSans-103"/>
     <use x="856.103516" xlink:href="#DejaVuSans-105"/>
     <use x="883.886719" xlink:href="#DejaVuSans-110"/>
     <use x="947.265625" xlink:href="#DejaVuSans-97"/>
     <use x="1008.544922" xlink:href="#DejaVuSans-108"/>
    </g>
   </g>
  </g>
  <g id="axes_4">
   <g id="patch_17">
    <path d="M 284.24 303.64 
L 447.48 303.64 
L 447.48 199.104 
L 284.24 199.104 
z
" style="fill:#ffffff;"/>
   </g>
   <g id="matplotlib.axis_7">
    <g id="xtick_15">
     <g id="line2d_57">
      <path clip-path="url(#pe9125fee05)" d="M 284.24 303.64 
L 284.24 199.104 
" style="fill:none;stroke:#b0b0b0;stroke-linecap:square;stroke-width:0.8;"/>
     </g>
     <g id="line2d_58">
      <g>
       <use style="stroke:#000000;stroke-width:0.8;" x="284.24" xlink:href="#m22adacca88" y="303.64"/>
      </g>
     </g>
     <g id="text_36">
      <!-- 0 -->
      <g transform="translate(281.05875 318.238437)scale(0.1 -0.1)">
       <use xlink:href="#DejaVuSans-48"/>
      </g>
     </g>
    </g>
    <g id="xtick_16">
     <g id="line2d_59">
      <path clip-path="url(#pe9125fee05)" d="M 341.718873 303.64 
L 341.718873 199.104 
" style="fill:none;stroke:#b0b0b0;stroke-linecap:square;stroke-width:0.8;"/>
     </g>
     <g id="line2d_60">
      <g>
       <use style="stroke:#000000;stroke-width:0.8;" x="341.718873" xlink:href="#m22adacca88" y="303.64"/>
      </g>
     </g>
     <g id="text_37">
      <!-- 200 -->
      <g transform="translate(332.175123 318.238437)scale(0.1 -0.1)">
       <use xlink:href="#DejaVuSans-50"/>
       <use x="63.623047" xlink:href="#DejaVuSans-48"/>
       <use x="127.246094" xlink:href="#DejaVuSans-48"/>
      </g>
     </g>
    </g>
    <g id="xtick_17">
     <g id="line2d_61">
      <path clip-path="url(#pe9125fee05)" d="M 399.197746 303.64 
L 399.197746 199.104 
" style="fill:none;stroke:#b0b0b0;stroke-linecap:square;stroke-width:0.8;"/>
     </g>
     <g id="line2d_62">
      <g>
       <use style="stroke:#000000;stroke-width:0.8;" x="399.197746" xlink:href="#m22adacca88" y="303.64"/>
      </g>
     </g>
     <g id="text_38">
      <!-- 400 -->
      <g transform="translate(389.653996 318.238437)scale(0.1 -0.1)">
       <use xlink:href="#DejaVuSans-52"/>
       <use x="63.623047" xlink:href="#DejaVuSans-48"/>
       <use x="127.246094" xlink:href="#DejaVuSans-48"/>
      </g>
     </g>
    </g>
    <g id="text_39">
     <!-- Tiempo (t) -->
     <g transform="translate(339.788125 331.916562)scale(0.1 -0.1)">
      <use xlink:href="#DejaVuSans-84"/>
      <use x="61.037109" xlink:href="#DejaVuSans-105"/>
      <use x="88.820312" xlink:href="#DejaVuSans-101"/>
      <use x="150.34375" xlink:href="#DejaVuSans-109"/>
      <use x="247.755859" xlink:href="#DejaVuSans-112"/>
      <use x="311.232422" xlink:href="#DejaVuSans-111"/>
      <use x="372.414062" xlink:href="#DejaVuSans-32"/>
      <use x="404.201172" xlink:href="#DejaVuSans-40"/>
      <use x="443.214844" xlink:href="#DejaVuSans-116"/>
      <use x="482.423828" xlink:href="#DejaVuSans-41"/>
     </g>
    </g>
   </g>
   <g id="matplotlib.axis_8">
    <g id="ytick_13">
     <g id="line2d_63">
      <path clip-path="url(#pe9125fee05)" d="M 284.24 287.350544 
L 447.48 287.350544 
" style="fill:none;stroke:#b0b0b0;stroke-linecap:square;stroke-width:0.8;"/>
     </g>
     <g id="line2d_64">
      <g>
       <use style="stroke:#000000;stroke-width:0.8;" x="284.24" xlink:href="#m6c5dec734e" y="287.350544"/>
      </g>
     </g>
     <g id="text_40">
      <!-- −200 -->
      <g transform="translate(249.772813 291.149763)scale(0.1 -0.1)">
       <use xlink:href="#DejaVuSans-8722"/>
       <use x="83.789062" xlink:href="#DejaVuSans-50"/>
       <use x="147.412109" xlink:href="#DejaVuSans-48"/>
       <use x="211.035156" xlink:href="#DejaVuSans-48"/>
      </g>
     </g>
    </g>
    <g id="ytick_14">
     <g id="line2d_65">
      <path clip-path="url(#pe9125fee05)" d="M 284.24 250.723049 
L 447.48 250.723049 
" style="fill:none;stroke:#b0b0b0;stroke-linecap:square;stroke-width:0.8;"/>
     </g>
     <g id="line2d_66">
      <g>
       <use style="stroke:#000000;stroke-width:0.8;" x="284.24" xlink:href="#m6c5dec734e" y="250.723049"/>
      </g>
     </g>
     <g id="text_41">
      <!-- 0 -->
      <g transform="translate(270.8775 254.522268)scale(0.1 -0.1)">
       <use xlink:href="#DejaVuSans-48"/>
      </g>
     </g>
    </g>
    <g id="ytick_15">
     <g id="line2d_67">
      <path clip-path="url(#pe9125fee05)" d="M 284.24 214.095554 
L 447.48 214.095554 
" style="fill:none;stroke:#b0b0b0;stroke-linecap:square;stroke-width:0.8;"/>
     </g>
     <g id="line2d_68">
      <g>
       <use style="stroke:#000000;stroke-width:0.8;" x="284.24" xlink:href="#m6c5dec734e" y="214.095554"/>
      </g>
     </g>
     <g id="text_42">
      <!-- 200 -->
      <g transform="translate(258.1525 217.894773)scale(0.1 -0.1)">
       <use xlink:href="#DejaVuSans-50"/>
       <use x="63.623047" xlink:href="#DejaVuSans-48"/>
       <use x="127.246094" xlink:href="#DejaVuSans-48"/>
      </g>
     </g>
    </g>
    <g id="text_43">
     <!-- Valor -->
     <g transform="translate(243.693125 264.354812)rotate(-90)scale(0.1 -0.1)">
      <use xlink:href="#DejaVuSans-86"/>
      <use x="68.298828" xlink:href="#DejaVuSans-97"/>
      <use x="129.578125" xlink:href="#DejaVuSans-108"/>
      <use x="157.361328" xlink:href="#DejaVuSans-111"/>
      <use x="218.542969" xlink:href="#DejaVuSans-114"/>
     </g>
    </g>
   </g>
   <g id="line2d_69">
    <path clip-path="url(#pe9125fee05)" d="M 284.24 250.723049 
L 290.562676 250.66344 
L 291.424859 250.412888 
L 292.287042 249.951702 
L 293.149225 249.263445 
L 294.011408 248.33489 
L 295.160986 246.705647 
L 296.310563 244.613514 
L 297.460141 242.045585 
L 298.609718 238.989663 
L 300.04669 234.457258 
L 301.483662 229.07809 
L 302.920634 222.747651 
L 305.507183 210.378234 
L 306.081972 208.863022 
L 306.656761 208.010614 
L 306.944155 207.837595 
L 307.231549 207.834504 
L 307.518944 208.001354 
L 308.093732 208.84156 
L 308.668521 210.344908 
L 309.24331 212.487594 
L 310.105493 216.823531 
L 310.967676 222.365179 
L 312.117254 231.283604 
L 313.84162 246.762553 
L 316.715563 272.678569 
L 317.865141 281.172141 
L 318.727324 286.306775 
L 319.589507 290.175796 
L 320.164296 291.982057 
L 320.739085 293.135032 
L 321.026479 293.460419 
L 321.313873 293.616464 
L 321.601268 293.60255 
L 321.888662 293.418732 
L 322.463451 292.544965 
L 323.038239 291.008999 
L 323.613028 288.835153 
L 324.475211 284.456287 
L 325.337394 278.877624 
L 326.486972 269.921283 
L 328.211338 254.414481 
L 330.797887 230.890528 
L 331.947465 222.034912 
L 333.097042 214.989072 
L 333.959225 211.164874 
L 334.534014 209.390682 
L 335.108803 208.270939 
L 335.396197 207.962439 
L 335.683592 207.823372 
L 335.970986 207.854291 
L 336.25838 208.055071 
L 336.833169 208.962364 
L 337.407958 210.530888 
L 337.982746 212.735806 
L 338.84493 217.157428 
L 339.707113 222.772886 
L 340.85669 231.766787 
L 342.581056 247.300828 
L 345.167606 270.794729 
L 346.317183 279.611501 
L 347.179366 285.054507 
L 348.041549 289.27644 
L 348.616338 291.336573 
L 349.191127 292.753641 
L 349.765915 293.505205 
L 350.05331 293.627286 
L 350.340704 293.579365 
L 350.628099 293.361632 
L 351.202887 292.420847 
L 351.777676 290.819828 
L 352.352465 288.583926 
L 353.214648 284.119722 
L 354.076831 278.467693 
L 355.226408 269.436588 
L 356.950775 253.875923 
L 359.537324 230.413006 
L 360.686901 221.635428 
L 361.549085 216.230228 
L 362.411268 212.051842 
L 362.986056 210.02317 
L 363.560845 208.638931 
L 364.135634 207.921044 
L 364.423028 207.815952 
L 364.710423 207.880873 
L 364.997817 208.115552 
L 365.572606 209.08979 
L 366.147394 210.723241 
L 366.722183 212.99004 
L 367.584366 217.496647 
L 368.446549 223.185025 
L 369.596127 232.252975 
L 371.320493 247.839646 
L 373.907042 271.270651 
L 375.05662 280.008687 
L 375.918803 285.375865 
L 376.780986 289.510539 
L 377.355775 291.507669 
L 377.930563 292.859024 
L 378.505352 293.543208 
L 378.792746 293.631306 
L 379.080141 293.549386 
L 379.367535 293.297772 
L 379.942324 292.290118 
L 380.517113 290.624301 
L 381.091901 288.326695 
L 381.954085 283.777863 
L 382.816268 278.053363 
L 383.965845 268.948926 
L 385.977606 250.637076 
L 388.276761 229.938704 
L 389.426338 221.240555 
L 390.288521 215.911611 
L 391.150704 211.820813 
L 391.725493 209.855304 
L 392.300282 208.536886 
L 392.87507 207.886434 
L 393.162465 207.815333 
L 393.449859 207.914249 
L 393.737254 208.182788 
L 394.312042 209.223817 
L 394.886831 210.921935 
L 395.46162 213.250256 
L 396.323803 217.841134 
L 397.185986 223.601529 
L 398.335563 232.742091 
L 400.347324 251.079159 
L 402.646479 271.743314 
L 403.796056 280.401231 
L 404.658239 285.691729 
L 405.520423 289.738489 
L 406.095211 291.672299 
L 406.67 292.957728 
L 407.244789 293.574422 
L 407.532183 293.628523 
L 407.819577 293.512616 
L 408.106972 293.227161 
L 408.681761 292.152799 
L 409.256549 290.422447 
L 409.831338 288.063503 
L 410.693521 283.430763 
L 411.843099 275.478736 
L 413.28007 263.411251 
L 417.590986 224.955024 
L 418.740563 217.218686 
L 419.602746 212.781565 
L 420.46493 209.693917 
L 421.039718 208.441528 
L 421.614507 207.858617 
L 421.901901 207.821518 
L 422.189296 207.954411 
L 422.47669 208.256769 
L 423.051479 209.364423 
L 423.626268 211.12694 
L 424.201056 213.516413 
L 425.063239 218.190834 
L 426.212817 226.188498 
L 427.649789 238.293156 
L 431.960704 276.706566 
L 433.110282 284.395514 
L 433.972465 288.849551 
L 434.834648 292.140598 
L 435.409437 293.642868 
L 435.984225 294.57366 
L 436.559014 294.928667 
L 436.846408 294.891671 
L 437.133803 294.713703 
L 437.708592 293.944711 
L 438.28338 292.647617 
L 438.858169 290.858035 
L 439.720352 287.350781 
L 440.86993 281.440342 
L 442.88169 269.307703 
L 444.606056 259.402837 
L 445.468239 255.426221 
L 446.330423 252.500468 
L 446.905211 251.275078 
L 447.48 250.723049 
L 447.48 250.723049 
" style="fill:none;stroke:#1f77b4;stroke-linecap:square;stroke-width:1.5;"/>
   </g>
   <g id="patch_18">
    <path d="M 284.24 303.64 
L 284.24 199.104 
" style="fill:none;stroke:#000000;stroke-linecap:square;stroke-linejoin:miter;stroke-width:0.8;"/>
   </g>
   <g id="patch_19">
    <path d="M 447.48 303.64 
L 447.48 199.104 
" style="fill:none;stroke:#000000;stroke-linecap:square;stroke-linejoin:miter;stroke-width:0.8;"/>
   </g>
   <g id="patch_20">
    <path d="M 284.24 303.64 
L 447.48 303.64 
" style="fill:none;stroke:#000000;stroke-linecap:square;stroke-linejoin:miter;stroke-width:0.8;"/>
   </g>
   <g id="patch_21">
    <path d="M 284.24 199.104 
L 447.48 199.104 
" style="fill:none;stroke:#000000;stroke-linecap:square;stroke-linejoin:miter;stroke-width:0.8;"/>
   </g>
   <g id="text_44">
    <!-- Convolución con Factor 1.7 -->
    <g transform="translate(284.12125 179.666625)scale(0.12 -0.12)">
     <use xlink:href="#DejaVuSans-67"/>
     <use x="69.824219" xlink:href="#DejaVuSans-111"/>
     <use x="131.005859" xlink:href="#DejaVuSans-110"/>
     <use x="194.384766" xlink:href="#DejaVuSans-118"/>
     <use x="253.564453" xlink:href="#DejaVuSans-111"/>
     <use x="314.746094" xlink:href="#DejaVuSans-108"/>
     <use x="342.529297" xlink:href="#DejaVuSans-117"/>
     <use x="405.908203" xlink:href="#DejaVuSans-99"/>
     <use x="460.888672" xlink:href="#DejaVuSans-105"/>
     <use x="488.671875" xlink:href="#DejaVuSans-243"/>
     <use x="549.853516" xlink:href="#DejaVuSans-110"/>
     <use x="613.232422" xlink:href="#DejaVuSans-32"/>
     <use x="645.019531" xlink:href="#DejaVuSans-99"/>
     <use x="700" xlink:href="#DejaVuSans-111"/>
     <use x="761.181641" xlink:href="#DejaVuSans-110"/>
     <use x="824.560547" xlink:href="#DejaVuSans-32"/>
     <use x="856.347656" xlink:href="#DejaVuSans-70"/>
     <use x="913.726562" xlink:href="#DejaVuSans-97"/>
     <use x="975.005859" xlink:href="#DejaVuSans-99"/>
     <use x="1029.986328" xlink:href="#DejaVuSans-116"/>
     <use x="1069.195312" xlink:href="#DejaVuSans-111"/>
     <use x="1130.376953" xlink:href="#DejaVuSans-114"/>
     <use x="1171.490234" xlink:href="#DejaVuSans-32"/>
     <use x="1203.277344" xlink:href="#DejaVuSans-49"/>
     <use x="1266.900391" xlink:href="#DejaVuSans-46"/>
     <use x="1298.6875" xlink:href="#DejaVuSans-55"/>
    </g>
    <!-- y Corrimento 20s -->
    <defs>
     <path d="M 32.171875 -5.078125 
Q 28.375 -14.84375 24.75 -17.8125 
Q 21.140625 -20.796875 15.09375 -20.796875 
L 7.90625 -20.796875 
L 7.90625 -13.28125 
L 13.1875 -13.28125 
Q 16.890625 -13.28125 18.9375 -11.515625 
Q 21 -9.765625 23.484375 -3.21875 
L 25.09375 0.875 
L 2.984375 54.6875 
L 12.5 54.6875 
L 29.59375 11.921875 
L 46.6875 54.6875 
L 56.203125 54.6875 
z
" id="DejaVuSans-121"/>
    </defs>
    <g transform="translate(313.912188 193.104)scale(0.12 -0.12)">
     <use xlink:href="#DejaVuSans-121"/>
     <use x="59.179688" xlink:href="#DejaVuSans-32"/>
     <use x="90.966797" xlink:href="#DejaVuSans-67"/>
     <use x="160.791016" xlink:href="#DejaVuSans-111"/>
     <use x="221.972656" xlink:href="#DejaVuSans-114"/>
     <use x="263.070312" xlink:href="#DejaVuSans-114"/>
     <use x="304.183594" xlink:href="#DejaVuSans-105"/>
     <use x="331.966797" xlink:href="#DejaVuSans-109"/>
     <use x="429.378906" xlink:href="#DejaVuSans-101"/>
     <use x="490.902344" xlink:href="#DejaVuSans-110"/>
     <use x="554.28125" xlink:href="#DejaVuSans-116"/>
     <use x="593.490234" xlink:href="#DejaVuSans-111"/>
     <use x="654.671875" xlink:href="#DejaVuSans-32"/>
     <use x="686.458984" xlink:href="#DejaVuSans-50"/>
     <use x="750.082031" xlink:href="#DejaVuSans-48"/>
     <use x="813.705078" xlink:href="#DejaVuSans-115"/>
    </g>
   </g>
  </g>
 </g>
 <defs>
  <clipPath id="p3fffd1b286">
   <rect height="104.536" width="163.24" x="59.24" y="25.44"/>
  </clipPath>
  <clipPath id="p259d10d24a">
   <rect height="104.536" width="163.24" x="284.24" y="25.44"/>
  </clipPath>
  <clipPath id="pcf9ce211d9">
   <rect height="104.536" width="163.24" x="59.24" y="199.104"/>
  </clipPath>
  <clipPath id="pe9125fee05">
   <rect height="104.536" width="163.24" x="284.24" y="199.104"/>
  </clipPath>
 </defs>
</svg>
