<?xml version="1.0" encoding="utf-8" standalone="no"?>
<!DOCTYPE svg PUBLIC "-//W3C//DTD SVG 1.1//EN"
  "http://www.w3.org/Graphics/SVG/1.1/DTD/svg11.dtd">
<!-- Created with matplotlib (https://matplotlib.org/) -->
<svg height="345.6pt" version="1.1" viewBox="0 0 460.8 345.6" width="460.8pt" xmlns="http://www.w3.org/2000/svg" xmlns:xlink="http://www.w3.org/1999/xlink">
 <defs>
  <style type="text/css">
*{stroke-linecap:butt;stroke-linejoin:round;}
  </style>
 </defs>
 <g id="figure_1">
  <g id="patch_1">
   <path d="M 0 345.6 
L 460.8 345.6 
L 460.8 0 
L 0 0 
z
" style="fill:#ffffff;"/>
  </g>
  <g id="axes_1">
   <g id="patch_2">
    <path d="M 56.09 129.976 
L 217.44529 129.976 
L 217.44529 25.44 
L 56.09 25.44 
z
" style="fill:#ffffff;"/>
   </g>
   <g id="matplotlib.axis_1">
    <g id="xtick_1">
     <g id="line2d_1">
      <path clip-path="url(#p5ae2868a02)" d="M 56.09 129.976 
L 56.09 25.44 
" style="fill:none;stroke:#b0b0b0;stroke-linecap:square;stroke-width:0.8;"/>
     </g>
     <g id="line2d_2">
      <defs>
       <path d="M 0 0 
L 0 3.5 
" id="m96b80afe8c" style="stroke:#000000;stroke-width:0.8;"/>
      </defs>
      <g>
       <use style="stroke:#000000;stroke-width:0.8;" x="56.09" xlink:href="#m96b80afe8c" y="129.976"/>
      </g>
     </g>
     <g id="text_1">
      <!-- 0 -->
      <defs>
       <path d="M 31.78125 66.40625 
Q 24.171875 66.40625 20.328125 58.90625 
Q 16.5 51.421875 16.5 36.375 
Q 16.5 21.390625 20.328125 13.890625 
Q 24.171875 6.390625 31.78125 6.390625 
Q 39.453125 6.390625 43.28125 13.890625 
Q 47.125 21.390625 47.125 36.375 
Q 47.125 51.421875 43.28125 58.90625 
Q 39.453125 66.40625 31.78125 66.40625 
z
M 31.78125 74.21875 
Q 44.046875 74.21875 50.515625 64.515625 
Q 56.984375 54.828125 56.984375 36.375 
Q 56.984375 17.96875 50.515625 8.265625 
Q 44.046875 -1.421875 31.78125 -1.421875 
Q 19.53125 -1.421875 13.0625 8.265625 
Q 6.59375 17.96875 6.59375 36.375 
Q 6.59375 54.828125 13.0625 64.515625 
Q 19.53125 74.21875 31.78125 74.21875 
z
" id="DejaVuSans-48"/>
      </defs>
      <g transform="translate(52.90875 144.574437)scale(0.1 -0.1)">
       <use xlink:href="#DejaVuSans-48"/>
      </g>
     </g>
    </g>
    <g id="xtick_2">
     <g id="line2d_3">
      <path clip-path="url(#p5ae2868a02)" d="M 88.425729 129.976 
L 88.425729 25.44 
" style="fill:none;stroke:#b0b0b0;stroke-linecap:square;stroke-width:0.8;"/>
     </g>
     <g id="line2d_4">
      <g>
       <use style="stroke:#000000;stroke-width:0.8;" x="88.425729" xlink:href="#m96b80afe8c" y="129.976"/>
      </g>
     </g>
     <g id="text_2">
      <!-- 100 -->
      <defs>
       <path d="M 12.40625 8.296875 
L 28.515625 8.296875 
L 28.515625 63.921875 
L 10.984375 60.40625 
L 10.984375 69.390625 
L 28.421875 72.90625 
L 38.28125 72.90625 
L 38.28125 8.296875 
L 54.390625 8.296875 
L 54.390625 0 
L 12.40625 0 
z
" id="DejaVuSans-49"/>
      </defs>
      <g transform="translate(78.881979 144.574437)scale(0.1 -0.1)">
       <use xlink:href="#DejaVuSans-49"/>
       <use x="63.623047" xlink:href="#DejaVuSans-48"/>
       <use x="127.246094" xlink:href="#DejaVuSans-48"/>
      </g>
     </g>
    </g>
    <g id="xtick_3">
     <g id="line2d_5">
      <path clip-path="url(#p5ae2868a02)" d="M 120.761459 129.976 
L 120.761459 25.44 
" style="fill:none;stroke:#b0b0b0;stroke-linecap:square;stroke-width:0.8;"/>
     </g>
     <g id="line2d_6">
      <g>
       <use style="stroke:#000000;stroke-width:0.8;" x="120.761459" xlink:href="#m96b80afe8c" y="129.976"/>
      </g>
     </g>
     <g id="text_3">
      <!-- 200 -->
      <defs>
       <path d="M 19.1875 8.296875 
L 53.609375 8.296875 
L 53.609375 0 
L 7.328125 0 
L 7.328125 8.296875 
Q 12.9375 14.109375 22.625 23.890625 
Q 32.328125 33.6875 34.8125 36.53125 
Q 39.546875 41.84375 41.421875 45.53125 
Q 43.3125 49.21875 43.3125 52.78125 
Q 43.3125 58.59375 39.234375 62.25 
Q 35.15625 65.921875 28.609375 65.921875 
Q 23.96875 65.921875 18.8125 64.3125 
Q 13.671875 62.703125 7.8125 59.421875 
L 7.8125 69.390625 
Q 13.765625 71.78125 18.9375 73 
Q 24.125 74.21875 28.421875 74.21875 
Q 39.75 74.21875 46.484375 68.546875 
Q 53.21875 62.890625 53.21875 53.421875 
Q 53.21875 48.921875 51.53125 44.890625 
Q 49.859375 40.875 45.40625 35.40625 
Q 44.1875 33.984375 37.640625 27.21875 
Q 31.109375 20.453125 19.1875 8.296875 
z
" id="DejaVuSans-50"/>
      </defs>
      <g transform="translate(111.217709 144.574437)scale(0.1 -0.1)">
       <use xlink:href="#DejaVuSans-50"/>
       <use x="63.623047" xlink:href="#DejaVuSans-48"/>
       <use x="127.246094" xlink:href="#DejaVuSans-48"/>
      </g>
     </g>
    </g>
    <g id="xtick_4">
     <g id="line2d_7">
      <path clip-path="url(#p5ae2868a02)" d="M 153.097188 129.976 
L 153.097188 25.44 
" style="fill:none;stroke:#b0b0b0;stroke-linecap:square;stroke-width:0.8;"/>
     </g>
     <g id="line2d_8">
      <g>
       <use style="stroke:#000000;stroke-width:0.8;" x="153.097188" xlink:href="#m96b80afe8c" y="129.976"/>
      </g>
     </g>
     <g id="text_4">
      <!-- 300 -->
      <defs>
       <path d="M 40.578125 39.3125 
Q 47.65625 37.796875 51.625 33 
Q 55.609375 28.21875 55.609375 21.1875 
Q 55.609375 10.40625 48.1875 4.484375 
Q 40.765625 -1.421875 27.09375 -1.421875 
Q 22.515625 -1.421875 17.65625 -0.515625 
Q 12.796875 0.390625 7.625 2.203125 
L 7.625 11.71875 
Q 11.71875 9.328125 16.59375 8.109375 
Q 21.484375 6.890625 26.8125 6.890625 
Q 36.078125 6.890625 40.9375 10.546875 
Q 45.796875 14.203125 45.796875 21.1875 
Q 45.796875 27.640625 41.28125 31.265625 
Q 36.765625 34.90625 28.71875 34.90625 
L 20.21875 34.90625 
L 20.21875 43.015625 
L 29.109375 43.015625 
Q 36.375 43.015625 40.234375 45.921875 
Q 44.09375 48.828125 44.09375 54.296875 
Q 44.09375 59.90625 40.109375 62.90625 
Q 36.140625 65.921875 28.71875 65.921875 
Q 24.65625 65.921875 20.015625 65.03125 
Q 15.375 64.15625 9.8125 62.3125 
L 9.8125 71.09375 
Q 15.4375 72.65625 20.34375 73.4375 
Q 25.25 74.21875 29.59375 74.21875 
Q 40.828125 74.21875 47.359375 69.109375 
Q 53.90625 64.015625 53.90625 55.328125 
Q 53.90625 49.265625 50.4375 45.09375 
Q 46.96875 40.921875 40.578125 39.3125 
z
" id="DejaVuSans-51"/>
      </defs>
      <g transform="translate(143.553438 144.574437)scale(0.1 -0.1)">
       <use xlink:href="#DejaVuSans-51"/>
       <use x="63.623047" xlink:href="#DejaVuSans-48"/>
       <use x="127.246094" xlink:href="#DejaVuSans-48"/>
      </g>
     </g>
    </g>
    <g id="xtick_5">
     <g id="line2d_9">
      <path clip-path="url(#p5ae2868a02)" d="M 185.432918 129.976 
L 185.432918 25.44 
" style="fill:none;stroke:#b0b0b0;stroke-linecap:square;stroke-width:0.8;"/>
     </g>
     <g id="line2d_10">
      <g>
       <use style="stroke:#000000;stroke-width:0.8;" x="185.432918" xlink:href="#m96b80afe8c" y="129.976"/>
      </g>
     </g>
     <g id="text_5">
      <!-- 400 -->
      <defs>
       <path d="M 37.796875 64.3125 
L 12.890625 25.390625 
L 37.796875 25.390625 
z
M 35.203125 72.90625 
L 47.609375 72.90625 
L 47.609375 25.390625 
L 58.015625 25.390625 
L 58.015625 17.1875 
L 47.609375 17.1875 
L 47.609375 0 
L 37.796875 0 
L 37.796875 17.1875 
L 4.890625 17.1875 
L 4.890625 26.703125 
z
" id="DejaVuSans-52"/>
      </defs>
      <g transform="translate(175.889168 144.574437)scale(0.1 -0.1)">
       <use xlink:href="#DejaVuSans-52"/>
       <use x="63.623047" xlink:href="#DejaVuSans-48"/>
       <use x="127.246094" xlink:href="#DejaVuSans-48"/>
      </g>
     </g>
    </g>
    <g id="xtick_6">
     <g id="line2d_11">
      <path clip-path="url(#p5ae2868a02)" d="M 217.768647 129.976 
L 217.768647 25.44 
" style="fill:none;stroke:#b0b0b0;stroke-linecap:square;stroke-width:0.8;"/>
     </g>
     <g id="line2d_12">
      <g>
       <use style="stroke:#000000;stroke-width:0.8;" x="217.768647" xlink:href="#m96b80afe8c" y="129.976"/>
      </g>
     </g>
     <g id="text_6">
      <!-- 500 -->
      <defs>
       <path d="M 10.796875 72.90625 
L 49.515625 72.90625 
L 49.515625 64.59375 
L 19.828125 64.59375 
L 19.828125 46.734375 
Q 21.96875 47.46875 24.109375 47.828125 
Q 26.265625 48.1875 28.421875 48.1875 
Q 40.625 48.1875 47.75 41.5 
Q 54.890625 34.8125 54.890625 23.390625 
Q 54.890625 11.625 47.5625 5.09375 
Q 40.234375 -1.421875 26.90625 -1.421875 
Q 22.3125 -1.421875 17.546875 -0.640625 
Q 12.796875 0.140625 7.71875 1.703125 
L 7.71875 11.625 
Q 12.109375 9.234375 16.796875 8.0625 
Q 21.484375 6.890625 26.703125 6.890625 
Q 35.15625 6.890625 40.078125 11.328125 
Q 45.015625 15.765625 45.015625 23.390625 
Q 45.015625 31 40.078125 35.4375 
Q 35.15625 39.890625 26.703125 39.890625 
Q 22.75 39.890625 18.8125 39.015625 
Q 14.890625 38.140625 10.796875 36.28125 
z
" id="DejaVuSans-53"/>
      </defs>
      <g transform="translate(208.224897 144.574437)scale(0.1 -0.1)">
       <use xlink:href="#DejaVuSans-53"/>
       <use x="63.623047" xlink:href="#DejaVuSans-48"/>
       <use x="127.246094" xlink:href="#DejaVuSans-48"/>
      </g>
     </g>
    </g>
    <g id="text_7">
     <!-- Tiempo (t) -->
     <defs>
      <path d="M -0.296875 72.90625 
L 61.375 72.90625 
L 61.375 64.59375 
L 35.5 64.59375 
L 35.5 0 
L 25.59375 0 
L 25.59375 64.59375 
L -0.296875 64.59375 
z
" id="DejaVuSans-84"/>
      <path d="M 9.421875 54.6875 
L 18.40625 54.6875 
L 18.40625 0 
L 9.421875 0 
z
M 9.421875 75.984375 
L 18.40625 75.984375 
L 18.40625 64.59375 
L 9.421875 64.59375 
z
" id="DejaVuSans-105"/>
      <path d="M 56.203125 29.59375 
L 56.203125 25.203125 
L 14.890625 25.203125 
Q 15.484375 15.921875 20.484375 11.0625 
Q 25.484375 6.203125 34.421875 6.203125 
Q 39.59375 6.203125 44.453125 7.46875 
Q 49.3125 8.734375 54.109375 11.28125 
L 54.109375 2.78125 
Q 49.265625 0.734375 44.1875 -0.34375 
Q 39.109375 -1.421875 33.890625 -1.421875 
Q 20.796875 -1.421875 13.15625 6.1875 
Q 5.515625 13.8125 5.515625 26.8125 
Q 5.515625 40.234375 12.765625 48.109375 
Q 20.015625 56 32.328125 56 
Q 43.359375 56 49.78125 48.890625 
Q 56.203125 41.796875 56.203125 29.59375 
z
M 47.21875 32.234375 
Q 47.125 39.59375 43.09375 43.984375 
Q 39.0625 48.390625 32.421875 48.390625 
Q 24.90625 48.390625 20.390625 44.140625 
Q 15.875 39.890625 15.1875 32.171875 
z
" id="DejaVuSans-101"/>
      <path d="M 52 44.1875 
Q 55.375 50.25 60.0625 53.125 
Q 64.75 56 71.09375 56 
Q 79.640625 56 84.28125 50.015625 
Q 88.921875 44.046875 88.921875 33.015625 
L 88.921875 0 
L 79.890625 0 
L 79.890625 32.71875 
Q 79.890625 40.578125 77.09375 44.375 
Q 74.3125 48.1875 68.609375 48.1875 
Q 61.625 48.1875 57.5625 43.546875 
Q 53.515625 38.921875 53.515625 30.90625 
L 53.515625 0 
L 44.484375 0 
L 44.484375 32.71875 
Q 44.484375 40.625 41.703125 44.40625 
Q 38.921875 48.1875 33.109375 48.1875 
Q 26.21875 48.1875 22.15625 43.53125 
Q 18.109375 38.875 18.109375 30.90625 
L 18.109375 0 
L 9.078125 0 
L 9.078125 54.6875 
L 18.109375 54.6875 
L 18.109375 46.1875 
Q 21.1875 51.21875 25.484375 53.609375 
Q 29.78125 56 35.6875 56 
Q 41.65625 56 45.828125 52.96875 
Q 50 49.953125 52 44.1875 
z
" id="DejaVuSans-109"/>
      <path d="M 18.109375 8.203125 
L 18.109375 -20.796875 
L 9.078125 -20.796875 
L 9.078125 54.6875 
L 18.109375 54.6875 
L 18.109375 46.390625 
Q 20.953125 51.265625 25.265625 53.625 
Q 29.59375 56 35.59375 56 
Q 45.5625 56 51.78125 48.09375 
Q 58.015625 40.1875 58.015625 27.296875 
Q 58.015625 14.40625 51.78125 6.484375 
Q 45.5625 -1.421875 35.59375 -1.421875 
Q 29.59375 -1.421875 25.265625 0.953125 
Q 20.953125 3.328125 18.109375 8.203125 
z
M 48.6875 27.296875 
Q 48.6875 37.203125 44.609375 42.84375 
Q 40.53125 48.484375 33.40625 48.484375 
Q 26.265625 48.484375 22.1875 42.84375 
Q 18.109375 37.203125 18.109375 27.296875 
Q 18.109375 17.390625 22.1875 11.75 
Q 26.265625 6.109375 33.40625 6.109375 
Q 40.53125 6.109375 44.609375 11.75 
Q 48.6875 17.390625 48.6875 27.296875 
z
" id="DejaVuSans-112"/>
      <path d="M 30.609375 48.390625 
Q 23.390625 48.390625 19.1875 42.75 
Q 14.984375 37.109375 14.984375 27.296875 
Q 14.984375 17.484375 19.15625 11.84375 
Q 23.34375 6.203125 30.609375 6.203125 
Q 37.796875 6.203125 41.984375 11.859375 
Q 46.1875 17.53125 46.1875 27.296875 
Q 46.1875 37.015625 41.984375 42.703125 
Q 37.796875 48.390625 30.609375 48.390625 
z
M 30.609375 56 
Q 42.328125 56 49.015625 48.375 
Q 55.71875 40.765625 55.71875 27.296875 
Q 55.71875 13.875 49.015625 6.21875 
Q 42.328125 -1.421875 30.609375 -1.421875 
Q 18.84375 -1.421875 12.171875 6.21875 
Q 5.515625 13.875 5.515625 27.296875 
Q 5.515625 40.765625 12.171875 48.375 
Q 18.84375 56 30.609375 56 
z
" id="DejaVuSans-111"/>
      <path id="DejaVuSans-32"/>
      <path d="M 31 75.875 
Q 24.46875 64.65625 21.28125 53.65625 
Q 18.109375 42.671875 18.109375 31.390625 
Q 18.109375 20.125 21.3125 9.0625 
Q 24.515625 -2 31 -13.1875 
L 23.1875 -13.1875 
Q 15.875 -1.703125 12.234375 9.375 
Q 8.59375 20.453125 8.59375 31.390625 
Q 8.59375 42.28125 12.203125 53.3125 
Q 15.828125 64.359375 23.1875 75.875 
z
" id="DejaVuSans-40"/>
      <path d="M 18.3125 70.21875 
L 18.3125 54.6875 
L 36.8125 54.6875 
L 36.8125 47.703125 
L 18.3125 47.703125 
L 18.3125 18.015625 
Q 18.3125 11.328125 20.140625 9.421875 
Q 21.96875 7.515625 27.59375 7.515625 
L 36.8125 7.515625 
L 36.8125 0 
L 27.59375 0 
Q 17.1875 0 13.234375 3.875 
Q 9.28125 7.765625 9.28125 18.015625 
L 9.28125 47.703125 
L 2.6875 47.703125 
L 2.6875 54.6875 
L 9.28125 54.6875 
L 9.28125 70.21875 
z
" id="DejaVuSans-116"/>
      <path d="M 8.015625 75.875 
L 15.828125 75.875 
Q 23.140625 64.359375 26.78125 53.3125 
Q 30.421875 42.28125 30.421875 31.390625 
Q 30.421875 20.453125 26.78125 9.375 
Q 23.140625 -1.703125 15.828125 -13.1875 
L 8.015625 -13.1875 
Q 14.5 -2 17.703125 9.0625 
Q 20.90625 20.125 20.90625 31.390625 
Q 20.90625 42.671875 17.703125 53.65625 
Q 14.5 64.65625 8.015625 75.875 
z
" id="DejaVuSans-41"/>
     </defs>
     <g transform="translate(110.69577 158.252562)scale(0.1 -0.1)">
      <use xlink:href="#DejaVuSans-84"/>
      <use x="61.037109" xlink:href="#DejaVuSans-105"/>
      <use x="88.820312" xlink:href="#DejaVuSans-101"/>
      <use x="150.34375" xlink:href="#DejaVuSans-109"/>
      <use x="247.755859" xlink:href="#DejaVuSans-112"/>
      <use x="311.232422" xlink:href="#DejaVuSans-111"/>
      <use x="372.414062" xlink:href="#DejaVuSans-32"/>
      <use x="404.201172" xlink:href="#DejaVuSans-40"/>
      <use x="443.214844" xlink:href="#DejaVuSans-116"/>
      <use x="482.423828" xlink:href="#DejaVuSans-41"/>
     </g>
    </g>
   </g>
   <g id="matplotlib.axis_2">
    <g id="ytick_1">
     <g id="line2d_13">
      <path clip-path="url(#p5ae2868a02)" d="M 56.09 121.264882 
L 217.44529 121.264882 
" style="fill:none;stroke:#b0b0b0;stroke-linecap:square;stroke-width:0.8;"/>
     </g>
     <g id="line2d_14">
      <defs>
       <path d="M 0 0 
L -3.5 0 
" id="m1142a8f58a" style="stroke:#000000;stroke-width:0.8;"/>
      </defs>
      <g>
       <use style="stroke:#000000;stroke-width:0.8;" x="56.09" xlink:href="#m1142a8f58a" y="121.264882"/>
      </g>
     </g>
     <g id="text_8">
      <!-- −1.0 -->
      <defs>
       <path d="M 10.59375 35.5 
L 73.1875 35.5 
L 73.1875 27.203125 
L 10.59375 27.203125 
z
" id="DejaVuSans-8722"/>
       <path d="M 10.6875 12.40625 
L 21 12.40625 
L 21 0 
L 10.6875 0 
z
" id="DejaVuSans-46"/>
      </defs>
      <g transform="translate(24.807188 125.064101)scale(0.1 -0.1)">
       <use xlink:href="#DejaVuSans-8722"/>
       <use x="83.789062" xlink:href="#DejaVuSans-49"/>
       <use x="147.412109" xlink:href="#DejaVuSans-46"/>
       <use x="179.199219" xlink:href="#DejaVuSans-48"/>
      </g>
     </g>
    </g>
    <g id="ytick_2">
     <g id="line2d_15">
      <path clip-path="url(#p5ae2868a02)" d="M 56.09 99.486441 
L 217.44529 99.486441 
" style="fill:none;stroke:#b0b0b0;stroke-linecap:square;stroke-width:0.8;"/>
     </g>
     <g id="line2d_16">
      <g>
       <use style="stroke:#000000;stroke-width:0.8;" x="56.09" xlink:href="#m1142a8f58a" y="99.486441"/>
      </g>
     </g>
     <g id="text_9">
      <!-- −0.5 -->
      <g transform="translate(24.807188 103.28566)scale(0.1 -0.1)">
       <use xlink:href="#DejaVuSans-8722"/>
       <use x="83.789062" xlink:href="#DejaVuSans-48"/>
       <use x="147.412109" xlink:href="#DejaVuSans-46"/>
       <use x="179.199219" xlink:href="#DejaVuSans-53"/>
      </g>
     </g>
    </g>
    <g id="ytick_3">
     <g id="line2d_17">
      <path clip-path="url(#p5ae2868a02)" d="M 56.09 77.708 
L 217.44529 77.708 
" style="fill:none;stroke:#b0b0b0;stroke-linecap:square;stroke-width:0.8;"/>
     </g>
     <g id="line2d_18">
      <g>
       <use style="stroke:#000000;stroke-width:0.8;" x="56.09" xlink:href="#m1142a8f58a" y="77.708"/>
      </g>
     </g>
     <g id="text_10">
      <!-- 0.0 -->
      <g transform="translate(33.186875 81.507219)scale(0.1 -0.1)">
       <use xlink:href="#DejaVuSans-48"/>
       <use x="63.623047" xlink:href="#DejaVuSans-46"/>
       <use x="95.410156" xlink:href="#DejaVuSans-48"/>
      </g>
     </g>
    </g>
    <g id="ytick_4">
     <g id="line2d_19">
      <path clip-path="url(#p5ae2868a02)" d="M 56.09 55.929559 
L 217.44529 55.929559 
" style="fill:none;stroke:#b0b0b0;stroke-linecap:square;stroke-width:0.8;"/>
     </g>
     <g id="line2d_20">
      <g>
       <use style="stroke:#000000;stroke-width:0.8;" x="56.09" xlink:href="#m1142a8f58a" y="55.929559"/>
      </g>
     </g>
     <g id="text_11">
      <!-- 0.5 -->
      <g transform="translate(33.186875 59.728778)scale(0.1 -0.1)">
       <use xlink:href="#DejaVuSans-48"/>
       <use x="63.623047" xlink:href="#DejaVuSans-46"/>
       <use x="95.410156" xlink:href="#DejaVuSans-53"/>
      </g>
     </g>
    </g>
    <g id="ytick_5">
     <g id="line2d_21">
      <path clip-path="url(#p5ae2868a02)" d="M 56.09 34.151118 
L 217.44529 34.151118 
" style="fill:none;stroke:#b0b0b0;stroke-linecap:square;stroke-width:0.8;"/>
     </g>
     <g id="line2d_22">
      <g>
       <use style="stroke:#000000;stroke-width:0.8;" x="56.09" xlink:href="#m1142a8f58a" y="34.151118"/>
      </g>
     </g>
     <g id="text_12">
      <!-- 1.0 -->
      <g transform="translate(33.186875 37.950336)scale(0.1 -0.1)">
       <use xlink:href="#DejaVuSans-49"/>
       <use x="63.623047" xlink:href="#DejaVuSans-46"/>
       <use x="95.410156" xlink:href="#DejaVuSans-48"/>
      </g>
     </g>
    </g>
    <g id="text_13">
     <!-- Amplitud -->
     <defs>
      <path d="M 34.1875 63.1875 
L 20.796875 26.90625 
L 47.609375 26.90625 
z
M 28.609375 72.90625 
L 39.796875 72.90625 
L 67.578125 0 
L 57.328125 0 
L 50.6875 18.703125 
L 17.828125 18.703125 
L 11.1875 0 
L 0.78125 0 
z
" id="DejaVuSans-65"/>
      <path d="M 9.421875 75.984375 
L 18.40625 75.984375 
L 18.40625 0 
L 9.421875 0 
z
" id="DejaVuSans-108"/>
      <path d="M 8.5 21.578125 
L 8.5 54.6875 
L 17.484375 54.6875 
L 17.484375 21.921875 
Q 17.484375 14.15625 20.5 10.265625 
Q 23.53125 6.390625 29.59375 6.390625 
Q 36.859375 6.390625 41.078125 11.03125 
Q 45.3125 15.671875 45.3125 23.6875 
L 45.3125 54.6875 
L 54.296875 54.6875 
L 54.296875 0 
L 45.3125 0 
L 45.3125 8.40625 
Q 42.046875 3.421875 37.71875 1 
Q 33.40625 -1.421875 27.6875 -1.421875 
Q 18.265625 -1.421875 13.375 4.4375 
Q 8.5 10.296875 8.5 21.578125 
z
M 31.109375 56 
z
" id="DejaVuSans-117"/>
      <path d="M 45.40625 46.390625 
L 45.40625 75.984375 
L 54.390625 75.984375 
L 54.390625 0 
L 45.40625 0 
L 45.40625 8.203125 
Q 42.578125 3.328125 38.25 0.953125 
Q 33.9375 -1.421875 27.875 -1.421875 
Q 17.96875 -1.421875 11.734375 6.484375 
Q 5.515625 14.40625 5.515625 27.296875 
Q 5.515625 40.1875 11.734375 48.09375 
Q 17.96875 56 27.875 56 
Q 33.9375 56 38.25 53.625 
Q 42.578125 51.265625 45.40625 46.390625 
z
M 14.796875 27.296875 
Q 14.796875 17.390625 18.875 11.75 
Q 22.953125 6.109375 30.078125 6.109375 
Q 37.203125 6.109375 41.296875 11.75 
Q 45.40625 17.390625 45.40625 27.296875 
Q 45.40625 37.203125 41.296875 42.84375 
Q 37.203125 48.484375 30.078125 48.484375 
Q 22.953125 48.484375 18.875 42.84375 
Q 14.796875 37.203125 14.796875 27.296875 
z
" id="DejaVuSans-100"/>
     </defs>
     <g transform="translate(18.7275 100.254094)rotate(-90)scale(0.1 -0.1)">
      <use xlink:href="#DejaVuSans-65"/>
      <use x="68.408203" xlink:href="#DejaVuSans-109"/>
      <use x="165.820312" xlink:href="#DejaVuSans-112"/>
      <use x="229.296875" xlink:href="#DejaVuSans-108"/>
      <use x="257.080078" xlink:href="#DejaVuSans-105"/>
      <use x="284.863281" xlink:href="#DejaVuSans-116"/>
      <use x="324.072266" xlink:href="#DejaVuSans-117"/>
      <use x="387.451172" xlink:href="#DejaVuSans-100"/>
     </g>
    </g>
   </g>
   <g id="line2d_23">
    <path clip-path="url(#p5ae2868a02)" d="M 56.09 77.708 
L 58.676858 56.685874 
L 59.970288 47.84332 
L 60.940359 42.421449 
L 61.910431 38.254622 
L 62.557146 36.249178 
L 63.20386 34.900185 
L 63.850575 34.229001 
L 64.173932 34.151333 
L 64.49729 34.246254 
L 64.820647 34.513386 
L 65.467362 35.559372 
L 66.114076 37.272731 
L 66.760791 39.626334 
L 67.730863 44.273044 
L 68.700934 50.108941 
L 69.994364 59.37604 
L 71.934507 75.241301 
L 74.844723 98.96988 
L 76.138152 107.771704 
L 77.108224 113.154616 
L 78.078296 117.276791 
L 78.725011 119.250082 
L 79.371725 120.565605 
L 80.01844 121.202529 
L 80.341797 121.26294 
L 80.665154 121.15077 
L 80.988512 120.866464 
L 81.635226 119.786626 
L 82.281941 118.040525 
L 82.928655 115.655806 
L 83.898727 110.966542 
L 84.868799 105.094364 
L 86.162228 95.790844 
L 88.102372 79.900868 
L 90.689231 58.633092 
L 91.98266 49.477454 
L 92.952732 43.751779 
L 93.922803 39.233832 
L 94.569518 36.974132 
L 95.216233 35.359404 
L 95.862947 34.415214 
L 96.186305 34.199665 
L 96.509662 34.156513 
L 96.833019 34.285927 
L 97.156376 34.587396 
L 97.803091 35.701043 
L 98.449806 37.479818 
L 99.09652 39.895558 
L 100.066592 44.627191 
L 101.036664 50.535417 
L 102.330093 59.874989 
L 104.270237 75.78905 
L 106.857095 97.029059 
L 108.150524 106.146815 
L 109.120596 111.835293 
L 110.090668 116.309959 
L 110.737383 118.538177 
L 111.384097 120.119899 
L 112.030812 121.03008 
L 112.354169 121.228416 
L 112.677527 121.254308 
L 113.000884 121.107654 
L 113.324241 120.789034 
L 113.970956 119.641623 
L 114.61767 117.830245 
L 115.264385 115.38358 
L 116.234457 110.609765 
L 117.204529 104.665726 
L 118.497958 95.290472 
L 120.438102 79.352955 
L 123.02496 58.141557 
L 124.318389 49.062043 
L 125.288461 43.410987 
L 126.258533 38.97978 
L 126.905248 36.783132 
L 127.551962 35.234479 
L 128.198677 34.358343 
L 128.522034 34.177228 
L 128.845391 34.168597 
L 129.168749 34.332485 
L 129.492106 34.668244 
L 130.13882 35.849373 
L 130.785535 37.693282 
L 131.43225 40.170776 
L 132.402322 44.986584 
L 133.372393 50.9662 
L 134.665823 60.376765 
L 136.929324 79.078896 
L 139.192825 97.519052 
L 140.486254 106.559964 
L 141.456326 112.173373 
L 142.426398 116.560946 
L 143.073112 118.725937 
L 143.719827 120.241459 
L 144.366541 121.083515 
L 144.689899 121.247403 
L 145.013256 121.238772 
L 145.336613 121.057657 
L 145.659971 120.704773 
L 146.306685 119.489972 
L 146.9534 117.613604 
L 147.600114 115.10538 
L 148.570186 110.247771 
L 149.540258 104.232814 
L 150.833687 94.787312 
L 153.097188 76.063045 
L 155.360689 57.653124 
L 156.654119 48.651174 
L 157.624191 43.075633 
L 158.594262 38.731869 
L 159.240977 36.59862 
L 159.887692 35.116289 
L 160.534406 34.308346 
L 160.857763 34.161692 
L 161.181121 34.187584 
L 161.504478 34.38592 
L 161.827835 34.755914 
L 162.47455 36.004339 
L 163.121265 37.913091 
L 163.767979 40.451947 
L 164.738051 45.351164 
L 165.708123 51.401223 
L 167.001552 60.881288 
L 169.265053 79.62695 
L 171.528554 98.005905 
L 172.821983 106.968538 
L 173.792055 112.505988 
L 174.762127 116.805772 
L 175.408842 118.907193 
L 176.055556 120.356275 
L 176.702271 121.130073 
L 177.025628 121.259487 
L 177.348985 121.216335 
L 177.672343 121.000786 
L 178.319057 120.056596 
L 178.965772 118.441868 
L 179.612487 116.182168 
L 180.582558 111.664221 
L 181.55263 105.938546 
L 182.846059 96.782908 
L 184.786203 80.995563 
L 187.696419 57.16787 
L 188.989848 48.244911 
L 189.95992 42.745769 
L 190.929992 38.490137 
L 191.576706 36.420626 
L 192.223421 35.004852 
L 192.870136 34.26523 
L 193.193493 34.15306 
L 193.51685 34.213471 
L 193.840207 34.446223 
L 194.486922 35.424385 
L 195.133637 37.072056 
L 195.780351 39.363148 
L 196.750423 43.924197 
L 197.720495 49.686842 
L 199.013924 58.879998 
L 200.954068 74.693942 
L 203.864284 98.48954 
L 205.157713 107.372472 
L 206.127785 112.833087 
L 207.097857 117.0444 
L 207.744571 119.081917 
L 208.391286 120.464329 
L 209.038 121.169746 
L 209.361358 121.264667 
L 209.684715 121.186999 
L 210.008072 120.937052 
L 210.654787 119.924958 
L 211.301501 118.24441 
L 211.948216 115.922017 
L 212.918288 111.318046 
L 213.88836 105.51866 
L 215.181789 96.288349 
L 217.121933 80.448433 
L 217.44529 77.708 
L 217.44529 77.708 
" style="fill:none;stroke:#1f77b4;stroke-linecap:square;stroke-width:1.5;"/>
   </g>
   <g id="line2d_24">
    <path clip-path="url(#p5ae2868a02)" d="M 56.09 77.708 
L 58.676858 56.685874 
L 59.970288 47.84332 
L 60.940359 42.421449 
L 61.910431 38.254622 
L 62.557146 36.249178 
L 63.20386 34.900185 
L 63.850575 34.229001 
L 64.173932 34.151333 
L 64.49729 34.246254 
L 64.820647 34.513386 
L 65.467362 35.559372 
L 66.114076 37.272731 
L 66.760791 39.626334 
L 67.730863 44.273044 
L 68.700934 50.108941 
L 69.994364 59.37604 
L 71.934507 75.241301 
L 74.844723 98.96988 
L 76.138152 107.771704 
L 77.108224 113.154616 
L 78.078296 117.276791 
L 78.725011 119.250082 
L 79.371725 120.565605 
L 80.01844 121.202529 
L 80.341797 121.26294 
L 80.665154 121.15077 
L 80.988512 120.866464 
L 81.635226 119.786626 
L 82.281941 118.040525 
L 82.928655 115.655806 
L 83.898727 110.966542 
L 84.868799 105.094364 
L 86.162228 95.790844 
L 88.102372 79.900868 
L 90.689231 58.633092 
L 91.98266 49.477454 
L 92.952732 43.751779 
L 93.922803 39.233832 
L 94.569518 36.974132 
L 95.216233 35.359404 
L 95.862947 34.415214 
L 96.186305 34.199665 
L 96.509662 34.156513 
L 96.833019 34.285927 
L 97.156376 34.587396 
L 97.803091 35.701043 
L 98.449806 37.479818 
L 99.09652 39.895558 
L 100.066592 44.627191 
L 101.036664 50.535417 
L 102.330093 59.874989 
L 104.270237 75.78905 
L 106.857095 97.029059 
L 108.150524 106.146815 
L 109.120596 111.835293 
L 110.090668 116.309959 
L 110.737383 118.538177 
L 111.384097 120.119899 
L 112.030812 121.03008 
L 112.354169 121.228416 
L 112.677527 121.254308 
L 113.000884 121.107654 
L 113.324241 120.789034 
L 113.970956 119.641623 
L 114.61767 117.830245 
L 115.264385 115.38358 
L 116.234457 110.609765 
L 117.204529 104.665726 
L 118.497958 95.290472 
L 120.438102 79.352955 
L 123.02496 58.141557 
L 124.318389 49.062043 
L 125.288461 43.410987 
L 126.258533 38.97978 
L 126.905248 36.783132 
L 127.551962 35.234479 
L 128.198677 34.358343 
L 128.522034 34.177228 
L 128.845391 34.168597 
L 129.168749 34.332485 
L 129.492106 34.668244 
L 130.13882 35.849373 
L 130.785535 37.693282 
L 131.43225 40.170776 
L 132.402322 44.986584 
L 133.372393 50.9662 
L 134.665823 60.376765 
L 136.929324 79.078896 
L 139.192825 97.519052 
L 140.486254 106.559964 
L 141.456326 112.173373 
L 142.426398 116.560946 
L 143.073112 118.725937 
L 143.719827 120.241459 
L 144.366541 121.083515 
L 144.689899 121.247403 
L 145.013256 121.238772 
L 145.336613 121.057657 
L 145.659971 120.704773 
L 146.306685 119.489972 
L 146.9534 117.613604 
L 147.600114 115.10538 
L 148.570186 110.247771 
L 149.540258 104.232814 
L 150.833687 94.787312 
L 153.097188 76.063045 
L 155.360689 57.653124 
L 156.654119 48.651174 
L 157.624191 43.075633 
L 158.594262 38.731869 
L 159.240977 36.59862 
L 159.887692 35.116289 
L 160.534406 34.308346 
L 160.857763 34.161692 
L 161.181121 34.187584 
L 161.504478 34.38592 
L 161.827835 34.755914 
L 162.47455 36.004339 
L 163.121265 37.913091 
L 163.767979 40.451947 
L 164.738051 45.351164 
L 165.708123 51.401223 
L 167.001552 60.881288 
L 169.265053 79.62695 
L 171.528554 98.005905 
L 172.821983 106.968538 
L 173.792055 112.505988 
L 174.762127 116.805772 
L 175.408842 118.907193 
L 176.055556 120.356275 
L 176.702271 121.130073 
L 177.025628 121.259487 
L 177.348985 121.216335 
L 177.672343 121.000786 
L 178.319057 120.056596 
L 178.965772 118.441868 
L 179.612487 116.182168 
L 180.582558 111.664221 
L 181.55263 105.938546 
L 182.846059 96.782908 
L 184.786203 80.995563 
L 187.696419 57.16787 
L 188.989848 48.244911 
L 189.95992 42.745769 
L 190.929992 38.490137 
L 191.576706 36.420626 
L 192.223421 35.004852 
L 192.870136 34.26523 
L 193.193493 34.15306 
L 193.51685 34.213471 
L 193.840207 34.446223 
L 194.486922 35.424385 
L 195.133637 37.072056 
L 195.780351 39.363148 
L 196.750423 43.924197 
L 197.720495 49.686842 
L 199.013924 58.879998 
L 200.954068 74.693942 
L 203.864284 98.48954 
L 205.157713 107.372472 
L 206.127785 112.833087 
L 207.097857 117.0444 
L 207.744571 119.081917 
L 208.391286 120.464329 
L 209.038 121.169746 
L 209.361358 121.264667 
L 209.684715 121.186999 
L 210.008072 120.937052 
L 210.654787 119.924958 
L 211.301501 118.24441 
L 211.948216 115.922017 
L 212.918288 111.318046 
L 213.88836 105.51866 
L 215.181789 96.288349 
L 217.121933 80.448433 
L 217.44529 77.708 
L 217.44529 77.708 
" style="fill:none;stroke:#ff7f0e;stroke-linecap:square;stroke-width:1.5;"/>
   </g>
   <g id="patch_3">
    <path d="M 56.09 129.976 
L 56.09 25.44 
" style="fill:none;stroke:#000000;stroke-linecap:square;stroke-linejoin:miter;stroke-width:0.8;"/>
   </g>
   <g id="patch_4">
    <path d="M 217.44529 129.976 
L 217.44529 25.44 
" style="fill:none;stroke:#000000;stroke-linecap:square;stroke-linejoin:miter;stroke-width:0.8;"/>
   </g>
   <g id="patch_5">
    <path d="M 56.09 129.976 
L 217.44529 129.976 
" style="fill:none;stroke:#000000;stroke-linecap:square;stroke-linejoin:miter;stroke-width:0.8;"/>
   </g>
   <g id="patch_6">
    <path d="M 56.09 25.44 
L 217.44529 25.44 
" style="fill:none;stroke:#000000;stroke-linecap:square;stroke-linejoin:miter;stroke-width:0.8;"/>
   </g>
   <g id="text_14">
    <!-- Entrada -->
    <defs>
     <path d="M 9.8125 72.90625 
L 55.90625 72.90625 
L 55.90625 64.59375 
L 19.671875 64.59375 
L 19.671875 43.015625 
L 54.390625 43.015625 
L 54.390625 34.71875 
L 19.671875 34.71875 
L 19.671875 8.296875 
L 56.78125 8.296875 
L 56.78125 0 
L 9.8125 0 
z
" id="DejaVuSans-69"/>
     <path d="M 54.890625 33.015625 
L 54.890625 0 
L 45.90625 0 
L 45.90625 32.71875 
Q 45.90625 40.484375 42.875 44.328125 
Q 39.84375 48.1875 33.796875 48.1875 
Q 26.515625 48.1875 22.3125 43.546875 
Q 18.109375 38.921875 18.109375 30.90625 
L 18.109375 0 
L 9.078125 0 
L 9.078125 54.6875 
L 18.109375 54.6875 
L 18.109375 46.1875 
Q 21.34375 51.125 25.703125 53.5625 
Q 30.078125 56 35.796875 56 
Q 45.21875 56 50.046875 50.171875 
Q 54.890625 44.34375 54.890625 33.015625 
z
" id="DejaVuSans-110"/>
     <path d="M 41.109375 46.296875 
Q 39.59375 47.171875 37.8125 47.578125 
Q 36.03125 48 33.890625 48 
Q 26.265625 48 22.1875 43.046875 
Q 18.109375 38.09375 18.109375 28.8125 
L 18.109375 0 
L 9.078125 0 
L 9.078125 54.6875 
L 18.109375 54.6875 
L 18.109375 46.1875 
Q 20.953125 51.171875 25.484375 53.578125 
Q 30.03125 56 36.53125 56 
Q 37.453125 56 38.578125 55.875 
Q 39.703125 55.765625 41.0625 55.515625 
z
" id="DejaVuSans-114"/>
     <path d="M 34.28125 27.484375 
Q 23.390625 27.484375 19.1875 25 
Q 14.984375 22.515625 14.984375 16.5 
Q 14.984375 11.71875 18.140625 8.90625 
Q 21.296875 6.109375 26.703125 6.109375 
Q 34.1875 6.109375 38.703125 11.40625 
Q 43.21875 16.703125 43.21875 25.484375 
L 43.21875 27.484375 
z
M 52.203125 31.203125 
L 52.203125 0 
L 43.21875 0 
L 43.21875 8.296875 
Q 40.140625 3.328125 35.546875 0.953125 
Q 30.953125 -1.421875 24.3125 -1.421875 
Q 15.921875 -1.421875 10.953125 3.296875 
Q 6 8.015625 6 15.921875 
Q 6 25.140625 12.171875 29.828125 
Q 18.359375 34.515625 30.609375 34.515625 
L 43.21875 34.515625 
L 43.21875 35.40625 
Q 43.21875 41.609375 39.140625 45 
Q 35.0625 48.390625 27.6875 48.390625 
Q 23 48.390625 18.546875 47.265625 
Q 14.109375 46.140625 10.015625 43.890625 
L 10.015625 52.203125 
Q 14.9375 54.109375 19.578125 55.046875 
Q 24.21875 56 28.609375 56 
Q 40.484375 56 46.34375 49.84375 
Q 52.203125 43.703125 52.203125 31.203125 
z
" id="DejaVuSans-97"/>
    </defs>
    <g transform="translate(113.192333 19.44)scale(0.12 -0.12)">
     <use xlink:href="#DejaVuSans-69"/>
     <use x="63.183594" xlink:href="#DejaVuSans-110"/>
     <use x="126.5625" xlink:href="#DejaVuSans-116"/>
     <use x="165.771484" xlink:href="#DejaVuSans-114"/>
     <use x="206.884766" xlink:href="#DejaVuSans-97"/>
     <use x="268.164062" xlink:href="#DejaVuSans-100"/>
     <use x="331.640625" xlink:href="#DejaVuSans-97"/>
    </g>
   </g>
  </g>
  <g id="axes_2">
   <g id="patch_7">
    <path d="M 281.285595 129.976 
L 442.640885 129.976 
L 442.640885 25.44 
L 281.285595 25.44 
z
" style="fill:#ffffff;"/>
   </g>
   <g id="matplotlib.axis_3">
    <g id="xtick_7">
     <g id="line2d_25">
      <path clip-path="url(#paeb437399e)" d="M 281.285595 129.976 
L 281.285595 25.44 
" style="fill:none;stroke:#b0b0b0;stroke-linecap:square;stroke-width:0.8;"/>
     </g>
     <g id="line2d_26">
      <g>
       <use style="stroke:#000000;stroke-width:0.8;" x="281.285595" xlink:href="#m96b80afe8c" y="129.976"/>
      </g>
     </g>
     <g id="text_15">
      <!-- 0 -->
      <g transform="translate(278.104345 144.574437)scale(0.1 -0.1)">
       <use xlink:href="#DejaVuSans-48"/>
      </g>
     </g>
    </g>
    <g id="xtick_8">
     <g id="line2d_27">
      <path clip-path="url(#paeb437399e)" d="M 323.747514 129.976 
L 323.747514 25.44 
" style="fill:none;stroke:#b0b0b0;stroke-linecap:square;stroke-width:0.8;"/>
     </g>
     <g id="line2d_28">
      <g>
       <use style="stroke:#000000;stroke-width:0.8;" x="323.747514" xlink:href="#m96b80afe8c" y="129.976"/>
      </g>
     </g>
     <g id="text_16">
      <!-- 5 -->
      <g transform="translate(320.566264 144.574437)scale(0.1 -0.1)">
       <use xlink:href="#DejaVuSans-53"/>
      </g>
     </g>
    </g>
    <g id="xtick_9">
     <g id="line2d_29">
      <path clip-path="url(#paeb437399e)" d="M 366.209432 129.976 
L 366.209432 25.44 
" style="fill:none;stroke:#b0b0b0;stroke-linecap:square;stroke-width:0.8;"/>
     </g>
     <g id="line2d_30">
      <g>
       <use style="stroke:#000000;stroke-width:0.8;" x="366.209432" xlink:href="#m96b80afe8c" y="129.976"/>
      </g>
     </g>
     <g id="text_17">
      <!-- 10 -->
      <g transform="translate(359.846932 144.574437)scale(0.1 -0.1)">
       <use xlink:href="#DejaVuSans-49"/>
       <use x="63.623047" xlink:href="#DejaVuSans-48"/>
      </g>
     </g>
    </g>
    <g id="xtick_10">
     <g id="line2d_31">
      <path clip-path="url(#paeb437399e)" d="M 408.67135 129.976 
L 408.67135 25.44 
" style="fill:none;stroke:#b0b0b0;stroke-linecap:square;stroke-width:0.8;"/>
     </g>
     <g id="line2d_32">
      <g>
       <use style="stroke:#000000;stroke-width:0.8;" x="408.67135" xlink:href="#m96b80afe8c" y="129.976"/>
      </g>
     </g>
     <g id="text_18">
      <!-- 15 -->
      <g transform="translate(402.30885 144.574437)scale(0.1 -0.1)">
       <use xlink:href="#DejaVuSans-49"/>
       <use x="63.623047" xlink:href="#DejaVuSans-53"/>
      </g>
     </g>
    </g>
    <g id="text_19">
     <!-- Tiempo (t) -->
     <g transform="translate(335.891365 158.252562)scale(0.1 -0.1)">
      <use xlink:href="#DejaVuSans-84"/>
      <use x="61.037109" xlink:href="#DejaVuSans-105"/>
      <use x="88.820312" xlink:href="#DejaVuSans-101"/>
      <use x="150.34375" xlink:href="#DejaVuSans-109"/>
      <use x="247.755859" xlink:href="#DejaVuSans-112"/>
      <use x="311.232422" xlink:href="#DejaVuSans-111"/>
      <use x="372.414062" xlink:href="#DejaVuSans-32"/>
      <use x="404.201172" xlink:href="#DejaVuSans-40"/>
      <use x="443.214844" xlink:href="#DejaVuSans-116"/>
      <use x="482.423828" xlink:href="#DejaVuSans-41"/>
     </g>
    </g>
   </g>
   <g id="matplotlib.axis_4">
    <g id="ytick_6">
     <g id="line2d_33">
      <path clip-path="url(#paeb437399e)" d="M 281.285595 121.264667 
L 442.640885 121.264667 
" style="fill:none;stroke:#b0b0b0;stroke-linecap:square;stroke-width:0.8;"/>
     </g>
     <g id="line2d_34">
      <g>
       <use style="stroke:#000000;stroke-width:0.8;" x="281.285595" xlink:href="#m1142a8f58a" y="121.264667"/>
      </g>
     </g>
     <g id="text_20">
      <!-- 0.00 -->
      <g transform="translate(252.01997 125.063885)scale(0.1 -0.1)">
       <use xlink:href="#DejaVuSans-48"/>
       <use x="63.623047" xlink:href="#DejaVuSans-46"/>
       <use x="95.410156" xlink:href="#DejaVuSans-48"/>
       <use x="159.033203" xlink:href="#DejaVuSans-48"/>
      </g>
     </g>
    </g>
    <g id="ytick_7">
     <g id="line2d_35">
      <path clip-path="url(#paeb437399e)" d="M 281.285595 99.486333 
L 442.640885 99.486333 
" style="fill:none;stroke:#b0b0b0;stroke-linecap:square;stroke-width:0.8;"/>
     </g>
     <g id="line2d_36">
      <g>
       <use style="stroke:#000000;stroke-width:0.8;" x="281.285595" xlink:href="#m1142a8f58a" y="99.486333"/>
      </g>
     </g>
     <g id="text_21">
      <!-- 0.25 -->
      <g transform="translate(252.01997 103.285552)scale(0.1 -0.1)">
       <use xlink:href="#DejaVuSans-48"/>
       <use x="63.623047" xlink:href="#DejaVuSans-46"/>
       <use x="95.410156" xlink:href="#DejaVuSans-50"/>
       <use x="159.033203" xlink:href="#DejaVuSans-53"/>
      </g>
     </g>
    </g>
    <g id="ytick_8">
     <g id="line2d_37">
      <path clip-path="url(#paeb437399e)" d="M 281.285595 77.708 
L 442.640885 77.708 
" style="fill:none;stroke:#b0b0b0;stroke-linecap:square;stroke-width:0.8;"/>
     </g>
     <g id="line2d_38">
      <g>
       <use style="stroke:#000000;stroke-width:0.8;" x="281.285595" xlink:href="#m1142a8f58a" y="77.708"/>
      </g>
     </g>
     <g id="text_22">
      <!-- 0.50 -->
      <g transform="translate(252.01997 81.507219)scale(0.1 -0.1)">
       <use xlink:href="#DejaVuSans-48"/>
       <use x="63.623047" xlink:href="#DejaVuSans-46"/>
       <use x="95.410156" xlink:href="#DejaVuSans-53"/>
       <use x="159.033203" xlink:href="#DejaVuSans-48"/>
      </g>
     </g>
    </g>
    <g id="ytick_9">
     <g id="line2d_39">
      <path clip-path="url(#paeb437399e)" d="M 281.285595 55.929667 
L 442.640885 55.929667 
" style="fill:none;stroke:#b0b0b0;stroke-linecap:square;stroke-width:0.8;"/>
     </g>
     <g id="line2d_40">
      <g>
       <use style="stroke:#000000;stroke-width:0.8;" x="281.285595" xlink:href="#m1142a8f58a" y="55.929667"/>
      </g>
     </g>
     <g id="text_23">
      <!-- 0.75 -->
      <defs>
       <path d="M 8.203125 72.90625 
L 55.078125 72.90625 
L 55.078125 68.703125 
L 28.609375 0 
L 18.3125 0 
L 43.21875 64.59375 
L 8.203125 64.59375 
z
" id="DejaVuSans-55"/>
      </defs>
      <g transform="translate(252.01997 59.728885)scale(0.1 -0.1)">
       <use xlink:href="#DejaVuSans-48"/>
       <use x="63.623047" xlink:href="#DejaVuSans-46"/>
       <use x="95.410156" xlink:href="#DejaVuSans-55"/>
       <use x="159.033203" xlink:href="#DejaVuSans-53"/>
      </g>
     </g>
    </g>
    <g id="ytick_10">
     <g id="line2d_41">
      <path clip-path="url(#paeb437399e)" d="M 281.285595 34.151333 
L 442.640885 34.151333 
" style="fill:none;stroke:#b0b0b0;stroke-linecap:square;stroke-width:0.8;"/>
     </g>
     <g id="line2d_42">
      <g>
       <use style="stroke:#000000;stroke-width:0.8;" x="281.285595" xlink:href="#m1142a8f58a" y="34.151333"/>
      </g>
     </g>
     <g id="text_24">
      <!-- 1.00 -->
      <g transform="translate(252.01997 37.950552)scale(0.1 -0.1)">
       <use xlink:href="#DejaVuSans-49"/>
       <use x="63.623047" xlink:href="#DejaVuSans-46"/>
       <use x="95.410156" xlink:href="#DejaVuSans-48"/>
       <use x="159.033203" xlink:href="#DejaVuSans-48"/>
      </g>
     </g>
    </g>
    <g id="text_25">
     <!-- Amplitud -->
     <g transform="translate(245.940283 100.254094)rotate(-90)scale(0.1 -0.1)">
      <use xlink:href="#DejaVuSans-65"/>
      <use x="68.408203" xlink:href="#DejaVuSans-109"/>
      <use x="165.820312" xlink:href="#DejaVuSans-112"/>
      <use x="229.296875" xlink:href="#DejaVuSans-108"/>
      <use x="257.080078" xlink:href="#DejaVuSans-105"/>
      <use x="284.863281" xlink:href="#DejaVuSans-116"/>
      <use x="324.072266" xlink:href="#DejaVuSans-117"/>
      <use x="387.451172" xlink:href="#DejaVuSans-100"/>
     </g>
    </g>
   </g>
   <g id="line2d_43">
    <path clip-path="url(#paeb437399e)" d="M 281.285595 121.264667 
L 289.777979 121.264667 
L 298.270363 121.264667 
L 306.762746 121.264667 
L 315.25513 121.264667 
L 323.747514 121.264667 
L 332.239897 121.264667 
L 340.732281 121.264667 
L 349.224665 121.264667 
L 357.717048 121.264667 
L 366.209432 34.151333 
L 374.701816 34.151333 
L 383.194199 34.151333 
L 391.686583 34.151333 
L 400.178967 34.151333 
L 408.67135 34.151333 
L 417.163734 34.151333 
L 425.656118 34.151333 
L 434.148501 34.151333 
L 442.640885 34.151333 
" style="fill:none;stroke:#1f77b4;stroke-linecap:square;stroke-width:1.5;"/>
   </g>
   <g id="patch_8">
    <path d="M 281.285595 129.976 
L 281.285595 25.44 
" style="fill:none;stroke:#000000;stroke-linecap:square;stroke-linejoin:miter;stroke-width:0.8;"/>
   </g>
   <g id="patch_9">
    <path d="M 442.640885 129.976 
L 442.640885 25.44 
" style="fill:none;stroke:#000000;stroke-linecap:square;stroke-linejoin:miter;stroke-width:0.8;"/>
   </g>
   <g id="patch_10">
    <path d="M 281.285595 129.976 
L 442.640885 129.976 
" style="fill:none;stroke:#000000;stroke-linecap:square;stroke-linejoin:miter;stroke-width:0.8;"/>
   </g>
   <g id="patch_11">
    <path d="M 281.285595 25.44 
L 442.640885 25.44 
" style="fill:none;stroke:#000000;stroke-linecap:square;stroke-linejoin:miter;stroke-width:0.8;"/>
   </g>
   <g id="text_26">
    <!-- Función de Transferencia -->
    <defs>
     <path d="M 9.8125 72.90625 
L 51.703125 72.90625 
L 51.703125 64.59375 
L 19.671875 64.59375 
L 19.671875 43.109375 
L 48.578125 43.109375 
L 48.578125 34.8125 
L 19.671875 34.8125 
L 19.671875 0 
L 9.8125 0 
z
" id="DejaVuSans-70"/>
     <path d="M 48.78125 52.59375 
L 48.78125 44.1875 
Q 44.96875 46.296875 41.140625 47.34375 
Q 37.3125 48.390625 33.40625 48.390625 
Q 24.65625 48.390625 19.8125 42.84375 
Q 14.984375 37.3125 14.984375 27.296875 
Q 14.984375 17.28125 19.8125 11.734375 
Q 24.65625 6.203125 33.40625 6.203125 
Q 37.3125 6.203125 41.140625 7.25 
Q 44.96875 8.296875 48.78125 10.40625 
L 48.78125 2.09375 
Q 45.015625 0.34375 40.984375 -0.53125 
Q 36.96875 -1.421875 32.421875 -1.421875 
Q 20.0625 -1.421875 12.78125 6.34375 
Q 5.515625 14.109375 5.515625 27.296875 
Q 5.515625 40.671875 12.859375 48.328125 
Q 20.21875 56 33.015625 56 
Q 37.15625 56 41.109375 55.140625 
Q 45.0625 54.296875 48.78125 52.59375 
z
" id="DejaVuSans-99"/>
     <path d="M 30.609375 48.390625 
Q 23.390625 48.390625 19.1875 42.75 
Q 14.984375 37.109375 14.984375 27.296875 
Q 14.984375 17.484375 19.15625 11.84375 
Q 23.34375 6.203125 30.609375 6.203125 
Q 37.796875 6.203125 41.984375 11.859375 
Q 46.1875 17.53125 46.1875 27.296875 
Q 46.1875 37.015625 41.984375 42.703125 
Q 37.796875 48.390625 30.609375 48.390625 
z
M 30.609375 56 
Q 42.328125 56 49.015625 48.375 
Q 55.71875 40.765625 55.71875 27.296875 
Q 55.71875 13.875 49.015625 6.21875 
Q 42.328125 -1.421875 30.609375 -1.421875 
Q 18.84375 -1.421875 12.171875 6.21875 
Q 5.515625 13.875 5.515625 27.296875 
Q 5.515625 40.765625 12.171875 48.375 
Q 18.84375 56 30.609375 56 
z
M 37.40625 79.984375 
L 47.125 79.984375 
L 31.203125 61.625 
L 23.734375 61.625 
z
" id="DejaVuSans-243"/>
     <path d="M 44.28125 53.078125 
L 44.28125 44.578125 
Q 40.484375 46.53125 36.375 47.5 
Q 32.28125 48.484375 27.875 48.484375 
Q 21.1875 48.484375 17.84375 46.4375 
Q 14.5 44.390625 14.5 40.28125 
Q 14.5 37.15625 16.890625 35.375 
Q 19.28125 33.59375 26.515625 31.984375 
L 29.59375 31.296875 
Q 39.15625 29.25 43.1875 25.515625 
Q 47.21875 21.78125 47.21875 15.09375 
Q 47.21875 7.46875 41.1875 3.015625 
Q 35.15625 -1.421875 24.609375 -1.421875 
Q 20.21875 -1.421875 15.453125 -0.5625 
Q 10.6875 0.296875 5.421875 2 
L 5.421875 11.28125 
Q 10.40625 8.6875 15.234375 7.390625 
Q 20.0625 6.109375 24.8125 6.109375 
Q 31.15625 6.109375 34.5625 8.28125 
Q 37.984375 10.453125 37.984375 14.40625 
Q 37.984375 18.0625 35.515625 20.015625 
Q 33.0625 21.96875 24.703125 23.78125 
L 21.578125 24.515625 
Q 13.234375 26.265625 9.515625 29.90625 
Q 5.8125 33.546875 5.8125 39.890625 
Q 5.8125 47.609375 11.28125 51.796875 
Q 16.75 56 26.8125 56 
Q 31.78125 56 36.171875 55.265625 
Q 40.578125 54.546875 44.28125 53.078125 
z
" id="DejaVuSans-115"/>
     <path d="M 37.109375 75.984375 
L 37.109375 68.5 
L 28.515625 68.5 
Q 23.6875 68.5 21.796875 66.546875 
Q 19.921875 64.59375 19.921875 59.515625 
L 19.921875 54.6875 
L 34.71875 54.6875 
L 34.71875 47.703125 
L 19.921875 47.703125 
L 19.921875 0 
L 10.890625 0 
L 10.890625 47.703125 
L 2.296875 47.703125 
L 2.296875 54.6875 
L 10.890625 54.6875 
L 10.890625 58.5 
Q 10.890625 67.625 15.140625 71.796875 
Q 19.390625 75.984375 28.609375 75.984375 
z
" id="DejaVuSans-102"/>
    </defs>
    <g transform="translate(286.028553 19.44)scale(0.12 -0.12)">
     <use xlink:href="#DejaVuSans-70"/>
     <use x="57.441406" xlink:href="#DejaVuSans-117"/>
     <use x="120.820312" xlink:href="#DejaVuSans-110"/>
     <use x="184.199219" xlink:href="#DejaVuSans-99"/>
     <use x="239.179688" xlink:href="#DejaVuSans-105"/>
     <use x="266.962891" xlink:href="#DejaVuSans-243"/>
     <use x="328.144531" xlink:href="#DejaVuSans-110"/>
     <use x="391.523438" xlink:href="#DejaVuSans-32"/>
     <use x="423.310547" xlink:href="#DejaVuSans-100"/>
     <use x="486.787109" xlink:href="#DejaVuSans-101"/>
     <use x="548.310547" xlink:href="#DejaVuSans-32"/>
     <use x="580.097656" xlink:href="#DejaVuSans-84"/>
     <use x="640.962891" xlink:href="#DejaVuSans-114"/>
     <use x="682.076172" xlink:href="#DejaVuSans-97"/>
     <use x="743.355469" xlink:href="#DejaVuSans-110"/>
     <use x="806.734375" xlink:href="#DejaVuSans-115"/>
     <use x="858.833984" xlink:href="#DejaVuSans-102"/>
     <use x="894.039062" xlink:href="#DejaVuSans-101"/>
     <use x="955.5625" xlink:href="#DejaVuSans-114"/>
     <use x="996.644531" xlink:href="#DejaVuSans-101"/>
     <use x="1058.167969" xlink:href="#DejaVuSans-110"/>
     <use x="1121.546875" xlink:href="#DejaVuSans-99"/>
     <use x="1176.527344" xlink:href="#DejaVuSans-105"/>
     <use x="1204.310547" xlink:href="#DejaVuSans-97"/>
    </g>
   </g>
  </g>
  <g id="axes_3">
   <g id="patch_12">
    <path d="M 56.09 303.64 
L 217.44529 303.64 
L 217.44529 199.104 
L 56.09 199.104 
z
" style="fill:#ffffff;"/>
   </g>
   <g id="matplotlib.axis_5">
    <g id="xtick_11">
     <g id="line2d_44">
      <path clip-path="url(#pc164d4abca)" d="M 56.09 303.64 
L 56.09 199.104 
" style="fill:none;stroke:#b0b0b0;stroke-linecap:square;stroke-width:0.8;"/>
     </g>
     <g id="line2d_45">
      <g>
       <use style="stroke:#000000;stroke-width:0.8;" x="56.09" xlink:href="#m96b80afe8c" y="303.64"/>
      </g>
     </g>
     <g id="text_27">
      <!-- 0 -->
      <g transform="translate(52.90875 318.238437)scale(0.1 -0.1)">
       <use xlink:href="#DejaVuSans-48"/>
      </g>
     </g>
    </g>
    <g id="xtick_12">
     <g id="line2d_46">
      <path clip-path="url(#pc164d4abca)" d="M 118.38934 303.64 
L 118.38934 199.104 
" style="fill:none;stroke:#b0b0b0;stroke-linecap:square;stroke-width:0.8;"/>
     </g>
     <g id="line2d_47">
      <g>
       <use style="stroke:#000000;stroke-width:0.8;" x="118.38934" xlink:href="#m96b80afe8c" y="303.64"/>
      </g>
     </g>
     <g id="text_28">
      <!-- 200 -->
      <g transform="translate(108.84559 318.238437)scale(0.1 -0.1)">
       <use xlink:href="#DejaVuSans-50"/>
       <use x="63.623047" xlink:href="#DejaVuSans-48"/>
       <use x="127.246094" xlink:href="#DejaVuSans-48"/>
      </g>
     </g>
    </g>
    <g id="xtick_13">
     <g id="line2d_48">
      <path clip-path="url(#pc164d4abca)" d="M 180.68868 303.64 
L 180.68868 199.104 
" style="fill:none;stroke:#b0b0b0;stroke-linecap:square;stroke-width:0.8;"/>
     </g>
     <g id="line2d_49">
      <g>
       <use style="stroke:#000000;stroke-width:0.8;" x="180.68868" xlink:href="#m96b80afe8c" y="303.64"/>
      </g>
     </g>
     <g id="text_29">
      <!-- 400 -->
      <g transform="translate(171.14493 318.238437)scale(0.1 -0.1)">
       <use xlink:href="#DejaVuSans-52"/>
       <use x="63.623047" xlink:href="#DejaVuSans-48"/>
       <use x="127.246094" xlink:href="#DejaVuSans-48"/>
      </g>
     </g>
    </g>
    <g id="text_30">
     <!-- Tiempo (t) -->
     <g transform="translate(110.69577 331.916562)scale(0.1 -0.1)">
      <use xlink:href="#DejaVuSans-84"/>
      <use x="61.037109" xlink:href="#DejaVuSans-105"/>
      <use x="88.820312" xlink:href="#DejaVuSans-101"/>
      <use x="150.34375" xlink:href="#DejaVuSans-109"/>
      <use x="247.755859" xlink:href="#DejaVuSans-112"/>
      <use x="311.232422" xlink:href="#DejaVuSans-111"/>
      <use x="372.414062" xlink:href="#DejaVuSans-32"/>
      <use x="404.201172" xlink:href="#DejaVuSans-40"/>
      <use x="443.214844" xlink:href="#DejaVuSans-116"/>
      <use x="482.423828" xlink:href="#DejaVuSans-41"/>
     </g>
    </g>
   </g>
   <g id="matplotlib.axis_6">
    <g id="ytick_11">
     <g id="line2d_50">
      <path clip-path="url(#pc164d4abca)" d="M 56.09 295.64933 
L 217.44529 295.64933 
" style="fill:none;stroke:#b0b0b0;stroke-linecap:square;stroke-width:0.8;"/>
     </g>
     <g id="line2d_51">
      <g>
       <use style="stroke:#000000;stroke-width:0.8;" x="56.09" xlink:href="#m1142a8f58a" y="295.64933"/>
      </g>
     </g>
     <g id="text_31">
      <!-- −10 -->
      <g transform="translate(27.985313 299.448548)scale(0.1 -0.1)">
       <use xlink:href="#DejaVuSans-8722"/>
       <use x="83.789062" xlink:href="#DejaVuSans-49"/>
       <use x="147.412109" xlink:href="#DejaVuSans-48"/>
      </g>
     </g>
    </g>
    <g id="ytick_12">
     <g id="line2d_52">
      <path clip-path="url(#pc164d4abca)" d="M 56.09 273.510665 
L 217.44529 273.510665 
" style="fill:none;stroke:#b0b0b0;stroke-linecap:square;stroke-width:0.8;"/>
     </g>
     <g id="line2d_53">
      <g>
       <use style="stroke:#000000;stroke-width:0.8;" x="56.09" xlink:href="#m1142a8f58a" y="273.510665"/>
      </g>
     </g>
     <g id="text_32">
      <!-- −5 -->
      <g transform="translate(34.347813 277.309884)scale(0.1 -0.1)">
       <use xlink:href="#DejaVuSans-8722"/>
       <use x="83.789062" xlink:href="#DejaVuSans-53"/>
      </g>
     </g>
    </g>
    <g id="ytick_13">
     <g id="line2d_54">
      <path clip-path="url(#pc164d4abca)" d="M 56.09 251.372 
L 217.44529 251.372 
" style="fill:none;stroke:#b0b0b0;stroke-linecap:square;stroke-width:0.8;"/>
     </g>
     <g id="line2d_55">
      <g>
       <use style="stroke:#000000;stroke-width:0.8;" x="56.09" xlink:href="#m1142a8f58a" y="251.372"/>
      </g>
     </g>
     <g id="text_33">
      <!-- 0 -->
      <g transform="translate(42.7275 255.171219)scale(0.1 -0.1)">
       <use xlink:href="#DejaVuSans-48"/>
      </g>
     </g>
    </g>
    <g id="ytick_14">
     <g id="line2d_56">
      <path clip-path="url(#pc164d4abca)" d="M 56.09 229.233335 
L 217.44529 229.233335 
" style="fill:none;stroke:#b0b0b0;stroke-linecap:square;stroke-width:0.8;"/>
     </g>
     <g id="line2d_57">
      <g>
       <use style="stroke:#000000;stroke-width:0.8;" x="56.09" xlink:href="#m1142a8f58a" y="229.233335"/>
      </g>
     </g>
     <g id="text_34">
      <!-- 5 -->
      <g transform="translate(42.7275 233.032554)scale(0.1 -0.1)">
       <use xlink:href="#DejaVuSans-53"/>
      </g>
     </g>
    </g>
    <g id="ytick_15">
     <g id="line2d_58">
      <path clip-path="url(#pc164d4abca)" d="M 56.09 207.09467 
L 217.44529 207.09467 
" style="fill:none;stroke:#b0b0b0;stroke-linecap:square;stroke-width:0.8;"/>
     </g>
     <g id="line2d_59">
      <g>
       <use style="stroke:#000000;stroke-width:0.8;" x="56.09" xlink:href="#m1142a8f58a" y="207.09467"/>
      </g>
     </g>
     <g id="text_35">
      <!-- 10 -->
      <g transform="translate(36.365 210.893889)scale(0.1 -0.1)">
       <use xlink:href="#DejaVuSans-49"/>
       <use x="63.623047" xlink:href="#DejaVuSans-48"/>
      </g>
     </g>
    </g>
    <g id="text_36">
     <!-- Amplitud -->
     <g transform="translate(21.905625 273.918094)rotate(-90)scale(0.1 -0.1)">
      <use xlink:href="#DejaVuSans-65"/>
      <use x="68.408203" xlink:href="#DejaVuSans-109"/>
      <use x="165.820312" xlink:href="#DejaVuSans-112"/>
      <use x="229.296875" xlink:href="#DejaVuSans-108"/>
      <use x="257.080078" xlink:href="#DejaVuSans-105"/>
      <use x="284.863281" xlink:href="#DejaVuSans-116"/>
      <use x="324.072266" xlink:href="#DejaVuSans-117"/>
      <use x="387.451172" xlink:href="#DejaVuSans-100"/>
     </g>
    </g>
   </g>
   <g id="line2d_60">
    <path clip-path="url(#pc164d4abca)" d="M 56.09 251.372 
L 59.204967 251.372 
L 59.516464 251.093424 
L 59.82796 250.537376 
L 60.450954 248.602766 
L 61.073947 245.598803 
L 61.696941 241.573052 
L 64.811908 218.650584 
L 65.746398 213.834776 
L 66.680888 210.354063 
L 67.303881 208.838541 
L 67.926875 207.996485 
L 68.238371 207.832597 
L 68.549868 207.841228 
L 68.861365 208.022343 
L 69.172861 208.375227 
L 69.795855 209.590028 
L 70.418848 211.466396 
L 71.041842 213.97462 
L 71.976332 218.832229 
L 72.910822 224.847186 
L 74.156809 234.292688 
L 76.337285 253.016955 
L 78.517762 271.426876 
L 79.763749 280.428826 
L 80.698239 286.004367 
L 81.632729 290.348131 
L 82.255723 292.48138 
L 82.878716 293.963711 
L 83.501709 294.771654 
L 83.813206 294.918308 
L 84.124703 294.892416 
L 84.4362 294.69408 
L 85.059193 293.783899 
L 85.682186 292.202177 
L 86.30518 289.973959 
L 87.23967 285.499293 
L 88.17416 279.810815 
L 89.420147 270.693059 
L 91.289127 254.932939 
L 94.092597 231.074095 
L 95.338584 222.111462 
L 96.273074 216.574012 
L 97.207564 212.274228 
L 97.830558 210.172807 
L 98.453551 208.723725 
L 99.076544 207.949927 
L 99.388041 207.820513 
L 99.699538 207.863665 
L 100.011035 208.079214 
L 100.634028 209.023404 
L 101.257021 210.638132 
L 101.880015 212.897832 
L 102.814505 217.415779 
L 103.748995 223.141454 
L 104.994982 232.297092 
L 106.863962 248.084437 
L 109.667432 271.91213 
L 110.913419 280.835089 
L 111.847909 286.334231 
L 112.782399 290.589863 
L 113.405393 292.659374 
L 114.028386 294.075148 
L 114.651379 294.81477 
L 114.962876 294.92694 
L 115.274373 294.866529 
L 115.585869 294.633777 
L 116.208863 293.655615 
L 116.831856 292.007944 
L 117.45485 289.716852 
L 118.38934 285.155803 
L 119.32383 279.393158 
L 120.569817 270.200002 
L 122.438797 254.386058 
L 125.242267 230.59046 
L 126.488254 221.707528 
L 127.422744 216.246913 
L 128.357234 212.0356 
L 128.980228 209.998083 
L 129.603221 208.615671 
L 130.226214 207.910254 
L 130.537711 207.815333 
L 130.849208 207.893001 
L 131.160704 208.142948 
L 131.783698 209.155042 
L 132.406691 210.83559 
L 133.029685 213.157983 
L 133.964175 217.761954 
L 134.898665 223.56134 
L 136.144652 232.791651 
L 138.013632 248.631567 
L 140.817102 272.394126 
L 142.063089 281.23668 
L 142.997579 286.658551 
L 143.932069 290.825378 
L 144.555062 292.830822 
L 145.178056 294.179815 
L 145.801049 294.850999 
L 146.112546 294.928667 
L 146.424043 294.833746 
L 146.735539 294.566614 
L 147.358533 293.520628 
L 147.981526 291.807269 
L 148.60452 289.453666 
L 149.53901 284.806956 
L 150.4735 278.971059 
L 151.719487 269.70396 
L 153.588467 253.838699 
L 156.391937 230.11012 
L 157.637924 221.308296 
L 158.572414 215.925384 
L 159.506904 211.803209 
L 160.129897 209.829918 
L 160.752891 208.514395 
L 161.375884 207.877471 
L 161.687381 207.81706 
L 161.998878 207.92923 
L 162.310374 208.213536 
L 162.933368 209.293374 
L 163.556361 211.039475 
L 164.179355 213.424194 
L 165.113845 218.113458 
L 166.048335 223.985636 
L 167.294321 233.289156 
L 169.163302 249.179132 
L 171.966772 272.87279 
L 173.212759 281.633536 
L 174.147249 286.977277 
L 175.081739 291.054637 
L 175.704732 292.995696 
L 176.327726 294.277695 
L 176.950719 294.880335 
L 177.262216 294.923487 
L 177.573713 294.794073 
L 177.885209 294.492604 
L 178.508203 293.378957 
L 179.131196 291.600182 
L 179.754189 289.184442 
L 180.68868 284.452809 
L 181.62317 278.544583 
L 182.869156 269.205011 
L 185.049633 250.549376 
L 187.23011 232.050941 
L 188.476097 222.933185 
L 189.410587 217.244707 
L 190.345077 212.770041 
L 190.968071 210.541823 
L 191.591064 208.960101 
L 192.214057 208.04992 
L 192.525554 207.851584 
L 192.837051 207.825692 
L 193.148547 207.972346 
L 193.460044 208.290966 
L 194.083038 209.438377 
L 194.706031 211.249755 
L 195.329024 213.69642 
L 196.263514 218.470235 
L 197.198005 224.414274 
L 198.443991 233.789528 
L 200.624468 252.468782 
L 202.804945 270.938443 
L 204.050932 280.017957 
L 204.985422 285.669013 
L 205.919912 290.10022 
L 206.542906 292.296868 
L 207.165899 293.845521 
L 207.788892 294.721657 
L 208.100389 294.902772 
L 208.411886 294.911403 
L 208.723382 294.747515 
L 209.034879 294.411756 
L 209.657873 293.230627 
L 210.280866 291.386718 
L 210.903859 288.909224 
L 211.838349 284.093416 
L 212.77284 278.1138 
L 214.018826 268.703235 
L 215.264813 259.033964 
L 215.887807 255.51213 
L 216.5108 253.037942 
L 217.133793 251.650576 
L 217.44529 251.372 
L 217.44529 251.372 
" style="fill:none;stroke:#1f77b4;stroke-linecap:square;stroke-width:1.5;"/>
   </g>
   <g id="patch_13">
    <path d="M 56.09 303.64 
L 56.09 199.104 
" style="fill:none;stroke:#000000;stroke-linecap:square;stroke-linejoin:miter;stroke-width:0.8;"/>
   </g>
   <g id="patch_14">
    <path d="M 217.44529 303.64 
L 217.44529 199.104 
" style="fill:none;stroke:#000000;stroke-linecap:square;stroke-linejoin:miter;stroke-width:0.8;"/>
   </g>
   <g id="patch_15">
    <path d="M 56.09 303.64 
L 217.44529 303.64 
" style="fill:none;stroke:#000000;stroke-linecap:square;stroke-linejoin:miter;stroke-width:0.8;"/>
   </g>
   <g id="patch_16">
    <path d="M 56.09 199.104 
L 217.44529 199.104 
" style="fill:none;stroke:#000000;stroke-linecap:square;stroke-linejoin:miter;stroke-width:0.8;"/>
   </g>
   <g id="text_37">
    <!-- Convolución Original -->
    <defs>
     <path d="M 64.40625 67.28125 
L 64.40625 56.890625 
Q 59.421875 61.53125 53.78125 63.8125 
Q 48.140625 66.109375 41.796875 66.109375 
Q 29.296875 66.109375 22.65625 58.46875 
Q 16.015625 50.828125 16.015625 36.375 
Q 16.015625 21.96875 22.65625 14.328125 
Q 29.296875 6.6875 41.796875 6.6875 
Q 48.140625 6.6875 53.78125 8.984375 
Q 59.421875 11.28125 64.40625 15.921875 
L 64.40625 5.609375 
Q 59.234375 2.09375 53.4375 0.328125 
Q 47.65625 -1.421875 41.21875 -1.421875 
Q 24.65625 -1.421875 15.125 8.703125 
Q 5.609375 18.84375 5.609375 36.375 
Q 5.609375 53.953125 15.125 64.078125 
Q 24.65625 74.21875 41.21875 74.21875 
Q 47.75 74.21875 53.53125 72.484375 
Q 59.328125 70.75 64.40625 67.28125 
z
" id="DejaVuSans-67"/>
     <path d="M 2.984375 54.6875 
L 12.5 54.6875 
L 29.59375 8.796875 
L 46.6875 54.6875 
L 56.203125 54.6875 
L 35.6875 0 
L 23.484375 0 
z
" id="DejaVuSans-118"/>
     <path d="M 39.40625 66.21875 
Q 28.65625 66.21875 22.328125 58.203125 
Q 16.015625 50.203125 16.015625 36.375 
Q 16.015625 22.609375 22.328125 14.59375 
Q 28.65625 6.59375 39.40625 6.59375 
Q 50.140625 6.59375 56.421875 14.59375 
Q 62.703125 22.609375 62.703125 36.375 
Q 62.703125 50.203125 56.421875 58.203125 
Q 50.140625 66.21875 39.40625 66.21875 
z
M 39.40625 74.21875 
Q 54.734375 74.21875 63.90625 63.9375 
Q 73.09375 53.65625 73.09375 36.375 
Q 73.09375 19.140625 63.90625 8.859375 
Q 54.734375 -1.421875 39.40625 -1.421875 
Q 24.03125 -1.421875 14.8125 8.828125 
Q 5.609375 19.09375 5.609375 36.375 
Q 5.609375 53.65625 14.8125 63.9375 
Q 24.03125 74.21875 39.40625 74.21875 
z
" id="DejaVuSans-79"/>
     <path d="M 45.40625 27.984375 
Q 45.40625 37.75 41.375 43.109375 
Q 37.359375 48.484375 30.078125 48.484375 
Q 22.859375 48.484375 18.828125 43.109375 
Q 14.796875 37.75 14.796875 27.984375 
Q 14.796875 18.265625 18.828125 12.890625 
Q 22.859375 7.515625 30.078125 7.515625 
Q 37.359375 7.515625 41.375 12.890625 
Q 45.40625 18.265625 45.40625 27.984375 
z
M 54.390625 6.78125 
Q 54.390625 -7.171875 48.1875 -13.984375 
Q 42 -20.796875 29.203125 -20.796875 
Q 24.46875 -20.796875 20.265625 -20.09375 
Q 16.0625 -19.390625 12.109375 -17.921875 
L 12.109375 -9.1875 
Q 16.0625 -11.328125 19.921875 -12.34375 
Q 23.78125 -13.375 27.78125 -13.375 
Q 36.625 -13.375 41.015625 -8.765625 
Q 45.40625 -4.15625 45.40625 5.171875 
L 45.40625 9.625 
Q 42.625 4.78125 38.28125 2.390625 
Q 33.9375 0 27.875 0 
Q 17.828125 0 11.671875 7.65625 
Q 5.515625 15.328125 5.515625 27.984375 
Q 5.515625 40.671875 11.671875 48.328125 
Q 17.828125 56 27.875 56 
Q 33.9375 56 38.28125 53.609375 
Q 42.625 51.21875 45.40625 46.390625 
L 45.40625 54.6875 
L 54.390625 54.6875 
z
" id="DejaVuSans-103"/>
    </defs>
    <g transform="translate(74.58702 193.104)scale(0.12 -0.12)">
     <use xlink:href="#DejaVuSans-67"/>
     <use x="69.824219" xlink:href="#DejaVuSans-111"/>
     <use x="131.005859" xlink:href="#DejaVuSans-110"/>
     <use x="194.384766" xlink:href="#DejaVuSans-118"/>
     <use x="253.564453" xlink:href="#DejaVuSans-111"/>
     <use x="314.746094" xlink:href="#DejaVuSans-108"/>
     <use x="342.529297" xlink:href="#DejaVuSans-117"/>
     <use x="405.908203" xlink:href="#DejaVuSans-99"/>
     <use x="460.888672" xlink:href="#DejaVuSans-105"/>
     <use x="488.671875" xlink:href="#DejaVuSans-243"/>
     <use x="549.853516" xlink:href="#DejaVuSans-110"/>
     <use x="613.232422" xlink:href="#DejaVuSans-32"/>
     <use x="645.019531" xlink:href="#DejaVuSans-79"/>
     <use x="723.730469" xlink:href="#DejaVuSans-114"/>
     <use x="764.84375" xlink:href="#DejaVuSans-105"/>
     <use x="792.626953" xlink:href="#DejaVuSans-103"/>
     <use x="856.103516" xlink:href="#DejaVuSans-105"/>
     <use x="883.886719" xlink:href="#DejaVuSans-110"/>
     <use x="947.265625" xlink:href="#DejaVuSans-97"/>
     <use x="1008.544922" xlink:href="#DejaVuSans-108"/>
    </g>
   </g>
  </g>
  <g id="axes_4">
   <g id="patch_17">
    <path d="M 281.285595 303.64 
L 442.640885 303.64 
L 442.640885 199.104 
L 281.285595 199.104 
z
" style="fill:#ffffff;"/>
   </g>
   <g id="matplotlib.axis_7">
    <g id="xtick_14">
     <g id="line2d_61">
      <path clip-path="url(#p79c12d6ad4)" d="M 281.285595 303.64 
L 281.285595 199.104 
" style="fill:none;stroke:#b0b0b0;stroke-linecap:square;stroke-width:0.8;"/>
     </g>
     <g id="line2d_62">
      <g>
       <use style="stroke:#000000;stroke-width:0.8;" x="281.285595" xlink:href="#m96b80afe8c" y="303.64"/>
      </g>
     </g>
     <g id="text_38">
      <!-- 0 -->
      <g transform="translate(278.104345 318.238437)scale(0.1 -0.1)">
       <use xlink:href="#DejaVuSans-48"/>
      </g>
     </g>
    </g>
    <g id="xtick_15">
     <g id="line2d_63">
      <path clip-path="url(#p79c12d6ad4)" d="M 334.362993 303.64 
L 334.362993 199.104 
" style="fill:none;stroke:#b0b0b0;stroke-linecap:square;stroke-width:0.8;"/>
     </g>
     <g id="line2d_64">
      <g>
       <use style="stroke:#000000;stroke-width:0.8;" x="334.362993" xlink:href="#m96b80afe8c" y="303.64"/>
      </g>
     </g>
     <g id="text_39">
      <!-- 200 -->
      <g transform="translate(324.819243 318.238437)scale(0.1 -0.1)">
       <use xlink:href="#DejaVuSans-50"/>
       <use x="63.623047" xlink:href="#DejaVuSans-48"/>
       <use x="127.246094" xlink:href="#DejaVuSans-48"/>
      </g>
     </g>
    </g>
    <g id="xtick_16">
     <g id="line2d_65">
      <path clip-path="url(#p79c12d6ad4)" d="M 387.440391 303.64 
L 387.440391 199.104 
" style="fill:none;stroke:#b0b0b0;stroke-linecap:square;stroke-width:0.8;"/>
     </g>
     <g id="line2d_66">
      <g>
       <use style="stroke:#000000;stroke-width:0.8;" x="387.440391" xlink:href="#m96b80afe8c" y="303.64"/>
      </g>
     </g>
     <g id="text_40">
      <!-- 400 -->
      <g transform="translate(377.896641 318.238437)scale(0.1 -0.1)">
       <use xlink:href="#DejaVuSans-52"/>
       <use x="63.623047" xlink:href="#DejaVuSans-48"/>
       <use x="127.246094" xlink:href="#DejaVuSans-48"/>
      </g>
     </g>
    </g>
    <g id="xtick_17">
     <g id="line2d_67">
      <path clip-path="url(#p79c12d6ad4)" d="M 440.517789 303.64 
L 440.517789 199.104 
" style="fill:none;stroke:#b0b0b0;stroke-linecap:square;stroke-width:0.8;"/>
     </g>
     <g id="line2d_68">
      <g>
       <use style="stroke:#000000;stroke-width:0.8;" x="440.517789" xlink:href="#m96b80afe8c" y="303.64"/>
      </g>
     </g>
     <g id="text_41">
      <!-- 600 -->
      <defs>
       <path d="M 33.015625 40.375 
Q 26.375 40.375 22.484375 35.828125 
Q 18.609375 31.296875 18.609375 23.390625 
Q 18.609375 15.53125 22.484375 10.953125 
Q 26.375 6.390625 33.015625 6.390625 
Q 39.65625 6.390625 43.53125 10.953125 
Q 47.40625 15.53125 47.40625 23.390625 
Q 47.40625 31.296875 43.53125 35.828125 
Q 39.65625 40.375 33.015625 40.375 
z
M 52.59375 71.296875 
L 52.59375 62.3125 
Q 48.875 64.0625 45.09375 64.984375 
Q 41.3125 65.921875 37.59375 65.921875 
Q 27.828125 65.921875 22.671875 59.328125 
Q 17.53125 52.734375 16.796875 39.40625 
Q 19.671875 43.65625 24.015625 45.921875 
Q 28.375 48.1875 33.59375 48.1875 
Q 44.578125 48.1875 50.953125 41.515625 
Q 57.328125 34.859375 57.328125 23.390625 
Q 57.328125 12.15625 50.6875 5.359375 
Q 44.046875 -1.421875 33.015625 -1.421875 
Q 20.359375 -1.421875 13.671875 8.265625 
Q 6.984375 17.96875 6.984375 36.375 
Q 6.984375 53.65625 15.1875 63.9375 
Q 23.390625 74.21875 37.203125 74.21875 
Q 40.921875 74.21875 44.703125 73.484375 
Q 48.484375 72.75 52.59375 71.296875 
z
" id="DejaVuSans-54"/>
      </defs>
      <g transform="translate(430.974039 318.238437)scale(0.1 -0.1)">
       <use xlink:href="#DejaVuSans-54"/>
       <use x="63.623047" xlink:href="#DejaVuSans-48"/>
       <use x="127.246094" xlink:href="#DejaVuSans-48"/>
      </g>
     </g>
    </g>
    <g id="text_42">
     <!-- Tiempo (t) -->
     <g transform="translate(335.891365 331.916562)scale(0.1 -0.1)">
      <use xlink:href="#DejaVuSans-84"/>
      <use x="61.037109" xlink:href="#DejaVuSans-105"/>
      <use x="88.820312" xlink:href="#DejaVuSans-101"/>
      <use x="150.34375" xlink:href="#DejaVuSans-109"/>
      <use x="247.755859" xlink:href="#DejaVuSans-112"/>
      <use x="311.232422" xlink:href="#DejaVuSans-111"/>
      <use x="372.414062" xlink:href="#DejaVuSans-32"/>
      <use x="404.201172" xlink:href="#DejaVuSans-40"/>
      <use x="443.214844" xlink:href="#DejaVuSans-116"/>
      <use x="482.423828" xlink:href="#DejaVuSans-41"/>
     </g>
    </g>
   </g>
   <g id="matplotlib.axis_8">
    <g id="ytick_16">
     <g id="line2d_69">
      <path clip-path="url(#p79c12d6ad4)" d="M 281.285595 280.89022 
L 442.640885 280.89022 
" style="fill:none;stroke:#b0b0b0;stroke-linecap:square;stroke-width:0.8;"/>
     </g>
     <g id="line2d_70">
      <g>
       <use style="stroke:#000000;stroke-width:0.8;" x="281.285595" xlink:href="#m1142a8f58a" y="280.89022"/>
      </g>
     </g>
     <g id="text_43">
      <!-- −2 -->
      <g transform="translate(259.543408 284.689439)scale(0.1 -0.1)">
       <use xlink:href="#DejaVuSans-8722"/>
       <use x="83.789062" xlink:href="#DejaVuSans-50"/>
      </g>
     </g>
    </g>
    <g id="ytick_17">
     <g id="line2d_71">
      <path clip-path="url(#p79c12d6ad4)" d="M 281.285595 251.372 
L 442.640885 251.372 
" style="fill:none;stroke:#b0b0b0;stroke-linecap:square;stroke-width:0.8;"/>
     </g>
     <g id="line2d_72">
      <g>
       <use style="stroke:#000000;stroke-width:0.8;" x="281.285595" xlink:href="#m1142a8f58a" y="251.372"/>
      </g>
     </g>
     <g id="text_44">
      <!-- 0 -->
      <g transform="translate(267.923095 255.171219)scale(0.1 -0.1)">
       <use xlink:href="#DejaVuSans-48"/>
      </g>
     </g>
    </g>
    <g id="ytick_18">
     <g id="line2d_73">
      <path clip-path="url(#p79c12d6ad4)" d="M 281.285595 221.85378 
L 442.640885 221.85378 
" style="fill:none;stroke:#b0b0b0;stroke-linecap:square;stroke-width:0.8;"/>
     </g>
     <g id="line2d_74">
      <g>
       <use style="stroke:#000000;stroke-width:0.8;" x="281.285595" xlink:href="#m1142a8f58a" y="221.85378"/>
      </g>
     </g>
     <g id="text_45">
      <!-- 2 -->
      <g transform="translate(267.923095 225.652999)scale(0.1 -0.1)">
       <use xlink:href="#DejaVuSans-50"/>
      </g>
     </g>
    </g>
    <g id="text_46">
     <!-- Amplitud -->
     <g transform="translate(253.46372 273.918094)rotate(-90)scale(0.1 -0.1)">
      <use xlink:href="#DejaVuSans-65"/>
      <use x="68.408203" xlink:href="#DejaVuSans-109"/>
      <use x="165.820312" xlink:href="#DejaVuSans-112"/>
      <use x="229.296875" xlink:href="#DejaVuSans-108"/>
      <use x="257.080078" xlink:href="#DejaVuSans-105"/>
      <use x="284.863281" xlink:href="#DejaVuSans-116"/>
      <use x="324.072266" xlink:href="#DejaVuSans-117"/>
      <use x="387.451172" xlink:href="#DejaVuSans-100"/>
     </g>
    </g>
   </g>
   <g id="line2d_75">
    <path clip-path="url(#p79c12d6ad4)" d="M 281.285595 251.372 
L 307.824294 251.372 
L 308.089681 251.093424 
L 308.355068 250.537376 
L 308.885842 248.602766 
L 309.416616 245.598803 
L 310.212777 239.196319 
L 311.805099 224.6302 
L 312.866647 216.906627 
L 313.662808 212.519054 
L 314.458969 209.513373 
L 314.989743 208.332244 
L 315.520517 207.832597 
L 315.785904 207.841228 
L 316.051291 208.022343 
L 316.582065 208.898479 
L 317.112839 210.447132 
L 317.643613 212.64378 
L 318.439774 217.074987 
L 319.501322 224.847186 
L 320.828257 236.847494 
L 325.339836 280.428826 
L 326.401383 287.597743 
L 327.197544 291.494245 
L 327.728318 293.305623 
L 328.259092 294.453034 
L 328.789866 294.918308 
L 329.055253 294.892416 
L 329.32064 294.69408 
L 329.851414 293.783899 
L 330.382188 292.202177 
L 330.912962 289.973959 
L 331.709123 285.499293 
L 332.770671 277.678777 
L 334.097606 265.637691 
L 338.609185 222.111462 
L 339.670733 214.994714 
L 340.466894 211.143818 
L 340.997668 209.365043 
L 341.528442 208.251396 
L 341.793829 207.949927 
L 342.059216 207.820513 
L 342.324603 207.863665 
L 342.58999 208.079214 
L 343.120764 209.023404 
L 343.651538 210.638132 
L 344.182312 212.897832 
L 344.978473 217.415779 
L 346.040021 225.284303 
L 347.366956 237.365689 
L 351.613148 278.758364 
L 352.674696 286.334231 
L 353.470856 290.589863 
L 354.00163 292.659374 
L 354.532404 294.075148 
L 355.063178 294.81477 
L 355.328565 294.92694 
L 355.593952 294.866529 
L 355.859339 294.633777 
L 356.390113 293.655615 
L 356.920887 292.007944 
L 357.451661 289.716852 
L 358.247822 285.155803 
L 359.30937 277.239583 
L 360.636305 265.118375 
L 364.882497 223.772941 
L 365.944045 216.246913 
L 366.740206 212.0356 
L 367.27098 209.998083 
L 367.801754 208.615671 
L 368.332528 207.910254 
L 368.597915 207.815333 
L 368.863302 207.893001 
L 369.128689 208.142948 
L 369.659463 209.155042 
L 370.190237 210.83559 
L 370.986398 214.548763 
L 371.782559 219.571635 
L 372.844107 227.991394 
L 374.171042 240.518596 
L 377.88646 277.018443 
L 378.948008 284.982046 
L 379.744169 289.586017 
L 380.540329 292.830822 
L 381.071103 294.179815 
L 381.601877 294.850999 
L 381.867264 294.928667 
L 382.132651 294.833746 
L 382.398038 294.566614 
L 382.928812 293.520628 
L 383.459586 291.807269 
L 384.255747 288.048038 
L 385.051908 282.984344 
L 386.113456 274.520776 
L 387.440391 261.959615 
L 391.155809 225.504417 
L 392.217357 217.588197 
L 393.013518 213.027148 
L 393.809679 209.829918 
L 394.340453 208.514395 
L 394.871227 207.877471 
L 395.136614 207.81706 
L 395.402001 207.92923 
L 395.667388 208.213536 
L 396.198162 209.293374 
L 396.728936 211.039475 
L 397.525097 214.844614 
L 398.321258 219.94893 
L 399.382806 228.455972 
L 400.709741 241.050592 
L 404.159772 275.213478 
L 405.22132 283.544619 
L 406.017481 288.485251 
L 406.813641 292.105868 
L 407.344415 293.720596 
L 407.875189 294.664786 
L 408.140576 294.880335 
L 408.405963 294.923487 
L 408.67135 294.794073 
L 408.936737 294.492604 
L 409.467511 293.378957 
L 409.998285 291.600182 
L 410.794446 287.749286 
L 411.590607 282.604551 
L 412.652155 274.054371 
L 413.97909 261.426791 
L 417.429121 227.301499 
L 418.490669 219.015164 
L 419.28683 214.115947 
L 420.082991 210.541823 
L 420.613765 208.960101 
L 421.144539 208.04992 
L 421.409926 207.851584 
L 421.675313 207.825692 
L 421.9407 207.972346 
L 422.471474 208.780289 
L 423.002248 210.26262 
L 423.533022 212.395869 
L 424.329183 216.739633 
L 425.125344 222.315174 
L 426.186892 231.317124 
L 427.779214 246.991826 
L 430.433084 273.348045 
L 431.494632 282.025595 
L 432.290793 287.290357 
L 433.086954 291.277604 
L 433.617728 293.153972 
L 434.148501 294.368773 
L 434.679275 294.902772 
L 434.944662 294.911403 
L 435.210049 294.747515 
L 435.740823 293.905459 
L 436.271597 292.389937 
L 436.802371 290.224946 
L 437.598532 285.837373 
L 438.394693 280.223964 
L 439.456241 271.183052 
L 441.048563 257.145197 
L 441.579337 254.141234 
L 442.110111 252.206624 
L 442.375498 251.650576 
L 442.640885 251.372 
L 442.640885 251.372 
" style="fill:none;stroke:#1f77b4;stroke-linecap:square;stroke-width:1.5;"/>
   </g>
   <g id="patch_18">
    <path d="M 281.285595 303.64 
L 281.285595 199.104 
" style="fill:none;stroke:#000000;stroke-linecap:square;stroke-linejoin:miter;stroke-width:0.8;"/>
   </g>
   <g id="patch_19">
    <path d="M 442.640885 303.64 
L 442.640885 199.104 
" style="fill:none;stroke:#000000;stroke-linecap:square;stroke-linejoin:miter;stroke-width:0.8;"/>
   </g>
   <g id="patch_20">
    <path d="M 281.285595 303.64 
L 442.640885 303.64 
" style="fill:none;stroke:#000000;stroke-linecap:square;stroke-linejoin:miter;stroke-width:0.8;"/>
   </g>
   <g id="patch_21">
    <path d="M 281.285595 199.104 
L 442.640885 199.104 
" style="fill:none;stroke:#000000;stroke-linecap:square;stroke-linejoin:miter;stroke-width:0.8;"/>
   </g>
   <g id="text_47">
    <!-- Convolución con Factor 0.3 -->
    <g transform="translate(280.22449 179.666625)scale(0.12 -0.12)">
     <use xlink:href="#DejaVuSans-67"/>
     <use x="69.824219" xlink:href="#DejaVuSans-111"/>
     <use x="131.005859" xlink:href="#DejaVuSans-110"/>
     <use x="194.384766" xlink:href="#DejaVuSans-118"/>
     <use x="253.564453" xlink:href="#DejaVuSans-111"/>
     <use x="314.746094" xlink:href="#DejaVuSans-108"/>
     <use x="342.529297" xlink:href="#DejaVuSans-117"/>
     <use x="405.908203" xlink:href="#DejaVuSans-99"/>
     <use x="460.888672" xlink:href="#DejaVuSans-105"/>
     <use x="488.671875" xlink:href="#DejaVuSans-243"/>
     <use x="549.853516" xlink:href="#DejaVuSans-110"/>
     <use x="613.232422" xlink:href="#DejaVuSans-32"/>
     <use x="645.019531" xlink:href="#DejaVuSans-99"/>
     <use x="700" xlink:href="#DejaVuSans-111"/>
     <use x="761.181641" xlink:href="#DejaVuSans-110"/>
     <use x="824.560547" xlink:href="#DejaVuSans-32"/>
     <use x="856.347656" xlink:href="#DejaVuSans-70"/>
     <use x="913.726562" xlink:href="#DejaVuSans-97"/>
     <use x="975.005859" xlink:href="#DejaVuSans-99"/>
     <use x="1029.986328" xlink:href="#DejaVuSans-116"/>
     <use x="1069.195312" xlink:href="#DejaVuSans-111"/>
     <use x="1130.376953" xlink:href="#DejaVuSans-114"/>
     <use x="1171.490234" xlink:href="#DejaVuSans-32"/>
     <use x="1203.277344" xlink:href="#DejaVuSans-48"/>
     <use x="1266.900391" xlink:href="#DejaVuSans-46"/>
     <use x="1298.6875" xlink:href="#DejaVuSans-51"/>
    </g>
    <!-- y Corrimento 90s -->
    <defs>
     <path d="M 32.171875 -5.078125 
Q 28.375 -14.84375 24.75 -17.8125 
Q 21.140625 -20.796875 15.09375 -20.796875 
L 7.90625 -20.796875 
L 7.90625 -13.28125 
L 13.1875 -13.28125 
Q 16.890625 -13.28125 18.9375 -11.515625 
Q 21 -9.765625 23.484375 -3.21875 
L 25.09375 0.875 
L 2.984375 54.6875 
L 12.5 54.6875 
L 29.59375 11.921875 
L 46.6875 54.6875 
L 56.203125 54.6875 
z
" id="DejaVuSans-121"/>
     <path d="M 10.984375 1.515625 
L 10.984375 10.5 
Q 14.703125 8.734375 18.5 7.8125 
Q 22.3125 6.890625 25.984375 6.890625 
Q 35.75 6.890625 40.890625 13.453125 
Q 46.046875 20.015625 46.78125 33.40625 
Q 43.953125 29.203125 39.59375 26.953125 
Q 35.25 24.703125 29.984375 24.703125 
Q 19.046875 24.703125 12.671875 31.3125 
Q 6.296875 37.9375 6.296875 49.421875 
Q 6.296875 60.640625 12.9375 67.421875 
Q 19.578125 74.21875 30.609375 74.21875 
Q 43.265625 74.21875 49.921875 64.515625 
Q 56.59375 54.828125 56.59375 36.375 
Q 56.59375 19.140625 48.40625 8.859375 
Q 40.234375 -1.421875 26.421875 -1.421875 
Q 22.703125 -1.421875 18.890625 -0.6875 
Q 15.09375 0.046875 10.984375 1.515625 
z
M 30.609375 32.421875 
Q 37.25 32.421875 41.125 36.953125 
Q 45.015625 41.5 45.015625 49.421875 
Q 45.015625 57.28125 41.125 61.84375 
Q 37.25 66.40625 30.609375 66.40625 
Q 23.96875 66.40625 20.09375 61.84375 
Q 16.21875 57.28125 16.21875 49.421875 
Q 16.21875 41.5 20.09375 36.953125 
Q 23.96875 32.421875 30.609375 32.421875 
z
" id="DejaVuSans-57"/>
    </defs>
    <g transform="translate(310.015428 193.104)scale(0.12 -0.12)">
     <use xlink:href="#DejaVuSans-121"/>
     <use x="59.179688" xlink:href="#DejaVuSans-32"/>
     <use x="90.966797" xlink:href="#DejaVuSans-67"/>
     <use x="160.791016" xlink:href="#DejaVuSans-111"/>
     <use x="221.972656" xlink:href="#DejaVuSans-114"/>
     <use x="263.070312" xlink:href="#DejaVuSans-114"/>
     <use x="304.183594" xlink:href="#DejaVuSans-105"/>
     <use x="331.966797" xlink:href="#DejaVuSans-109"/>
     <use x="429.378906" xlink:href="#DejaVuSans-101"/>
     <use x="490.902344" xlink:href="#DejaVuSans-110"/>
     <use x="554.28125" xlink:href="#DejaVuSans-116"/>
     <use x="593.490234" xlink:href="#DejaVuSans-111"/>
     <use x="654.671875" xlink:href="#DejaVuSans-32"/>
     <use x="686.458984" xlink:href="#DejaVuSans-57"/>
     <use x="750.082031" xlink:href="#DejaVuSans-48"/>
     <use x="813.705078" xlink:href="#DejaVuSans-115"/>
    </g>
   </g>
  </g>
 </g>
 <defs>
  <clipPath id="p5ae2868a02">
   <rect height="104.536" width="161.35529" x="56.09" y="25.44"/>
  </clipPath>
  <clipPath id="paeb437399e">
   <rect height="104.536" width="161.35529" x="281.285595" y="25.44"/>
  </clipPath>
  <clipPath id="pc164d4abca">
   <rect height="104.536" width="161.35529" x="56.09" y="199.104"/>
  </clipPath>
  <clipPath id="p79c12d6ad4">
   <rect height="104.536" width="161.35529" x="281.285595" y="199.104"/>
  </clipPath>
 </defs>
</svg>
