<?xml version="1.0" encoding="utf-8" standalone="no"?>
<!DOCTYPE svg PUBLIC "-//W3C//DTD SVG 1.1//EN"
  "http://www.w3.org/Graphics/SVG/1.1/DTD/svg11.dtd">
<!-- Created with matplotlib (https://matplotlib.org/) -->
<svg height="345.6pt" version="1.1" viewBox="0 0 460.8 345.6" width="460.8pt" xmlns="http://www.w3.org/2000/svg" xmlns:xlink="http://www.w3.org/1999/xlink">
 <defs>
  <style type="text/css">
*{stroke-linecap:butt;stroke-linejoin:round;}
  </style>
 </defs>
 <g id="figure_1">
  <g id="patch_1">
   <path d="M 0 345.6 
L 460.8 345.6 
L 460.8 0 
L 0 0 
z
" style="fill:#ffffff;"/>
  </g>
  <g id="axes_1">
   <g id="patch_2">
    <path d="M 56.09 129.976 
L 223.014847 129.976 
L 223.014847 25.44 
L 56.09 25.44 
z
" style="fill:#ffffff;"/>
   </g>
   <g id="matplotlib.axis_1">
    <g id="xtick_1">
     <g id="line2d_1">
      <path clip-path="url(#p7be6e86166)" d="M 56.09 129.976 
L 56.09 25.44 
" style="fill:none;stroke:#b0b0b0;stroke-linecap:square;stroke-width:0.8;"/>
     </g>
     <g id="line2d_2">
      <defs>
       <path d="M 0 0 
L 0 3.5 
" id="mdab3eba101" style="stroke:#000000;stroke-width:0.8;"/>
      </defs>
      <g>
       <use style="stroke:#000000;stroke-width:0.8;" x="56.09" xlink:href="#mdab3eba101" y="129.976"/>
      </g>
     </g>
     <g id="text_1">
      <!-- 0 -->
      <defs>
       <path d="M 31.78125 66.40625 
Q 24.171875 66.40625 20.328125 58.90625 
Q 16.5 51.421875 16.5 36.375 
Q 16.5 21.390625 20.328125 13.890625 
Q 24.171875 6.390625 31.78125 6.390625 
Q 39.453125 6.390625 43.28125 13.890625 
Q 47.125 21.390625 47.125 36.375 
Q 47.125 51.421875 43.28125 58.90625 
Q 39.453125 66.40625 31.78125 66.40625 
z
M 31.78125 74.21875 
Q 44.046875 74.21875 50.515625 64.515625 
Q 56.984375 54.828125 56.984375 36.375 
Q 56.984375 17.96875 50.515625 8.265625 
Q 44.046875 -1.421875 31.78125 -1.421875 
Q 19.53125 -1.421875 13.0625 8.265625 
Q 6.59375 17.96875 6.59375 36.375 
Q 6.59375 54.828125 13.0625 64.515625 
Q 19.53125 74.21875 31.78125 74.21875 
z
" id="DejaVuSans-48"/>
      </defs>
      <g transform="translate(52.90875 144.574437)scale(0.1 -0.1)">
       <use xlink:href="#DejaVuSans-48"/>
      </g>
     </g>
    </g>
    <g id="xtick_2">
     <g id="line2d_3">
      <path clip-path="url(#p7be6e86166)" d="M 89.541873 129.976 
L 89.541873 25.44 
" style="fill:none;stroke:#b0b0b0;stroke-linecap:square;stroke-width:0.8;"/>
     </g>
     <g id="line2d_4">
      <g>
       <use style="stroke:#000000;stroke-width:0.8;" x="89.541873" xlink:href="#mdab3eba101" y="129.976"/>
      </g>
     </g>
     <g id="text_2">
      <!-- 100 -->
      <defs>
       <path d="M 12.40625 8.296875 
L 28.515625 8.296875 
L 28.515625 63.921875 
L 10.984375 60.40625 
L 10.984375 69.390625 
L 28.421875 72.90625 
L 38.28125 72.90625 
L 38.28125 8.296875 
L 54.390625 8.296875 
L 54.390625 0 
L 12.40625 0 
z
" id="DejaVuSans-49"/>
      </defs>
      <g transform="translate(79.998123 144.574437)scale(0.1 -0.1)">
       <use xlink:href="#DejaVuSans-49"/>
       <use x="63.623047" xlink:href="#DejaVuSans-48"/>
       <use x="127.246094" xlink:href="#DejaVuSans-48"/>
      </g>
     </g>
    </g>
    <g id="xtick_3">
     <g id="line2d_5">
      <path clip-path="url(#p7be6e86166)" d="M 122.993746 129.976 
L 122.993746 25.44 
" style="fill:none;stroke:#b0b0b0;stroke-linecap:square;stroke-width:0.8;"/>
     </g>
     <g id="line2d_6">
      <g>
       <use style="stroke:#000000;stroke-width:0.8;" x="122.993746" xlink:href="#mdab3eba101" y="129.976"/>
      </g>
     </g>
     <g id="text_3">
      <!-- 200 -->
      <defs>
       <path d="M 19.1875 8.296875 
L 53.609375 8.296875 
L 53.609375 0 
L 7.328125 0 
L 7.328125 8.296875 
Q 12.9375 14.109375 22.625 23.890625 
Q 32.328125 33.6875 34.8125 36.53125 
Q 39.546875 41.84375 41.421875 45.53125 
Q 43.3125 49.21875 43.3125 52.78125 
Q 43.3125 58.59375 39.234375 62.25 
Q 35.15625 65.921875 28.609375 65.921875 
Q 23.96875 65.921875 18.8125 64.3125 
Q 13.671875 62.703125 7.8125 59.421875 
L 7.8125 69.390625 
Q 13.765625 71.78125 18.9375 73 
Q 24.125 74.21875 28.421875 74.21875 
Q 39.75 74.21875 46.484375 68.546875 
Q 53.21875 62.890625 53.21875 53.421875 
Q 53.21875 48.921875 51.53125 44.890625 
Q 49.859375 40.875 45.40625 35.40625 
Q 44.1875 33.984375 37.640625 27.21875 
Q 31.109375 20.453125 19.1875 8.296875 
z
" id="DejaVuSans-50"/>
      </defs>
      <g transform="translate(113.449996 144.574437)scale(0.1 -0.1)">
       <use xlink:href="#DejaVuSans-50"/>
       <use x="63.623047" xlink:href="#DejaVuSans-48"/>
       <use x="127.246094" xlink:href="#DejaVuSans-48"/>
      </g>
     </g>
    </g>
    <g id="xtick_4">
     <g id="line2d_7">
      <path clip-path="url(#p7be6e86166)" d="M 156.44562 129.976 
L 156.44562 25.44 
" style="fill:none;stroke:#b0b0b0;stroke-linecap:square;stroke-width:0.8;"/>
     </g>
     <g id="line2d_8">
      <g>
       <use style="stroke:#000000;stroke-width:0.8;" x="156.44562" xlink:href="#mdab3eba101" y="129.976"/>
      </g>
     </g>
     <g id="text_4">
      <!-- 300 -->
      <defs>
       <path d="M 40.578125 39.3125 
Q 47.65625 37.796875 51.625 33 
Q 55.609375 28.21875 55.609375 21.1875 
Q 55.609375 10.40625 48.1875 4.484375 
Q 40.765625 -1.421875 27.09375 -1.421875 
Q 22.515625 -1.421875 17.65625 -0.515625 
Q 12.796875 0.390625 7.625 2.203125 
L 7.625 11.71875 
Q 11.71875 9.328125 16.59375 8.109375 
Q 21.484375 6.890625 26.8125 6.890625 
Q 36.078125 6.890625 40.9375 10.546875 
Q 45.796875 14.203125 45.796875 21.1875 
Q 45.796875 27.640625 41.28125 31.265625 
Q 36.765625 34.90625 28.71875 34.90625 
L 20.21875 34.90625 
L 20.21875 43.015625 
L 29.109375 43.015625 
Q 36.375 43.015625 40.234375 45.921875 
Q 44.09375 48.828125 44.09375 54.296875 
Q 44.09375 59.90625 40.109375 62.90625 
Q 36.140625 65.921875 28.71875 65.921875 
Q 24.65625 65.921875 20.015625 65.03125 
Q 15.375 64.15625 9.8125 62.3125 
L 9.8125 71.09375 
Q 15.4375 72.65625 20.34375 73.4375 
Q 25.25 74.21875 29.59375 74.21875 
Q 40.828125 74.21875 47.359375 69.109375 
Q 53.90625 64.015625 53.90625 55.328125 
Q 53.90625 49.265625 50.4375 45.09375 
Q 46.96875 40.921875 40.578125 39.3125 
z
" id="DejaVuSans-51"/>
      </defs>
      <g transform="translate(146.90187 144.574437)scale(0.1 -0.1)">
       <use xlink:href="#DejaVuSans-51"/>
       <use x="63.623047" xlink:href="#DejaVuSans-48"/>
       <use x="127.246094" xlink:href="#DejaVuSans-48"/>
      </g>
     </g>
    </g>
    <g id="xtick_5">
     <g id="line2d_9">
      <path clip-path="url(#p7be6e86166)" d="M 189.897493 129.976 
L 189.897493 25.44 
" style="fill:none;stroke:#b0b0b0;stroke-linecap:square;stroke-width:0.8;"/>
     </g>
     <g id="line2d_10">
      <g>
       <use style="stroke:#000000;stroke-width:0.8;" x="189.897493" xlink:href="#mdab3eba101" y="129.976"/>
      </g>
     </g>
     <g id="text_5">
      <!-- 400 -->
      <defs>
       <path d="M 37.796875 64.3125 
L 12.890625 25.390625 
L 37.796875 25.390625 
z
M 35.203125 72.90625 
L 47.609375 72.90625 
L 47.609375 25.390625 
L 58.015625 25.390625 
L 58.015625 17.1875 
L 47.609375 17.1875 
L 47.609375 0 
L 37.796875 0 
L 37.796875 17.1875 
L 4.890625 17.1875 
L 4.890625 26.703125 
z
" id="DejaVuSans-52"/>
      </defs>
      <g transform="translate(180.353743 144.574437)scale(0.1 -0.1)">
       <use xlink:href="#DejaVuSans-52"/>
       <use x="63.623047" xlink:href="#DejaVuSans-48"/>
       <use x="127.246094" xlink:href="#DejaVuSans-48"/>
      </g>
     </g>
    </g>
    <g id="xtick_6">
     <g id="line2d_11">
      <path clip-path="url(#p7be6e86166)" d="M 223.349366 129.976 
L 223.349366 25.44 
" style="fill:none;stroke:#b0b0b0;stroke-linecap:square;stroke-width:0.8;"/>
     </g>
     <g id="line2d_12">
      <g>
       <use style="stroke:#000000;stroke-width:0.8;" x="223.349366" xlink:href="#mdab3eba101" y="129.976"/>
      </g>
     </g>
     <g id="text_6">
      <!-- 500 -->
      <defs>
       <path d="M 10.796875 72.90625 
L 49.515625 72.90625 
L 49.515625 64.59375 
L 19.828125 64.59375 
L 19.828125 46.734375 
Q 21.96875 47.46875 24.109375 47.828125 
Q 26.265625 48.1875 28.421875 48.1875 
Q 40.625 48.1875 47.75 41.5 
Q 54.890625 34.8125 54.890625 23.390625 
Q 54.890625 11.625 47.5625 5.09375 
Q 40.234375 -1.421875 26.90625 -1.421875 
Q 22.3125 -1.421875 17.546875 -0.640625 
Q 12.796875 0.140625 7.71875 1.703125 
L 7.71875 11.625 
Q 12.109375 9.234375 16.796875 8.0625 
Q 21.484375 6.890625 26.703125 6.890625 
Q 35.15625 6.890625 40.078125 11.328125 
Q 45.015625 15.765625 45.015625 23.390625 
Q 45.015625 31 40.078125 35.4375 
Q 35.15625 39.890625 26.703125 39.890625 
Q 22.75 39.890625 18.8125 39.015625 
Q 14.890625 38.140625 10.796875 36.28125 
z
" id="DejaVuSans-53"/>
      </defs>
      <g transform="translate(213.805616 144.574437)scale(0.1 -0.1)">
       <use xlink:href="#DejaVuSans-53"/>
       <use x="63.623047" xlink:href="#DejaVuSans-48"/>
       <use x="127.246094" xlink:href="#DejaVuSans-48"/>
      </g>
     </g>
    </g>
    <g id="text_7">
     <!-- Tiempo (t) -->
     <defs>
      <path d="M -0.296875 72.90625 
L 61.375 72.90625 
L 61.375 64.59375 
L 35.5 64.59375 
L 35.5 0 
L 25.59375 0 
L 25.59375 64.59375 
L -0.296875 64.59375 
z
" id="DejaVuSans-84"/>
      <path d="M 9.421875 54.6875 
L 18.40625 54.6875 
L 18.40625 0 
L 9.421875 0 
z
M 9.421875 75.984375 
L 18.40625 75.984375 
L 18.40625 64.59375 
L 9.421875 64.59375 
z
" id="DejaVuSans-105"/>
      <path d="M 56.203125 29.59375 
L 56.203125 25.203125 
L 14.890625 25.203125 
Q 15.484375 15.921875 20.484375 11.0625 
Q 25.484375 6.203125 34.421875 6.203125 
Q 39.59375 6.203125 44.453125 7.46875 
Q 49.3125 8.734375 54.109375 11.28125 
L 54.109375 2.78125 
Q 49.265625 0.734375 44.1875 -0.34375 
Q 39.109375 -1.421875 33.890625 -1.421875 
Q 20.796875 -1.421875 13.15625 6.1875 
Q 5.515625 13.8125 5.515625 26.8125 
Q 5.515625 40.234375 12.765625 48.109375 
Q 20.015625 56 32.328125 56 
Q 43.359375 56 49.78125 48.890625 
Q 56.203125 41.796875 56.203125 29.59375 
z
M 47.21875 32.234375 
Q 47.125 39.59375 43.09375 43.984375 
Q 39.0625 48.390625 32.421875 48.390625 
Q 24.90625 48.390625 20.390625 44.140625 
Q 15.875 39.890625 15.1875 32.171875 
z
" id="DejaVuSans-101"/>
      <path d="M 52 44.1875 
Q 55.375 50.25 60.0625 53.125 
Q 64.75 56 71.09375 56 
Q 79.640625 56 84.28125 50.015625 
Q 88.921875 44.046875 88.921875 33.015625 
L 88.921875 0 
L 79.890625 0 
L 79.890625 32.71875 
Q 79.890625 40.578125 77.09375 44.375 
Q 74.3125 48.1875 68.609375 48.1875 
Q 61.625 48.1875 57.5625 43.546875 
Q 53.515625 38.921875 53.515625 30.90625 
L 53.515625 0 
L 44.484375 0 
L 44.484375 32.71875 
Q 44.484375 40.625 41.703125 44.40625 
Q 38.921875 48.1875 33.109375 48.1875 
Q 26.21875 48.1875 22.15625 43.53125 
Q 18.109375 38.875 18.109375 30.90625 
L 18.109375 0 
L 9.078125 0 
L 9.078125 54.6875 
L 18.109375 54.6875 
L 18.109375 46.1875 
Q 21.1875 51.21875 25.484375 53.609375 
Q 29.78125 56 35.6875 56 
Q 41.65625 56 45.828125 52.96875 
Q 50 49.953125 52 44.1875 
z
" id="DejaVuSans-109"/>
      <path d="M 18.109375 8.203125 
L 18.109375 -20.796875 
L 9.078125 -20.796875 
L 9.078125 54.6875 
L 18.109375 54.6875 
L 18.109375 46.390625 
Q 20.953125 51.265625 25.265625 53.625 
Q 29.59375 56 35.59375 56 
Q 45.5625 56 51.78125 48.09375 
Q 58.015625 40.1875 58.015625 27.296875 
Q 58.015625 14.40625 51.78125 6.484375 
Q 45.5625 -1.421875 35.59375 -1.421875 
Q 29.59375 -1.421875 25.265625 0.953125 
Q 20.953125 3.328125 18.109375 8.203125 
z
M 48.6875 27.296875 
Q 48.6875 37.203125 44.609375 42.84375 
Q 40.53125 48.484375 33.40625 48.484375 
Q 26.265625 48.484375 22.1875 42.84375 
Q 18.109375 37.203125 18.109375 27.296875 
Q 18.109375 17.390625 22.1875 11.75 
Q 26.265625 6.109375 33.40625 6.109375 
Q 40.53125 6.109375 44.609375 11.75 
Q 48.6875 17.390625 48.6875 27.296875 
z
" id="DejaVuSans-112"/>
      <path d="M 30.609375 48.390625 
Q 23.390625 48.390625 19.1875 42.75 
Q 14.984375 37.109375 14.984375 27.296875 
Q 14.984375 17.484375 19.15625 11.84375 
Q 23.34375 6.203125 30.609375 6.203125 
Q 37.796875 6.203125 41.984375 11.859375 
Q 46.1875 17.53125 46.1875 27.296875 
Q 46.1875 37.015625 41.984375 42.703125 
Q 37.796875 48.390625 30.609375 48.390625 
z
M 30.609375 56 
Q 42.328125 56 49.015625 48.375 
Q 55.71875 40.765625 55.71875 27.296875 
Q 55.71875 13.875 49.015625 6.21875 
Q 42.328125 -1.421875 30.609375 -1.421875 
Q 18.84375 -1.421875 12.171875 6.21875 
Q 5.515625 13.875 5.515625 27.296875 
Q 5.515625 40.765625 12.171875 48.375 
Q 18.84375 56 30.609375 56 
z
" id="DejaVuSans-111"/>
      <path id="DejaVuSans-32"/>
      <path d="M 31 75.875 
Q 24.46875 64.65625 21.28125 53.65625 
Q 18.109375 42.671875 18.109375 31.390625 
Q 18.109375 20.125 21.3125 9.0625 
Q 24.515625 -2 31 -13.1875 
L 23.1875 -13.1875 
Q 15.875 -1.703125 12.234375 9.375 
Q 8.59375 20.453125 8.59375 31.390625 
Q 8.59375 42.28125 12.203125 53.3125 
Q 15.828125 64.359375 23.1875 75.875 
z
" id="DejaVuSans-40"/>
      <path d="M 18.3125 70.21875 
L 18.3125 54.6875 
L 36.8125 54.6875 
L 36.8125 47.703125 
L 18.3125 47.703125 
L 18.3125 18.015625 
Q 18.3125 11.328125 20.140625 9.421875 
Q 21.96875 7.515625 27.59375 7.515625 
L 36.8125 7.515625 
L 36.8125 0 
L 27.59375 0 
Q 17.1875 0 13.234375 3.875 
Q 9.28125 7.765625 9.28125 18.015625 
L 9.28125 47.703125 
L 2.6875 47.703125 
L 2.6875 54.6875 
L 9.28125 54.6875 
L 9.28125 70.21875 
z
" id="DejaVuSans-116"/>
      <path d="M 8.015625 75.875 
L 15.828125 75.875 
Q 23.140625 64.359375 26.78125 53.3125 
Q 30.421875 42.28125 30.421875 31.390625 
Q 30.421875 20.453125 26.78125 9.375 
Q 23.140625 -1.703125 15.828125 -13.1875 
L 8.015625 -13.1875 
Q 14.5 -2 17.703125 9.0625 
Q 20.90625 20.125 20.90625 31.390625 
Q 20.90625 42.671875 17.703125 53.65625 
Q 14.5 64.65625 8.015625 75.875 
z
" id="DejaVuSans-41"/>
     </defs>
     <g transform="translate(113.480549 158.252562)scale(0.1 -0.1)">
      <use xlink:href="#DejaVuSans-84"/>
      <use x="61.037109" xlink:href="#DejaVuSans-105"/>
      <use x="88.820312" xlink:href="#DejaVuSans-101"/>
      <use x="150.34375" xlink:href="#DejaVuSans-109"/>
      <use x="247.755859" xlink:href="#DejaVuSans-112"/>
      <use x="311.232422" xlink:href="#DejaVuSans-111"/>
      <use x="372.414062" xlink:href="#DejaVuSans-32"/>
      <use x="404.201172" xlink:href="#DejaVuSans-40"/>
      <use x="443.214844" xlink:href="#DejaVuSans-116"/>
      <use x="482.423828" xlink:href="#DejaVuSans-41"/>
     </g>
    </g>
   </g>
   <g id="matplotlib.axis_2">
    <g id="ytick_1">
     <g id="line2d_13">
      <path clip-path="url(#p7be6e86166)" d="M 56.09 121.264667 
L 223.014847 121.264667 
" style="fill:none;stroke:#b0b0b0;stroke-linecap:square;stroke-width:0.8;"/>
     </g>
     <g id="line2d_14">
      <defs>
       <path d="M 0 0 
L -3.5 0 
" id="m394b9bfc69" style="stroke:#000000;stroke-width:0.8;"/>
      </defs>
      <g>
       <use style="stroke:#000000;stroke-width:0.8;" x="56.09" xlink:href="#m394b9bfc69" y="121.264667"/>
      </g>
     </g>
     <g id="text_8">
      <!-- −1.0 -->
      <defs>
       <path d="M 10.59375 35.5 
L 73.1875 35.5 
L 73.1875 27.203125 
L 10.59375 27.203125 
z
" id="DejaVuSans-8722"/>
       <path d="M 10.6875 12.40625 
L 21 12.40625 
L 21 0 
L 10.6875 0 
z
" id="DejaVuSans-46"/>
      </defs>
      <g transform="translate(24.807188 125.063885)scale(0.1 -0.1)">
       <use xlink:href="#DejaVuSans-8722"/>
       <use x="83.789062" xlink:href="#DejaVuSans-49"/>
       <use x="147.412109" xlink:href="#DejaVuSans-46"/>
       <use x="179.199219" xlink:href="#DejaVuSans-48"/>
      </g>
     </g>
    </g>
    <g id="ytick_2">
     <g id="line2d_15">
      <path clip-path="url(#p7be6e86166)" d="M 56.09 99.442602 
L 223.014847 99.442602 
" style="fill:none;stroke:#b0b0b0;stroke-linecap:square;stroke-width:0.8;"/>
     </g>
     <g id="line2d_16">
      <g>
       <use style="stroke:#000000;stroke-width:0.8;" x="56.09" xlink:href="#m394b9bfc69" y="99.442602"/>
      </g>
     </g>
     <g id="text_9">
      <!-- −0.5 -->
      <g transform="translate(24.807188 103.24182)scale(0.1 -0.1)">
       <use xlink:href="#DejaVuSans-8722"/>
       <use x="83.789062" xlink:href="#DejaVuSans-48"/>
       <use x="147.412109" xlink:href="#DejaVuSans-46"/>
       <use x="179.199219" xlink:href="#DejaVuSans-53"/>
      </g>
     </g>
    </g>
    <g id="ytick_3">
     <g id="line2d_17">
      <path clip-path="url(#p7be6e86166)" d="M 56.09 77.620537 
L 223.014847 77.620537 
" style="fill:none;stroke:#b0b0b0;stroke-linecap:square;stroke-width:0.8;"/>
     </g>
     <g id="line2d_18">
      <g>
       <use style="stroke:#000000;stroke-width:0.8;" x="56.09" xlink:href="#m394b9bfc69" y="77.620537"/>
      </g>
     </g>
     <g id="text_10">
      <!-- 0.0 -->
      <g transform="translate(33.186875 81.419756)scale(0.1 -0.1)">
       <use xlink:href="#DejaVuSans-48"/>
       <use x="63.623047" xlink:href="#DejaVuSans-46"/>
       <use x="95.410156" xlink:href="#DejaVuSans-48"/>
      </g>
     </g>
    </g>
    <g id="ytick_4">
     <g id="line2d_19">
      <path clip-path="url(#p7be6e86166)" d="M 56.09 55.798472 
L 223.014847 55.798472 
" style="fill:none;stroke:#b0b0b0;stroke-linecap:square;stroke-width:0.8;"/>
     </g>
     <g id="line2d_20">
      <g>
       <use style="stroke:#000000;stroke-width:0.8;" x="56.09" xlink:href="#m394b9bfc69" y="55.798472"/>
      </g>
     </g>
     <g id="text_11">
      <!-- 0.5 -->
      <g transform="translate(33.186875 59.597691)scale(0.1 -0.1)">
       <use xlink:href="#DejaVuSans-48"/>
       <use x="63.623047" xlink:href="#DejaVuSans-46"/>
       <use x="95.410156" xlink:href="#DejaVuSans-53"/>
      </g>
     </g>
    </g>
    <g id="ytick_5">
     <g id="line2d_21">
      <path clip-path="url(#p7be6e86166)" d="M 56.09 33.976407 
L 223.014847 33.976407 
" style="fill:none;stroke:#b0b0b0;stroke-linecap:square;stroke-width:0.8;"/>
     </g>
     <g id="line2d_22">
      <g>
       <use style="stroke:#000000;stroke-width:0.8;" x="56.09" xlink:href="#m394b9bfc69" y="33.976407"/>
      </g>
     </g>
     <g id="text_12">
      <!-- 1.0 -->
      <g transform="translate(33.186875 37.775626)scale(0.1 -0.1)">
       <use xlink:href="#DejaVuSans-49"/>
       <use x="63.623047" xlink:href="#DejaVuSans-46"/>
       <use x="95.410156" xlink:href="#DejaVuSans-48"/>
      </g>
     </g>
    </g>
    <g id="text_13">
     <!-- Valor -->
     <defs>
      <path d="M 28.609375 0 
L 0.78125 72.90625 
L 11.078125 72.90625 
L 34.1875 11.53125 
L 57.328125 72.90625 
L 67.578125 72.90625 
L 39.796875 0 
z
" id="DejaVuSans-86"/>
      <path d="M 34.28125 27.484375 
Q 23.390625 27.484375 19.1875 25 
Q 14.984375 22.515625 14.984375 16.5 
Q 14.984375 11.71875 18.140625 8.90625 
Q 21.296875 6.109375 26.703125 6.109375 
Q 34.1875 6.109375 38.703125 11.40625 
Q 43.21875 16.703125 43.21875 25.484375 
L 43.21875 27.484375 
z
M 52.203125 31.203125 
L 52.203125 0 
L 43.21875 0 
L 43.21875 8.296875 
Q 40.140625 3.328125 35.546875 0.953125 
Q 30.953125 -1.421875 24.3125 -1.421875 
Q 15.921875 -1.421875 10.953125 3.296875 
Q 6 8.015625 6 15.921875 
Q 6 25.140625 12.171875 29.828125 
Q 18.359375 34.515625 30.609375 34.515625 
L 43.21875 34.515625 
L 43.21875 35.40625 
Q 43.21875 41.609375 39.140625 45 
Q 35.0625 48.390625 27.6875 48.390625 
Q 23 48.390625 18.546875 47.265625 
Q 14.109375 46.140625 10.015625 43.890625 
L 10.015625 52.203125 
Q 14.9375 54.109375 19.578125 55.046875 
Q 24.21875 56 28.609375 56 
Q 40.484375 56 46.34375 49.84375 
Q 52.203125 43.703125 52.203125 31.203125 
z
" id="DejaVuSans-97"/>
      <path d="M 9.421875 75.984375 
L 18.40625 75.984375 
L 18.40625 0 
L 9.421875 0 
z
" id="DejaVuSans-108"/>
      <path d="M 41.109375 46.296875 
Q 39.59375 47.171875 37.8125 47.578125 
Q 36.03125 48 33.890625 48 
Q 26.265625 48 22.1875 43.046875 
Q 18.109375 38.09375 18.109375 28.8125 
L 18.109375 0 
L 9.078125 0 
L 9.078125 54.6875 
L 18.109375 54.6875 
L 18.109375 46.1875 
Q 20.953125 51.171875 25.484375 53.578125 
Q 30.03125 56 36.53125 56 
Q 37.453125 56 38.578125 55.875 
Q 39.703125 55.765625 41.0625 55.515625 
z
" id="DejaVuSans-114"/>
     </defs>
     <g transform="translate(18.7275 90.690813)rotate(-90)scale(0.1 -0.1)">
      <use xlink:href="#DejaVuSans-86"/>
      <use x="68.298828" xlink:href="#DejaVuSans-97"/>
      <use x="129.578125" xlink:href="#DejaVuSans-108"/>
      <use x="157.361328" xlink:href="#DejaVuSans-111"/>
      <use x="218.542969" xlink:href="#DejaVuSans-114"/>
     </g>
    </g>
   </g>
   <g id="line2d_23">
    <path clip-path="url(#p7be6e86166)" d="M 56.09 121.264667 
L 72.815937 34.151333 
L 89.207354 119.865256 
L 89.541873 120.914814 
L 105.933291 35.200892 
L 106.26781 34.501186 
L 122.659228 120.215108 
L 122.993746 120.564961 
L 139.385164 34.851039 
L 139.719683 34.851039 
L 156.111101 120.564961 
L 156.44562 120.215108 
L 172.837038 34.501186 
L 173.171556 35.200892 
L 189.562974 120.914814 
L 189.897493 119.865256 
L 206.288911 34.151333 
L 206.957948 37.300008 
L 223.014847 121.264667 
L 223.014847 121.264667 
" style="fill:none;stroke:#1f77b4;stroke-linecap:square;stroke-width:1.5;"/>
   </g>
   <g id="line2d_24">
    <path clip-path="url(#p7be6e86166)" d="M 56.09 121.264667 
L 72.815937 34.151333 
L 89.207354 119.865256 
L 89.541873 120.914814 
L 105.933291 35.200892 
L 106.26781 34.501186 
L 122.659228 120.215108 
L 122.993746 120.564961 
L 139.385164 34.851039 
L 139.719683 34.851039 
L 156.111101 120.564961 
L 156.44562 120.215108 
L 172.837038 34.501186 
L 173.171556 35.200892 
L 189.562974 120.914814 
L 189.897493 119.865256 
L 206.288911 34.151333 
L 206.957948 37.300008 
L 223.014847 121.264667 
L 223.014847 121.264667 
" style="fill:none;stroke:#ff7f0e;stroke-linecap:square;stroke-width:1.5;"/>
   </g>
   <g id="patch_3">
    <path d="M 56.09 129.976 
L 56.09 25.44 
" style="fill:none;stroke:#000000;stroke-linecap:square;stroke-linejoin:miter;stroke-width:0.8;"/>
   </g>
   <g id="patch_4">
    <path d="M 223.014847 129.976 
L 223.014847 25.44 
" style="fill:none;stroke:#000000;stroke-linecap:square;stroke-linejoin:miter;stroke-width:0.8;"/>
   </g>
   <g id="patch_5">
    <path d="M 56.09 129.976 
L 223.014847 129.976 
" style="fill:none;stroke:#000000;stroke-linecap:square;stroke-linejoin:miter;stroke-width:0.8;"/>
   </g>
   <g id="patch_6">
    <path d="M 56.09 25.44 
L 223.014847 25.44 
" style="fill:none;stroke:#000000;stroke-linecap:square;stroke-linejoin:miter;stroke-width:0.8;"/>
   </g>
   <g id="text_14">
    <!-- Entrada -->
    <defs>
     <path d="M 9.8125 72.90625 
L 55.90625 72.90625 
L 55.90625 64.59375 
L 19.671875 64.59375 
L 19.671875 43.015625 
L 54.390625 43.015625 
L 54.390625 34.71875 
L 19.671875 34.71875 
L 19.671875 8.296875 
L 56.78125 8.296875 
L 56.78125 0 
L 9.8125 0 
z
" id="DejaVuSans-69"/>
     <path d="M 54.890625 33.015625 
L 54.890625 0 
L 45.90625 0 
L 45.90625 32.71875 
Q 45.90625 40.484375 42.875 44.328125 
Q 39.84375 48.1875 33.796875 48.1875 
Q 26.515625 48.1875 22.3125 43.546875 
Q 18.109375 38.921875 18.109375 30.90625 
L 18.109375 0 
L 9.078125 0 
L 9.078125 54.6875 
L 18.109375 54.6875 
L 18.109375 46.1875 
Q 21.34375 51.125 25.703125 53.5625 
Q 30.078125 56 35.796875 56 
Q 45.21875 56 50.046875 50.171875 
Q 54.890625 44.34375 54.890625 33.015625 
z
" id="DejaVuSans-110"/>
     <path d="M 45.40625 46.390625 
L 45.40625 75.984375 
L 54.390625 75.984375 
L 54.390625 0 
L 45.40625 0 
L 45.40625 8.203125 
Q 42.578125 3.328125 38.25 0.953125 
Q 33.9375 -1.421875 27.875 -1.421875 
Q 17.96875 -1.421875 11.734375 6.484375 
Q 5.515625 14.40625 5.515625 27.296875 
Q 5.515625 40.1875 11.734375 48.09375 
Q 17.96875 56 27.875 56 
Q 33.9375 56 38.25 53.625 
Q 42.578125 51.265625 45.40625 46.390625 
z
M 14.796875 27.296875 
Q 14.796875 17.390625 18.875 11.75 
Q 22.953125 6.109375 30.078125 6.109375 
Q 37.203125 6.109375 41.296875 11.75 
Q 45.40625 17.390625 45.40625 27.296875 
Q 45.40625 37.203125 41.296875 42.84375 
Q 37.203125 48.484375 30.078125 48.484375 
Q 22.953125 48.484375 18.875 42.84375 
Q 14.796875 37.203125 14.796875 27.296875 
z
" id="DejaVuSans-100"/>
    </defs>
    <g transform="translate(115.977111 19.44)scale(0.12 -0.12)">
     <use xlink:href="#DejaVuSans-69"/>
     <use x="63.183594" xlink:href="#DejaVuSans-110"/>
     <use x="126.5625" xlink:href="#DejaVuSans-116"/>
     <use x="165.771484" xlink:href="#DejaVuSans-114"/>
     <use x="206.884766" xlink:href="#DejaVuSans-97"/>
     <use x="268.164062" xlink:href="#DejaVuSans-100"/>
     <use x="331.640625" xlink:href="#DejaVuSans-97"/>
    </g>
   </g>
  </g>
  <g id="axes_2">
   <g id="patch_7">
    <path d="M 280.555153 129.976 
L 447.48 129.976 
L 447.48 25.44 
L 280.555153 25.44 
z
" style="fill:#ffffff;"/>
   </g>
   <g id="matplotlib.axis_3">
    <g id="xtick_7">
     <g id="line2d_25">
      <path clip-path="url(#p0c845d1a33)" d="M 280.555153 129.976 
L 280.555153 25.44 
" style="fill:none;stroke:#b0b0b0;stroke-linecap:square;stroke-width:0.8;"/>
     </g>
     <g id="line2d_26">
      <g>
       <use style="stroke:#000000;stroke-width:0.8;" x="280.555153" xlink:href="#mdab3eba101" y="129.976"/>
      </g>
     </g>
     <g id="text_15">
      <!-- 0 -->
      <g transform="translate(277.373903 144.574437)scale(0.1 -0.1)">
       <use xlink:href="#DejaVuSans-48"/>
      </g>
     </g>
    </g>
    <g id="xtick_8">
     <g id="line2d_27">
      <path clip-path="url(#p0c845d1a33)" d="M 314.621448 129.976 
L 314.621448 25.44 
" style="fill:none;stroke:#b0b0b0;stroke-linecap:square;stroke-width:0.8;"/>
     </g>
     <g id="line2d_28">
      <g>
       <use style="stroke:#000000;stroke-width:0.8;" x="314.621448" xlink:href="#mdab3eba101" y="129.976"/>
      </g>
     </g>
     <g id="text_16">
      <!-- 10 -->
      <g transform="translate(308.258948 144.574437)scale(0.1 -0.1)">
       <use xlink:href="#DejaVuSans-49"/>
       <use x="63.623047" xlink:href="#DejaVuSans-48"/>
      </g>
     </g>
    </g>
    <g id="xtick_9">
     <g id="line2d_29">
      <path clip-path="url(#p0c845d1a33)" d="M 348.687743 129.976 
L 348.687743 25.44 
" style="fill:none;stroke:#b0b0b0;stroke-linecap:square;stroke-width:0.8;"/>
     </g>
     <g id="line2d_30">
      <g>
       <use style="stroke:#000000;stroke-width:0.8;" x="348.687743" xlink:href="#mdab3eba101" y="129.976"/>
      </g>
     </g>
     <g id="text_17">
      <!-- 20 -->
      <g transform="translate(342.325243 144.574437)scale(0.1 -0.1)">
       <use xlink:href="#DejaVuSans-50"/>
       <use x="63.623047" xlink:href="#DejaVuSans-48"/>
      </g>
     </g>
    </g>
    <g id="xtick_10">
     <g id="line2d_31">
      <path clip-path="url(#p0c845d1a33)" d="M 382.754039 129.976 
L 382.754039 25.44 
" style="fill:none;stroke:#b0b0b0;stroke-linecap:square;stroke-width:0.8;"/>
     </g>
     <g id="line2d_32">
      <g>
       <use style="stroke:#000000;stroke-width:0.8;" x="382.754039" xlink:href="#mdab3eba101" y="129.976"/>
      </g>
     </g>
     <g id="text_18">
      <!-- 30 -->
      <g transform="translate(376.391539 144.574437)scale(0.1 -0.1)">
       <use xlink:href="#DejaVuSans-51"/>
       <use x="63.623047" xlink:href="#DejaVuSans-48"/>
      </g>
     </g>
    </g>
    <g id="xtick_11">
     <g id="line2d_33">
      <path clip-path="url(#p0c845d1a33)" d="M 416.820334 129.976 
L 416.820334 25.44 
" style="fill:none;stroke:#b0b0b0;stroke-linecap:square;stroke-width:0.8;"/>
     </g>
     <g id="line2d_34">
      <g>
       <use style="stroke:#000000;stroke-width:0.8;" x="416.820334" xlink:href="#mdab3eba101" y="129.976"/>
      </g>
     </g>
     <g id="text_19">
      <!-- 40 -->
      <g transform="translate(410.457834 144.574437)scale(0.1 -0.1)">
       <use xlink:href="#DejaVuSans-52"/>
       <use x="63.623047" xlink:href="#DejaVuSans-48"/>
      </g>
     </g>
    </g>
    <g id="text_20">
     <!-- Tiempo (t) -->
     <g transform="translate(337.945701 158.252562)scale(0.1 -0.1)">
      <use xlink:href="#DejaVuSans-84"/>
      <use x="61.037109" xlink:href="#DejaVuSans-105"/>
      <use x="88.820312" xlink:href="#DejaVuSans-101"/>
      <use x="150.34375" xlink:href="#DejaVuSans-109"/>
      <use x="247.755859" xlink:href="#DejaVuSans-112"/>
      <use x="311.232422" xlink:href="#DejaVuSans-111"/>
      <use x="372.414062" xlink:href="#DejaVuSans-32"/>
      <use x="404.201172" xlink:href="#DejaVuSans-40"/>
      <use x="443.214844" xlink:href="#DejaVuSans-116"/>
      <use x="482.423828" xlink:href="#DejaVuSans-41"/>
     </g>
    </g>
   </g>
   <g id="matplotlib.axis_4">
    <g id="ytick_6">
     <g id="line2d_35">
      <path clip-path="url(#p0c845d1a33)" d="M 280.555153 107.12792 
L 447.48 107.12792 
" style="fill:none;stroke:#b0b0b0;stroke-linecap:square;stroke-width:0.8;"/>
     </g>
     <g id="line2d_36">
      <g>
       <use style="stroke:#000000;stroke-width:0.8;" x="280.555153" xlink:href="#m394b9bfc69" y="107.12792"/>
      </g>
     </g>
     <g id="text_21">
      <!-- 0.25 -->
      <g transform="translate(251.289528 110.927139)scale(0.1 -0.1)">
       <use xlink:href="#DejaVuSans-48"/>
       <use x="63.623047" xlink:href="#DejaVuSans-46"/>
       <use x="95.410156" xlink:href="#DejaVuSans-50"/>
       <use x="159.033203" xlink:href="#DejaVuSans-53"/>
      </g>
     </g>
    </g>
    <g id="ytick_7">
     <g id="line2d_37">
      <path clip-path="url(#p0c845d1a33)" d="M 280.555153 82.802391 
L 447.48 82.802391 
" style="fill:none;stroke:#b0b0b0;stroke-linecap:square;stroke-width:0.8;"/>
     </g>
     <g id="line2d_38">
      <g>
       <use style="stroke:#000000;stroke-width:0.8;" x="280.555153" xlink:href="#m394b9bfc69" y="82.802391"/>
      </g>
     </g>
     <g id="text_22">
      <!-- 0.50 -->
      <g transform="translate(251.289528 86.60161)scale(0.1 -0.1)">
       <use xlink:href="#DejaVuSans-48"/>
       <use x="63.623047" xlink:href="#DejaVuSans-46"/>
       <use x="95.410156" xlink:href="#DejaVuSans-53"/>
       <use x="159.033203" xlink:href="#DejaVuSans-48"/>
      </g>
     </g>
    </g>
    <g id="ytick_8">
     <g id="line2d_39">
      <path clip-path="url(#p0c845d1a33)" d="M 280.555153 58.476862 
L 447.48 58.476862 
" style="fill:none;stroke:#b0b0b0;stroke-linecap:square;stroke-width:0.8;"/>
     </g>
     <g id="line2d_40">
      <g>
       <use style="stroke:#000000;stroke-width:0.8;" x="280.555153" xlink:href="#m394b9bfc69" y="58.476862"/>
      </g>
     </g>
     <g id="text_23">
      <!-- 0.75 -->
      <defs>
       <path d="M 8.203125 72.90625 
L 55.078125 72.90625 
L 55.078125 68.703125 
L 28.609375 0 
L 18.3125 0 
L 43.21875 64.59375 
L 8.203125 64.59375 
z
" id="DejaVuSans-55"/>
      </defs>
      <g transform="translate(251.289528 62.276081)scale(0.1 -0.1)">
       <use xlink:href="#DejaVuSans-48"/>
       <use x="63.623047" xlink:href="#DejaVuSans-46"/>
       <use x="95.410156" xlink:href="#DejaVuSans-55"/>
       <use x="159.033203" xlink:href="#DejaVuSans-53"/>
      </g>
     </g>
    </g>
    <g id="ytick_9">
     <g id="line2d_41">
      <path clip-path="url(#p0c845d1a33)" d="M 280.555153 34.151333 
L 447.48 34.151333 
" style="fill:none;stroke:#b0b0b0;stroke-linecap:square;stroke-width:0.8;"/>
     </g>
     <g id="line2d_42">
      <g>
       <use style="stroke:#000000;stroke-width:0.8;" x="280.555153" xlink:href="#m394b9bfc69" y="34.151333"/>
      </g>
     </g>
     <g id="text_24">
      <!-- 1.00 -->
      <g transform="translate(251.289528 37.950552)scale(0.1 -0.1)">
       <use xlink:href="#DejaVuSans-49"/>
       <use x="63.623047" xlink:href="#DejaVuSans-46"/>
       <use x="95.410156" xlink:href="#DejaVuSans-48"/>
       <use x="159.033203" xlink:href="#DejaVuSans-48"/>
      </g>
     </g>
    </g>
    <g id="text_25">
     <!-- Valor -->
     <g transform="translate(245.20984 90.690813)rotate(-90)scale(0.1 -0.1)">
      <use xlink:href="#DejaVuSans-86"/>
      <use x="68.298828" xlink:href="#DejaVuSans-97"/>
      <use x="129.578125" xlink:href="#DejaVuSans-108"/>
      <use x="157.361328" xlink:href="#DejaVuSans-111"/>
      <use x="218.542969" xlink:href="#DejaVuSans-114"/>
     </g>
    </g>
   </g>
   <g id="line2d_43">
    <path clip-path="url(#p0c845d1a33)" d="M 280.555153 34.151333 
L 283.961782 38.53065 
L 287.368412 42.712865 
L 290.775041 46.706849 
L 294.181671 50.521074 
L 297.5883 54.163631 
L 300.99493 57.642246 
L 304.401559 60.964297 
L 307.808189 64.136832 
L 311.214818 67.166579 
L 314.621448 70.059964 
L 318.028078 72.823126 
L 321.434707 75.461926 
L 324.841337 77.981959 
L 328.247966 80.388573 
L 331.654596 82.686871 
L 335.061225 84.881728 
L 338.467855 86.977801 
L 341.874484 88.979535 
L 345.281114 90.891176 
L 348.687743 92.716779 
L 352.094373 94.460216 
L 355.501002 96.125186 
L 358.907632 97.71522 
L 362.314262 99.23369 
L 365.720891 100.683818 
L 369.127521 102.06868 
L 372.53415 103.391212 
L 375.94078 104.654221 
L 379.347409 105.860385 
L 382.754039 107.012263 
L 386.160668 108.112297 
L 389.567298 109.162822 
L 392.973927 110.166066 
L 396.380557 111.124156 
L 399.787186 112.039125 
L 403.193816 112.912913 
L 406.600446 113.747375 
L 410.007075 114.544279 
L 413.413705 115.305317 
L 416.820334 116.032103 
L 420.226964 116.726178 
L 423.633593 117.389014 
L 427.040223 118.022018 
L 430.446852 118.626532 
L 433.853482 119.203838 
L 437.260111 119.755162 
L 440.666741 120.281671 
L 444.07337 120.784484 
L 447.48 121.264667 
" style="fill:none;stroke:#1f77b4;stroke-linecap:square;stroke-width:1.5;"/>
   </g>
   <g id="patch_8">
    <path d="M 280.555153 129.976 
L 280.555153 25.44 
" style="fill:none;stroke:#000000;stroke-linecap:square;stroke-linejoin:miter;stroke-width:0.8;"/>
   </g>
   <g id="patch_9">
    <path d="M 447.48 129.976 
L 447.48 25.44 
" style="fill:none;stroke:#000000;stroke-linecap:square;stroke-linejoin:miter;stroke-width:0.8;"/>
   </g>
   <g id="patch_10">
    <path d="M 280.555153 129.976 
L 447.48 129.976 
" style="fill:none;stroke:#000000;stroke-linecap:square;stroke-linejoin:miter;stroke-width:0.8;"/>
   </g>
   <g id="patch_11">
    <path d="M 280.555153 25.44 
L 447.48 25.44 
" style="fill:none;stroke:#000000;stroke-linecap:square;stroke-linejoin:miter;stroke-width:0.8;"/>
   </g>
   <g id="text_26">
    <!-- Función de Transferencia -->
    <defs>
     <path d="M 9.8125 72.90625 
L 51.703125 72.90625 
L 51.703125 64.59375 
L 19.671875 64.59375 
L 19.671875 43.109375 
L 48.578125 43.109375 
L 48.578125 34.8125 
L 19.671875 34.8125 
L 19.671875 0 
L 9.8125 0 
z
" id="DejaVuSans-70"/>
     <path d="M 8.5 21.578125 
L 8.5 54.6875 
L 17.484375 54.6875 
L 17.484375 21.921875 
Q 17.484375 14.15625 20.5 10.265625 
Q 23.53125 6.390625 29.59375 6.390625 
Q 36.859375 6.390625 41.078125 11.03125 
Q 45.3125 15.671875 45.3125 23.6875 
L 45.3125 54.6875 
L 54.296875 54.6875 
L 54.296875 0 
L 45.3125 0 
L 45.3125 8.40625 
Q 42.046875 3.421875 37.71875 1 
Q 33.40625 -1.421875 27.6875 -1.421875 
Q 18.265625 -1.421875 13.375 4.4375 
Q 8.5 10.296875 8.5 21.578125 
z
M 31.109375 56 
z
" id="DejaVuSans-117"/>
     <path d="M 48.78125 52.59375 
L 48.78125 44.1875 
Q 44.96875 46.296875 41.140625 47.34375 
Q 37.3125 48.390625 33.40625 48.390625 
Q 24.65625 48.390625 19.8125 42.84375 
Q 14.984375 37.3125 14.984375 27.296875 
Q 14.984375 17.28125 19.8125 11.734375 
Q 24.65625 6.203125 33.40625 6.203125 
Q 37.3125 6.203125 41.140625 7.25 
Q 44.96875 8.296875 48.78125 10.40625 
L 48.78125 2.09375 
Q 45.015625 0.34375 40.984375 -0.53125 
Q 36.96875 -1.421875 32.421875 -1.421875 
Q 20.0625 -1.421875 12.78125 6.34375 
Q 5.515625 14.109375 5.515625 27.296875 
Q 5.515625 40.671875 12.859375 48.328125 
Q 20.21875 56 33.015625 56 
Q 37.15625 56 41.109375 55.140625 
Q 45.0625 54.296875 48.78125 52.59375 
z
" id="DejaVuSans-99"/>
     <path d="M 30.609375 48.390625 
Q 23.390625 48.390625 19.1875 42.75 
Q 14.984375 37.109375 14.984375 27.296875 
Q 14.984375 17.484375 19.15625 11.84375 
Q 23.34375 6.203125 30.609375 6.203125 
Q 37.796875 6.203125 41.984375 11.859375 
Q 46.1875 17.53125 46.1875 27.296875 
Q 46.1875 37.015625 41.984375 42.703125 
Q 37.796875 48.390625 30.609375 48.390625 
z
M 30.609375 56 
Q 42.328125 56 49.015625 48.375 
Q 55.71875 40.765625 55.71875 27.296875 
Q 55.71875 13.875 49.015625 6.21875 
Q 42.328125 -1.421875 30.609375 -1.421875 
Q 18.84375 -1.421875 12.171875 6.21875 
Q 5.515625 13.875 5.515625 27.296875 
Q 5.515625 40.765625 12.171875 48.375 
Q 18.84375 56 30.609375 56 
z
M 37.40625 79.984375 
L 47.125 79.984375 
L 31.203125 61.625 
L 23.734375 61.625 
z
" id="DejaVuSans-243"/>
     <path d="M 44.28125 53.078125 
L 44.28125 44.578125 
Q 40.484375 46.53125 36.375 47.5 
Q 32.28125 48.484375 27.875 48.484375 
Q 21.1875 48.484375 17.84375 46.4375 
Q 14.5 44.390625 14.5 40.28125 
Q 14.5 37.15625 16.890625 35.375 
Q 19.28125 33.59375 26.515625 31.984375 
L 29.59375 31.296875 
Q 39.15625 29.25 43.1875 25.515625 
Q 47.21875 21.78125 47.21875 15.09375 
Q 47.21875 7.46875 41.1875 3.015625 
Q 35.15625 -1.421875 24.609375 -1.421875 
Q 20.21875 -1.421875 15.453125 -0.5625 
Q 10.6875 0.296875 5.421875 2 
L 5.421875 11.28125 
Q 10.40625 8.6875 15.234375 7.390625 
Q 20.0625 6.109375 24.8125 6.109375 
Q 31.15625 6.109375 34.5625 8.28125 
Q 37.984375 10.453125 37.984375 14.40625 
Q 37.984375 18.0625 35.515625 20.015625 
Q 33.0625 21.96875 24.703125 23.78125 
L 21.578125 24.515625 
Q 13.234375 26.265625 9.515625 29.90625 
Q 5.8125 33.546875 5.8125 39.890625 
Q 5.8125 47.609375 11.28125 51.796875 
Q 16.75 56 26.8125 56 
Q 31.78125 56 36.171875 55.265625 
Q 40.578125 54.546875 44.28125 53.078125 
z
" id="DejaVuSans-115"/>
     <path d="M 37.109375 75.984375 
L 37.109375 68.5 
L 28.515625 68.5 
Q 23.6875 68.5 21.796875 66.546875 
Q 19.921875 64.59375 19.921875 59.515625 
L 19.921875 54.6875 
L 34.71875 54.6875 
L 34.71875 47.703125 
L 19.921875 47.703125 
L 19.921875 0 
L 10.890625 0 
L 10.890625 47.703125 
L 2.296875 47.703125 
L 2.296875 54.6875 
L 10.890625 54.6875 
L 10.890625 58.5 
Q 10.890625 67.625 15.140625 71.796875 
Q 19.390625 75.984375 28.609375 75.984375 
z
" id="DejaVuSans-102"/>
    </defs>
    <g transform="translate(288.082889 19.44)scale(0.12 -0.12)">
     <use xlink:href="#DejaVuSans-70"/>
     <use x="57.441406" xlink:href="#DejaVuSans-117"/>
     <use x="120.820312" xlink:href="#DejaVuSans-110"/>
     <use x="184.199219" xlink:href="#DejaVuSans-99"/>
     <use x="239.179688" xlink:href="#DejaVuSans-105"/>
     <use x="266.962891" xlink:href="#DejaVuSans-243"/>
     <use x="328.144531" xlink:href="#DejaVuSans-110"/>
     <use x="391.523438" xlink:href="#DejaVuSans-32"/>
     <use x="423.310547" xlink:href="#DejaVuSans-100"/>
     <use x="486.787109" xlink:href="#DejaVuSans-101"/>
     <use x="548.310547" xlink:href="#DejaVuSans-32"/>
     <use x="580.097656" xlink:href="#DejaVuSans-84"/>
     <use x="640.962891" xlink:href="#DejaVuSans-114"/>
     <use x="682.076172" xlink:href="#DejaVuSans-97"/>
     <use x="743.355469" xlink:href="#DejaVuSans-110"/>
     <use x="806.734375" xlink:href="#DejaVuSans-115"/>
     <use x="858.833984" xlink:href="#DejaVuSans-102"/>
     <use x="894.039062" xlink:href="#DejaVuSans-101"/>
     <use x="955.5625" xlink:href="#DejaVuSans-114"/>
     <use x="996.644531" xlink:href="#DejaVuSans-101"/>
     <use x="1058.167969" xlink:href="#DejaVuSans-110"/>
     <use x="1121.546875" xlink:href="#DejaVuSans-99"/>
     <use x="1176.527344" xlink:href="#DejaVuSans-105"/>
     <use x="1204.310547" xlink:href="#DejaVuSans-97"/>
    </g>
   </g>
  </g>
  <g id="axes_3">
   <g id="patch_12">
    <path d="M 56.09 303.64 
L 223.014847 303.64 
L 223.014847 199.104 
L 56.09 199.104 
z
" style="fill:#ffffff;"/>
   </g>
   <g id="matplotlib.axis_5">
    <g id="xtick_12">
     <g id="line2d_44">
      <path clip-path="url(#p86dd017f6b)" d="M 56.09 303.64 
L 56.09 199.104 
" style="fill:none;stroke:#b0b0b0;stroke-linecap:square;stroke-width:0.8;"/>
     </g>
     <g id="line2d_45">
      <g>
       <use style="stroke:#000000;stroke-width:0.8;" x="56.09" xlink:href="#mdab3eba101" y="303.64"/>
      </g>
     </g>
     <g id="text_27">
      <!-- 0 -->
      <g transform="translate(52.90875 318.238437)scale(0.1 -0.1)">
       <use xlink:href="#DejaVuSans-48"/>
      </g>
     </g>
    </g>
    <g id="xtick_13">
     <g id="line2d_46">
      <path clip-path="url(#p86dd017f6b)" d="M 117.011477 303.64 
L 117.011477 199.104 
" style="fill:none;stroke:#b0b0b0;stroke-linecap:square;stroke-width:0.8;"/>
     </g>
     <g id="line2d_47">
      <g>
       <use style="stroke:#000000;stroke-width:0.8;" x="117.011477" xlink:href="#mdab3eba101" y="303.64"/>
      </g>
     </g>
     <g id="text_28">
      <!-- 200 -->
      <g transform="translate(107.467727 318.238437)scale(0.1 -0.1)">
       <use xlink:href="#DejaVuSans-50"/>
       <use x="63.623047" xlink:href="#DejaVuSans-48"/>
       <use x="127.246094" xlink:href="#DejaVuSans-48"/>
      </g>
     </g>
    </g>
    <g id="xtick_14">
     <g id="line2d_48">
      <path clip-path="url(#p86dd017f6b)" d="M 177.932954 303.64 
L 177.932954 199.104 
" style="fill:none;stroke:#b0b0b0;stroke-linecap:square;stroke-width:0.8;"/>
     </g>
     <g id="line2d_49">
      <g>
       <use style="stroke:#000000;stroke-width:0.8;" x="177.932954" xlink:href="#mdab3eba101" y="303.64"/>
      </g>
     </g>
     <g id="text_29">
      <!-- 400 -->
      <g transform="translate(168.389204 318.238437)scale(0.1 -0.1)">
       <use xlink:href="#DejaVuSans-52"/>
       <use x="63.623047" xlink:href="#DejaVuSans-48"/>
       <use x="127.246094" xlink:href="#DejaVuSans-48"/>
      </g>
     </g>
    </g>
    <g id="text_30">
     <!-- Tiempo (t) -->
     <g transform="translate(113.480549 331.916562)scale(0.1 -0.1)">
      <use xlink:href="#DejaVuSans-84"/>
      <use x="61.037109" xlink:href="#DejaVuSans-105"/>
      <use x="88.820312" xlink:href="#DejaVuSans-101"/>
      <use x="150.34375" xlink:href="#DejaVuSans-109"/>
      <use x="247.755859" xlink:href="#DejaVuSans-112"/>
      <use x="311.232422" xlink:href="#DejaVuSans-111"/>
      <use x="372.414062" xlink:href="#DejaVuSans-32"/>
      <use x="404.201172" xlink:href="#DejaVuSans-40"/>
      <use x="443.214844" xlink:href="#DejaVuSans-116"/>
      <use x="482.423828" xlink:href="#DejaVuSans-41"/>
     </g>
    </g>
   </g>
   <g id="matplotlib.axis_6">
    <g id="ytick_10">
     <g id="line2d_50">
      <path clip-path="url(#p86dd017f6b)" d="M 56.09 288.495736 
L 223.014847 288.495736 
" style="fill:none;stroke:#b0b0b0;stroke-linecap:square;stroke-width:0.8;"/>
     </g>
     <g id="line2d_51">
      <g>
       <use style="stroke:#000000;stroke-width:0.8;" x="56.09" xlink:href="#m394b9bfc69" y="288.495736"/>
      </g>
     </g>
     <g id="text_31">
      <!-- −10 -->
      <g transform="translate(27.985313 292.294955)scale(0.1 -0.1)">
       <use xlink:href="#DejaVuSans-8722"/>
       <use x="83.789062" xlink:href="#DejaVuSans-49"/>
       <use x="147.412109" xlink:href="#DejaVuSans-48"/>
      </g>
     </g>
    </g>
    <g id="ytick_11">
     <g id="line2d_52">
      <path clip-path="url(#p86dd017f6b)" d="M 56.09 251.372152 
L 223.014847 251.372152 
" style="fill:none;stroke:#b0b0b0;stroke-linecap:square;stroke-width:0.8;"/>
     </g>
     <g id="line2d_53">
      <g>
       <use style="stroke:#000000;stroke-width:0.8;" x="56.09" xlink:href="#m394b9bfc69" y="251.372152"/>
      </g>
     </g>
     <g id="text_32">
      <!-- 0 -->
      <g transform="translate(42.7275 255.171371)scale(0.1 -0.1)">
       <use xlink:href="#DejaVuSans-48"/>
      </g>
     </g>
    </g>
    <g id="ytick_12">
     <g id="line2d_54">
      <path clip-path="url(#p86dd017f6b)" d="M 56.09 214.248567 
L 223.014847 214.248567 
" style="fill:none;stroke:#b0b0b0;stroke-linecap:square;stroke-width:0.8;"/>
     </g>
     <g id="line2d_55">
      <g>
       <use style="stroke:#000000;stroke-width:0.8;" x="56.09" xlink:href="#m394b9bfc69" y="214.248567"/>
      </g>
     </g>
     <g id="text_33">
      <!-- 10 -->
      <g transform="translate(36.365 218.047786)scale(0.1 -0.1)">
       <use xlink:href="#DejaVuSans-49"/>
       <use x="63.623047" xlink:href="#DejaVuSans-48"/>
      </g>
     </g>
    </g>
    <g id="text_34">
     <!-- Valor -->
     <g transform="translate(21.905625 264.354812)rotate(-90)scale(0.1 -0.1)">
      <use xlink:href="#DejaVuSans-86"/>
      <use x="68.298828" xlink:href="#DejaVuSans-97"/>
      <use x="129.578125" xlink:href="#DejaVuSans-108"/>
      <use x="157.361328" xlink:href="#DejaVuSans-111"/>
      <use x="218.542969" xlink:href="#DejaVuSans-114"/>
     </g>
    </g>
   </g>
   <g id="line2d_56">
    <path clip-path="url(#p86dd017f6b)" d="M 56.09 255.08451 
L 57.003822 264.382559 
L 57.917644 271.201061 
L 58.526859 274.528963 
L 59.136074 276.982272 
L 59.745289 278.637942 
L 60.354503 279.566157 
L 60.659111 279.777698 
L 60.963718 279.830925 
L 61.268326 279.732965 
L 61.87754 279.110394 
L 62.486755 277.960829 
L 63.09597 276.330639 
L 64.009792 273.075664 
L 64.923614 268.960938 
L 66.142044 262.326896 
L 67.665081 252.497921 
L 69.492725 238.910043 
L 71.015762 226.417924 
L 71.929584 218.456555 
L 72.843406 212.930229 
L 73.452621 210.44192 
L 74.061836 208.812506 
L 74.671051 207.966415 
L 74.975658 207.815333 
L 75.280265 207.834722 
L 75.584873 208.01691 
L 76.194087 208.840702 
L 76.803302 210.231961 
L 77.412517 212.140755 
L 78.326339 215.875819 
L 79.240161 220.536661 
L 80.458591 227.987002 
L 81.981628 238.954345 
L 83.809272 254.045971 
L 85.941524 273.676611 
L 87.159953 284.499966 
L 88.073776 289.951984 
L 88.68299 292.396161 
L 89.292205 293.985325 
L 89.90142 294.794709 
L 90.206027 294.928667 
L 90.510635 294.892924 
L 90.815242 294.695119 
L 91.424457 293.842169 
L 92.033672 292.424319 
L 92.642886 290.491272 
L 93.556708 286.723771 
L 94.470531 282.034678 
L 95.68896 274.552256 
L 97.211997 263.552292 
L 99.039641 248.430249 
L 101.171893 228.773274 
L 102.390323 218.03212 
L 102.999537 214.198967 
L 103.608752 211.343042 
L 104.217967 209.378359 
L 104.827182 208.226498 
L 105.131789 207.932774 
L 105.436397 207.81594 
L 105.741004 207.868037 
L 106.045611 208.081459 
L 106.654826 208.963566 
L 107.264041 210.408009 
L 107.873256 212.365309 
L 108.787078 216.165246 
L 109.7009 220.88259 
L 110.919329 228.397093 
L 112.442366 239.429679 
L 114.270011 254.582137 
L 116.402262 274.265448 
L 117.316085 282.639387 
L 118.229907 288.706883 
L 118.839121 291.516597 
L 119.448336 293.439134 
L 120.057551 294.552557 
L 120.362158 294.82835 
L 120.666766 294.92806 
L 120.971373 294.85961 
L 121.275981 294.63057 
L 121.885195 293.719305 
L 122.49441 292.24827 
L 123.103625 290.266718 
L 124.017447 286.434344 
L 124.931269 281.688748 
L 126.149699 274.142165 
L 127.672736 263.076958 
L 129.50038 247.894084 
L 131.632632 228.184437 
L 132.546454 219.865559 
L 133.460276 213.875873 
L 134.069491 211.112372 
L 134.678706 209.23198 
L 135.28792 208.156995 
L 135.592528 207.899133 
L 135.897135 207.816548 
L 136.201742 207.901351 
L 136.50635 208.146008 
L 137.115565 209.086431 
L 137.724779 210.584058 
L 138.638602 213.7692 
L 139.552424 217.951079 
L 140.770853 224.857533 
L 141.989283 233.049261 
L 143.51232 244.770479 
L 145.339964 260.56502 
L 148.081431 285.348836 
L 148.690645 289.029977 
L 149.29986 291.747267 
L 149.909075 293.585512 
L 150.51829 294.622061 
L 150.822897 294.861991 
L 151.127504 294.927452 
L 151.432112 294.826296 
L 151.736719 294.566021 
L 152.345934 293.596441 
L 152.955149 292.072221 
L 153.868971 288.851513 
L 154.782793 284.638657 
L 156.001223 277.697027 
L 157.219652 269.476041 
L 158.742689 257.725072 
L 160.570333 241.902791 
L 163.3118 217.18325 
L 163.921015 213.552779 
L 164.530229 210.881702 
L 165.139444 209.085602 
L 165.748659 208.087491 
L 166.053266 207.865492 
L 166.357874 207.817155 
L 166.662481 207.934665 
L 166.967088 208.210557 
L 167.576303 209.209295 
L 168.185518 210.760107 
L 169.09934 214.016381 
L 170.013162 218.260214 
L 171.231592 225.23702 
L 172.450021 233.487264 
L 173.973058 245.267984 
L 175.800703 261.118004 
L 178.542169 285.773271 
L 179.151384 289.353071 
L 179.760599 291.977937 
L 180.369813 293.731891 
L 180.979028 294.691564 
L 181.283636 294.895633 
L 181.588243 294.926845 
L 181.89285 294.792982 
L 182.502065 294.059412 
L 183.11128 292.750436 
L 183.720495 290.916685 
L 184.634317 287.281989 
L 185.548139 282.708564 
L 186.766569 275.357488 
L 188.289605 264.491084 
L 190.11725 249.493572 
L 192.249501 229.944423 
L 193.467931 218.90813 
L 194.381753 213.229685 
L 194.990968 210.651032 
L 195.600183 208.939224 
L 196.209397 208.017987 
L 196.514005 207.83185 
L 196.818612 207.817762 
L 197.12322 207.967979 
L 197.732434 208.732081 
L 198.341649 210.068902 
L 198.950864 211.928049 
L 199.864686 215.59671 
L 200.778508 220.199718 
L 201.996938 227.584386 
L 203.519975 238.484949 
L 205.347619 253.51431 
L 207.479871 273.091036 
L 208.089086 279.004193 
L 209.612122 274.814071 
L 211.439767 270.464863 
L 213.267411 266.686774 
L 215.399663 262.818817 
L 217.836522 258.915252 
L 220.577988 254.981025 
L 223.014847 251.760883 
L 223.014847 251.760883 
" style="fill:none;stroke:#1f77b4;stroke-linecap:square;stroke-width:1.5;"/>
   </g>
   <g id="patch_13">
    <path d="M 56.09 303.64 
L 56.09 199.104 
" style="fill:none;stroke:#000000;stroke-linecap:square;stroke-linejoin:miter;stroke-width:0.8;"/>
   </g>
   <g id="patch_14">
    <path d="M 223.014847 303.64 
L 223.014847 199.104 
" style="fill:none;stroke:#000000;stroke-linecap:square;stroke-linejoin:miter;stroke-width:0.8;"/>
   </g>
   <g id="patch_15">
    <path d="M 56.09 303.64 
L 223.014847 303.64 
" style="fill:none;stroke:#000000;stroke-linecap:square;stroke-linejoin:miter;stroke-width:0.8;"/>
   </g>
   <g id="patch_16">
    <path d="M 56.09 199.104 
L 223.014847 199.104 
" style="fill:none;stroke:#000000;stroke-linecap:square;stroke-linejoin:miter;stroke-width:0.8;"/>
   </g>
   <g id="text_35">
    <!-- Convolución Original -->
    <defs>
     <path d="M 64.40625 67.28125 
L 64.40625 56.890625 
Q 59.421875 61.53125 53.78125 63.8125 
Q 48.140625 66.109375 41.796875 66.109375 
Q 29.296875 66.109375 22.65625 58.46875 
Q 16.015625 50.828125 16.015625 36.375 
Q 16.015625 21.96875 22.65625 14.328125 
Q 29.296875 6.6875 41.796875 6.6875 
Q 48.140625 6.6875 53.78125 8.984375 
Q 59.421875 11.28125 64.40625 15.921875 
L 64.40625 5.609375 
Q 59.234375 2.09375 53.4375 0.328125 
Q 47.65625 -1.421875 41.21875 -1.421875 
Q 24.65625 -1.421875 15.125 8.703125 
Q 5.609375 18.84375 5.609375 36.375 
Q 5.609375 53.953125 15.125 64.078125 
Q 24.65625 74.21875 41.21875 74.21875 
Q 47.75 74.21875 53.53125 72.484375 
Q 59.328125 70.75 64.40625 67.28125 
z
" id="DejaVuSans-67"/>
     <path d="M 2.984375 54.6875 
L 12.5 54.6875 
L 29.59375 8.796875 
L 46.6875 54.6875 
L 56.203125 54.6875 
L 35.6875 0 
L 23.484375 0 
z
" id="DejaVuSans-118"/>
     <path d="M 39.40625 66.21875 
Q 28.65625 66.21875 22.328125 58.203125 
Q 16.015625 50.203125 16.015625 36.375 
Q 16.015625 22.609375 22.328125 14.59375 
Q 28.65625 6.59375 39.40625 6.59375 
Q 50.140625 6.59375 56.421875 14.59375 
Q 62.703125 22.609375 62.703125 36.375 
Q 62.703125 50.203125 56.421875 58.203125 
Q 50.140625 66.21875 39.40625 66.21875 
z
M 39.40625 74.21875 
Q 54.734375 74.21875 63.90625 63.9375 
Q 73.09375 53.65625 73.09375 36.375 
Q 73.09375 19.140625 63.90625 8.859375 
Q 54.734375 -1.421875 39.40625 -1.421875 
Q 24.03125 -1.421875 14.8125 8.828125 
Q 5.609375 19.09375 5.609375 36.375 
Q 5.609375 53.65625 14.8125 63.9375 
Q 24.03125 74.21875 39.40625 74.21875 
z
" id="DejaVuSans-79"/>
     <path d="M 45.40625 27.984375 
Q 45.40625 37.75 41.375 43.109375 
Q 37.359375 48.484375 30.078125 48.484375 
Q 22.859375 48.484375 18.828125 43.109375 
Q 14.796875 37.75 14.796875 27.984375 
Q 14.796875 18.265625 18.828125 12.890625 
Q 22.859375 7.515625 30.078125 7.515625 
Q 37.359375 7.515625 41.375 12.890625 
Q 45.40625 18.265625 45.40625 27.984375 
z
M 54.390625 6.78125 
Q 54.390625 -7.171875 48.1875 -13.984375 
Q 42 -20.796875 29.203125 -20.796875 
Q 24.46875 -20.796875 20.265625 -20.09375 
Q 16.0625 -19.390625 12.109375 -17.921875 
L 12.109375 -9.1875 
Q 16.0625 -11.328125 19.921875 -12.34375 
Q 23.78125 -13.375 27.78125 -13.375 
Q 36.625 -13.375 41.015625 -8.765625 
Q 45.40625 -4.15625 45.40625 5.171875 
L 45.40625 9.625 
Q 42.625 4.78125 38.28125 2.390625 
Q 33.9375 0 27.875 0 
Q 17.828125 0 11.671875 7.65625 
Q 5.515625 15.328125 5.515625 27.984375 
Q 5.515625 40.671875 11.671875 48.328125 
Q 17.828125 56 27.875 56 
Q 33.9375 56 38.28125 53.609375 
Q 42.625 51.21875 45.40625 46.390625 
L 45.40625 54.6875 
L 54.390625 54.6875 
z
" id="DejaVuSans-103"/>
    </defs>
    <g transform="translate(77.371799 193.104)scale(0.12 -0.12)">
     <use xlink:href="#DejaVuSans-67"/>
     <use x="69.824219" xlink:href="#DejaVuSans-111"/>
     <use x="131.005859" xlink:href="#DejaVuSans-110"/>
     <use x="194.384766" xlink:href="#DejaVuSans-118"/>
     <use x="253.564453" xlink:href="#DejaVuSans-111"/>
     <use x="314.746094" xlink:href="#DejaVuSans-108"/>
     <use x="342.529297" xlink:href="#DejaVuSans-117"/>
     <use x="405.908203" xlink:href="#DejaVuSans-99"/>
     <use x="460.888672" xlink:href="#DejaVuSans-105"/>
     <use x="488.671875" xlink:href="#DejaVuSans-243"/>
     <use x="549.853516" xlink:href="#DejaVuSans-110"/>
     <use x="613.232422" xlink:href="#DejaVuSans-32"/>
     <use x="645.019531" xlink:href="#DejaVuSans-79"/>
     <use x="723.730469" xlink:href="#DejaVuSans-114"/>
     <use x="764.84375" xlink:href="#DejaVuSans-105"/>
     <use x="792.626953" xlink:href="#DejaVuSans-103"/>
     <use x="856.103516" xlink:href="#DejaVuSans-105"/>
     <use x="883.886719" xlink:href="#DejaVuSans-110"/>
     <use x="947.265625" xlink:href="#DejaVuSans-97"/>
     <use x="1008.544922" xlink:href="#DejaVuSans-108"/>
    </g>
   </g>
  </g>
  <g id="axes_4">
   <g id="patch_17">
    <path d="M 280.555153 303.64 
L 447.48 303.64 
L 447.48 199.104 
L 280.555153 199.104 
z
" style="fill:#ffffff;"/>
   </g>
   <g id="matplotlib.axis_7">
    <g id="xtick_15">
     <g id="line2d_57">
      <path clip-path="url(#p965aefa6ea)" d="M 280.555153 303.64 
L 280.555153 199.104 
" style="fill:none;stroke:#b0b0b0;stroke-linecap:square;stroke-width:0.8;"/>
     </g>
     <g id="line2d_58">
      <g>
       <use style="stroke:#000000;stroke-width:0.8;" x="280.555153" xlink:href="#mdab3eba101" y="303.64"/>
      </g>
     </g>
     <g id="text_36">
      <!-- 0 -->
      <g transform="translate(277.373903 318.238437)scale(0.1 -0.1)">
       <use xlink:href="#DejaVuSans-48"/>
      </g>
     </g>
    </g>
    <g id="xtick_16">
     <g id="line2d_59">
      <path clip-path="url(#p965aefa6ea)" d="M 332.075167 303.64 
L 332.075167 199.104 
" style="fill:none;stroke:#b0b0b0;stroke-linecap:square;stroke-width:0.8;"/>
     </g>
     <g id="line2d_60">
      <g>
       <use style="stroke:#000000;stroke-width:0.8;" x="332.075167" xlink:href="#mdab3eba101" y="303.64"/>
      </g>
     </g>
     <g id="text_37">
      <!-- 200 -->
      <g transform="translate(322.531417 318.238437)scale(0.1 -0.1)">
       <use xlink:href="#DejaVuSans-50"/>
       <use x="63.623047" xlink:href="#DejaVuSans-48"/>
       <use x="127.246094" xlink:href="#DejaVuSans-48"/>
      </g>
     </g>
    </g>
    <g id="xtick_17">
     <g id="line2d_61">
      <path clip-path="url(#p965aefa6ea)" d="M 383.595182 303.64 
L 383.595182 199.104 
" style="fill:none;stroke:#b0b0b0;stroke-linecap:square;stroke-width:0.8;"/>
     </g>
     <g id="line2d_62">
      <g>
       <use style="stroke:#000000;stroke-width:0.8;" x="383.595182" xlink:href="#mdab3eba101" y="303.64"/>
      </g>
     </g>
     <g id="text_38">
      <!-- 400 -->
      <g transform="translate(374.051432 318.238437)scale(0.1 -0.1)">
       <use xlink:href="#DejaVuSans-52"/>
       <use x="63.623047" xlink:href="#DejaVuSans-48"/>
       <use x="127.246094" xlink:href="#DejaVuSans-48"/>
      </g>
     </g>
    </g>
    <g id="xtick_18">
     <g id="line2d_63">
      <path clip-path="url(#p965aefa6ea)" d="M 435.115196 303.64 
L 435.115196 199.104 
" style="fill:none;stroke:#b0b0b0;stroke-linecap:square;stroke-width:0.8;"/>
     </g>
     <g id="line2d_64">
      <g>
       <use style="stroke:#000000;stroke-width:0.8;" x="435.115196" xlink:href="#mdab3eba101" y="303.64"/>
      </g>
     </g>
     <g id="text_39">
      <!-- 600 -->
      <defs>
       <path d="M 33.015625 40.375 
Q 26.375 40.375 22.484375 35.828125 
Q 18.609375 31.296875 18.609375 23.390625 
Q 18.609375 15.53125 22.484375 10.953125 
Q 26.375 6.390625 33.015625 6.390625 
Q 39.65625 6.390625 43.53125 10.953125 
Q 47.40625 15.53125 47.40625 23.390625 
Q 47.40625 31.296875 43.53125 35.828125 
Q 39.65625 40.375 33.015625 40.375 
z
M 52.59375 71.296875 
L 52.59375 62.3125 
Q 48.875 64.0625 45.09375 64.984375 
Q 41.3125 65.921875 37.59375 65.921875 
Q 27.828125 65.921875 22.671875 59.328125 
Q 17.53125 52.734375 16.796875 39.40625 
Q 19.671875 43.65625 24.015625 45.921875 
Q 28.375 48.1875 33.59375 48.1875 
Q 44.578125 48.1875 50.953125 41.515625 
Q 57.328125 34.859375 57.328125 23.390625 
Q 57.328125 12.15625 50.6875 5.359375 
Q 44.046875 -1.421875 33.015625 -1.421875 
Q 20.359375 -1.421875 13.671875 8.265625 
Q 6.984375 17.96875 6.984375 36.375 
Q 6.984375 53.65625 15.1875 63.9375 
Q 23.390625 74.21875 37.203125 74.21875 
Q 40.921875 74.21875 44.703125 73.484375 
Q 48.484375 72.75 52.59375 71.296875 
z
" id="DejaVuSans-54"/>
      </defs>
      <g transform="translate(425.571446 318.238437)scale(0.1 -0.1)">
       <use xlink:href="#DejaVuSans-54"/>
       <use x="63.623047" xlink:href="#DejaVuSans-48"/>
       <use x="127.246094" xlink:href="#DejaVuSans-48"/>
      </g>
     </g>
    </g>
    <g id="text_40">
     <!-- Tiempo (t) -->
     <g transform="translate(337.945701 331.916562)scale(0.1 -0.1)">
      <use xlink:href="#DejaVuSans-84"/>
      <use x="61.037109" xlink:href="#DejaVuSans-105"/>
      <use x="88.820312" xlink:href="#DejaVuSans-101"/>
      <use x="150.34375" xlink:href="#DejaVuSans-109"/>
      <use x="247.755859" xlink:href="#DejaVuSans-112"/>
      <use x="311.232422" xlink:href="#DejaVuSans-111"/>
      <use x="372.414062" xlink:href="#DejaVuSans-32"/>
      <use x="404.201172" xlink:href="#DejaVuSans-40"/>
      <use x="443.214844" xlink:href="#DejaVuSans-116"/>
      <use x="482.423828" xlink:href="#DejaVuSans-41"/>
     </g>
    </g>
   </g>
   <g id="matplotlib.axis_8">
    <g id="ytick_13">
     <g id="line2d_65">
      <path clip-path="url(#p965aefa6ea)" d="M 280.555153 277.888998 
L 447.48 277.888998 
" style="fill:none;stroke:#b0b0b0;stroke-linecap:square;stroke-width:0.8;"/>
     </g>
     <g id="line2d_66">
      <g>
       <use style="stroke:#000000;stroke-width:0.8;" x="280.555153" xlink:href="#m394b9bfc69" y="277.888998"/>
      </g>
     </g>
     <g id="text_41">
      <!-- −5 -->
      <g transform="translate(258.812965 281.688217)scale(0.1 -0.1)">
       <use xlink:href="#DejaVuSans-8722"/>
       <use x="83.789062" xlink:href="#DejaVuSans-53"/>
      </g>
     </g>
    </g>
    <g id="ytick_14">
     <g id="line2d_67">
      <path clip-path="url(#p965aefa6ea)" d="M 280.555153 251.372152 
L 447.48 251.372152 
" style="fill:none;stroke:#b0b0b0;stroke-linecap:square;stroke-width:0.8;"/>
     </g>
     <g id="line2d_68">
      <g>
       <use style="stroke:#000000;stroke-width:0.8;" x="280.555153" xlink:href="#m394b9bfc69" y="251.372152"/>
      </g>
     </g>
     <g id="text_42">
      <!-- 0 -->
      <g transform="translate(267.192653 255.171371)scale(0.1 -0.1)">
       <use xlink:href="#DejaVuSans-48"/>
      </g>
     </g>
    </g>
    <g id="ytick_15">
     <g id="line2d_69">
      <path clip-path="url(#p965aefa6ea)" d="M 280.555153 224.855306 
L 447.48 224.855306 
" style="fill:none;stroke:#b0b0b0;stroke-linecap:square;stroke-width:0.8;"/>
     </g>
     <g id="line2d_70">
      <g>
       <use style="stroke:#000000;stroke-width:0.8;" x="280.555153" xlink:href="#m394b9bfc69" y="224.855306"/>
      </g>
     </g>
     <g id="text_43">
      <!-- 5 -->
      <g transform="translate(267.192653 228.654524)scale(0.1 -0.1)">
       <use xlink:href="#DejaVuSans-53"/>
      </g>
     </g>
    </g>
    <g id="text_44">
     <!-- Valor -->
     <g transform="translate(252.733278 264.354812)rotate(-90)scale(0.1 -0.1)">
      <use xlink:href="#DejaVuSans-86"/>
      <use x="68.298828" xlink:href="#DejaVuSans-97"/>
      <use x="129.578125" xlink:href="#DejaVuSans-108"/>
      <use x="157.361328" xlink:href="#DejaVuSans-111"/>
      <use x="218.542969" xlink:href="#DejaVuSans-114"/>
     </g>
    </g>
   </g>
   <g id="line2d_71">
    <path clip-path="url(#p965aefa6ea)" d="M 280.555153 251.372152 
L 306.05756 251.372152 
L 306.83036 261.575817 
L 307.60316 269.183077 
L 308.37596 274.528963 
L 308.891161 276.982272 
L 309.406361 278.637942 
L 309.921561 279.566157 
L 310.179161 279.777698 
L 310.436761 279.830925 
L 310.694361 279.732965 
L 311.209561 279.110394 
L 311.724761 277.960829 
L 312.497562 275.348674 
L 313.270362 271.793821 
L 314.300762 265.795544 
L 315.588763 256.613044 
L 317.134363 243.62794 
L 318.937563 226.417924 
L 319.710364 218.456555 
L 320.483164 212.930229 
L 320.998364 210.44192 
L 321.513564 208.812506 
L 322.028764 207.966415 
L 322.286364 207.815333 
L 322.543965 207.834722 
L 322.801565 208.01691 
L 323.316765 208.840702 
L 323.831965 210.231961 
L 324.604765 213.274837 
L 325.377565 217.332809 
L 326.407966 224.09856 
L 327.695966 234.36978 
L 329.241566 248.81234 
L 331.044767 267.880982 
L 332.590367 284.499966 
L 333.363168 289.951984 
L 333.878368 292.396161 
L 334.393568 293.985325 
L 334.908768 294.794709 
L 335.166368 294.928667 
L 335.423968 294.892924 
L 335.681568 294.695119 
L 336.196768 293.842169 
L 336.711969 292.424319 
L 337.484769 289.345876 
L 338.257569 285.256927 
L 339.287969 278.456 
L 340.57597 268.149012 
L 342.12157 253.673101 
L 343.924771 234.575582 
L 345.470371 218.03212 
L 346.243171 212.654411 
L 346.758371 210.254366 
L 347.273572 208.70545 
L 347.788772 207.932774 
L 348.046372 207.81594 
L 348.303972 207.868037 
L 348.561572 208.081459 
L 349.076772 208.963566 
L 349.591972 210.408009 
L 350.364772 213.522018 
L 351.137573 217.641944 
L 352.167973 224.478047 
L 353.455973 234.820803 
L 355.001574 249.330065 
L 356.804774 268.456461 
L 358.350375 284.924401 
L 359.123175 290.227802 
L 359.638375 292.583715 
L 360.153575 294.092382 
L 360.668775 294.82835 
L 360.926375 294.92806 
L 361.183975 294.85961 
L 361.441576 294.63057 
L 361.956776 293.719305 
L 362.471976 292.24827 
L 363.244776 289.098694 
L 364.017576 284.947792 
L 365.047977 278.076514 
L 366.335977 267.697988 
L 367.881577 253.155377 
L 369.684778 234.000104 
L 371.230378 217.607685 
L 372.003179 212.378593 
L 372.518379 210.066812 
L 373.033579 208.598394 
L 373.548779 207.899133 
L 373.806379 207.816548 
L 374.063979 207.901351 
L 374.579179 208.543325 
L 375.094379 209.768764 
L 375.60958 211.526329 
L 376.38238 215.059129 
L 377.41278 221.22852 
L 378.44318 228.807185 
L 379.731181 239.905012 
L 381.276781 255.118303 
L 383.337582 277.814054 
L 384.110382 285.348836 
L 384.883182 290.50362 
L 385.398382 292.771269 
L 385.913583 294.199438 
L 386.428783 294.861991 
L 386.686383 294.927452 
L 386.943983 294.826296 
L 387.459183 294.15379 
L 387.974383 292.900505 
L 388.747183 290.042164 
L 389.519984 286.144917 
L 390.550384 279.561676 
L 391.838384 269.476041 
L 393.383985 255.206521 
L 395.187185 236.287706 
L 396.990386 217.18325 
L 397.763186 212.102774 
L 398.278386 209.879258 
L 398.793586 208.491338 
L 399.308786 207.865492 
L 399.566386 207.817155 
L 399.823986 207.934665 
L 400.339187 208.637703 
L 400.854387 209.918833 
L 401.627187 212.814416 
L 402.399987 216.744101 
L 403.430387 223.364175 
L 404.718388 233.487264 
L 406.263988 247.791707 
L 408.067189 266.740759 
L 409.870389 285.773271 
L 410.64319 290.779438 
L 411.15839 292.958823 
L 411.67359 294.306494 
L 412.18879 294.895633 
L 412.44639 294.926845 
L 412.70399 294.792982 
L 413.21919 294.059412 
L 413.73439 292.750436 
L 414.507191 289.817611 
L 415.279991 285.855489 
L 416.310391 279.198582 
L 417.598392 269.038038 
L 419.143992 254.698673 
L 420.947192 235.719383 
L 422.750393 216.758815 
L 423.523193 211.826956 
L 424.038393 209.691704 
L 424.553593 208.384282 
L 425.068794 207.83185 
L 425.326394 207.817762 
L 425.583994 207.967979 
L 426.099194 208.732081 
L 426.614394 210.068902 
L 427.387194 213.03897 
L 428.159995 217.033528 
L 429.190395 223.727269 
L 430.478395 233.925267 
L 432.023996 248.299554 
L 433.827196 267.309082 
L 434.857596 279.004193 
L 436.403197 274.042459 
L 437.948797 269.799723 
L 439.751998 265.529449 
L 441.555198 261.79821 
L 443.615999 258.005407 
L 446.192 253.748316 
L 447.48 251.760883 
L 447.48 251.760883 
" style="fill:none;stroke:#1f77b4;stroke-linecap:square;stroke-width:1.5;"/>
   </g>
   <g id="patch_18">
    <path d="M 280.555153 303.64 
L 280.555153 199.104 
" style="fill:none;stroke:#000000;stroke-linecap:square;stroke-linejoin:miter;stroke-width:0.8;"/>
   </g>
   <g id="patch_19">
    <path d="M 447.48 303.64 
L 447.48 199.104 
" style="fill:none;stroke:#000000;stroke-linecap:square;stroke-linejoin:miter;stroke-width:0.8;"/>
   </g>
   <g id="patch_20">
    <path d="M 280.555153 303.64 
L 447.48 303.64 
" style="fill:none;stroke:#000000;stroke-linecap:square;stroke-linejoin:miter;stroke-width:0.8;"/>
   </g>
   <g id="patch_21">
    <path d="M 280.555153 199.104 
L 447.48 199.104 
" style="fill:none;stroke:#000000;stroke-linecap:square;stroke-linejoin:miter;stroke-width:0.8;"/>
   </g>
   <g id="text_45">
    <!-- Convolución con Factor 0.7 -->
    <g transform="translate(282.278826 179.666625)scale(0.12 -0.12)">
     <use xlink:href="#DejaVuSans-67"/>
     <use x="69.824219" xlink:href="#DejaVuSans-111"/>
     <use x="131.005859" xlink:href="#DejaVuSans-110"/>
     <use x="194.384766" xlink:href="#DejaVuSans-118"/>
     <use x="253.564453" xlink:href="#DejaVuSans-111"/>
     <use x="314.746094" xlink:href="#DejaVuSans-108"/>
     <use x="342.529297" xlink:href="#DejaVuSans-117"/>
     <use x="405.908203" xlink:href="#DejaVuSans-99"/>
     <use x="460.888672" xlink:href="#DejaVuSans-105"/>
     <use x="488.671875" xlink:href="#DejaVuSans-243"/>
     <use x="549.853516" xlink:href="#DejaVuSans-110"/>
     <use x="613.232422" xlink:href="#DejaVuSans-32"/>
     <use x="645.019531" xlink:href="#DejaVuSans-99"/>
     <use x="700" xlink:href="#DejaVuSans-111"/>
     <use x="761.181641" xlink:href="#DejaVuSans-110"/>
     <use x="824.560547" xlink:href="#DejaVuSans-32"/>
     <use x="856.347656" xlink:href="#DejaVuSans-70"/>
     <use x="913.726562" xlink:href="#DejaVuSans-97"/>
     <use x="975.005859" xlink:href="#DejaVuSans-99"/>
     <use x="1029.986328" xlink:href="#DejaVuSans-116"/>
     <use x="1069.195312" xlink:href="#DejaVuSans-111"/>
     <use x="1130.376953" xlink:href="#DejaVuSans-114"/>
     <use x="1171.490234" xlink:href="#DejaVuSans-32"/>
     <use x="1203.277344" xlink:href="#DejaVuSans-48"/>
     <use x="1266.900391" xlink:href="#DejaVuSans-46"/>
     <use x="1298.6875" xlink:href="#DejaVuSans-55"/>
    </g>
    <!-- y Corrimento 100s -->
    <defs>
     <path d="M 32.171875 -5.078125 
Q 28.375 -14.84375 24.75 -17.8125 
Q 21.140625 -20.796875 15.09375 -20.796875 
L 7.90625 -20.796875 
L 7.90625 -13.28125 
L 13.1875 -13.28125 
Q 16.890625 -13.28125 18.9375 -11.515625 
Q 21 -9.765625 23.484375 -3.21875 
L 25.09375 0.875 
L 2.984375 54.6875 
L 12.5 54.6875 
L 29.59375 11.921875 
L 46.6875 54.6875 
L 56.203125 54.6875 
z
" id="DejaVuSans-121"/>
    </defs>
    <g transform="translate(308.252264 193.104)scale(0.12 -0.12)">
     <use xlink:href="#DejaVuSans-121"/>
     <use x="59.179688" xlink:href="#DejaVuSans-32"/>
     <use x="90.966797" xlink:href="#DejaVuSans-67"/>
     <use x="160.791016" xlink:href="#DejaVuSans-111"/>
     <use x="221.972656" xlink:href="#DejaVuSans-114"/>
     <use x="263.070312" xlink:href="#DejaVuSans-114"/>
     <use x="304.183594" xlink:href="#DejaVuSans-105"/>
     <use x="331.966797" xlink:href="#DejaVuSans-109"/>
     <use x="429.378906" xlink:href="#DejaVuSans-101"/>
     <use x="490.902344" xlink:href="#DejaVuSans-110"/>
     <use x="554.28125" xlink:href="#DejaVuSans-116"/>
     <use x="593.490234" xlink:href="#DejaVuSans-111"/>
     <use x="654.671875" xlink:href="#DejaVuSans-32"/>
     <use x="686.458984" xlink:href="#DejaVuSans-49"/>
     <use x="750.082031" xlink:href="#DejaVuSans-48"/>
     <use x="813.705078" xlink:href="#DejaVuSans-48"/>
     <use x="877.328125" xlink:href="#DejaVuSans-115"/>
    </g>
   </g>
  </g>
 </g>
 <defs>
  <clipPath id="p7be6e86166">
   <rect height="104.536" width="166.924847" x="56.09" y="25.44"/>
  </clipPath>
  <clipPath id="p0c845d1a33">
   <rect height="104.536" width="166.924847" x="280.555153" y="25.44"/>
  </clipPath>
  <clipPath id="p86dd017f6b">
   <rect height="104.536" width="166.924847" x="56.09" y="199.104"/>
  </clipPath>
  <clipPath id="p965aefa6ea">
   <rect height="104.536" width="166.924847" x="280.555153" y="199.104"/>
  </clipPath>
 </defs>
</svg>
